<svg width="364" height="257" viewBox="0 0 364 257" fill="none" xmlns="http://www.w3.org/2000/svg">
<path d="M62.7779 74.675C63.6498 73.1407 65.1885 72.0667 67.3427 71.453C69.4968 70.8393 72.3177 70.5324 75.7541 70.5324C79.1904 70.5324 82.0114 70.8904 84.1142 71.6064C86.2171 72.3224 87.7045 73.4987 88.5764 75.0841C89.4483 76.6696 89.9612 78.1527 90.1664 79.4313C90.3203 80.761 90.4229 82.6533 90.4229 85.2104V176.91C90.4229 181.206 89.9099 184.377 88.8328 186.371C87.807 188.417 86.1658 189.747 84.0117 190.411C81.8575 191.076 79.1904 191.383 76.0105 191.383C72.8306 191.383 70.2661 191.127 68.4197 190.565C66.522 190.002 65.1372 189.337 64.1114 188.57C63.1369 187.803 62.4189 186.678 61.9573 185.297C61.2905 183.405 60.9827 180.592 60.9827 176.705V156.606H16.1559C8.41127 156.606 3.8465 154.509 2.4104 150.315C1.84622 148.577 1.58984 146.173 1.58984 143.207C1.58984 140.24 1.74371 138.041 2.10274 136.609L15.8482 81.3747C16.5149 78.8687 17.0792 76.9253 17.5921 75.5956C18.105 74.2659 19.0795 73.0384 20.5669 71.811C22.0543 70.5836 23.9519 70.021 26.2599 70.021C28.5679 70.021 31.1324 70.4301 33.8507 71.1973C41.5441 73.2942 45.4422 76.823 45.4422 81.7327C45.4422 83.4716 45.0318 85.8242 44.2625 88.637C44.1599 88.8416 44.1086 89.0462 44.1086 89.1485L34.0046 129.398H60.9827V84.3922C60.9827 81.8862 61.0853 79.9939 61.2392 78.7664C61.393 77.5902 61.9059 76.2093 62.7779 74.675Z" fill="#F1F3F9"/>
<path d="M76.0107 192.968C72.6256 192.968 70.0099 192.661 67.9583 192.099C65.8554 191.485 64.3168 190.769 63.1371 189.849C61.9062 188.877 60.9829 187.547 60.47 185.808C59.752 183.763 59.393 180.796 59.393 176.756V158.191H16.1048C7.69334 158.191 2.56449 155.736 0.923232 150.878C0.307761 148.934 0 146.428 0 143.309C0 140.189 0.153868 137.939 0.512893 136.353L14.2584 81.0676C14.9252 78.4593 15.5407 76.5159 16.0536 75.135C16.6178 73.5496 17.7974 72.0665 19.4899 70.6856C21.2338 69.2536 23.4905 68.5376 26.1575 68.5376C28.6194 68.5376 31.2865 68.9467 34.1587 69.765C42.5702 72.0665 46.8783 76.1068 46.8783 81.7836C46.8783 83.6759 46.4681 86.0796 45.6475 89.0971L45.5961 89.2505L45.5449 89.4039L45.4936 89.5573L35.9025 127.915H59.3417V84.443C59.3417 81.8347 59.4442 79.9425 59.5981 78.6128C59.8033 77.1808 60.3675 75.6465 61.342 73.9588C62.4191 72.0665 64.2655 70.7367 66.83 70.0207C69.138 69.3559 72.1128 69.049 75.703 69.049C79.3446 69.049 82.3192 69.4582 84.576 70.2253C87.0379 71.0436 88.8331 72.4756 89.9101 74.419C90.8846 76.1579 91.4488 77.8456 91.6539 79.3287C91.8078 80.7096 91.9104 82.653 91.9104 85.3125V177.012C91.9104 181.563 91.3462 184.939 90.1666 187.189C88.9356 189.593 86.9866 191.229 84.4734 191.997C82.2167 192.61 79.3445 192.968 76.0107 192.968ZM26.2089 71.555C24.2599 71.555 22.6698 72.0153 21.4902 73.0382C20.2079 74.061 19.3873 75.135 18.977 76.1579C18.5154 77.4365 17.9512 79.3288 17.2845 81.7836L3.53891 137.018C3.23117 138.297 3.07736 140.393 3.07736 143.257C3.07736 146.07 3.3338 148.321 3.8467 149.906C5.02635 153.333 9.12944 155.123 16.1048 155.123H62.4704V176.756C62.4704 180.438 62.7781 183.149 63.3936 184.837V184.888C63.7526 186.013 64.2655 186.831 65.0348 187.445C65.8555 188.11 67.1376 188.672 68.8302 189.184C70.574 189.695 72.9846 189.951 76.0107 189.951C79.0368 189.951 81.6012 189.644 83.6015 189.03C85.3454 188.468 86.6276 187.445 87.4996 185.757C88.4228 183.967 88.8843 181.001 88.8843 176.961V85.2102C88.8843 82.7553 88.7818 80.8631 88.6279 79.6356C88.474 78.5105 88.0125 77.2319 87.2431 75.7999C86.5251 74.5213 85.3454 73.6519 83.6015 73.0382C81.6525 72.3733 79.0368 72.0665 75.7542 72.0665C72.4204 72.0665 69.7535 72.3733 67.7532 72.9359C66.0094 73.4473 64.7784 74.2656 64.1116 75.4419C63.3423 76.8228 62.8807 77.999 62.7268 79.0219C62.5729 80.147 62.4704 81.9882 62.4704 84.443V130.983H32.0045L42.5188 88.9436C42.57 88.6879 42.6213 88.4322 42.7752 88.1765C43.4933 85.5171 43.8523 83.3691 43.8523 81.7836C43.8523 77.5899 40.416 74.6236 33.3894 72.7313C30.8249 71.9642 28.363 71.555 26.2089 71.555Z" fill="#D6DCE8"/>
<path d="M308.454 74.6753C309.325 73.141 310.864 72.067 313.018 71.4533C315.172 70.8395 317.993 70.5327 321.43 70.5327C324.866 70.5327 327.687 70.8907 329.79 71.6067C331.893 72.3227 333.38 73.499 334.252 75.0844C335.124 76.6698 335.637 78.153 335.842 79.4315C335.996 80.7613 336.099 82.6535 336.099 85.2107V176.91C336.099 181.206 335.586 184.377 334.508 186.371C333.483 188.417 331.841 189.747 329.687 190.412C327.533 191.077 324.866 191.383 321.686 191.383C318.506 191.383 315.942 191.128 314.095 190.565C312.198 190.003 310.813 189.338 309.787 188.571C308.813 187.803 308.095 186.678 307.633 185.297C306.966 183.405 306.658 180.592 306.658 176.705V156.606H261.832C254.087 156.606 249.522 154.509 248.086 150.316C247.522 148.577 247.266 146.173 247.266 143.207C247.266 140.24 247.419 138.041 247.778 136.609L261.524 81.375C262.191 78.869 262.755 76.9255 263.268 75.5958C263.781 74.2661 264.755 73.0387 266.243 71.8112C267.73 70.5838 269.628 70.0212 271.936 70.0212C274.244 70.0212 276.808 70.4304 279.526 71.1975C287.22 73.2944 291.118 76.8232 291.118 81.733C291.118 83.4718 290.707 85.8244 289.938 88.6373C289.836 88.8418 289.784 89.0464 289.784 89.1487L279.68 129.398H306.658V84.3924C306.658 81.8864 306.761 79.9941 306.915 78.7667C307.069 77.5904 307.582 76.2095 308.454 74.6753Z" fill="#F1F3F9"/>
<path d="M321.686 192.969C318.301 192.969 315.686 192.662 313.634 192.099C311.582 191.485 309.992 190.769 308.813 189.849C307.582 188.877 306.659 187.547 306.146 185.809C305.428 183.763 305.069 180.797 305.069 176.756V158.191H261.78C253.369 158.191 248.24 155.737 246.599 150.878C245.983 148.935 245.676 146.429 245.676 143.309C245.676 140.189 245.83 137.939 246.189 136.353L259.934 81.0679C260.601 78.4596 261.216 76.5162 261.729 75.1353C262.345 73.5499 263.473 72.0667 265.166 70.6859C266.909 69.2538 269.166 68.5378 271.833 68.5378C274.295 68.5378 276.962 68.947 279.834 69.7653C288.246 72.0667 292.554 76.107 292.554 81.7839C292.554 83.6762 292.144 86.0799 291.323 89.0973L291.272 89.2507L291.221 89.4042L291.169 89.5576L281.578 127.915H305.017V84.4433C305.017 81.835 305.12 79.9427 305.274 78.613C305.479 77.181 306.043 75.6467 307.018 73.959C308.095 72.0667 309.941 70.737 312.506 70.021C314.814 69.3561 317.788 69.0493 321.379 69.0493C325.02 69.0493 327.995 69.4584 330.252 70.2256C332.714 71.0438 334.509 72.4758 335.586 74.4193C336.56 76.1581 337.124 77.8458 337.33 79.329C337.483 80.7098 337.586 82.6533 337.586 85.3127V177.012C337.586 181.564 337.022 184.939 335.842 187.189C334.611 189.593 332.662 191.23 330.149 191.997C327.892 192.611 325.02 192.969 321.686 192.969ZM271.885 71.5553C269.936 71.5553 268.345 72.0156 267.166 73.0384C265.884 74.0613 265.063 75.1353 264.653 76.1582C264.191 77.4367 263.627 79.329 262.96 81.7839L249.215 137.018C248.907 138.297 248.753 140.394 248.753 143.258C248.753 146.071 249.009 148.321 249.522 149.906C250.702 153.333 254.805 155.123 261.78 155.123H308.146V176.756C308.146 180.439 308.454 183.149 309.069 184.837V184.888C309.428 186.013 309.941 186.831 310.71 187.445C311.531 188.11 312.813 188.673 314.506 189.184C316.25 189.695 318.66 189.951 321.686 189.951C324.712 189.951 327.277 189.644 329.277 189.031C331.021 188.468 332.303 187.445 333.175 185.757C334.098 183.967 334.56 181.001 334.56 176.961V85.2104C334.56 82.7556 334.457 80.8633 334.304 79.6359C334.15 78.5107 333.688 77.2321 332.919 75.8001C332.201 74.5216 331.021 73.6521 329.277 73.0384C327.328 72.3736 324.712 72.0667 321.43 72.0667C318.096 72.0667 315.429 72.3736 313.429 72.9361C311.685 73.4476 310.454 74.2659 309.787 75.4421C309.018 76.823 308.556 77.9993 308.402 79.0221C308.249 80.1473 308.146 81.9884 308.146 84.4433V130.983H277.68L288.194 88.9439C288.246 88.6882 288.297 88.4325 288.451 88.1767C289.169 85.5173 289.528 83.3693 289.528 81.7839C289.528 77.5902 286.092 74.6239 279.065 72.7316C276.501 71.9644 274.039 71.5553 271.885 71.5553Z" fill="#D6DCE8"/>
<path d="M89.9613 237.668L85.0888 236.594L83.9604 231.735C83.9092 231.582 83.7553 231.428 83.6014 231.428C83.4476 231.428 83.2937 231.53 83.2424 231.735L82.1141 236.645L77.2416 237.821C77.0878 237.872 76.9338 238.026 76.9338 238.179C76.9338 238.333 77.0365 238.486 77.2416 238.537L82.1141 239.611L83.2424 244.47C83.2937 244.623 83.4476 244.777 83.6014 244.777C83.7553 244.777 83.9092 244.674 83.9604 244.47L85.0888 239.56L89.9613 238.384C90.1151 238.333 90.2691 238.179 90.2691 238.026C90.2691 237.821 90.1664 237.668 89.9613 237.668Z" fill="#D6DCE8"/>
<path d="M129.044 29.8745L125.454 29.1073L124.633 25.5273C124.582 25.425 124.479 25.3228 124.376 25.3228C124.223 25.3228 124.12 25.425 124.12 25.5273L123.299 29.1073L119.709 29.9768C119.606 30.0279 119.504 30.1302 119.504 30.2325C119.504 30.3859 119.606 30.4882 119.709 30.4882L123.299 31.2553L124.12 34.8353C124.171 34.9376 124.274 35.0399 124.376 35.0399C124.53 35.0399 124.633 34.9376 124.633 34.8353L125.454 31.2553L129.044 30.3859C129.146 30.3348 129.249 30.2325 129.249 30.1302C129.249 30.0279 129.146 29.8745 129.044 29.8745Z" fill="#D6DCE8"/>
<path d="M265.525 249.124L270.961 247.948L272.192 242.527C272.244 242.322 272.398 242.22 272.603 242.22C272.808 242.22 272.962 242.373 273.013 242.527L274.244 247.999L279.681 249.278C279.886 249.329 279.988 249.482 279.988 249.687C279.988 249.891 279.834 250.045 279.629 250.096L274.193 251.272L272.962 256.693C272.91 256.898 272.757 257 272.551 257C272.346 257 272.192 256.847 272.141 256.693L270.91 251.221L265.474 249.943C265.268 249.891 265.166 249.738 265.166 249.533C265.166 249.329 265.32 249.124 265.525 249.124Z" fill="#D6DCE8"/>
<path d="M255.574 225.802L258.395 225.188L259.011 222.376C259.011 222.273 259.113 222.222 259.216 222.222C259.318 222.222 259.421 222.273 259.421 222.376L260.088 225.188L262.909 225.853C263.011 225.853 263.062 225.956 263.062 226.058C263.062 226.16 263.011 226.262 262.909 226.262L260.088 226.876L259.472 229.689C259.472 229.791 259.37 229.842 259.267 229.842C259.165 229.842 259.062 229.791 259.062 229.689L258.395 226.876L255.574 226.211C255.472 226.211 255.42 226.109 255.42 226.007C255.42 225.904 255.472 225.853 255.574 225.802Z" fill="#D6DCE8"/>
<path d="M236.341 15.6048C236.341 15.6048 222.852 10.7974 202.541 20.7191C201.259 21.3328 201.413 23.2251 202.798 23.6343C207.568 24.964 215.364 27.3677 218.544 29.3111L236.341 15.6048Z" fill="#D6DCE8"/>
<path d="M246.445 35.4482C246.445 35.4482 242.393 49.1546 222.39 59.69C221.108 60.3549 219.723 59.1274 220.185 57.7466C221.877 53.1437 224.596 45.4211 224.852 41.6877L246.445 35.4482Z" fill="#D6DCE8"/>
<path d="M221.365 24.1459C219.826 25.4245 218.236 26.7542 216.646 28.1862L224.699 43.9383C226.801 43.478 228.802 43.0177 230.751 42.5063C260.293 34.9882 274.141 23.6856 280.655 15.0936L272.962 0.0576172C262.14 0.211046 244.855 4.76277 221.365 24.1459Z" fill="#F1F3F9"/>
<path d="M263.712 22.1367C267.196 20.3702 268.585 16.1214 266.813 12.6468C265.042 9.17228 260.781 7.78765 257.296 9.55417C253.812 11.3207 252.423 15.5694 254.195 19.0439C255.967 22.5185 260.227 23.9032 263.712 22.1367Z" fill="white"/>
<path d="M280.655 15.0422L272.962 0.00616404C281.783 -0.147265 286.297 2.61446 286.297 2.61446L286.348 2.71673C286.348 2.71673 285.938 7.98446 280.655 15.0422Z" fill="#D6DCE8"/>
<path d="M240.803 25.3732C241.265 26.2427 240.957 27.3167 240.136 27.8281L230.391 33.9653C228.391 35.2438 226.237 36.3178 224.032 37.1873L213.312 41.4321C212.389 41.7901 211.363 41.381 210.901 40.5116C210.44 39.6421 210.748 38.5681 211.568 38.0567L221.313 31.9195C223.314 30.641 225.468 29.567 227.673 28.6975L238.393 24.4527C239.316 24.1458 240.342 24.5038 240.803 25.3732Z" fill="#D6DCE8"/>
<path d="M96.9367 23.7879C96.9367 23.7879 93.8081 15.2471 85.5505 17.5996C85.5505 17.5996 84.5247 5.1719 71.0356 4.40476C57.5465 3.63761 53.3921 14.2242 53.3921 14.2242C53.3921 14.2242 42.0058 8.0359 34.2099 17.5996C34.2099 17.5996 25.3881 17.5996 23.593 23.7879H96.9367Z" fill="white"/>
<path d="M98.424 24.8102H22.2083L22.5673 23.4805C24.3111 17.4456 31.6967 16.6785 33.697 16.5762C40.5185 8.59787 49.9045 11.6153 52.8793 12.8939C54.3667 10.1833 59.4955 2.71644 71.0356 3.3813C82.7296 4.04615 85.6531 13.0985 86.3199 16.3716C92.9362 15.1442 96.7316 20.3607 97.8599 23.4805L98.424 24.8102ZM25.0804 22.7645H95.2955C94.1158 20.6676 91.1411 17.0365 85.807 18.5707L84.6273 18.9287L84.5247 17.7013C84.4734 17.241 83.3963 6.14301 70.9843 5.42701C58.4697 4.71101 54.5205 14.2236 54.3666 14.5816L53.9563 15.6556L52.9305 15.093C52.5202 14.8373 42.1598 9.41616 35.0306 18.2127L34.7228 18.5707H34.2099C34.1073 18.6219 27.4397 18.673 25.0804 22.7645Z" fill="#F1F3F9"/>
<path d="M362.564 44.5006C362.564 44.5006 360.307 38.3635 354.358 40.0512C354.358 40.0512 353.588 31.1523 343.895 30.5897C334.201 30.0272 331.226 37.6475 331.226 37.6475C331.226 37.6475 323.02 33.198 317.429 40.0512C317.429 40.0512 311.07 40.0512 309.787 44.5006H362.564Z" fill="white"/>
<path d="M364 45.5237H308.402L308.761 44.194C310.044 39.7957 315.275 39.1308 316.916 39.0286C321.789 33.454 328.303 35.2951 330.713 36.2668C331.944 34.1188 335.74 29.0557 343.946 29.516C352.255 29.9763 354.563 36.2157 355.127 38.7728C359.897 38.0568 362.666 41.8414 363.487 44.0917L364 45.5237ZM311.428 43.478H360.871C359.897 42.046 357.948 40.1026 354.614 41.0231L353.434 41.3811L353.332 40.1537C353.28 39.8468 352.511 32.1243 343.843 31.6128C334.97 31.1014 332.201 37.9546 332.201 38.0057L331.79 39.0797L330.764 38.5171C330.457 38.3637 323.225 34.5791 318.25 40.6651L317.942 41.0231H317.429C317.378 41.0743 313.275 41.1254 311.428 43.478Z" fill="#F1F3F9"/>
<path d="M206.285 46.2904C206.49 47.7735 206.542 50.2284 201.721 50.9955C201.721 50.9955 199.413 56.3144 193.514 53.9618C193.514 53.9618 193.514 61.0707 185.205 58.667C185.205 58.667 184.026 74.0098 169.819 69.3047C169.819 69.3047 163.92 75.1861 157.971 72.8335C157.971 72.8335 159.15 82.295 149.662 82.295C149.662 82.295 147.303 88.1764 141.353 85.8238C141.353 85.8238 142.533 92.9327 135.455 94.109C135.455 94.109 136.634 102.394 129.557 103.57C129.557 103.57 129.557 113.032 123.658 116.561C123.658 116.561 140.225 126.022 130.787 141.365C130.787 141.365 141.456 144.894 133.147 156.708C133.147 156.708 143.815 159.061 137.865 169.698C137.865 169.698 150.893 172.051 143.764 185.041C143.764 185.041 159.15 181.512 162.689 196.855C162.689 196.855 168.588 195.679 172.178 199.208C172.178 199.208 174.537 193.326 180.487 194.503C180.487 194.503 180.487 181.512 192.335 181.512C192.335 181.512 192.335 172.051 201.823 168.522C201.823 168.522 199.464 159.061 204.182 156.708C204.182 156.708 194.694 140.189 211.312 135.432C211.312 135.432 206.593 129.551 211.312 122.442C211.312 122.442 205.413 118.913 206.593 112.981C206.593 112.981 195.925 109.452 199.464 98.8142C199.464 98.8142 194.745 96.4616 195.925 89.3527C195.925 89.3527 190.027 81.0675 198.284 77.5387C198.284 77.5387 204.182 76.3624 205.413 83.4201C205.413 83.4201 220.8 78.715 220.8 95.2342C220.8 95.2342 231.468 96.4104 227.929 108.224C227.929 108.224 243.316 116.51 226.75 133.029C226.75 133.029 230.289 137.734 226.75 143.667C226.75 143.667 233.879 149.548 225.57 157.833C225.57 157.833 230.289 169.647 217.261 179.109C217.261 179.109 224.39 196.804 204.234 199.208C204.234 199.208 203.054 207.493 194.745 207.493C194.745 207.493 192.386 213.374 187.616 212.198C187.616 212.198 182.897 220.483 174.588 214.551C174.588 214.551 166.28 221.66 158.022 212.198C158.022 212.198 148.533 226.365 134.326 215.727C134.326 215.727 129.608 212.198 129.608 202.737C129.608 202.737 122.479 196.855 124.889 189.746C124.889 189.746 109.502 186.217 111.862 168.471C111.862 168.471 96.4749 157.833 109.502 141.314C109.502 141.314 102.373 134.205 111.862 121.215C111.862 121.215 97.6546 107.048 115.401 95.2342C115.401 95.2342 115.401 84.5964 126.069 82.2438C126.069 82.2438 127.248 75.135 134.378 77.5387C134.378 77.5387 134.378 71.6573 140.276 72.8335C140.276 72.8335 141.456 66.9521 149.764 68.1284C149.764 68.1284 149.765 48.0292 169.921 55.1381C169.921 55.1381 171.409 47.8246 180.589 51.6092C180.589 51.6092 182.949 43.3241 191.257 48.0804C191.257 48.0804 195.515 43.7844 199.566 46.3927C199.566 46.3927 200.695 42.7615 205.208 44.1935C205.875 44.3981 206.183 45.4209 206.285 46.2904Z" fill="white"/>
<path d="M144.738 221.199C140.943 221.199 137.148 219.767 133.352 216.955C133.147 216.801 128.223 213.017 128.018 203.402C126.377 201.867 121.812 196.907 122.94 190.718C118.94 189.235 108.579 183.916 110.118 169.136C108.272 167.653 103.758 163.357 102.784 156.862C102.014 151.747 103.553 146.531 107.4 141.314C105.656 138.808 102.527 131.904 109.759 121.317C108.015 119.22 104.22 113.902 104.887 107.509C105.399 102.548 108.374 98.1495 113.811 94.365C114.067 91.7055 115.657 83.4715 124.684 80.9655C125.095 79.7381 126.018 77.6412 128.018 76.4138C129.454 75.5444 131.095 75.2886 132.942 75.5955C133.198 74.5215 133.814 73.2429 134.942 72.3223C136.07 71.4018 137.455 70.9926 139.096 71.0949C140.02 69.2026 142.379 66.134 148.123 66.3898C148.431 63.4746 149.611 57.542 154.278 54.2689C157.92 51.7117 162.792 51.3537 168.742 53.1437C169.255 52.0697 170.229 50.6889 171.922 49.7683C173.973 48.6943 176.538 48.592 179.512 49.5637C180.179 48.234 181.462 46.3929 183.667 45.4723C185.77 44.6029 188.18 44.8075 190.796 46.086C192.591 44.654 195.669 43.1709 198.695 44.2449C199.105 43.7334 199.669 43.1709 200.439 42.8129C201.823 42.0969 203.516 41.9946 205.414 42.6083C206.285 42.864 207.363 43.6823 207.722 45.9837C208.183 49.308 206.491 51.4049 202.644 52.2743C201.464 54.2689 198.797 56.6726 194.643 55.8543C194.335 56.9795 193.668 58.3603 192.335 59.332C190.796 60.4572 188.847 60.8663 186.385 60.4572C185.872 62.9632 184.487 67.4638 180.743 69.9186C177.871 71.8109 174.332 72.1689 170.126 70.9415C168.485 72.3224 164.228 75.4421 159.458 74.7772C159.304 76.5161 158.792 78.9198 157.099 80.8121C155.56 82.5509 153.355 83.5227 150.585 83.7272C149.406 85.8241 146.79 88.3812 142.892 87.7675C142.841 88.4324 142.738 89.1484 142.482 89.9155C141.866 91.8589 140.43 94.2115 136.994 95.2344C137.045 98.5075 135.814 103.264 130.942 104.696C130.736 107.202 129.916 112.879 126.172 116.356C128.736 118.249 133.147 122.238 134.634 128.017C135.66 132.108 135.096 136.302 132.839 140.547C134.327 141.416 136.429 143.002 137.301 145.764C138.276 148.679 137.609 152.054 135.404 155.788C137.045 156.504 139.302 157.936 140.43 160.442C141.507 162.794 141.353 165.556 139.968 168.625C141.969 169.341 144.995 170.926 146.482 173.995C147.713 176.552 147.662 179.62 146.277 183.047C147.867 182.945 149.97 183.047 152.175 183.558C156.278 184.53 161.51 187.343 163.767 195.014C165.613 194.861 168.844 194.963 171.614 196.702C172.947 194.707 175.409 192.559 178.948 192.611C179.461 187.701 182.436 180.541 190.847 179.825C191.258 176.961 193.001 170.568 199.977 167.397C199.515 164.738 198.9 158.856 202.131 155.992C200.9 153.384 198.592 147.144 200.798 141.621C202.131 138.348 204.849 135.893 208.85 134.359C207.516 131.648 206.645 127.25 209.158 122.647C207.414 121.215 204.49 118.146 204.798 113.748C200.798 111.958 195.515 107.253 197.566 99.2235C196.028 97.9961 193.463 95.0298 194.181 89.5064C193.361 88.1767 191.514 84.5967 192.489 81.1701C193.155 78.8687 194.848 77.1298 197.566 75.9535L197.72 75.9024L197.874 75.8512C197.977 75.8512 200.849 75.2886 203.413 77.0275C204.849 77.9992 205.875 79.4824 206.439 81.4258C208.901 80.9655 213.722 80.6075 217.467 83.3181C220.39 85.4661 221.98 88.995 222.185 93.8024C223.878 94.2627 226.699 95.3367 228.494 98.0473C230.135 100.502 230.494 103.622 229.571 107.355C231.366 108.634 234.956 111.702 235.726 116.714C236.495 121.829 234.084 127.301 228.545 133.08C229.468 134.921 230.75 138.706 228.494 143.206C229.468 144.332 230.853 146.428 230.956 149.241C231.11 152.208 229.827 155.174 227.16 158.089C227.981 161.209 229.571 171.182 218.954 179.467C219.723 181.973 221.057 188.059 217.979 193.173C215.671 197.06 211.466 199.464 205.414 200.384C204.542 203.657 201.772 208.311 195.669 208.772C194.489 211.022 191.925 213.937 188.283 213.681C187.308 214.96 185.257 217.159 182.179 217.824C179.718 218.387 177.153 217.824 174.537 216.239C172.024 217.824 165.1 221.148 158.022 214.346C156.227 216.392 152.483 219.921 147.2 220.841C146.431 221.148 145.61 221.199 144.738 221.199ZM131.608 78.6129C130.89 78.6129 130.223 78.7664 129.711 79.1244C127.967 80.1472 127.556 82.551 127.556 82.551L127.403 83.5738L126.377 83.7784C117.042 85.8241 116.94 94.8764 116.94 95.2855V96.1038L116.273 96.5641C111.246 99.8884 108.528 103.724 108.066 107.867C107.4 114.515 112.888 120.141 112.939 120.192L113.862 121.113L113.093 122.187C104.579 133.847 110.323 140.036 110.58 140.291L111.503 141.263L110.682 142.337C106.836 147.196 105.246 151.952 105.912 156.504C106.938 163.255 112.631 167.244 112.682 167.295L113.452 167.806L113.349 168.727C111.195 184.888 124.633 188.161 125.197 188.263L126.838 188.621L126.326 190.207C124.325 196.191 130.531 201.458 130.583 201.509L131.147 201.97V202.686C131.147 211.124 135.096 214.346 135.301 214.449C139.25 217.364 143.097 218.54 146.841 217.926C152.945 216.903 156.74 211.329 156.791 211.278L157.92 209.59L159.253 211.073C166.382 219.205 173.409 213.528 173.666 213.272L174.589 212.505L175.563 213.17C177.717 214.704 179.769 215.267 181.615 214.909C184.59 214.295 186.334 211.329 186.334 211.329L186.898 210.357L188.027 210.613C191.412 211.482 193.309 206.879 193.309 206.828L193.72 205.857H194.745C201.567 205.857 202.644 199.208 202.695 198.901L202.849 197.725L204.029 197.571C209.671 196.907 213.517 194.912 215.415 191.69C218.492 186.473 215.825 179.62 215.774 179.569L215.312 178.444L216.287 177.728C228.135 169.136 224.237 158.703 224.032 158.294L223.673 157.373L224.391 156.657C226.852 154.202 228.032 151.798 227.929 149.446C227.776 146.582 225.673 144.741 225.673 144.741L224.647 143.922L225.314 142.797C228.289 137.888 225.519 134.052 225.416 133.847L224.647 132.773L225.57 131.853C230.956 126.483 233.315 121.624 232.699 117.277C231.981 112.214 227.16 109.503 227.109 109.503L226.032 108.89L226.391 107.713C227.365 104.389 227.263 101.73 225.981 99.8373C224.185 97.1267 220.595 96.6664 220.595 96.6664L219.21 96.513V95.1321C219.21 90.6827 218.031 87.563 215.723 85.8752C211.825 83.0112 205.875 84.8012 205.824 84.8012L204.131 85.3127L203.824 83.5738C203.516 81.7327 202.798 80.4029 201.721 79.6358C200.49 78.7664 199.105 78.8686 198.643 78.9198C196.9 79.6869 195.874 80.7098 195.515 82.0395C194.694 84.9035 197.105 88.279 197.105 88.3301L197.464 88.8415L197.361 89.4552C196.387 95.2344 199.926 97.229 200.08 97.2801L201.208 97.8938L200.798 99.1212C197.771 108.122 206.542 111.242 206.952 111.344L208.234 111.754L207.978 113.083C207.004 117.891 211.927 120.908 211.979 120.908L213.363 121.726L212.492 123.056C208.44 129.142 212.389 134.205 212.389 134.256L213.825 136.046L211.62 136.66C207.516 137.836 204.798 139.882 203.618 142.746C201.31 148.423 205.362 155.583 205.414 155.685L206.234 157.117L204.798 157.833C201.823 159.316 202.695 165.76 203.259 167.909L203.567 169.238L202.285 169.699C193.976 172.818 193.822 180.899 193.822 181.257V182.791H192.283C182.077 182.791 181.974 193.787 181.974 194.247V196.139L180.128 195.781C175.512 194.861 173.665 199.361 173.563 199.566L172.691 201.714L171.05 200.077C168.126 197.162 162.997 198.134 162.946 198.134L161.459 198.441L161.1 197.009C159.766 191.281 156.535 187.701 151.457 186.473C147.559 185.553 144.072 186.32 144.02 186.32L140.687 187.087L142.328 184.07C144.328 180.439 144.79 177.472 143.713 175.222C142.123 171.898 137.558 170.977 137.507 170.977L135.404 170.619L136.429 168.727C138.019 165.812 138.43 163.459 137.609 161.567C136.378 158.856 132.737 157.987 132.685 157.936L130.429 157.424L131.762 155.532C134.275 151.952 135.147 148.934 134.378 146.582C133.455 143.667 130.223 142.542 130.172 142.542L128.377 141.928L129.403 140.291C131.865 136.251 132.634 132.364 131.711 128.631C129.967 121.726 122.94 117.686 122.838 117.635L120.581 116.356L122.838 115.027C127.967 111.958 128.018 103.417 128.018 103.366V102.088L129.3 101.883C134.84 100.962 133.968 94.4672 133.968 94.1604L133.762 92.6772L135.25 92.4215C137.609 92.0124 139.045 90.8872 139.661 88.8927C140.122 87.3584 139.917 85.9264 139.917 85.9264L139.455 83.2158L141.969 84.2387C146.174 85.9264 147.97 82.2952 148.277 81.5281L148.688 80.5564H149.713C152.021 80.5564 153.765 79.9426 154.894 78.6641C156.894 76.4138 156.484 72.8849 156.484 72.8338L156.176 70.2766L158.586 71.2483C163.51 73.1918 168.742 68.0775 168.793 68.0263L169.46 67.3615L170.383 67.6683C174.024 68.8958 176.999 68.7423 179.205 67.2592C183.205 64.5998 183.718 58.4115 183.77 58.3603L183.923 56.468L185.719 56.9795C187.257 57.4398 189.36 57.7466 190.642 56.7749C191.976 55.752 192.027 53.7575 192.027 53.7063L192.078 51.456L194.181 52.2743C198.438 53.962 200.131 50.7912 200.387 50.1263L200.746 49.3592L201.567 49.2057C205.208 48.592 205.003 47.2623 204.849 46.1883C204.798 45.6769 204.644 45.37 204.593 45.2677C203.516 44.9609 202.695 44.9609 202.028 45.2677C201.259 45.6769 201.003 46.444 201.003 46.444L200.387 48.3875L198.695 47.2623C195.771 45.37 192.489 48.592 192.335 48.7454L191.514 49.5637L190.488 49.0012C188.334 47.7737 186.488 47.4669 185.052 48.0294C182.898 48.8989 182.077 51.6095 182.077 51.6606L181.615 53.2972L180.025 52.6323C177.307 51.5072 175.153 51.3537 173.614 52.172C171.87 53.0926 171.46 55.036 171.46 55.036L171.101 56.7749L169.409 56.2123C163.767 54.2177 159.356 54.32 156.278 56.468C151.355 59.9458 151.303 67.6683 151.303 67.7706V69.5606L149.56 69.3049C142.995 68.3843 141.917 72.3735 141.815 72.8338L141.507 74.3169L140.02 74.0612C138.737 73.8055 137.763 73.9589 137.096 74.4703C136.173 75.2375 135.917 76.7718 135.917 77.2832V79.3801L133.916 78.7152C132.993 78.7152 132.275 78.6129 131.608 78.6129Z" fill="#D6DCE8"/>
</svg>
