<svg width="60" height="60" viewBox="0 0 60 60" fill="none" xmlns="http://www.w3.org/2000/svg">
<g clip-path="url(#clip0_1059_18475)">
<path d="M29.9663 0.330078C13.5983 0.330078 0.32959 13.5988 0.32959 29.9668C0.32959 46.3348 13.5983 59.6035 29.9663 59.6035C46.3343 59.6035 59.603 46.3348 59.603 29.9668C59.603 13.5988 46.3343 0.330078 29.9663 0.330078ZM29.9663 14.8237C35.8271 14.8237 40.596 19.5926 40.596 25.4535C40.596 31.3149 35.8271 36.0832 29.9663 36.0832C24.1048 36.0832 19.3366 31.3149 19.3366 25.4535C19.3366 19.5926 24.1048 14.8237 29.9663 14.8237ZM29.9663 55.5486C22.6329 55.5486 16.0548 52.3313 11.554 47.2351C13.6464 43.4482 16.9176 40.3357 20.8072 38.4488C22.1304 37.8074 23.6748 37.8179 25.0453 38.4758C26.5884 39.2174 28.2441 39.5928 29.967 39.5928C31.6892 39.5928 33.3456 39.2167 34.8886 38.4758C36.2605 37.8172 37.8049 37.8074 39.1267 38.4488C43.0163 40.335 46.2869 43.4482 48.3793 47.2351C43.8778 52.3307 37.2997 55.5486 29.9663 55.5486Z" fill="#E9EDFC"/>
</g>
<defs>
<clipPath id="clip0_1059_18475">
<rect width="60" height="60" fill="white"/>
</clipPath>
</defs>
</svg>
