<svg width="60" height="60" viewBox="0 0 60 60" fill="none" xmlns="http://www.w3.org/2000/svg">
<path d="M60 29.9113C60 37.9712 56.7761 45.1355 51.7612 50.5088C51.403 51.0462 50.8657 51.4044 50.3284 51.7626C44.9552 56.7777 37.7911 59.8225 29.9105 59.8225C23.6418 59.8225 17.7314 57.8523 12.8956 54.4492C11.4627 53.5537 10.209 52.2999 8.95527 51.2253C3.40304 45.852 6.10352e-05 38.3294 6.10352e-05 29.9113C6.10352e-05 13.4332 13.4329 0 29.9105 0C46.5672 0 60 13.4332 60 29.9113Z" fill="#E9F0F8"/>
<path d="M59.9999 29.9094C59.9999 38.6857 56.2387 46.3875 50.3283 51.9398C44.9552 56.9549 37.791 59.9998 29.9104 59.9998C23.6418 59.9998 17.7313 58.0296 12.8955 54.6265C5.01493 49.2532 0 40.2977 0 30.0885C0 13.6104 13.4328 0.177246 29.9104 0.177246C46.388 0.177246 59.9999 13.4313 59.9999 29.9094Z" fill="#F1F3F9"/>
<path d="M51.7616 50.5087C51.4034 51.046 50.8661 51.4043 50.3288 51.7625C44.9556 56.7775 37.7915 59.8224 29.9109 59.8224C23.6422 59.8224 17.7318 57.8522 12.896 54.4491C11.4632 53.5536 10.2094 52.2998 8.95569 51.2251C9.67211 50.3296 10.7467 49.7923 13.0751 48.8967L13.9706 48.5385C15.7617 47.8221 18.2691 46.9265 21.493 45.4936C22.0303 45.3145 22.3885 44.9563 22.7467 44.5981C22.9258 44.419 23.1049 44.2399 23.1049 43.8817C23.284 43.5234 23.4631 42.9861 23.4631 42.6279V36.5382C23.284 36.3591 23.284 36.3591 23.1049 36.18C22.5676 35.4635 22.2094 34.568 22.2094 33.4933L21.8512 33.3142C20.2393 33.6724 20.4184 32.0604 20.0602 28.8365C19.8811 27.5827 20.0601 27.2245 20.7766 27.0454L21.3139 26.3289C20.2393 23.8214 19.7019 21.493 19.7019 19.7019C19.7019 16.657 20.9557 14.6868 22.7467 13.7913C21.6721 11.642 21.6721 10.9255 21.6721 10.9255C21.6721 10.9255 27.9407 12.0002 30.09 11.642C32.7766 11.1046 37.0751 11.8211 38.687 15.4033C41.3736 16.4779 42.2691 18.0899 42.6273 19.881C42.9855 22.7468 41.3736 25.7916 41.0154 27.0454V27.2245C41.3736 27.4036 41.5527 27.7618 41.3736 29.0156C41.0153 32.0604 41.0153 33.8515 39.5825 33.4933L38.1497 36.0008C38.1497 36.3591 38.1497 36.3591 37.9706 36.5382C37.9706 37.0755 37.9706 37.9711 37.9706 42.807C37.9706 43.3443 38.1497 44.0608 38.5079 44.419C38.687 44.5981 38.687 44.7772 38.8661 44.7772C39.2243 45.1354 39.5825 45.4936 39.9407 45.4936C43.5228 46.9265 46.0303 48.0012 48.0004 48.7176C49.7915 49.434 51.0452 49.9714 51.7616 50.5087Z" fill="white"/>
<path d="M51.7615 50.5073C51.4033 51.0446 50.866 51.4028 50.3286 51.7611C44.9555 56.7761 37.7914 59.821 29.9108 59.821C23.6421 59.821 17.7317 57.8508 12.8959 54.4477C11.463 53.5521 10.2093 52.2984 8.95557 51.2237C9.67198 50.3282 10.7466 49.7908 13.075 48.8953L13.9705 48.5371C15.7615 47.8206 18.269 46.9251 21.4929 45.4922C22.0302 45.3131 22.3884 44.9549 22.7466 44.5967C24.5376 47.1042 27.4033 48.7162 30.8063 48.7162C34.0302 48.7162 36.8958 47.1042 38.6869 44.7758C39.0451 45.134 39.4033 45.4922 39.7615 45.4922C43.3436 46.9251 45.8511 47.9997 47.8212 48.7162C49.7913 49.4326 51.0451 49.97 51.7615 50.5073Z" fill="#D6DCE8"/>
<path d="M40.8362 26.866C41.0153 26.1496 40.6571 25.0749 40.2989 24.5376C40.2989 24.3585 40.1198 24.3585 40.1198 24.1794C38.8661 21.6719 36.1795 20.7763 33.6721 20.5972C27.0452 20.239 26.5079 21.4927 24.5378 19.7017C25.2542 20.5972 25.2542 22.2092 24.1795 24.0003C23.4631 25.254 22.2094 25.9705 20.9557 26.3287C17.9109 19.5225 19.5228 15.2239 22.3885 13.791C21.3139 11.6417 21.3139 10.9253 21.3139 10.9253C21.3139 10.9253 27.5825 12 29.7318 11.6417C32.4183 11.1044 36.7168 11.8208 38.3288 15.403C41.0153 16.4777 41.9109 18.0897 42.2691 19.8808C42.8064 22.5674 41.1945 25.6123 40.8362 26.866Z" fill="#AAB2C5"/>
<path d="M23.6425 42.6267V36.537C23.4634 36.3579 23.4633 36.3579 23.2842 36.1788V35.8206C23.6424 36.3579 24.0007 36.8952 24.538 37.2534L29.3738 40.6565C30.4484 41.5521 32.0603 41.5521 33.135 40.6565L37.6126 36.7161C37.7917 36.537 37.9708 36.537 38.1499 36.3579C38.1499 36.8952 38.1499 37.7908 38.1499 42.6267C38.1499 42.9849 38.1499 43.164 38.329 43.5222H23.6425C23.4634 43.164 23.6425 42.9849 23.6425 42.6267Z" fill="url(#paint0_linear_3_1795)"/>
<defs>
<linearGradient id="paint0_linear_3_1795" x1="30.7775" y1="43.2824" x2="30.7775" y2="39.2482" gradientUnits="userSpaceOnUse">
<stop stop-color="white"/>
<stop offset="0.9913" stop-color="#D6DEEA"/>
</linearGradient>
</defs>
</svg>
