<svg width="24" height="24" viewBox="0 0 24 24" fill="none" xmlns="http://www.w3.org/2000/svg">
<g clip-path="url(#clip0_59_23397)">
<path d="M24 12C24 18.6274 18.6274 24 12 24C5.37258 24 0 18.6274 0 12C0 5.37258 5.37258 0 12 0C18.6274 0 24 5.37258 24 12Z" fill="#14AF2D"/>
<path d="M16.229 7.82352C16.5681 7.43225 17.1602 7.38995 17.5515 7.72906C17.9072 8.03733 17.9745 8.55468 17.729 8.94016L17.646 9.05151L11.2641 16.4106C10.836 16.8386 10.1625 16.8716 9.6966 16.5094L9.58473 16.4106L6.27459 13.1004C5.90847 12.7343 5.90847 12.1407 6.27459 11.7746C6.60742 11.4418 7.12825 11.4115 7.49526 11.6838L7.60041 11.7746L10.3875 14.5613L16.229 7.82352Z" fill="white"/>
</g>
<defs>
<clipPath id="clip0_59_23397">
<rect width="24" height="24" fill="white"/>
</clipPath>
</defs>
</svg>
