<svg width="152" height="132" viewBox="0 0 152 132" fill="none" xmlns="http://www.w3.org/2000/svg">
<ellipse cx="72.3407" cy="5" rx="4.9887" ry="5" fill="#B569E1"/>
<ellipse cx="138.191" cy="62" rx="4.9887" ry="5" fill="#76D4FD"/>
<path d="M148.169 6.00011C133.702 4.00012 145.675 32 126.219 28.5001" stroke="#DB6185" stroke-width="5" stroke-linecap="round"/>
<path d="M37.4197 83.3316C37.4197 83.3316 33.7812 87.6918 30.324 87.7339C27.695 87.7659 26.216 87.3671 23.2283 85.1659C20.2407 82.9647 20.6141 80.0297 21.7345 78.5623C22.8549 77.0949 27.3364 78.5624 28.4567 82.231C29.5771 85.8996 30.6975 87.3671 26.216 91.7695C21.7345 96.1718 2 91.7695 2 91.7695" stroke="#7CCFF1" stroke-width="4" stroke-linecap="round"/>
<ellipse cx="32.4311" cy="48" rx="4.9887" ry="5" fill="#F4C16A"/>
<ellipse cx="42.4086" cy="114" rx="4.9887" ry="5" fill="#74BB48"/>
<ellipse cx="99.2797" cy="127" rx="4.9887" ry="5" fill="#18A2B9"/>
<ellipse cx="85.3111" cy="13" rx="2.99322" ry="3" fill="#F4C16A"/>
<path d="M136.029 99.75C140.353 99.9167 149 103.05 149 114.25" stroke="#ECC476" stroke-width="5" stroke-linecap="round"/>
</svg>
