<svg width="28" height="28" viewBox="0 0 28 28" fill="none" xmlns="http://www.w3.org/2000/svg">
<path fill-rule="evenodd" clip-rule="evenodd" d="M18.6932 10.7882C19.1023 10.3791 19.1023 9.71587 18.6932 9.3068C18.2841 8.89773 17.6209 8.89773 17.2118 9.3068L14 12.5186L10.7882 9.3068C10.3791 8.89773 9.71587 8.89773 9.3068 9.3068C8.89773 9.71587 8.89773 10.3791 9.3068 10.7882L12.5186 14L9.3068 17.2118C8.89773 17.6209 8.89773 18.2841 9.3068 18.6932C9.71587 19.1023 10.3791 19.1023 10.7882 18.6932L14 15.4814L17.2118 18.6932C17.6209 19.1023 18.2841 19.1023 18.6932 18.6932C19.1023 18.2841 19.1023 17.6209 18.6932 17.2118L15.4814 14L18.6932 10.7882Z" fill="#0A0A0A"/>
<rect x="0.5" y="0.5" width="27" height="27" rx="13.5" stroke="#254DDD"/>
</svg>
