<svg width="24" height="24" viewBox="0 0 24 24" fill="none" xmlns="http://www.w3.org/2000/svg">
<rect x="0.333333" y="0.333333" width="23.3333" height="23.3333" rx="11.6667" fill="white"/>
<path fill-rule="evenodd" clip-rule="evenodd" d="M16.5447 6.98872C15.7451 6.23636 14.9582 5.91828 14.1803 6.01774C13.4287 6.11386 12.813 6.58691 12.312 7.11616L11.4048 8.07638C11.4008 8.08045 11.3969 8.08459 11.3931 8.08879L6.83865 12.9095L6.83767 12.9105C6.68568 13.0723 6.55725 13.2864 6.46312 13.4882C6.36865 13.6908 6.2885 13.9243 6.25973 14.1401L6.01199 16.3095L6.01182 16.311C5.95371 16.834 6.11057 17.3249 6.46554 17.6615C6.82101 17.9986 7.32001 18.1287 7.84038 18.0389L9.98628 17.6724L9.98962 17.6718C10.2061 17.6333 10.4368 17.5421 10.6362 17.4355C10.833 17.3302 11.0407 17.188 11.1949 17.02L15.6859 12.2665C15.7385 12.2289 15.7838 12.1813 15.8187 12.126L16.6655 11.2296C17.1663 10.7005 17.6054 10.0594 17.6584 9.3019C17.7132 8.51798 17.3479 7.74832 16.5457 6.98959L16.5447 6.98872ZM15.1966 11.3283L15.9387 10.5428C16.0338 10.4423 16.12 10.3437 16.1969 10.2467C16.4802 9.88955 16.6382 9.55516 16.6608 9.23217C16.6877 8.84786 16.5297 8.35103 15.8591 7.71667C15.3787 7.26474 14.9833 7.07168 14.657 7.01731C14.5303 6.99621 14.414 6.996 14.3072 7.00967C13.8989 7.06187 13.4841 7.33269 13.0385 7.80327L12.3008 8.58417C12.6188 10.0006 13.7634 11.0832 15.1966 11.3283ZM11.5102 9.42099L7.56652 13.5952C7.51187 13.6535 7.43681 13.7663 7.36941 13.9109C7.30324 14.0528 7.26349 14.184 7.25158 14.2684L7.00571 16.4214L7.00563 16.4221C6.97729 16.6787 7.05704 16.8443 7.15366 16.9359C7.24985 17.0271 7.41752 17.0971 7.67048 17.0535L7.67125 17.0533L9.81599 16.687C9.8995 16.6719 10.0282 16.6266 10.1647 16.5536C10.3031 16.4796 10.4072 16.3998 10.4593 16.3427L10.4653 16.3361L14.4078 12.1631C13.0755 11.7393 12.0051 10.7287 11.5102 9.42099Z" fill="#254DDD"/>
<rect x="0.333333" y="0.333333" width="23.3333" height="23.3333" rx="11.6667" stroke="#254DDD" stroke-width="0.666667"/>
</svg>
