<svg width="36" height="36" viewBox="0 0 36 36" fill="none" xmlns="http://www.w3.org/2000/svg">
<path opacity="0.4" fill-rule="evenodd" clip-rule="evenodd" d="M8.80452 3.59709C3.40236 4.74536 -0.0461068 10.0555 1.10216 15.4577L3.5971 27.1955C4.74536 32.5976 10.0555 36.0461 15.4577 34.8978L27.1955 32.4029C32.5976 31.2546 36.0461 25.9444 34.8978 20.5423L32.4029 8.80451C31.2546 3.40235 25.9444 -0.0461132 20.5423 1.10215L8.80452 3.59709ZM20.2987 9.33266C20.0781 9.37953 19.8691 9.46961 19.6835 9.59769C19.498 9.72576 19.3395 9.88958 19.2175 10.0792L16.3727 14.5052C16.2104 14.7576 16.2835 15.0938 16.536 15.2561C16.7884 15.4183 17.1246 15.3452 17.2869 15.0928L20.1315 10.6671C20.1759 10.5981 20.2335 10.5387 20.3009 10.4921C20.3684 10.4455 20.4444 10.4128 20.5246 10.3957C20.6048 10.3787 20.6876 10.3777 20.7682 10.3928C20.8485 10.4078 20.9251 10.4386 20.9935 10.4833L20.9941 10.4837L23.8864 12.3915L23.8916 12.3948C23.9605 12.4392 24.02 12.4967 24.0665 12.5642C24.1131 12.6317 24.1459 12.7077 24.1629 12.7879C24.18 12.8681 24.181 12.9509 24.1659 13.0314C24.1508 13.112 24.1198 13.1888 24.0749 13.2574L24.0737 13.2592L21.2216 17.6511C21.0582 17.9028 21.1297 18.2393 21.3814 18.4027C21.6331 18.5662 21.9696 18.4947 22.1331 18.243L24.9839 13.853L24.9846 13.852C25.1078 13.6637 25.1926 13.4529 25.234 13.2317C25.2756 13.0101 25.2728 12.7825 25.226 12.5619C25.1791 12.3414 25.089 12.1323 24.9609 11.9468C24.8335 11.7622 24.6709 11.6045 24.4826 11.4827L21.5911 9.57559L21.5898 9.57469C21.4012 9.45112 21.19 9.36612 20.9684 9.32458C20.7468 9.28304 20.5192 9.28578 20.2987 9.33266ZM15.0508 18.5361C15.2154 18.2852 15.1455 17.9483 14.8945 17.7837C14.6436 17.619 14.3067 17.689 14.1421 17.9399L11.2557 22.3393C11.1321 22.5278 11.0471 22.739 11.0056 22.9606C10.964 23.1822 10.9668 23.4098 11.0137 23.6303C11.0605 23.8509 11.1506 24.0599 11.2787 24.2455C11.4065 24.4307 11.5697 24.5888 11.7589 24.7107L11.7599 24.7114L14.684 26.6103L14.6851 26.611C14.8734 26.7342 15.0842 26.819 15.3054 26.8604C15.527 26.902 15.7546 26.8992 15.9751 26.8523C16.1956 26.8055 16.4047 26.7154 16.5902 26.5873C16.7758 26.4592 16.9343 26.2954 17.0563 26.1058L19.9011 21.6799C20.0634 21.4274 19.9903 21.0912 19.7378 20.9289C19.4854 20.7667 19.1492 20.8398 18.9869 21.0922L16.1422 25.5181C16.0978 25.587 16.0403 25.6464 15.9728 25.6929C15.9054 25.7395 15.8293 25.7723 15.7492 25.7893C15.669 25.8063 15.5862 25.8073 15.5056 25.7922C15.425 25.7771 15.3482 25.7462 15.2797 25.7013L12.3499 23.7987L12.3481 23.7975C12.2791 23.7531 12.2196 23.6955 12.1731 23.6281C12.1265 23.5606 12.0937 23.4846 12.0767 23.4044C12.0597 23.3242 12.0587 23.2414 12.0738 23.1608C12.0889 23.0803 12.1198 23.0035 12.1647 22.9349L15.0508 18.5361ZM20.2267 14.8745C20.4784 15.038 20.5499 15.3745 20.3865 15.6262L16.7989 21.1505C16.6355 21.4022 16.2989 21.4737 16.0472 21.3103C15.7955 21.1468 15.724 20.8103 15.8875 20.5586L19.475 15.0343C19.6384 14.7826 19.975 14.7111 20.2267 14.8745Z" fill="url(#paint0_linear_84_28008)"/>
<defs>
<linearGradient id="paint0_linear_84_28008" x1="14.6734" y1="2.34962" x2="21.3266" y2="33.6503" gradientUnits="userSpaceOnUse">
<stop stop-color="#254DDD"/>
<stop offset="1" stop-color="#254DDD" stop-opacity="0"/>
</linearGradient>
</defs>
</svg>
