<?xml version="1.0" encoding="UTF-8"?><svg version="1.1" width="16px" height="16px" viewBox="0 0 16.0 16.0" xmlns="http://www.w3.org/2000/svg" xmlns:xlink="http://www.w3.org/1999/xlink"><defs><clipPath id="i0"><path d="M13,0 C14.6568542,-3.04359188e-16 16,1.34314575 16,3 L16,13 C16,14.6568542 14.6568542,16 13,16 L3,16 C1.34314575,16 2.02906125e-16,14.6568542 0,13 L0,3 C-2.02906125e-16,1.34314575 1.34314575,3.04359188e-16 3,0 L13,0 Z"></path></clipPath><clipPath id="i1"><path d="M5.12948169,0 C5.99313901,0 6.69583494,0.683431706 6.69573564,1.52349637 L6.69573564,4.59518906 C6.67839166,4.57815577 6.0387166,3.70762451 4.8038518,4.17442339 L4.95726657,4.66442223 C6.07294117,4.31018974 6.59163867,5.23982086 6.69583494,5.45728701 L6.69583494,10.502875 C6.38619196,10.1946757 5.93422244,9.90414309 5.35895842,9.96400961 L5.41142064,10.4750417 C6.09525003,10.4036086 6.57671093,11.1315068 6.69583494,11.332273 L6.69583494,12.4764703 C6.69583494,13.3165016 5.99320521,13.9999333 5.12958099,13.9999333 C4.67893544,13.9999333 4.25013535,13.8111338 3.95310317,13.4819012 C3.68341092,13.1830019 3.54714153,12.8051695 3.5649158,12.4105371 C3.92321459,11.9613049 4.37058333,10.9887072 3.80458708,10.0827093 L3.37277497,10.3562753 C3.84129408,11.1062402 3.33629965,11.8673051 3.17226004,12.0809712 C2.16908961,12.322404 1.4282634,11.772572 1.09409392,11.21574 C0.664168465,10.499375 0.750789061,9.64437704 1.31479936,9.03744515 C1.43084514,8.91261211 1.3914902,8.70367928 1.23850571,8.63011279 C0.474543172,8.26271366 0,7.51941543 0,6.69038407 C0,5.81875281 0.524357462,5.04655465 1.34154351,4.70432213 C1.46010483,4.72888874 1.73115415,4.79702191 1.9964442,4.94808822 C2.44622917,5.20422094 2.67428263,5.57575339 2.67428263,6.05238559 L3.18444054,6.05238559 C3.18444054,5.38638718 2.86046561,4.84992179 2.2475678,4.50085595 C1.96721761,4.34125633 1.68805899,4.25758986 1.51700235,4.21708996 C1.39288036,3.71189116 1.49121807,3.18305909 1.79635956,2.74589346 C2.14555608,2.24552799 2.70139088,1.95022869 3.32127262,1.93572872 C3.46651189,1.93232873 3.58232598,1.80196238 3.56938419,1.65612939 C3.53218069,1.23553039 3.66974095,0.829931357 3.95667788,0.514065443 C4.25347837,0.187399554 4.68095449,0 5.12948169,0 Z M4.713491,7.04981655 C4.6926385,7.10011643 4.18883564,8.27691363 2.9556589,7.88541456 L2.80224413,8.37541339 C3.03661953,8.44981321 3.25146641,8.48124647 3.44731435,8.48124647 C3.98689745,8.48124647 4.38177085,8.24248038 4.64070586,8.00551427 C5.01164855,7.66598175 5.1783692,7.26224938 5.18532003,7.24518275 Z M4.94922347,1.55726296 L4.94922347,2.07099507 C5.52468609,2.07099507 5.65370676,2.57086055 5.66651614,2.62782708 L6.16538723,2.520594 C6.09611061,2.18739479 5.75280575,1.55726296 4.94919037,1.55726296 Z"></path></clipPath><clipPath id="i2"><path d="M1.56625395,0 C2.01474806,0 2.44222417,0.187399554 2.73905776,0.514065443 C3.02599469,0.829931357 3.16355495,1.23556372 3.12631835,1.65612939 C3.11337657,1.80196238 3.22922375,1.93232873 3.37446302,1.93572872 C3.99434477,1.95022869 4.55017956,2.24552799 4.89937608,2.74589346 C5.20451757,3.18305909 5.30288838,3.71189116 5.17873329,4.21708996 C5.00767665,4.25758986 4.72851803,4.341223 4.44816784,4.50085595 C3.83527003,4.84992179 3.5112951,5.38638718 3.5112951,6.05238559 L4.02145301,6.05238559 C4.02145301,5.03498801 5.07751595,4.75868867 5.35323225,4.70392213 C6.17101409,5.04598799 6.69573564,5.81841948 6.69573564,6.69038407 C6.69573564,7.51944876 6.22115937,8.26271366 5.45732923,8.63017945 C5.30427854,8.70374594 5.2649898,8.91264545 5.38100248,9.03747848 C5.94501278,9.64441037 6.03166647,10.4994417 5.60170792,11.2158066 C5.26757154,11.7726386 4.52674533,12.322504 3.523608,12.0810379 C3.35956839,11.8673717 2.85457395,11.1063069 3.32305997,10.3563087 L2.89124786,10.0827427 C2.32525161,10.9887405 2.77265344,11.9613715 3.13095224,12.4105705 C3.14869341,12.8051695 3.01245712,13.1830686 2.74276487,13.4819679 C2.44569959,13.8111671 2.0169326,14 1.56628705,14 C0.70266283,14 0,13.3165683 0,12.4765036 L0,11.3318064 C0.118064832,11.1309735 0.595752427,10.4034086 1.2843481,10.4750084 L1.33684342,9.96400961 C0.761579399,9.90404309 0.309642978,10.1946091 0,10.5028083 L0,5.458287 C0.0454120968,5.36515389 0.174300366,5.12798779 0.396561466,4.92458827 C0.765915394,4.58655575 1.21742153,4.49902262 1.73850217,4.66445556 L1.89191694,4.17445673 C1.01167692,3.89502406 0.406325729,4.22138995 0.0534552014,4.54435585 C0.0350851477,4.56118914 0.0173439787,4.57815577 0,4.59522239 L0,1.52349637 C0,0.683431706 0.702629731,0 1.56625395,0 Z M1.98231084,7.04984988 L1.51048181,7.24521608 C1.51739954,7.26228271 1.68408709,7.66601508 2.05506288,8.00551427 C2.31399789,8.24251371 2.7088051,8.48127981 3.24845439,8.48127981 C3.44423613,8.48127981 3.65918231,8.44981321 3.89352462,8.37544673 L3.74014294,7.88544789 C2.5069,8.27694696 2.00316334,7.10014976 1.98231084,7.04984988 Z M1.74654527,1.55726296 C0.781902305,1.55726296 0.419201316,2.43999419 0.404207381,2.47756077 L0.877128692,2.67022698 C0.887223947,2.6457937 1.13123122,2.07099507 1.74654527,2.07099507 Z"></path></clipPath></defs><g clip-path="url(#i0)"><polygon points="0,0 16,0 16,16 0,16 0,0" stroke="none" fill="#254DDD"></polygon></g><g transform="translate(1.0 1.0)"><g transform=""><g clip-path="url(#i1)"><polygon points="0,0 6.69583494,0 6.69583494,13.9999333 0,13.9999333 0,0" stroke="none" fill="#FFFFFF"></polygon></g></g><g transform="translate(7.304264358549403 0.0)"><g clip-path="url(#i2)"><polygon points="0,0 6.69573564,0 6.69573564,14 0,14 0,0" stroke="none" fill="#FFFFFF"></polygon></g></g></g></svg>