<svg width="44" height="44" viewBox="0 0 44 44" fill="none" xmlns="http://www.w3.org/2000/svg">
<rect width="44" height="44" rx="8" fill="#F4F6FD"/>
<path fill-rule="evenodd" clip-rule="evenodd" d="M23.2 17.0002C23.2 16.5584 23.5582 16.2002 24 16.2002H27C27.4418 16.2002 27.8 16.5584 27.8 17.0002C27.8 17.442 27.4418 17.8002 27 17.8002H24C23.5582 17.8002 23.2 17.442 23.2 17.0002Z" fill="#444444"/>
<path fill-rule="evenodd" clip-rule="evenodd" d="M16.2 22.0002C16.2 21.5584 16.5582 21.2002 17 21.2002H27C27.4418 21.2002 27.8 21.5584 27.8 22.0002C27.8 22.442 27.4418 22.8002 27 22.8002H17C16.5582 22.8002 16.2 22.442 16.2 22.0002Z" fill="#444444"/>
<path fill-rule="evenodd" clip-rule="evenodd" d="M33.9575 24.2003C33.9868 23.5135 34 22.781 34 22C34 12.118 31.882 10 22 10C12.118 10 10 12.118 10 22C10 31.882 12.118 34 22 34C22.781 34 23.5135 33.9868 24.2003 33.9575C24.4741 33.9459 24.7406 33.9317 25 33.9147C25.2737 33.8969 25.5394 33.876 25.7975 33.8519C31.3307 33.3348 33.3348 31.3307 33.8519 25.7975C33.876 25.5394 33.8969 25.2737 33.9147 25C33.9317 24.7406 33.9459 24.4741 33.9575 24.2003ZM32.3572 24.1741C32.3865 23.5035 32.4 22.7803 32.4 22C32.4 19.566 32.2675 17.7193 31.9528 16.3032C31.6421 14.9052 31.1755 14.0267 30.5744 13.4256C29.9733 12.8245 29.0948 12.3579 27.6968 12.0472C26.2807 11.7325 24.434 11.6 22 11.6C19.566 11.6 17.7193 11.7325 16.3031 12.0472C14.9052 12.3579 14.0267 12.8245 13.4256 13.4256C12.8245 14.0267 12.3579 14.9052 12.0472 16.3032C11.7325 17.7193 11.6 19.566 11.6 22C11.6 24.434 11.7325 26.2807 12.0472 27.6969C12.3579 29.0948 12.8245 29.9733 13.4256 30.5744C14.0267 31.1755 14.9052 31.6421 16.3031 31.9528C17.7193 32.2675 19.566 32.4 22 32.4C22.7803 32.4 23.5035 32.3865 24.1741 32.3572C24.1896 32.032 24.2188 31.6718 24.2694 31.2899C24.4669 29.7986 25.004 27.8646 26.4343 26.4343C27.8646 25.004 29.7986 24.4669 31.2899 24.2694C31.6718 24.2188 32.032 24.1896 32.3572 24.1741ZM25.7828 32.2458C25.7977 32.0123 25.8209 31.7616 25.8556 31.4999C26.0331 30.1587 26.496 28.6354 27.5657 27.5657C28.6354 26.496 30.1587 26.0331 31.4999 25.8556C31.7616 25.8209 32.0123 25.7977 32.2458 25.7828C31.9925 28.33 31.4242 29.7246 30.5744 30.5744C29.7246 31.4242 28.33 31.9925 25.7828 32.2458Z" fill="#444444"/>
</svg>
