<svg width="21" height="20" viewBox="0 0 21 20" fill="none" xmlns="http://www.w3.org/2000/svg">
<path fill-rule="evenodd" clip-rule="evenodd" d="M15.1117 0.600827C15.1117 0.268967 15.3806 -0.000244141 15.7127 -0.000244141L19.4288 -4.9003e-05C19.7607 -4.9003e-05 20.0298 0.269114 20.0298 0.601022V0.764962L20.0233 4.153H20.0297V4.31694C20.0297 4.6488 19.7607 4.91801 19.4286 4.91801C19.1536 4.91801 18.9215 4.73323 18.8502 4.48088H18.8203L18.8265 2.04973L15.4959 5.38032C16.4041 6.28147 16.9694 7.52969 16.9694 8.90747C16.9694 11.6486 14.7379 13.8803 11.9966 13.8803C10.8418 13.8803 9.78095 13.4834 8.93646 12.8203C8.24081 13.3664 7.39922 13.7317 6.47742 13.8433V16.3939H8.28067C8.61253 16.3939 8.88175 16.6628 8.88175 16.9949C8.88175 17.3268 8.61277 17.596 8.28067 17.596H6.47742V19.3993C6.47742 19.7311 6.20845 20.0003 5.87635 20.0003C5.54449 20.0003 5.27528 19.7314 5.27528 19.3993V17.596H3.47202C3.14016 17.596 2.87095 17.327 2.87095 16.9949C2.87095 16.6631 3.13993 16.3939 3.47202 16.3939H5.27528V13.8432C2.81604 13.5454 0.903564 11.4452 0.903564 8.90716C0.903564 6.166 3.1351 3.93434 5.87639 3.93434C7.03116 3.93434 8.09202 4.33123 8.93651 4.99431C9.781 4.33123 10.8418 3.93434 11.9966 3.93434C12.9253 3.93434 13.7958 4.18977 14.5407 4.63526L17.9741 1.2019H15.7127C15.3809 1.2019 15.1117 0.932926 15.1117 0.600827ZM19.149 4.153H19.1554V4.31694C19.1554 4.46788 19.2778 4.59013 19.4286 4.59013C19.5586 4.59013 19.6673 4.49941 19.695 4.37787L19.7018 0.59231C19.6972 0.445515 19.5767 0.327829 19.4288 0.327829L15.7127 0.327634C15.5618 0.327634 15.4396 0.449973 15.4396 0.600827C15.4396 0.751764 15.5619 0.87402 15.7127 0.87402H18.7657L14.5881 5.05159L14.4772 4.98121C13.7591 4.52548 12.9083 4.26221 11.9966 4.26221C10.8735 4.26221 9.84576 4.66398 9.04115 5.33114L8.93651 5.41791L8.83187 5.33114C8.02726 4.66398 6.99947 4.26221 5.87639 4.26221C3.31619 4.26221 1.23144 6.34707 1.23144 8.90716C1.23144 11.3249 3.09057 13.3183 5.45401 13.5325L5.60316 13.546V16.7218H3.47202C3.32109 16.7218 3.19883 16.8441 3.19883 16.9949C3.19883 17.1459 3.32117 17.2681 3.47202 17.2681H5.60316V19.3993C5.60316 19.5502 5.72549 19.6725 5.87635 19.6725C6.02729 19.6725 6.14954 19.5501 6.14954 19.3993V17.2681H8.28067C8.43161 17.2681 8.55387 17.1458 8.55387 16.9949C8.55387 16.844 8.43153 16.7218 8.28067 16.7218H6.14954V13.546L6.29871 13.5325C7.25725 13.4458 8.12897 13.0661 8.83185 12.4835L8.93649 12.3967L9.04111 12.4835C9.84572 13.1506 10.8735 13.5524 11.9966 13.5524C14.5568 13.5524 16.6415 11.4676 16.6415 8.90747C16.6415 7.56429 16.0663 6.35249 15.1502 5.50295L15.0254 5.38719L19.1565 1.25612L19.149 4.153ZM9.79237 5.84794C10.4542 6.69231 10.8491 7.75346 10.8491 8.90708C10.8491 10.0607 10.4543 11.1218 9.79238 11.9662C10.412 12.4133 11.1718 12.6777 11.9968 12.6777C14.0844 12.6777 15.7674 10.9947 15.7674 8.90712C15.7674 6.81945 14.0845 5.13652 11.9968 5.13652H11.9722C11.1567 5.14171 10.4057 5.40535 9.79237 5.84794ZM12.1607 4.81184V4.80856H11.9968C11.0352 4.80856 10.1542 5.13954 9.45647 5.69085L9.32386 5.79563L9.43264 5.92499C10.1122 6.73318 10.5213 7.772 10.5213 8.90708C10.5213 10.0422 10.1122 11.081 9.43264 11.8892L9.32385 12.0185L9.45649 12.1233C10.1544 12.6746 11.0352 13.0056 11.9968 13.0056C14.2655 13.0056 16.0953 11.1757 16.0953 8.90712C16.0953 6.69328 14.3531 4.89746 12.1607 4.81184ZM5.71245 4.81191C3.52014 4.89755 1.77791 6.69348 1.77791 8.9072C1.77791 11.1759 3.6076 13.0057 5.87639 13.0057C6.838 13.0057 7.71897 12.6747 8.4167 12.1234L8.54931 12.0186L8.44054 11.8893C7.76095 11.0811 7.35192 10.0422 7.35192 8.90716C7.35192 7.77208 7.76095 6.73326 8.44054 5.92507L8.54932 5.7957L8.41669 5.69092C7.71881 5.13962 6.83797 4.80864 5.87639 4.80864H5.71245V4.81191ZM5.90095 5.1366H5.87639C3.78873 5.1366 2.10579 6.81965 2.10579 8.9072C2.10579 10.9949 3.78868 12.6778 5.87639 12.6778C6.70141 12.6778 7.46129 12.4133 8.0808 11.9663C7.41893 11.1219 7.02404 10.0608 7.02404 8.90716C7.02404 7.75354 7.41892 6.69239 8.0808 5.84803C7.46731 5.40541 6.71645 5.14179 5.90095 5.1366ZM8.93665 6.69714C8.48912 7.31711 8.22634 8.08038 8.22634 8.90696C8.22634 9.73352 8.48911 10.4967 8.93668 11.1168C9.38421 10.4968 9.64699 9.73355 9.64699 8.90696C9.64699 8.08055 9.38421 7.31725 8.93665 6.69714ZM8.93667 6.42746L8.8093 6.32424C8.23861 7.02839 7.89846 7.9276 7.89846 8.90696C7.89846 9.8863 8.23861 10.7854 8.80929 11.4897L8.93665 11.6469L9.06403 11.4897C9.63472 10.7855 9.97487 9.88633 9.97487 8.90696C9.97487 7.92779 9.63472 7.02855 9.06404 6.32425L8.93667 6.42746Z" fill="#254DDD"/>
</svg>
