<?xml version="1.0" encoding="UTF-8"?>
<svg width="25px" height="25px" viewBox="0 0 25 25" version="1.1" xmlns="http://www.w3.org/2000/svg" xmlns:xlink="http://www.w3.org/1999/xlink">
    <title>clock</title>
    <g id="Page-1" stroke="none" stroke-width="1" fill="none" fill-rule="evenodd">
        <g id="clock" fill="#000000">
            <path d="M12.0428688,0 C18.6939688,0 24.0856688,5.3917688 24.0856688,12.0428688 C24.0856688,18.6939688 18.6939688,24.0856688 12.0428688,24.0856688 C5.3917688,24.0856688 0,18.6939688 0,12.0428688 C0,5.3917688 5.3917688,0 12.0428688,0 Z M12.0428688,1.7999988 C6.3858788,1.7999988 1.7999988,6.3858788 1.7999988,12.0428688 C1.7999988,17.6998688 6.3858788,22.2856688 12.0428688,22.2856688 C17.6998688,22.2856688 22.2856688,17.6998688 22.2856688,12.0428688 C22.2856688,6.3858788 17.6998688,1.7999988 12.0428688,1.7999988 Z M12.0425688,6.8569288 C12.5396688,6.8569288 12.9425688,7.2598788 12.9425688,7.7569288 L12.9425688,11.7094688 L17.0798688,16.5308688 C17.4035688,16.9080688 17.3601688,17.4762688 16.9829688,17.7999688 C16.6057688,18.1236688 16.0375688,18.0802688 15.7138688,17.7030688 L11.3595688,12.6287688 C11.2195688,12.4655688 11.1425688,12.2576688 11.1425688,12.0426688 L11.1425688,7.7569288 C11.1425688,7.2598788 11.5455688,6.8569288 12.0425688,6.8569288 Z" id="Combined-Shape"></path>
        </g>
    </g>
</svg>