<svg width="35" height="35" viewBox="0 0 35 35" fill="none" xmlns="http://www.w3.org/2000/svg">
<path opacity="0.4" fill-rule="evenodd" clip-rule="evenodd" d="M22.5786 32.4716C10.1259 36.7769 6.53414 35.0307 2.22881 22.5779C-2.07651 10.1252 -0.330279 6.53341 12.1225 2.22808C24.5752 -2.07724 28.167 -0.331012 32.4723 12.1217C36.7776 24.5745 35.0314 28.1662 22.5786 32.4716ZM14.6638 9.57873C12.9461 10.1726 12.044 12.0393 12.6356 13.7504C13.2116 15.4164 14.9803 16.3181 16.6486 15.823C16.7458 15.7817 16.851 15.7449 16.9528 15.7178C18.5687 15.0765 19.4039 13.2756 18.8351 11.6056C18.2433 9.89622 16.3736 8.98759 14.6638 9.57873ZM11.3755 14.1861C10.5439 11.7808 11.8126 9.15372 14.2281 8.31858C16.6343 7.48668 19.2638 8.76504 20.0957 11.1713L20.0966 11.1739C20.9001 13.5299 19.7087 16.0885 17.3955 16.9762C17.3679 16.9869 17.3395 16.9956 17.3107 17.0025C17.2688 17.0124 17.2081 17.0328 17.1534 17.0575C17.1282 17.0688 17.1024 17.0786 17.076 17.0867C14.7089 17.817 12.1897 16.5412 11.3755 14.1861ZM22.606 17.3538C21.0347 16.9426 19.2422 17.1072 17.6224 17.6672C16.0023 18.2273 14.4878 19.2061 13.4981 20.5014L13.4963 20.5038C12.6148 21.6682 12.3283 22.968 12.7266 24.12C13.1249 25.2722 14.1527 26.1156 15.5644 26.4826C17.1409 26.8963 18.9358 26.7334 20.5561 26.1733C22.1767 25.613 23.6893 24.6322 24.6736 23.3327L24.6737 23.3326C25.5552 22.1682 25.8417 20.8684 25.4435 19.7163C25.0451 18.5642 24.0175 17.7209 22.606 17.3538ZM13.9867 23.6843C13.7672 23.0493 13.8783 22.2088 14.5585 21.3098C15.356 20.2666 16.6291 19.4214 18.058 18.9273C19.4877 18.4331 21.0064 18.3134 22.2684 18.6437L22.2696 18.644C23.3581 18.9268 23.9638 19.5171 24.1833 20.152C24.4029 20.7873 24.2916 21.6283 23.6106 22.5277C22.8191 23.5727 21.5493 24.4191 20.1205 24.9131C18.6915 25.4071 17.1701 25.5257 15.9021 25.1927L15.9004 25.1923C14.8119 24.9095 14.2062 24.3192 13.9867 23.6843Z" fill="url(#paint0_linear_774_13959)"/>
<defs>
<linearGradient id="paint0_linear_774_13959" x1="11.5" y1="-9.00415" x2="24.5" y2="32.4959" gradientUnits="userSpaceOnUse">
<stop stop-color="#210FE8"/>
<stop offset="0.989583" stop-color="#000C7C" stop-opacity="0"/>
</linearGradient>
</defs>
</svg>
