<?xml version="1.0" encoding="UTF-8"?><svg version="1.1" width="25px" height="28px" viewBox="0 0 25.0 28.0" xmlns="http://www.w3.org/2000/svg" xmlns:xlink="http://www.w3.org/1999/xlink"><defs><clipPath id="i0"><path d="M9.06252073,0.328975786 C9.42202073,0.733475786 9.38562073,1.35287579 8.98112073,1.71247579 C7.83352073,2.73247579 6.19762073,3.18497579 4.65502073,3.18497579 C3.11242073,3.18497579 1.47652073,2.73247579 0.32892073,1.71247579 C-0.07558927,1.35287579 -0.11201927,0.733475786 0.24752073,0.328975786 C0.60712073,-0.0756242143 1.22652073,-0.112024214 1.63112073,0.247575786 C2.32102073,0.860875786 3.44132073,1.22497579 4.65502073,1.22497579 C5.86872073,1.22497579 6.98902073,0.860875786 7.67892073,0.247575786 C8.08342073,-0.112024214 8.70292073,-0.0756242143 9.06252073,0.328975786 Z"></path></clipPath><clipPath id="i1"><path d="M12.2499604,0 C12.9265002,0 13.4750002,0.548451 13.4750002,1.225 C13.4750002,1.24641 13.4744002,1.2677 13.4733002,1.28885 C13.5622466,1.30167001 13.6510792,1.31638158 13.7397547,1.33294912 C13.7668872,1.33793786 13.7945841,1.34329232 13.8222642,1.34882697 C13.8898163,1.36242476 13.956819,1.37690946 14.0237052,1.39243749 C14.0466226,1.39766173 14.0696325,1.40312864 14.0926278,1.40871854 C14.1796246,1.42997129 14.2663556,1.45286947 14.3528369,1.4774916 C14.3769019,1.48422621 14.4012672,1.49130332 14.4256116,1.49851674 C14.4898342,1.51767244 14.5535282,1.5375325 14.6170625,1.55831601 C14.6536511,1.57015056 14.6907112,1.58260153 14.7277135,1.59536489 C14.7794388,1.61334739 14.8307312,1.63168663 14.8819032,1.65062135 L14.9770321,1.68641151 C15.0525897,1.71568642 15.1282922,1.74628743 15.2036859,1.77817475 L15.2458104,1.7959775 C15.2672469,1.8051932 15.2886579,1.81451285 15.3100427,1.82393589 C15.3742761,1.85240285 15.4386509,1.88181697 15.502768,1.91215937 C15.5244925,1.92226606 15.5461794,1.93264855 15.567836,1.94313692 C15.6239032,1.97047032 15.6796395,1.99827171 15.7351612,2.02676917 C15.7944739,2.05702654 15.853484,2.08823061 15.9122345,2.12021492 C15.9577515,2.14518735 16.0033136,2.17055043 16.0487112,2.19638006 C16.0863273,2.21758263 16.1237007,2.23922765 16.1609579,2.26118742 C16.2132597,2.29221906 16.2655925,2.32382751 16.3176827,2.35605306 C16.3475149,2.37429664 16.3768378,2.39268233 16.4060814,2.41126291 C16.5638307,2.51170769 16.7196613,2.61789009 16.8728472,2.72950525 L16.9075604,2.75467 C18.8854622,4.21025628 20.4164409,6.57356676 20.7969502,9.26416965 C20.8023841,9.30040349 20.807308,9.33675621 20.8120209,9.37316709 C20.8214542,9.44843569 20.8303181,9.52416657 20.8382597,9.60013459 L20.8509241,9.72663715 C20.8599013,9.82907176 20.8675123,9.93192214 20.873405,10.0351573 C20.8761915,10.0783366 20.8783571,10.1215938 20.8802192,10.164916 C20.8826201,10.2283785 20.8846882,10.291744 20.8861015,10.3552411 L20.8885965,10.5139843 C20.8885358,10.5688364 20.8883203,10.6235223 20.8876135,10.6782962 C20.8867832,10.7693036 20.8842396,10.8610166 20.8803007,10.9529539 C20.8767141,11.028503 20.8725568,11.1038045 20.8674537,11.1792449 L20.8494288,11.4078847 L20.844,11.456 L20.8370351,11.529321 L20.8252604,11.6375 L20.816,11.683 L20.7911289,11.8387474 C20.5962811,13.2847036 21.5464328,14.0840522 22.5336302,14.9146 C23.5088702,15.7351 24.5202802,16.586 24.4996502,18.1208 C24.4996502,20.170256 23.3878517,21.3252438 21.7271255,21.9297571 C21.6447023,21.959747 21.5613167,21.98839 21.4766604,22.0156 C21.4766604,22.0156 18.1824604,23.275 12.2501604,23.275 C6.31750017,23.275 3.02330017,22.0156 3.02330017,22.0156 C2.93864384,21.98839 2.85525826,21.959747 2.77321138,21.9296478 C1.20026897,21.3573346 0.119897528,20.2913303 0.00962550596,18.4396772 C0.00326753566,18.3355234 -1.55048006e-05,18.2293283 5.50493269e-08,18.1208 L5.89567805e-06,18.0810489 C-0.00279119207,16.5712534 0.999542498,15.727989 1.96633042,14.9146 C2.95352781,14.0840522 3.90367953,13.2847036 3.70883173,11.8387474 L3.683,11.683 L3.67470017,11.6375 L3.66292549,11.529321 L3.655,11.456 L3.651,11.412 C3.64339684,11.331428 3.63728578,11.2551339 3.63213858,11.178981 C3.62740374,11.1038045 3.62324647,11.028503 3.62002147,10.9533516 C3.615721,10.8610166 3.61317738,10.7693036 3.6120041,10.6778355 C3.61164025,10.6235223 3.61142483,10.5688364 3.61169548,10.5142428 L3.61353927,10.354854 C3.61527234,10.291744 3.61734048,10.2283785 3.62005505,10.1651517 C3.62160347,10.1215938 3.62376904,10.0783366 3.62623532,10.0351467 C3.63244829,9.93192214 3.64005931,9.82907176 3.64935135,9.7266369 L3.6613611,9.60039166 C3.66964245,9.52416657 3.67850641,9.44843569 3.68827735,9.37295462 L3.7027096,9.26411037 C4.08351967,6.57356676 5.61449836,4.21025628 7.5929462,2.75452265 L7.62711336,2.72950525 C7.78029932,2.61789009 7.93612992,2.51170769 8.09428136,2.41122531 C8.12312281,2.39268233 8.1524457,2.37429664 8.18184583,2.35610753 C8.23436804,2.32382751 8.28670089,2.29221906 8.33926502,2.2612371 C8.37625993,2.23922765 8.41363332,2.21758263 8.45111878,2.19625572 C8.49664701,2.17055043 8.54220913,2.14518735 8.58792853,2.12029674 C8.64020649,2.09164412 8.69289399,2.0636959 8.74577775,2.03637927 C8.81305277,2.00181537 8.88022395,1.96829196 8.94768691,1.93579611 C8.96087903,1.92926586 8.97455046,1.92272797 8.98823367,1.91623235 C9.05557154,1.88444094 9.12280452,1.85367183 9.19029811,1.82393251 L9.25415017,1.7959775 L9.29627465,1.77817475 C9.37166836,1.74628743 9.44737087,1.71568642 9.5233527,1.68639604 L9.61791712,1.65052996 C9.66922935,1.63168663 9.72052177,1.61334739 9.77192569,1.595611 C9.80924938,1.58260153 9.84630948,1.57015056 9.88342406,1.55801473 C9.94643242,1.5375325 10.0101264,1.51767244 10.0739632,1.49874959 C10.0986934,1.49130332 10.1230587,1.48422621 10.1474438,1.47728618 C10.233605,1.45286947 10.320336,1.42997129 10.4072753,1.40883115 C10.4303281,1.40312864 10.453338,1.39766173 10.4763617,1.39231846 C10.5431416,1.37690946 10.6101443,1.36242476 10.6772448,1.34899886 C10.7053765,1.34329232 10.7330734,1.33793786 10.7607857,1.33276466 C10.8488814,1.31638158 10.937714,1.30167001 11.0266604,1.28885 C11.0255604,1.2677 11.0249604,1.24641 11.0249604,1.225 C11.0249604,0.548451 11.5734604,0 12.2499604,0 Z M14.1571455,3.99745645 L14.0225078,3.94589218 L13.897,3.901 L14.011,3.942 L13.8882219,3.89880222 L13.7801508,3.86415816 L13.77,3.861 L13.6527309,3.82680208 L13.533,3.795 L13.653486,3.82691795 C13.5741,3.80486105 13.4950693,3.78519924 13.4165027,3.76793693 L13.5259189,3.793541 L13.411,3.766 L13.412,3.766 L13.387,3.761 L13.2938521,3.74286431 C13.2531053,3.73516112 13.2125005,3.72811249 13.1720531,3.72171905 L13.2890862,3.74203134 L13.1708117,3.72157818 L13.13,3.715 L13.0424888,3.70341139 L12.923,3.69 L12.8215359,3.6824707 L12.5943604,3.675 L11.9056002,3.675 L11.6784246,3.6824707 C11.6476983,3.68446657 11.6168487,3.6868621 11.5858831,3.689657 L11.4575483,3.70344574 L11.353,3.717 L11.3290265,3.72154233 C11.2896121,3.72776116 11.2500481,3.73460223 11.2103488,3.74206496 L11.0921747,3.76603113 L10.987,3.79 L10.969,3.794 L10.965,3.795 L10.8467149,3.82685119 L10.732,3.86 L10.729,3.861 L10.6118059,3.89889101 L10.4772808,3.9460763 L10.374,3.985 L10.293,4.017 L10.229,4.043 L10.228,4.044 L10.1164741,4.0939954 L9.98634001,4.1551411 C9.91001944,4.19221971 9.83372896,4.23143509 9.75756114,4.2727835 L9.85835516,4.21951177 L9.73511059,4.28521158 L9.63535373,4.34102321 L9.598,4.362 L9.3717746,4.50160407 C8.81296064,4.86120406 8.26949662,5.33735853 7.77896042,5.92855 C6.75971692,7.1568765 6.10725777,8.726512 6.06411321,10.3871269 L6.06250257,10.6788786 C6.06348181,10.7356544 6.0651816,10.792518 6.06761171,10.8494594 C6.07394559,10.990166 6.08442926,11.1316173 6.09953042,11.2734 C6.12151027,11.3963268 6.1390851,11.5178212 6.1524167,11.6378609 C6.2866184,12.8438415 5.9949016,13.9044882 5.43320017,14.7981 C4.89710017,15.6509 4.14350017,16.2861 3.68180017,16.6753 L3.64690017,16.7047 C2.48680017,17.6834 2.45000017,17.8355 2.45000017,18.1211 C2.44990017,18.6553 2.59290017,18.9151 2.72250017,19.0713 C2.85707634,19.2334639 3.10455104,19.4306344 3.5459805,19.6027084 C3.61613572,19.6302196 3.6919846,19.6569476 3.77334042,19.6831 L3.83656042,19.7034 L3.88948042,19.7237 C3.90409042,19.7289 3.92732042,19.7372 3.96284042,19.7492 C4.03389042,19.7733 4.15411042,19.8125 4.32224042,19.8619 C4.65851042,19.9608 5.18626042,20.1007 5.89547042,20.2434 C7.31348042,20.5287 9.45806042,20.825 12.2501604,20.825 C15.0419002,20.825 17.1864802,20.5287 18.6044902,20.2434 C19.3137002,20.1007 19.8414502,19.9608 20.1777202,19.8619 C20.3458502,19.8125 20.4660702,19.7733 20.5371202,19.7492 C20.5726402,19.7372 20.5958702,19.7289 20.6066302,19.7251 L20.6634002,19.7034 L20.7266202,19.6831 C20.807976,19.6569476 20.8838249,19.6302196 20.954535,19.6031258 C21.3954095,19.4306344 21.6428842,19.2334639 21.7774604,19.0713 C21.9070604,18.9151 22.0500604,18.6553 22.0499604,18.1211 C22.0499604,17.8355 22.0131604,17.6834 20.8530604,16.7047 L20.8181604,16.6753 C20.3564604,16.2861 19.6028604,15.6509 19.0667604,14.7981 C18.505059,13.9044882 18.2133422,12.8438415 18.347713,11.6381918 C18.3608755,11.5178212 18.3784503,11.3963268 18.4004302,11.2734 C18.4155313,11.1316173 18.426015,10.990166 18.4320257,10.8491953 C18.434779,10.792518 18.4364788,10.7356544 18.437458,10.6788786 L18.4358474,10.3871269 C18.3927028,8.726512 17.7402437,7.1568765 16.7210002,5.92855 C16.1892404,5.28767608 15.5952831,4.78198652 14.9869985,4.41341442 L14.984,4.412 L14.983,4.411 L14.9370055,4.3832836 C14.9204113,4.37342226 14.9038676,4.36372291 14.8873153,4.35412469 L14.936,4.383 L14.8650063,4.3414378 L14.836,4.325 L14.7645493,4.28486984 C14.7235845,4.26240198 14.6825815,4.2405514 14.6415548,4.21931869 L14.6282399,4.21261569 L14.574,4.185 L14.5141205,4.155384 C14.4716277,4.1347346 14.4291254,4.11474758 14.3866298,4.09542358 L14.5136477,4.15531127 L14.3836327,4.09420903 L14.381,4.093 L14.2718366,4.04482513 C14.2335854,4.02849711 14.1953511,4.0127074 14.1571455,3.99745645 Z"></path></clipPath></defs><g transform="translate(-5.504932687472319e-08 0.0)"><g transform="translate(7.593739688036634 24.745124214301143)"><g clip-path="url(#i0)"><polygon points="-7.77156117e-16,-1.44328993e-15 9.31002196,-1.44328993e-15 9.31002196,3.18497579 -7.77156117e-16,3.18497579 -7.77156117e-16,-1.44328993e-15" stroke="none" fill="#202034"></polygon></g></g><g clip-path="url(#i1)"><polygon points="-1.71341587e-12,0 24.4999605,0 24.4999605,23.275 -1.71341587e-12,23.275 -1.71341587e-12,0" stroke="none" fill="#202034"></polygon></g></g></svg>