<svg width="38" height="38" viewBox="0 0 38 38" fill="none" xmlns="http://www.w3.org/2000/svg">
<g opacity="0.4">
<path fill-rule="evenodd" clip-rule="evenodd" d="M4.8286 11.2174C5.95109 9.62152 7.76158 8.68389 9.87782 8.23407L22.9198 5.46191C25.036 5.01209 27.0714 5.13227 28.7459 6.13363C30.4372 7.145 31.5646 8.9372 32.092 11.4184L34.0325 20.5478C34.5599 23.029 34.2589 25.1248 33.1252 26.7366C32.0027 28.3325 30.1922 29.2702 28.076 29.72L15.034 32.4921C12.9178 32.9419 10.8824 32.8218 9.20791 31.8204C7.51661 30.809 6.38923 29.0168 5.86184 26.5356L3.92133 17.4063C3.39393 14.9251 3.69489 12.8293 4.8286 11.2174Z" fill="url(#paint0_linear_732_14035)"/>
<path fill-rule="evenodd" clip-rule="evenodd" d="M25.3431 12.8539C25.7984 13.2277 25.8645 13.8999 25.4907 14.3552L22.1005 18.4847C20.6685 20.2233 17.9254 20.8064 15.9101 19.8005L15.9071 19.799L11.145 17.4034C10.6187 17.1387 10.4067 16.4974 10.6714 15.9712C10.9362 15.4449 11.5774 15.2329 12.1037 15.4976L16.8641 17.8924C17.9898 18.4533 19.6533 18.0995 20.4532 17.1291C20.4534 17.1289 20.4531 17.1293 20.4532 17.1291L23.8418 13.0015C24.2156 12.5462 24.8878 12.4801 25.3431 12.8539Z" fill="#F9F6FD"/>
</g>
<defs>
<linearGradient id="paint0_linear_732_14035" x1="16.3988" y1="6.84799" x2="21.555" y2="31.106" gradientUnits="userSpaceOnUse">
<stop stop-color="#6900D1"/>
<stop offset="1" stop-color="#8000BC" stop-opacity="0"/>
</linearGradient>
</defs>
</svg>
