<svg width="25" height="23" viewBox="0 0 25 23" fill="none" xmlns="http://www.w3.org/2000/svg">
<path d="M21.8042 7.79862H15.1148V3.11319C15.1138 2.44292 14.847 1.80022 14.3728 1.32605C13.8988 0.852053 13.2561 0.585282 12.5857 0.584229H2.86258C2.19213 0.585302 1.54943 0.852085 1.07544 1.32605C0.601261 1.80022 0.334491 2.44292 0.333437 3.11319V9.19339C0.330932 9.6967 0.481947 10.1889 0.76644 10.6042C1.69221 12.4078 6.10093 15.1132 6.1449 15.1533C6.20753 15.1921 6.27964 15.2128 6.35335 15.2134C6.44747 15.2125 6.53837 15.1783 6.60994 15.1171C6.74038 15.0058 6.78546 14.8237 6.72213 14.6643C6.37 13.7075 6.10178 12.7218 5.92053 11.7184H9.55166V16.408C9.55273 17.0781 9.81969 17.7202 10.2938 18.1937C10.768 18.6671 11.4107 18.933 12.0808 18.933H18.7459C18.5647 19.9364 18.2965 20.9221 17.9443 21.8788C17.8828 22.0372 17.9279 22.217 18.0565 22.3278C18.1281 22.3889 18.219 22.4229 18.3131 22.424C18.3868 22.4235 18.4589 22.4027 18.5216 22.3639C18.5656 22.3358 22.9743 19.6184 23.9005 17.8149H23.9003C24.1848 17.3996 24.3358 16.9074 24.3333 16.404V10.3279C24.3322 9.65768 24.0655 9.01498 23.5913 8.54081C23.1173 8.06681 22.4746 7.80004 21.8042 7.79899L21.8042 7.79862ZM8.12126 10.9168H5.4438C5.32678 10.9168 5.21549 10.9681 5.13927 11.0571C5.06233 11.1465 5.02851 11.2651 5.04712 11.3818C5.18508 12.212 5.37098 13.0338 5.60412 13.8426C4.21745 12.9046 2.03309 11.2936 1.48791 10.2555H1.48809C1.47574 10.2276 1.46107 10.2007 1.44389 10.1753C1.24207 9.8878 1.13417 9.54478 1.13524 9.19336V3.11316C1.13632 2.65546 1.31864 2.21675 1.64249 1.89286C1.96617 1.56918 2.40492 1.38684 2.86279 1.38579H12.5859C13.0438 1.38686 13.4825 1.56919 13.8062 1.89286C14.1301 2.21671 14.3124 2.65542 14.3134 3.11316V7.79859H12.081C11.3163 7.79894 10.5929 8.14517 10.113 8.74044C9.54094 8.74169 8.97712 8.60409 8.46969 8.33964C9.21797 7.49261 9.65848 6.41797 9.72022 5.28964H10.2253C10.4466 5.28964 10.6261 5.11018 10.6261 4.88885C10.6261 4.66734 10.4466 4.48805 10.2253 4.48805H8.14117V3.22144C8.14117 3.00011 7.96171 2.82064 7.74038 2.82064C7.51887 2.82064 7.33958 3.00011 7.33958 3.22144V4.47591H5.25131C5.02998 4.47591 4.85052 4.65538 4.85052 4.87671C4.85052 5.09822 5.02998 5.2775 5.25131 5.2775H8.91469C8.85618 6.2058 8.49117 7.08842 7.87656 7.78659L7.8125 7.84671C7.36661 7.4112 7.02415 6.88104 6.81051 6.2956C6.73071 6.08858 6.49846 5.98552 6.29144 6.06514C6.08443 6.14477 5.98136 6.37719 6.06099 6.58421C6.30004 7.23318 6.6713 7.82563 7.1512 8.32358C6.56682 8.61898 5.91785 8.76356 5.26333 8.74441C5.042 8.74441 4.86254 8.92388 4.86254 9.14521C4.86254 9.36672 5.042 9.54601 5.26333 9.54601C6.16226 9.57428 7.04974 9.33881 7.81643 8.86877C8.38025 9.2277 9.0224 9.44491 9.68818 9.50199C9.59854 9.75982 9.55237 10.0307 9.55183 10.3036V10.8928L8.12126 10.9168ZM23.532 16.4079C23.5331 16.7593 23.4252 17.1023 23.2234 17.3899C23.206 17.4132 23.1926 17.4387 23.1833 17.4661C22.6383 18.5043 20.4498 20.1194 19.0631 21.0733C19.2963 20.2644 19.4822 19.4427 19.6201 18.6123C19.6387 18.4958 19.6049 18.377 19.528 18.2877C19.4518 18.1986 19.3405 18.1475 19.2235 18.1475H12.081C11.6235 18.1475 11.1848 17.966 10.8609 17.6429C10.5371 17.3197 10.3545 16.8813 10.3535 16.424V10.3278C10.3546 9.8701 10.5369 9.43138 10.8607 9.10749C11.1844 8.78381 11.6232 8.60148 12.081 8.60043H21.8041C22.262 8.6015 22.7007 8.78383 23.0244 9.10749C23.3483 9.43135 23.5306 9.87006 23.5317 10.3278L23.532 16.4079ZM17.3318 10.2439C17.3166 10.2103 17.2962 10.1793 17.2717 10.1517C17.2717 10.1517 17.2717 10.1237 17.2436 10.1117C17.2295 10.1013 17.2148 10.092 17.1996 10.0836C17.174 10.0614 17.1457 10.0426 17.1153 10.0274C17.094 10.0256 17.0725 10.0256 17.0513 10.0274C17.0232 10.0256 16.9951 10.0256 16.967 10.0274C16.9317 10.0303 16.8967 10.0371 16.8628 10.0474H16.8188C16.7813 10.0641 16.7462 10.0857 16.7145 10.1117L16.6864 10.1317L16.6544 10.1798C16.6335 10.2061 16.6147 10.2344 16.5984 10.2639L14.1936 16.2759C14.1541 16.3746 14.1557 16.4852 14.1977 16.5829C14.2398 16.6806 14.319 16.7577 14.418 16.7969C14.465 16.8162 14.5155 16.8257 14.5663 16.825C14.7306 16.8252 14.8782 16.725 14.939 16.5725L15.6365 14.821H18.3018L19.0032 16.5725C19.0638 16.725 19.2116 16.8252 19.3759 16.825C19.4267 16.825 19.477 16.8155 19.5242 16.7969C19.623 16.7577 19.7023 16.6806 19.7445 16.5829C19.7865 16.4852 19.788 16.3746 19.7486 16.2759L17.3318 10.2439ZM15.941 13.9994L16.955 11.4704L17.9651 13.9994H15.941Z" fill="#254DDD" stroke="#254DDD" stroke-width="0.4"/>
</svg>
