<svg width="24" height="24" viewBox="0 0 24 24" fill="none" xmlns="http://www.w3.org/2000/svg">
<path fill-rule="evenodd" clip-rule="evenodd" d="M1.31433 5.60031C1.31433 4.89339 1.87717 4.32031 2.57147 4.32031H21.4286C22.1229 4.32031 22.6858 4.89339 22.6858 5.60031C22.6858 6.30724 22.1229 6.88031 21.4286 6.88031H2.57147C1.87717 6.88031 1.31433 6.30724 1.31433 5.60031ZM1.31433 12.0003C1.31433 11.2934 1.87717 10.7203 2.57147 10.7203H21.4286C22.1229 10.7203 22.6858 11.2934 22.6858 12.0003C22.6858 12.7072 22.1229 13.2803 21.4286 13.2803H2.57147C1.87717 13.2803 1.31433 12.7072 1.31433 12.0003ZM1.31433 18.4003C1.31433 17.6934 1.87717 17.1203 2.57147 17.1203H21.4286C22.1229 17.1203 22.6858 17.6934 22.6858 18.4003C22.6858 19.1072 22.1229 19.6803 21.4286 19.6803H2.57147C1.87717 19.6803 1.31433 19.1072 1.31433 18.4003Z" fill="#666666"/>
</svg>
