<svg width="49" height="48" viewBox="0 0 49 48" fill="none" xmlns="http://www.w3.org/2000/svg">
<rect x="0.666687" width="48" height="48" rx="8" fill="#F4F6FD"/>
<path d="M24.6667 25.9892C22.7142 25.9892 21.1192 24.4033 21.1192 22.4417C21.1192 20.48 22.7142 18.9033 24.6667 18.9033C26.6192 18.9033 28.2142 20.4892 28.2142 22.4508C28.2142 24.4125 26.6192 25.9892 24.6667 25.9892ZM24.6667 20.2783C23.475 20.2783 22.4942 21.25 22.4942 22.4508C22.4942 23.6517 23.4659 24.6233 24.6667 24.6233C25.8675 24.6233 26.8392 23.6517 26.8392 22.4508C26.8392 21.25 25.8584 20.2783 24.6667 20.2783Z" fill="#254DDD"/>
<path d="M24.6637 34.9381C23.2173 34.9381 21.7611 34.3909 20.6275 33.3061C17.7445 30.5306 14.5586 26.1035 15.7606 20.8359C16.8454 16.057 21.0184 13.9167 24.6637 13.9167C24.6637 13.9167 24.6637 13.9167 24.6735 13.9167C28.3187 13.9167 32.4917 16.057 33.5765 20.8457C34.7688 26.1133 31.5829 30.5306 28.6999 33.3061C27.5662 34.3909 26.1101 34.9381 24.6637 34.9381ZM24.6637 15.3827C21.8198 15.3827 18.1647 16.8975 17.1972 21.1584C16.1418 25.7614 19.0345 29.7292 21.6536 32.2408C23.3443 33.8729 25.9928 33.8729 27.6835 32.2408C30.2928 29.7292 33.1856 25.7614 32.1497 21.1584C31.1724 16.8975 27.5076 15.3827 24.6637 15.3827Z" fill="#254DDD"/>
</svg>
