<svg width="24" height="24" viewBox="0 0 24 24" fill="none" xmlns="http://www.w3.org/2000/svg">
<g clip-path="url(#clip0_1887_11971)">
<path fill-rule="evenodd" clip-rule="evenodd" d="M18.7345 1.67336C17.3707 1.67336 16.2652 2.77894 16.2652 4.14275C16.2652 5.50655 17.3707 6.61214 18.7345 6.61214C20.0984 6.61214 21.2039 5.50655 21.2039 4.14275C21.2039 2.77894 20.0984 1.67336 18.7345 1.67336ZM14.4692 4.14275C14.4692 1.78708 16.3789 -0.122559 18.7345 -0.122559C21.0902 -0.122559 22.9999 1.78708 22.9999 4.14275C22.9999 6.49841 21.0902 8.40806 18.7345 8.40806C16.3789 8.40806 14.4692 6.49841 14.4692 4.14275Z" fill="#254DDD"/>
<path fill-rule="evenodd" clip-rule="evenodd" d="M5.26531 9.53029C3.9015 9.53029 2.79592 10.6359 2.79592 11.9997C2.79592 13.3635 3.9015 14.4691 5.26531 14.4691C6.62911 14.4691 7.7347 13.3635 7.7347 11.9997C7.7347 10.6359 6.62911 9.53029 5.26531 9.53029ZM1 11.9997C1 9.64402 2.90964 7.73438 5.26531 7.73438C7.62097 7.73438 9.53061 9.64402 9.53061 11.9997C9.53061 14.3553 7.62097 16.265 5.26531 16.265C2.90964 16.265 1 14.3553 1 11.9997Z" fill="#254DDD"/>
<path fill-rule="evenodd" clip-rule="evenodd" d="M18.7345 17.3877C17.3707 17.3877 16.2652 18.4933 16.2652 19.8571C16.2652 21.2209 17.3707 22.3265 18.7345 22.3265C20.0984 22.3265 21.2039 21.2209 21.2039 19.8571C21.2039 18.4933 20.0984 17.3877 18.7345 17.3877ZM14.4692 19.8571C14.4692 17.5014 16.3789 15.5918 18.7345 15.5918C21.0902 15.5918 22.9999 17.5014 22.9999 19.8571C22.9999 22.2128 21.0902 24.1224 18.7345 24.1224C16.3789 24.1224 14.4692 22.2128 14.4692 19.8571Z" fill="#254DDD"/>
<path fill-rule="evenodd" clip-rule="evenodd" d="M7.39668 13.2429C7.64636 12.8144 8.19614 12.6694 8.62462 12.9191L16.291 17.3865C16.7194 17.6362 16.8644 18.1859 16.6147 18.6144C16.365 19.0429 15.8152 19.1879 15.3867 18.9382L7.72042 14.4708C7.29193 14.2211 7.14699 13.6714 7.39668 13.2429Z" fill="#254DDD"/>
<path fill-rule="evenodd" clip-rule="evenodd" d="M16.6032 5.38545C16.8531 5.81378 16.7085 6.36364 16.2802 6.6136L8.62512 11.0809C8.19679 11.3309 7.64693 11.1863 7.39696 10.758C7.147 10.3297 7.29159 9.7798 7.71992 9.52984L15.375 5.06249C15.8034 4.81253 16.3532 4.95712 16.6032 5.38545Z" fill="#254DDD"/>
</g>
<defs>
<clipPath id="clip0_1887_11971">
<rect width="24" height="24" fill="white"/>
</clipPath>
</defs>
</svg>
