<svg width="24" height="24" viewBox="0 0 24 24" fill="none" xmlns="http://www.w3.org/2000/svg">
<g clip-path="url(#clip0_464_442)">
<path d="M24 12C24 18.6274 18.6274 24 12 24C5.37258 24 0 18.6274 0 12C0 5.37258 5.37258 0 12 0C18.6274 0 24 5.37258 24 12Z" fill="#D72700"/>
<path fill-rule="evenodd" clip-rule="evenodd" d="M14.8159 10.0729C15.0614 9.82746 15.0614 9.42952 14.8159 9.18408C14.5705 8.93864 14.1725 8.93864 13.9271 9.18408L12 11.1112L10.0729 9.18408C9.82746 8.93864 9.42952 8.93864 9.18408 9.18408C8.93864 9.42952 8.93864 9.82746 9.18408 10.0729L11.1112 12L9.18408 13.9271C8.93864 14.1725 8.93864 14.5705 9.18408 14.8159C9.42952 15.0614 9.82746 15.0614 10.0729 14.8159L12 12.8888L13.9271 14.8159C14.1725 15.0614 14.5705 15.0614 14.8159 14.8159C15.0614 14.5705 15.0614 14.1725 14.8159 13.9271L12.8888 12L14.8159 10.0729Z" fill="white"/>
</g>
<defs>
<clipPath id="clip0_464_442">
<rect width="24" height="24" fill="white"/>
</clipPath>
</defs>
</svg>
