<svg width="18" height="19" viewBox="0 0 18 19" fill="none" xmlns="http://www.w3.org/2000/svg">
<path fill-rule="evenodd" clip-rule="evenodd" d="M15.8171 1.48308C14.6177 0.354533 13.4373 -0.122583 12.2705 0.0266131C11.1431 0.170786 10.2195 0.880371 9.46797 1.67425L8.10723 3.11455C8.10125 3.12067 8.09537 3.12689 8.08961 3.1332L1.25797 10.3642L1.25651 10.3658C1.02853 10.6085 0.835876 10.9295 0.694676 11.2323C0.552968 11.5362 0.432753 11.8865 0.389594 12.2102L0.0179904 15.4642L0.0177345 15.4665C-0.0694297 16.251 0.165856 16.9873 0.69831 17.4923C1.23151 17.9979 1.98001 18.193 2.76058 18.0584L5.97943 17.5086L5.98442 17.5077C6.30921 17.45 6.65518 17.3131 6.95427 17.1532C7.24957 16.9953 7.56106 16.782 7.79239 16.5301L14.5288 9.39978C14.6078 9.34338 14.6757 9.27188 14.728 9.18898L15.9983 7.84437C16.7494 7.05081 17.4081 6.0891 17.4876 4.95285C17.5698 3.77697 17.0219 2.62248 15.8185 1.48439L15.8171 1.48308ZM13.7949 7.99239L14.908 6.81425C15.0507 6.66344 15.18 6.5155 15.2953 6.37007C15.7203 5.83432 15.9574 5.33273 15.9912 4.84826C16.0315 4.2718 15.7945 3.52654 14.7886 2.575C14.068 1.89711 13.475 1.60751 12.9855 1.52597C12.7955 1.49432 12.621 1.49401 12.4608 1.5145C11.8484 1.59281 11.2261 1.99903 10.5578 2.70491L9.45116 3.87625C9.92817 6.00087 11.6451 7.62477 13.7949 7.99239ZM8.26526 5.13149L2.34978 11.3928C2.26781 11.4803 2.15521 11.6495 2.05412 11.8663C1.95486 12.0791 1.89524 12.2761 1.87737 12.4026L1.50856 15.6321L1.50845 15.6332C1.46594 16.0181 1.58557 16.2664 1.73048 16.4039C1.87478 16.5407 2.12628 16.6456 2.50572 16.5802L2.50687 16.58L5.72398 16.0305C5.84925 16.0079 6.04227 15.9399 6.24703 15.8304C6.45461 15.7194 6.61076 15.5997 6.68893 15.514L6.69789 15.5042L12.6117 9.2447C10.6133 8.60899 9.00771 7.09311 8.26526 5.13149Z" fill="#254DDD"/>
</svg>
