<svg width="22" height="22" viewBox="0 0 22 22" fill="none" xmlns="http://www.w3.org/2000/svg">
<path d="M21 16.4317L14.8457 10.2584L17.9228 7.17175C18.1165 6.97504 18.2539 6.72976 18.3207 6.46156C18.3875 6.19336 18.3813 5.91207 18.3027 5.64711C18.2241 5.38214 18.076 5.14322 17.8738 4.95532C17.6717 4.76742 17.4229 4.63743 17.1535 4.57895L2.90626 1.04472C2.6492 0.981257 2.38016 0.985404 2.12516 1.05676C1.87017 1.12811 1.63784 1.26426 1.45064 1.45203C1.26345 1.6398 1.12772 1.87285 1.05658 2.12864C0.985449 2.38442 0.981314 2.65429 1.04458 2.91215L4.56793 17.2034C4.63446 17.4686 4.77005 17.7114 4.96083 17.9068C5.15161 18.1021 5.39073 18.2432 5.6537 18.3154C5.91667 18.3876 6.19406 18.3885 6.45746 18.3178C6.72086 18.2472 6.96081 18.1076 7.15275 17.9133L10.2299 14.8267L16.3843 21L21 16.4317Z" stroke="#254DDD" stroke-width="1.6" stroke-linecap="round" stroke-linejoin="round"/>
</svg>
