<svg width="20" height="20" viewBox="0 0 20 20" fill="none" xmlns="http://www.w3.org/2000/svg">
<path fill-rule="evenodd" clip-rule="evenodd" d="M6.17071 1.01972C6.37377 0.894395 6.62056 0.886964 6.82966 0.999875L12.8954 4.27536L18.1707 1.01972C18.3887 0.885208 18.6557 0.887124 18.872 1.02475C19.0883 1.16237 19.2213 1.41499 19.2213 1.68817V15.5122C19.2213 15.789 19.0848 16.0443 18.864 16.1806L13.264 19.6366C13.0609 19.7619 12.8141 19.7694 12.605 19.6565L6.53933 16.381L1.26399 19.6366C1.04603 19.7711 0.778988 19.7692 0.562676 19.6316C0.346364 19.494 0.213346 19.2413 0.213346 18.9682V5.14417C0.213346 4.86738 0.349873 4.612 0.570707 4.47572L6.17071 1.01972ZM6.53933 2.55698L1.62135 5.59207V17.6513L6.17071 14.8437C6.37377 14.7184 6.62056 14.711 6.82966 14.8239L12.8954 18.0994L17.8133 15.0643V3.00501L13.264 5.81262C13.0609 5.93794 12.8141 5.94537 12.605 5.83246L6.53933 2.55698Z" fill="#254DDD"/>
</svg>
