<svg width="36" height="28" viewBox="0 0 36 28" fill="none" xmlns="http://www.w3.org/2000/svg">
<path fill-rule="evenodd" clip-rule="evenodd" d="M2.68036 2.99973C3.47718 1.96402 4.72141 0.686507 6.26364 0.412008L6.3023 0.405127L6.34136 0.401107C7.19671 0.313086 8.058 0.567461 8.87156 1.07586L8.8758 1.07851C9.4433 1.43685 10.4969 2.24274 11.4401 3.04822C11.9168 3.45531 12.3857 3.87961 12.7658 4.265C12.9555 4.45737 13.1334 4.65046 13.2825 4.83455C13.4192 5.00338 13.5769 5.21921 13.6806 5.45413C14.2513 6.72663 13.8735 7.90529 13.6445 8.61971C13.6367 8.6442 13.629 8.66814 13.6216 8.69153L13.6033 8.74887C13.5389 8.94641 13.4498 9.1725 13.3693 9.37714L13.3618 9.39625C13.1961 9.81719 13.0437 10.2101 12.9637 10.5549C12.9246 10.7233 12.9139 10.8368 12.9155 10.9037C13.6858 12.0241 14.6663 13.0856 15.7835 14.0318C17.0677 15.036 18.9743 16.2229 19.9182 16.6267C20.887 17.0411 21.8657 17.3513 22.8361 17.5394C22.8407 17.5376 22.846 17.5355 22.8518 17.5331C22.9232 17.5034 23.0311 17.4422 23.176 17.3337C23.4721 17.1121 23.7801 16.8048 24.1 16.4828L24.1128 16.4698C24.2567 16.3248 24.4134 16.1671 24.5544 16.0391L24.5672 16.0274L24.6066 15.993C24.6242 15.9776 24.6421 15.9618 24.6604 15.9457C25.2303 15.4434 26.1568 14.6268 27.5677 14.624C27.8193 14.6231 28.0772 14.6767 28.2857 14.7307C28.5125 14.7894 28.7598 14.8699 29.0121 14.9614C29.5175 15.1447 30.0956 15.3912 30.6624 15.6521C31.779 16.1661 32.9483 16.7812 33.5149 17.1527C34.3073 17.6641 34.9316 18.3489 35.1916 19.2306L35.197 19.2488L35.2017 19.2673C35.583 20.7536 34.9407 22.3618 34.3243 23.4879C33.7017 24.6252 32.9236 25.593 32.5162 25.9882C30.9225 27.7367 28.5159 28.0985 25.7699 27.5023C22.8573 26.9811 19.272 25.4074 15.7791 23.4025C14.5314 22.6864 12.093 21.1367 11.3175 20.5545C7.67474 17.9749 4.37043 15.0094 2.51609 12.3492C1.65441 11.2122 1.07662 10.0532 0.832781 8.90601C0.59044 7.76588 0.690617 6.65189 1.13618 5.61448C1.22937 5.35176 1.41767 4.96713 1.64636 4.56279C1.90609 4.10359 2.25718 3.54979 2.68036 2.99973Z" fill="url(#paint0_linear_754_11560)"/>
<defs>
<linearGradient id="paint0_linear_754_11560" x1="14.7292" y1="-1.38943" x2="21.2715" y2="29.3897" gradientUnits="userSpaceOnUse">
<stop stop-color="#FFB800"/>
<stop offset="0.9999" stop-color="#FFB800" stop-opacity="0.01"/>
<stop offset="1" stop-color="#0A0A0A" stop-opacity="0"/>
</linearGradient>
</defs>
</svg>
