<svg width="20" height="20" viewBox="0 0 20 20" fill="none" xmlns="http://www.w3.org/2000/svg">
<path fill-rule="evenodd" clip-rule="evenodd" d="M1.74878 7.3181C1.74878 6.94637 2.05013 6.64502 2.42186 6.64502H18.4177C18.7894 6.64502 19.0908 6.94637 19.0908 7.3181C19.0908 7.68983 18.7894 7.99117 18.4177 7.99117H2.42186C2.05013 7.99117 1.74878 7.68983 1.74878 7.3181Z" fill="#0A0A0A"/>
<path fill-rule="evenodd" clip-rule="evenodd" d="M13.7288 10.8227C13.7288 10.451 14.0301 10.1497 14.4018 10.1497H14.4102C14.7819 10.1497 15.0832 10.451 15.0832 10.8227C15.0832 11.1945 14.7819 11.4958 14.4102 11.4958H14.4018C14.0301 11.4958 13.7288 11.1945 13.7288 10.8227Z" fill="#0A0A0A"/>
<path fill-rule="evenodd" clip-rule="evenodd" d="M9.74683 10.8227C9.74683 10.451 10.0482 10.1497 10.4199 10.1497H10.4282C10.7999 10.1497 11.1013 10.451 11.1013 10.8227C11.1013 11.1945 10.7999 11.4958 10.4282 11.4958H10.4199C10.0482 11.4958 9.74683 11.1945 9.74683 10.8227Z" fill="#0A0A0A"/>
<path fill-rule="evenodd" clip-rule="evenodd" d="M5.75806 10.8227C5.75806 10.451 6.0594 10.1497 6.43113 10.1497H6.43945C6.81118 10.1497 7.11252 10.451 7.11252 10.8227C7.11252 11.1945 6.81118 11.4958 6.43945 11.4958H6.43113C6.0594 11.4958 5.75806 11.1945 5.75806 10.8227Z" fill="#0A0A0A"/>
<path fill-rule="evenodd" clip-rule="evenodd" d="M13.7288 14.3108C13.7288 13.939 14.0301 13.6377 14.4018 13.6377H14.4102C14.7819 13.6377 15.0832 13.939 15.0832 14.3108C15.0832 14.6825 14.7819 14.9838 14.4102 14.9838H14.4018C14.0301 14.9838 13.7288 14.6825 13.7288 14.3108Z" fill="#0A0A0A"/>
<path fill-rule="evenodd" clip-rule="evenodd" d="M9.74683 14.3108C9.74683 13.939 10.0482 13.6377 10.4199 13.6377H10.4282C10.7999 13.6377 11.1013 13.939 11.1013 14.3108C11.1013 14.6825 10.7999 14.9838 10.4282 14.9838H10.4199C10.0482 14.9838 9.74683 14.6825 9.74683 14.3108Z" fill="#0A0A0A"/>
<path fill-rule="evenodd" clip-rule="evenodd" d="M5.75806 14.3108C5.75806 13.939 6.0594 13.6377 6.43113 13.6377H6.43945C6.81118 13.6377 7.11252 13.939 7.11252 14.3108C7.11252 14.6825 6.81118 14.9838 6.43945 14.9838H6.43113C6.0594 14.9838 5.75806 14.6825 5.75806 14.3108Z" fill="#0A0A0A"/>
<path fill-rule="evenodd" clip-rule="evenodd" d="M14.0447 0C14.4164 0 14.7177 0.301347 14.7177 0.673077V3.62634C14.7177 3.99807 14.4164 4.29942 14.0447 4.29942C13.6729 4.29942 13.3716 3.99807 13.3716 3.62634V0.673077C13.3716 0.301347 13.6729 0 14.0447 0Z" fill="#0A0A0A"/>
<path fill-rule="evenodd" clip-rule="evenodd" d="M6.79515 0C7.16688 0 7.46822 0.301347 7.46822 0.673077V3.62634C7.46822 3.99807 7.16688 4.29942 6.79515 4.29942C6.42342 4.29942 6.12207 3.99807 6.12207 3.62634V0.673077C6.12207 0.301347 6.42342 0 6.79515 0Z" fill="#0A0A0A"/>
<path fill-rule="evenodd" clip-rule="evenodd" d="M3.0286 2.67413C3.92752 1.81962 5.18247 1.41748 6.62146 1.41748H14.2203C15.6629 1.41748 16.9185 1.81931 17.8159 2.67478C18.7184 3.53504 19.1711 4.77065 19.1667 6.25831V14.4467C19.1667 15.9344 18.7117 17.1713 17.8091 18.0332C16.9111 18.8906 15.6557 19.2951 14.212 19.2951H6.62146C5.17843 19.2951 3.92203 18.8822 3.02389 18.0117C2.12241 17.138 1.66675 15.8856 1.66675 14.3789V6.25738C1.66675 4.76868 2.12447 3.53359 3.0286 2.67413ZM3.95607 3.6498C3.37825 4.19908 3.0129 5.0474 3.0129 6.25738V14.3789C3.0129 15.6132 3.38031 16.4825 3.96077 17.045C4.54458 17.6109 5.429 17.949 6.62146 17.949H14.212C15.4121 17.949 16.2975 17.6152 16.8794 17.0596C17.4566 16.5085 17.8206 15.6578 17.8206 14.4467V6.25738L17.8206 6.2553C17.8243 5.0448 17.4622 4.19741 16.8871 3.64915C16.3067 3.09588 15.4216 2.76363 14.2203 2.76363H6.62146C5.42496 2.76363 4.53909 3.09557 3.95607 3.6498Z" fill="#0A0A0A"/>
</svg>
