<svg width="24" height="24" viewBox="0 0 24 24" fill="none" xmlns="http://www.w3.org/2000/svg">
<path fill-rule="evenodd" clip-rule="evenodd" d="M2.57141 12.1713C2.32893 12.1713 2.09638 12.2676 1.92492 12.4391C1.75346 12.6105 1.65713 12.8431 1.65713 13.0856V20.857H5.19999V13.0856C5.19999 12.8431 5.10366 12.6105 4.9322 12.4391C4.76074 12.2676 4.52818 12.1713 4.2857 12.1713H2.57141ZM2.57141 10.5713H4.2857C4.95253 10.5713 5.59205 10.8362 6.06357 11.3077C6.53509 11.7792 6.79999 12.4187 6.79999 13.0856V21.657C6.79999 22.0988 6.44181 22.457 5.99999 22.457H0.857129C0.415301 22.457 0.0571289 22.0988 0.0571289 21.657V13.0856C0.0571289 12.4187 0.322026 11.7792 0.793546 11.3077C1.26507 10.8362 1.90458 10.5713 2.57141 10.5713Z" fill="#254DDD"/>
<path fill-rule="evenodd" clip-rule="evenodd" d="M19.7143 12.1713C19.4718 12.1713 19.2392 12.2676 19.0678 12.4391C18.8963 12.6105 18.8 12.8431 18.8 13.0856V20.857H22.3428V13.0856C22.3428 12.8431 22.2465 12.6105 22.0751 12.4391C21.9036 12.2676 21.671 12.1713 21.4286 12.1713H19.7143ZM19.7143 10.5713H21.4286C22.0954 10.5713 22.7349 10.8362 23.2064 11.3077C23.6779 11.7792 23.9428 12.4187 23.9428 13.0856V21.657C23.9428 22.0988 23.5847 22.457 23.1428 22.457H18C17.5582 22.457 17.2 22.0988 17.2 21.657V13.0856C17.2 12.4187 17.4649 11.7792 17.9364 11.3077C18.4079 10.8362 19.0474 10.5713 19.7143 10.5713Z" fill="#254DDD"/>
<path fill-rule="evenodd" clip-rule="evenodd" d="M5.19998 21.6569C5.19998 21.2151 5.55815 20.8569 5.99998 20.8569H18C18.4418 20.8569 18.8 21.2151 18.8 21.6569C18.8 22.0988 18.4418 22.4569 18 22.4569H5.99998C5.55815 22.4569 5.19998 22.0988 5.19998 21.6569Z" fill="#254DDD"/>
<path fill-rule="evenodd" clip-rule="evenodd" d="M9.42854 3.6C8.27675 3.6 7.17212 4.05755 6.35768 4.87199C5.54324 5.68644 5.08569 6.79106 5.08569 7.94286V11.3714C5.08569 11.8133 4.72752 12.1714 4.28569 12.1714C3.84386 12.1714 3.48569 11.8133 3.48569 11.3714V7.94286C3.48569 6.36671 4.11181 4.85512 5.22631 3.74062C6.34081 2.62612 7.8524 2 9.42854 2H14.5714C16.1475 2 17.6591 2.62612 18.7736 3.74062C19.8881 4.85512 20.5143 6.36671 20.5143 7.94286V11.3714C20.5143 11.8133 20.1561 12.1714 19.7143 12.1714C19.2724 12.1714 18.9143 11.8133 18.9143 11.3714V7.94286C18.9143 6.79106 18.4567 5.68644 17.6423 4.87199C16.8278 4.05755 15.7232 3.6 14.5714 3.6H9.42854Z" fill="#254DDD"/>
<path fill-rule="evenodd" clip-rule="evenodd" d="M5.19998 14.8C5.19998 14.3582 5.55815 14 5.99998 14H18C18.4418 14 18.8 14.3582 18.8 14.8C18.8 15.2418 18.4418 15.6 18 15.6H5.99998C5.55815 15.6 5.19998 15.2418 5.19998 14.8Z" fill="#254DDD"/>
</svg>
