<svg width="48" height="48" viewBox="0 0 48 48" fill="none" xmlns="http://www.w3.org/2000/svg">
<rect width="48" height="48" rx="8" fill="#F4F6FD"/>
<path d="M29.7127 14.1636C29.4712 14.1636 29.2756 14.3593 29.2756 14.6007C29.2756 14.8422 29.4714 15.0378 29.7127 15.0378H32.3699L28.5651 18.8427C27.8214 18.3708 26.9403 18.0982 25.9966 18.0982C24.8336 18.0982 23.7692 18.5144 22.9365 19.2048C22.1039 18.5144 21.0394 18.0982 19.8764 18.0982C17.2256 18.0982 15.0675 20.2564 15.0675 22.907C15.0675 25.4105 16.9922 27.4739 19.4392 27.6956V30.5577H17.472C17.2305 30.5577 17.0349 30.7535 17.0349 30.9948C17.0349 31.2363 17.2307 31.432 17.472 31.432H19.4392V33.3992C19.4392 33.6407 19.635 33.8363 19.8764 33.8363C20.1179 33.8363 20.3135 33.6405 20.3135 33.3992V31.432H22.2807C22.5222 31.432 22.7178 31.2362 22.7178 30.9948C22.7178 30.7533 22.522 30.5577 22.2807 30.5577H20.3135V27.6956C21.3064 27.6058 22.2092 27.2124 22.9365 26.6096C23.7691 27.3 24.8336 27.7162 25.9966 27.7162C28.6473 27.7162 30.8055 25.558 30.8055 22.9074C30.8055 21.5163 30.2096 20.2616 29.2617 19.3826L32.9915 15.6528L32.9846 18.3168H32.9915C32.9915 18.5583 33.1873 18.754 33.4286 18.754C33.6701 18.754 33.8658 18.5582 33.8658 18.3168H33.859L33.8658 14.6009H33.8659C33.8659 14.3595 33.6701 14.1638 33.4288 14.1638L29.7127 14.1636ZM19.8764 18.9725C20.7996 18.9725 21.6449 19.2901 22.3151 19.8194C21.6117 20.6559 21.188 21.7318 21.188 22.907C21.188 24.0823 21.6117 25.1582 22.3151 25.9946C21.6451 26.524 20.7996 26.8416 19.8764 26.8416C17.6981 26.8416 15.9418 25.0853 15.9418 22.9071C15.9418 20.729 17.6982 18.9725 19.8764 18.9725V18.9725ZM25.9968 18.9725C28.175 18.9725 29.9313 20.7288 29.9313 22.907C29.9313 25.0851 28.175 26.8415 25.9968 26.8415C25.0736 26.8415 24.2282 26.5239 23.5581 25.9946C24.2615 25.1581 24.6852 24.0822 24.6852 22.907C24.6852 21.7317 24.2615 20.6558 23.5581 19.8194C24.2281 19.29 25.0735 18.9724 25.9968 18.9724V18.9725ZM22.9367 20.4273C23.4843 21.1032 23.8109 21.9663 23.8109 22.9068C23.8109 23.8476 23.4843 24.7106 22.9367 25.3863C22.389 24.7104 22.0624 23.8476 22.0624 22.9068C22.0624 21.9661 22.389 21.1031 22.9367 20.4273Z" fill="#254DDD"/>
<path fill-rule="evenodd" clip-rule="evenodd" d="M29.1117 14.6008C29.1117 14.269 29.3806 13.9998 29.7127 13.9998L33.4288 14C33.7607 14 34.0298 14.2691 34.0298 14.601V14.765L34.0233 18.153H34.0297V18.3169C34.0297 18.6488 33.7607 18.918 33.4286 18.918C33.1536 18.918 32.9215 18.7332 32.8502 18.4809H32.8203L32.8265 16.0497L29.4959 19.3803C30.4041 20.2815 30.9694 21.5297 30.9694 22.9075C30.9694 25.6486 28.7379 27.8803 25.9966 27.8803C24.8418 27.8803 23.781 27.4834 22.9365 26.8203C22.2408 27.3664 21.3992 27.7317 20.4774 27.8433V30.3939H22.2807C22.6125 30.3939 22.8817 30.6628 22.8817 30.9949C22.8817 31.3268 22.6128 31.596 22.2807 31.596H20.4774V33.3993C20.4774 33.7311 20.2084 34.0003 19.8763 34.0003C19.5445 34.0003 19.2753 33.7314 19.2753 33.3993V31.596H17.472C17.1402 31.596 16.871 31.327 16.871 30.9949C16.871 30.6631 17.1399 30.3939 17.472 30.3939H19.2753V27.8432C16.816 27.5454 14.9036 25.4452 14.9036 22.9072C14.9036 20.166 17.1351 17.9343 19.8764 17.9343C21.0312 17.9343 22.092 18.3312 22.9365 18.9943C23.781 18.3312 24.8418 17.9343 25.9966 17.9343C26.9253 17.9343 27.7958 18.1898 28.5407 18.6353L31.9741 15.2019H29.7127C29.3809 15.2019 29.1117 14.9329 29.1117 14.6008ZM33.149 18.153H33.1554V18.3169C33.1554 18.4679 33.2778 18.5901 33.4286 18.5901C33.5586 18.5901 33.6673 18.4994 33.695 18.3779L33.7018 14.5923C33.6972 14.4455 33.5767 14.3278 33.4288 14.3278L29.7127 14.3276C29.5618 14.3276 29.4395 14.45 29.4395 14.6008C29.4395 14.7518 29.5619 14.874 29.7127 14.874H32.7657L28.5881 19.0516L28.4772 18.9812C27.7591 18.5255 26.9083 18.2622 25.9966 18.2622C24.8735 18.2622 23.8458 18.664 23.0412 19.3311L22.9365 19.4179L22.8319 19.3311C22.0273 18.664 20.9995 18.2622 19.8764 18.2622C17.3162 18.2622 15.2314 20.3471 15.2314 22.9072C15.2314 25.3249 17.0906 27.3183 19.454 27.5325L19.6032 27.546V30.7218H17.472C17.3211 30.7218 17.1988 30.8441 17.1988 30.9949C17.1988 31.1459 17.3212 31.2681 17.472 31.2681H19.6032V33.3993C19.6032 33.5502 19.7255 33.6725 19.8763 33.6725C20.0273 33.6725 20.1495 33.5501 20.1495 33.3993V31.2681H22.2807C22.4316 31.2681 22.5539 31.1458 22.5539 30.9949C22.5539 30.844 22.4315 30.7218 22.2807 30.7218H20.1495V27.546L20.2987 27.5325C21.2572 27.4458 22.129 27.0661 22.8318 26.4835L22.9365 26.3967L23.0411 26.4835C23.8457 27.1506 24.8735 27.5524 25.9966 27.5524C28.5568 27.5524 30.6415 25.4676 30.6415 22.9075C30.6415 21.5643 30.0663 20.3525 29.1502 19.5029L29.0254 19.3872L33.1564 15.2561L33.149 18.153ZM23.7924 19.8479C24.4542 20.6923 24.8491 21.7535 24.8491 22.9071C24.8491 24.0607 24.4543 25.1218 23.7924 25.9662C24.412 26.4133 25.1718 26.6777 25.9968 26.6777C28.0844 26.6777 29.7674 24.9947 29.7674 22.9071C29.7674 20.8195 28.0845 19.1365 25.9968 19.1365H25.9722C25.1567 19.1417 24.4057 19.4053 23.7924 19.8479ZM26.1607 18.8118V18.8086H25.9968C25.0352 18.8086 24.1542 19.1395 23.4565 19.6909L23.3239 19.7956L23.4326 19.925C24.1122 20.7332 24.5213 21.772 24.5213 22.9071C24.5213 24.0422 24.1122 25.081 23.4326 25.8892L23.3239 26.0185L23.4565 26.1233C24.1544 26.6746 25.0352 27.0056 25.9968 27.0056C28.2655 27.0056 30.0953 25.1757 30.0953 22.9071C30.0953 20.6933 28.3531 18.8975 26.1607 18.8118ZM19.7124 18.8119C17.5201 18.8976 15.7779 20.6935 15.7779 22.9072C15.7779 25.1759 17.6076 27.0057 19.8764 27.0057C20.838 27.0057 21.719 26.6747 22.4167 26.1234L22.5493 26.0186L22.4405 25.8893C21.761 25.0811 21.3519 24.0422 21.3519 22.9072C21.3519 21.7721 21.761 20.7333 22.4405 19.9251L22.5493 19.7957L22.4167 19.6909C21.7188 19.1396 20.838 18.8086 19.8764 18.8086H19.7124V18.8119ZM19.9009 19.1366H19.8764C17.7887 19.1366 16.1058 20.8196 16.1058 22.9072C16.1058 24.9949 17.7887 26.6778 19.8764 26.6778C20.7014 26.6778 21.4613 26.4133 22.0808 25.9663C21.4189 25.1219 21.024 24.0608 21.024 22.9072C21.024 21.7535 21.4189 20.6924 22.0808 19.848C21.4673 19.4054 20.7164 19.1418 19.9009 19.1366ZM22.9367 20.6971C22.4891 21.3171 22.2263 22.0804 22.2263 22.907C22.2263 23.7335 22.4891 24.4967 22.9367 25.1168C23.3842 24.4968 23.647 23.7335 23.647 22.907C23.647 22.0806 23.3842 21.3173 22.9367 20.6971ZM22.9367 20.4275L22.8093 20.3242C22.2386 21.0284 21.8985 21.9276 21.8985 22.907C21.8985 23.8863 22.2386 24.7854 22.8093 25.4897L22.9367 25.6469L23.064 25.4897C23.6347 24.7855 23.9749 23.8863 23.9749 22.907C23.9749 21.9278 23.6347 21.0285 23.064 20.3243L22.9367 20.4275Z" fill="#254DDD"/>
</svg>
