<svg width="21" height="24" viewBox="0 0 21 24" fill="none" xmlns="http://www.w3.org/2000/svg">
<path fill-rule="evenodd" clip-rule="evenodd" d="M0.0984383 8.78181C0.0984383 8.33574 0.460054 7.97412 0.906131 7.97412H20.1012C20.5472 7.97412 20.9088 8.33574 20.9088 8.78181C20.9088 9.22789 20.5472 9.58951 20.1012 9.58951H0.906131C0.460054 9.58951 0.0984383 9.22789 0.0984383 8.78181Z" fill="#254DDD"/>
<path fill-rule="evenodd" clip-rule="evenodd" d="M14.8535 0C15.2996 0 15.6612 0.361616 15.6612 0.807692V4.35161C15.6612 4.79769 15.2996 5.1593 14.8535 5.1593C14.4074 5.1593 14.0458 4.79769 14.0458 4.35161V0.807692C14.0458 0.361616 14.4074 0 14.8535 0Z" fill="#254DDD"/>
<path fill-rule="evenodd" clip-rule="evenodd" d="M6.15408 0C6.60016 0 6.96177 0.361616 6.96177 0.807692V4.35161C6.96177 4.79769 6.60016 5.1593 6.15408 5.1593C5.708 5.1593 5.34639 4.79769 5.34639 4.35161V0.807692C5.34639 0.361616 5.708 0 6.15408 0Z" fill="#254DDD"/>
<path fill-rule="evenodd" clip-rule="evenodd" d="M1.63422 3.20866C2.71292 2.18325 4.21886 1.70068 5.94565 1.70068H15.0643C16.7953 1.70068 18.3022 2.18288 19.379 3.20945C20.4619 4.24176 21.0052 5.72448 21 7.50968V17.3358C21 19.121 20.454 20.6053 19.3708 21.6396C18.2933 22.6684 16.7867 23.1539 15.0543 23.1539H5.94565C4.21402 23.1539 2.70633 22.6583 1.62857 21.6137C0.546798 20.5653 0 19.0624 0 17.2543V7.50856C0 5.72213 0.549272 4.24002 1.63422 3.20866ZM2.74718 4.37946C2.0538 5.0386 1.61538 6.05658 1.61538 7.50856V17.2543C1.61538 18.7356 2.05627 19.7787 2.75283 20.4538C3.4534 21.1328 4.5147 21.5385 5.94565 21.5385H15.0543C16.4945 21.5385 17.5569 21.138 18.2552 20.4712C18.9479 19.8099 19.3846 18.789 19.3846 17.3358V7.50856L19.3846 7.50607C19.3891 6.05347 18.9546 5.0366 18.2644 4.37868C17.568 3.71476 16.5058 3.31607 15.0643 3.31607H5.94565C4.50985 3.31607 3.44682 3.71439 2.74718 4.37946Z" fill="#254DDD"/>
<path fill-rule="evenodd" clip-rule="evenodd" d="M14.3356 13.1537C14.5551 13.3584 14.5548 13.6901 14.3349 13.8944L10.0824 17.8469C9.86267 18.0512 9.50679 18.051 9.28725 17.8466L7.16475 15.8703C6.94508 15.6658 6.94508 15.3342 7.16475 15.1297C7.38442 14.9251 7.74058 14.9251 7.96025 15.1297L9.68535 16.7359L13.5401 13.1531C13.76 12.9487 14.1161 12.949 14.3356 13.1537Z" fill="#254DDD"/>
</svg>
