<svg width="24" height="24" viewBox="0 0 24 24" fill="none" xmlns="http://www.w3.org/2000/svg">
<path fill-rule="evenodd" clip-rule="evenodd" d="M11.2896 21.2803C11.4302 21.421 11.621 21.5 11.8199 21.5C12.0188 21.5 12.2096 21.421 12.3502 21.2803L18.4202 15.2103C18.7131 14.9174 18.7131 14.4426 18.4202 14.1497C18.1273 13.8568 17.6525 13.8568 17.3596 14.1497L12.5698 18.9394L12.5698 3.75008C12.5698 3.33587 12.234 3.00008 11.8198 3.00008C11.4056 3.00008 11.0698 3.33587 11.0698 3.75008L11.0698 18.9393L6.28022 14.1497C5.98733 13.8568 5.51246 13.8568 5.21956 14.1497C4.92667 14.4426 4.92667 14.9174 5.21956 15.2103L11.2896 21.2803Z" fill="#0A0A0A"/>
</svg>
