<svg width="24" height="24" viewBox="0 0 24 24" fill="none" xmlns="http://www.w3.org/2000/svg">
<path fill-rule="evenodd" clip-rule="evenodd" d="M9.4597 3.78456L9.29694 4.75376C9.85796 4.73791 10.419 4.72998 10.9801 4.72998C12.2228 4.72998 13.4668 4.75334 14.7106 4.79954L14.5399 3.79069C14.4562 3.27767 14.4033 3.09352 14.3062 2.98155C14.2524 2.9196 14.065 2.75 13.3101 2.75H10.6901C9.92402 2.75 9.74232 2.91488 9.69388 2.96981C9.60177 3.07427 9.54978 3.24976 9.4597 3.78456ZM7.98048 3.53579L7.76535 4.81674C6.83212 4.86712 5.89893 4.93943 4.96578 5.03367L2.92688 5.23356C2.51464 5.27397 2.21322 5.64092 2.25363 6.05316C2.29405 6.4654 2.661 6.76682 3.07323 6.7264L5.11323 6.5264L5.11543 6.52618C7.07051 6.3287 9.02535 6.22998 10.9801 6.22998C14.2947 6.22998 17.62 6.39869 20.9261 6.72632C21.3383 6.76717 21.7055 6.46614 21.7464 6.05394C21.7872 5.64175 21.4862 5.27448 21.074 5.23364C19.4674 5.07442 17.856 4.95217 16.2432 4.868L16.2412 4.85492L16.2396 4.84486L16.02 3.54711L16.0106 3.48891C15.9448 3.08006 15.8463 2.46776 15.4391 1.99845C14.9678 1.4554 14.2453 1.25 13.3101 1.25H10.6901C9.76621 1.25 9.04291 1.44012 8.56885 1.97769C8.16216 2.43887 8.06114 3.04899 7.99228 3.46487L7.98048 3.53579ZM19.5984 9.18823C19.6251 8.77488 19.3116 8.41816 18.8982 8.39148C18.4849 8.3648 18.1282 8.67826 18.1015 9.09161L17.4518 19.1575L17.4516 19.1595C17.4234 19.5623 17.3995 19.8817 17.3434 20.1601C17.2888 20.4313 17.213 20.6094 17.1151 20.7368C16.9463 20.9566 16.5294 21.2499 15.2099 21.2499H8.78993C7.47049 21.2499 7.05356 20.9566 6.88473 20.7368C6.78683 20.6094 6.71102 20.4313 6.65642 20.1601C6.60035 19.8817 6.57646 19.5623 6.54824 19.1595L6.5481 19.1575L5.89837 9.09161C5.87169 8.67826 5.51497 8.3648 5.10162 8.39148C4.68827 8.41816 4.37481 8.77488 4.40149 9.18823L5.05148 19.2582L5.05309 19.2813C5.07944 19.6576 5.10841 20.0713 5.18594 20.4563C5.26633 20.8554 5.40803 21.2767 5.69513 21.6505C6.2963 22.4332 7.31937 22.7499 8.78993 22.7499H15.2099C16.6805 22.7499 17.7036 22.4332 18.3047 21.6505C18.5918 21.2767 18.7335 20.8554 18.8139 20.4563C18.8914 20.0713 18.9204 19.6576 18.9468 19.2814V19.2813L18.9481 19.2623L19.5984 9.18823ZM9.58008 16.5C9.58008 16.0858 9.91586 15.75 10.3301 15.75H13.6601C14.0743 15.75 14.4101 16.0858 14.4101 16.5C14.4101 16.9142 14.0743 17.25 13.6601 17.25H10.3301C9.91586 17.25 9.58008 16.9142 9.58008 16.5ZM9.5 11.75C9.08579 11.75 8.75 12.0858 8.75 12.5C8.75 12.9142 9.08579 13.25 9.5 13.25H14.5C14.9142 13.25 15.25 12.9142 15.25 12.5C15.25 12.0858 14.9142 11.75 14.5 11.75H9.5Z" fill="#0A0A0A"/>
</svg>
