<svg width="24" height="24" viewBox="0 0 24 24" fill="none" xmlns="http://www.w3.org/2000/svg">
<path fill-rule="evenodd" clip-rule="evenodd" d="M2.80001 15.0435C2.80001 17.9634 5.16706 20.3304 8.08697 20.3304C11.0069 20.3304 13.3739 17.9634 13.3739 15.0435C13.3739 12.1236 11.0069 9.75651 8.08697 9.75651C5.16706 9.75651 2.80001 12.1236 2.80001 15.0435ZM8.08697 21.9304C4.28341 21.9304 1.20001 18.847 1.20001 15.0435C1.20001 11.2399 4.28341 8.15651 8.08697 8.15651C11.8905 8.15651 14.9739 11.2399 14.9739 15.0435C14.9739 18.847 11.8905 21.9304 8.08697 21.9304Z" fill="#254DDD"/>
<path fill-rule="evenodd" clip-rule="evenodd" d="M10.6261 15.0435C10.6261 17.9634 12.9931 20.3304 15.913 20.3304C18.833 20.3304 21.2 17.9634 21.2 15.0435C21.2 12.1236 18.833 9.75651 15.913 9.75651C12.9931 9.75651 10.6261 12.1236 10.6261 15.0435ZM15.913 21.9304C12.1095 21.9304 9.02609 18.847 9.02609 15.0435C9.02609 11.2399 12.1095 8.15651 15.913 8.15651C19.7166 8.15651 22.8 11.2399 22.8 15.0435C22.8 18.847 19.7166 21.9304 15.913 21.9304Z" fill="#254DDD"/>
<path fill-rule="evenodd" clip-rule="evenodd" d="M6.71307 8.08692C6.71307 11.0068 9.08012 13.3739 12 13.3739C14.9199 13.3739 17.287 11.0068 17.287 8.08692C17.287 5.16702 14.9199 2.79996 12 2.79996C9.08012 2.79996 6.71307 5.16702 6.71307 8.08692ZM12 14.9739C8.19646 14.9739 5.11307 11.8905 5.11307 8.08692C5.11307 4.28336 8.19646 1.19996 12 1.19996C15.8036 1.19996 18.887 4.28336 18.887 8.08692C18.887 11.8905 15.8036 14.9739 12 14.9739Z" fill="#254DDD"/>
</svg>
