<svg width="20" height="20" viewBox="0 0 20 20" fill="none" xmlns="http://www.w3.org/2000/svg">
<g clip-path="url(#clip0_774_14078)">
<path fill-rule="evenodd" clip-rule="evenodd" d="M10 2.49998C5.8579 2.49998 2.50004 5.85784 2.50004 9.99998C2.50004 14.1421 5.8579 17.5 10 17.5C14.1422 17.5 17.5 14.1421 17.5 9.99998C17.5 5.85784 14.1422 2.49998 10 2.49998ZM0.833374 9.99998C0.833374 4.93737 4.93743 0.833313 10 0.833313C15.0626 0.833313 19.1667 4.93737 19.1667 9.99998C19.1667 15.0626 15.0626 19.1666 10 19.1666C4.93743 19.1666 0.833374 15.0626 0.833374 9.99998Z" fill="#444444"/>
<path fill-rule="evenodd" clip-rule="evenodd" d="M9.99996 14.1667C10.4602 14.1667 10.8333 13.7936 10.8333 13.3334V10C10.8333 9.53978 10.4602 9.16669 9.99996 9.16669C9.53972 9.16669 9.16663 9.53978 9.16663 10V13.3334C9.16663 13.7936 9.53972 14.1667 9.99996 14.1667Z" fill="#444444"/>
<path fill-rule="evenodd" clip-rule="evenodd" d="M9.16663 6.66667C9.16663 7.1269 9.53972 7.5 9.99996 7.5H10.0083C10.4685 7.5 10.8416 7.1269 10.8416 6.66667C10.8416 6.20643 10.4685 5.83333 10.0083 5.83333H9.99996C9.53972 5.83333 9.16663 6.20643 9.16663 6.66667Z" fill="#444444"/>
</g>
<defs>
<clipPath id="clip0_774_14078">
<rect width="20" height="20" fill="white"/>
</clipPath>
</defs>
</svg>
