<svg width="48" height="48" viewBox="0 0 48 48" fill="none" xmlns="http://www.w3.org/2000/svg">
<rect width="48" height="48" rx="8" fill="#F4F6FD"/>
<path fill-rule="evenodd" clip-rule="evenodd" d="M24 15.3397C19.217 15.3397 15.3397 19.217 15.3397 24C15.3397 28.7829 19.217 32.6603 24 32.6603C28.7829 32.6603 32.6603 28.7829 32.6603 24C32.6603 19.217 28.7829 15.3397 24 15.3397ZM14 24C14 18.4771 18.4771 14 24 14C29.5228 14 34 18.4771 34 24C34 29.5228 29.5228 34 24 34C18.4771 34 14 29.5228 14 24Z" fill="#254DDD"/>
<path fill-rule="evenodd" clip-rule="evenodd" d="M25.4354 14.1006C25.8054 14.1006 26.1053 14.4005 26.1053 14.7704V17.8996C26.1053 18.7435 25.7701 19.5528 25.1734 20.1495C24.5766 20.7462 23.7673 21.0814 22.9235 21.0814C22.4349 21.0814 21.9664 21.2755 21.6209 21.621C21.2754 21.9664 21.0814 22.435 21.0814 22.9235V25.0766C21.0814 25.9205 20.7461 26.7298 20.1494 27.3265C19.5527 27.9232 18.7434 28.2585 17.8996 28.2585H15.3876C15.0176 28.2585 14.7177 27.9586 14.7177 27.5886C14.7177 27.2187 15.0176 26.9187 15.3876 26.9187H17.8996C18.3881 26.9187 18.8567 26.7247 19.2021 26.3792C19.5476 26.0337 19.7417 25.5652 19.7417 25.0766V22.9235C19.7417 22.0797 20.0769 21.2704 20.6736 20.6737C21.2703 20.077 22.0796 19.7417 22.9235 19.7417C23.412 19.7417 23.8806 19.5476 24.226 19.2022C24.5715 18.8567 24.7656 18.3882 24.7656 17.8996V14.7704C24.7656 14.4005 25.0655 14.1006 25.4354 14.1006Z" fill="#254DDD"/>
<path fill-rule="evenodd" clip-rule="evenodd" d="M25.6975 23.5445C26.2942 22.9478 27.1035 22.6125 27.9474 22.6125H31.0085C31.9243 22.6176 32.8258 22.8402 33.6387 23.262C33.967 23.4324 34.0951 23.8367 33.9247 24.1651C33.7543 24.4935 33.35 24.6215 33.0216 24.4511C32.3977 24.1274 31.7058 23.9564 31.0029 23.9523H27.9474C27.4588 23.9523 26.9903 24.1463 26.6448 24.4918C26.2994 24.8373 26.1053 25.3058 26.1053 25.7944C26.1053 26.2829 26.2994 26.7515 26.6448 27.0969C26.9903 27.4424 27.4588 27.6365 27.9474 27.6365C28.6009 27.6365 29.2277 27.8961 29.6898 28.3582C30.1519 28.8203 30.4115 29.4471 30.4115 30.1006V31.3494C30.4115 31.7193 30.1116 32.0192 29.7416 32.0192C29.3717 32.0192 29.0718 31.7193 29.0718 31.3494V30.1006C29.0718 29.8024 28.9533 29.5164 28.7424 29.3055C28.5316 29.0946 28.2456 28.9762 27.9474 28.9762C27.1035 28.9762 26.2942 28.641 25.6975 28.0442C25.1008 27.4475 24.7656 26.6382 24.7656 25.7944C24.7656 24.9505 25.1008 24.1412 25.6975 23.5445Z" fill="#254DDD"/>
</svg>
