<svg width="20" height="20" viewBox="0 0 20 20" fill="none" xmlns="http://www.w3.org/2000/svg">
<rect width="20" height="20" rx="10" fill="#F4F6FD"/>
<path fill-rule="evenodd" clip-rule="evenodd" d="M10 5C10.2319 5 10.4198 5.18797 10.4198 5.41985V9.58015H14.5802C14.812 9.58015 15 9.76812 15 10C15 10.2319 14.812 10.4198 14.5802 10.4198H10.4198V14.5802C10.4198 14.812 10.2319 15 10 15C9.76812 15 9.58015 14.812 9.58015 14.5802V10.4198H5.41985C5.18797 10.4198 5 10.2319 5 10C5 9.76812 5.18797 9.58015 5.41985 9.58015H9.58015V5.41985C9.58015 5.18797 9.76812 5 10 5Z" fill="#0A0A0A"/>
</svg>
