<svg width="24" height="24" viewBox="0 0 24 24" fill="none" xmlns="http://www.w3.org/2000/svg">
<path fill-rule="evenodd" clip-rule="evenodd" d="M19.0639 2.89373C17.8645 1.76518 16.6841 1.28806 15.5173 1.43726C14.3899 1.58143 13.4663 2.29102 12.7148 3.08489L11.3541 4.52519C11.3481 4.53131 11.3422 4.53753 11.3364 4.54385L4.5048 11.7749L4.50334 11.7764C4.27535 12.0191 4.0827 12.3402 3.9415 12.643C3.79979 12.9468 3.67958 13.2971 3.63642 13.6208L3.26482 16.8749L3.26456 16.8771C3.1774 17.6616 3.41268 18.398 3.94514 18.9029C4.47834 19.4086 5.22684 19.6036 6.0074 19.469L9.22625 18.9193L9.23125 18.9184C9.55604 18.8606 9.902 18.7238 10.2011 18.5639C10.4964 18.406 10.8079 18.1926 11.0392 17.9407L17.7756 10.8104C17.8546 10.754 17.9225 10.6825 17.9748 10.5996L19.2451 9.25501C19.9963 8.46146 20.655 7.49975 20.7344 6.3635C20.8166 5.18762 20.2687 4.03312 19.0653 2.89503L19.0639 2.89373ZM17.0417 9.40303L18.1548 8.22489C18.2976 8.07409 18.4268 7.92614 18.5421 7.78071C18.9671 7.24497 19.2042 6.74338 19.238 6.2589C19.2783 5.68244 19.0413 4.93718 18.0355 3.98564C17.3149 3.30776 16.7218 3.01816 16.2323 2.93661C16.0423 2.90496 15.8679 2.90465 15.7076 2.92514C15.0952 3.00345 14.4729 3.40968 13.8046 4.11556L12.698 5.2869C13.175 7.41151 14.892 9.03541 17.0417 9.40303ZM11.5121 6.54213L5.59661 12.8035C5.51464 12.8909 5.40203 13.0602 5.30094 13.2769C5.20168 13.4898 5.14206 13.6867 5.12419 13.8133L4.75539 17.0428L4.75527 17.0438C4.71276 17.4287 4.83239 17.6771 4.97731 17.8145C5.12161 17.9513 5.37311 18.0563 5.75254 17.9909L5.7537 17.9907L8.97081 17.4412C9.09608 17.4185 9.2891 17.3505 9.49385 17.241C9.70144 17.1301 9.85759 17.0104 9.93576 16.9246L9.94471 16.9148L15.8585 10.6553C13.8601 10.0196 12.2545 8.50376 11.5121 6.54213Z" fill="#0A0A0A"/>
</svg>
