<svg width="24" height="24" viewBox="0 0 24 24" fill="none" xmlns="http://www.w3.org/2000/svg">
<path fill-rule="evenodd" clip-rule="evenodd" d="M17.6318 8.1458C18.1227 7.65492 18.1227 6.85904 17.6318 6.36816C17.141 5.87728 16.3451 5.87728 15.8542 6.36816L12 10.2224L8.1458 6.36816C7.65492 5.87728 6.85904 5.87728 6.36816 6.36816C5.87728 6.85904 5.87728 7.65492 6.36816 8.1458L10.2224 12L6.36816 15.8542C5.87728 16.3451 5.87728 17.141 6.36816 17.6318C6.85904 18.1227 7.65492 18.1227 8.1458 17.6318L12 13.7776L15.8542 17.6318C16.3451 18.1227 17.141 18.1227 17.6318 17.6318C18.1227 17.141 18.1227 16.3451 17.6318 15.8542L13.7776 12L17.6318 8.1458Z" fill="#0A0A0A"/>
</svg>
