<svg width="24" height="24" viewBox="0 0 24 24" fill="none" xmlns="http://www.w3.org/2000/svg">
<path fill-rule="evenodd" clip-rule="evenodd" d="M12.3503 3.21967C12.2097 3.07902 12.0189 3 11.82 3C11.6211 3 11.4303 3.07902 11.2897 3.21967L5.21967 9.28967C4.92678 9.58256 4.92678 10.0574 5.21967 10.3503C5.51256 10.6432 5.98744 10.6432 6.28033 10.3503L11.0701 5.56059V20.7499C11.0701 21.1641 11.4059 21.4999 11.8201 21.4999C12.2343 21.4999 12.5701 21.1641 12.5701 20.7499V5.56073L17.3597 10.3503C17.6526 10.6432 18.1274 10.6432 18.4203 10.3503C18.7132 10.0574 18.7132 9.58256 18.4203 9.28967L12.3503 3.21967Z" fill="#0A0A0A"/>
</svg>
