<svg width="24" height="24" viewBox="0 0 24 24" fill="none" xmlns="http://www.w3.org/2000/svg">
<path fill-rule="evenodd" clip-rule="evenodd" d="M13.1964 3.07041C12.4461 2.64226 11.5312 2.64443 10.7949 3.06953L4.85763 6.49794C4.1157 6.93499 3.65991 7.72968 3.65991 8.58003V15.42C3.65991 16.2836 4.11829 17.0753 4.8549 17.5005L10.792 20.9289C10.7925 20.9291 10.793 20.9294 10.7934 20.9297C11.5438 21.3578 12.4586 21.3556 13.1949 20.9305C13.1949 20.9305 13.1948 20.9306 13.1949 20.9305L19.1299 17.5034C19.1307 17.503 19.1315 17.5025 19.1323 17.5021C19.8741 17.065 20.3299 16.2703 20.3299 15.42V8.58003C20.3299 7.721 19.8753 6.93563 19.1322 6.49794C19.1314 6.4975 19.1307 6.49706 19.1299 6.49661L13.1978 3.07118C13.1974 3.07092 13.1969 3.07066 13.1964 3.07041ZM10.0449 1.77047C11.2482 1.07583 12.7326 1.07774 13.942 1.76882L13.945 1.7705L19.8899 5.20335C21.0855 5.90592 21.8299 7.17994 21.8299 8.58003V15.42C21.8299 16.8088 21.0866 18.0934 19.8899 18.7967L19.885 18.7996L13.945 22.2295C12.7417 22.9242 11.2572 22.9223 10.0478 22.2312L10.0449 22.2295L4.10493 18.7996C2.90153 18.1048 2.15991 16.8164 2.15991 15.42V8.58003C2.15991 7.19125 2.9032 5.90661 4.09994 5.20337L4.10486 5.20048L10.0449 1.77047Z" fill="#0A0A0A"/>
<path fill-rule="evenodd" clip-rule="evenodd" d="M11.9999 7.09009C11.1273 7.09009 10.4199 7.79745 10.4199 8.67004C10.4199 9.54266 11.1273 10.2501 11.9999 10.2501C12.8725 10.2501 13.5799 9.54266 13.5799 8.67004C13.5799 7.79745 12.8726 7.09009 11.9999 7.09009ZM8.91992 8.67004C8.91992 6.96899 10.2989 5.59009 11.9999 5.59009C13.7009 5.59009 15.0799 6.96899 15.0799 8.67004C15.0799 10.3711 13.701 11.7501 11.9999 11.7501C10.2989 11.7501 8.91992 10.3711 8.91992 8.67004Z" fill="#0A0A0A"/>
<path fill-rule="evenodd" clip-rule="evenodd" d="M7.25 16.6601C7.25 14.3099 9.52631 12.6501 12 12.6501C14.4737 12.6501 16.75 14.3099 16.75 16.6601C16.75 17.0743 16.4142 17.4101 16 17.4101C15.5858 17.4101 15.25 17.0743 15.25 16.6601C15.25 15.4103 13.9463 14.1501 12 14.1501C10.0537 14.1501 8.75 15.4103 8.75 16.6601C8.75 17.0743 8.41421 17.4101 8 17.4101C7.58579 17.4101 7.25 17.0743 7.25 16.6601Z" fill="#0A0A0A"/>
</svg>
