<?xml version="1.0" encoding="UTF-8"?><svg version="1.1" width="127px" height="109px" viewBox="0 0 127.0 109.0" xmlns="http://www.w3.org/2000/svg" xmlns:xlink="http://www.w3.org/1999/xlink"><defs><clipPath id="i0"><path d="M53.6045,0 C83.1417,0 107.1099,23.9879 107.2089,53.5498 C107.2089,83.0121 83.1417,107 53.6045,107 C23.9679,107 0,83.0121 0,53.4502 C0,23.9879 23.9679,0 53.6045,0 Z"></path></clipPath><clipPath id="i1"><path d="M4.077,0 C6.329,0 8.155,1.8271 8.155,4.0809 C8.155,6.3348 6.329,8.1619 4.077,8.1619 C1.825,8.1619 0,6.3348 0,4.0809 C0,1.8271 1.825,0 4.077,0 Z"></path></clipPath><clipPath id="i2"><path d="M2.784,0 C4.322,0 5.569,1.2478 5.569,2.787 C5.569,4.3262 4.322,5.5739 2.784,5.5739 C1.246,5.5739 0,4.3262 0,2.787 C0,1.2478 1.246,0 2.784,0 Z"></path></clipPath><clipPath id="i3"><path d="M5.1715,0 C8.02764,0 10.343,2.3173 10.343,5.1759 C10.343,8.0344 8.02764,10.3517 5.1715,10.3517 C2.31536,10.3517 0,8.0344 0,5.1759 C0,2.3173 2.31536,0 5.1715,0 Z"></path></clipPath><clipPath id="i4"><path d="M46.8718,0 C48.9875,0 50.9405,0.81443 52.4053,2.28039 L72.9117,22.80387 C74.3764,24.43277 75.1904,26.38737 75.1904,28.50487 L75.1904,93.33317 C75.1904,98.05647 71.4469,101.80347 66.7272,101.80347 L8.463,101.80347 C3.7433,101.80347 0,98.05647 0,93.33317 L0,8.47007 C0,3.74636 3.7433,0 8.463,0 L46.8718,0 Z"></path></clipPath><clipPath id="i5"><path d="M0,19.2635 L24.8681,25.4819 L6.2446,25.4819 C2.923,25.4819 0,22.7182 0,19.2635 Z"></path></clipPath><clipPath id="i6"><path d="M14.4832,0 C14.9896,0 15.3948,0.5388 15.3948,1.1852 C15.3948,1.9395 14.9896,2.3704 14.4832,2.3704 L0.9115,2.3704 C0.4051,2.3704 0,1.8317 0,1.1852 C0,0.5388 0.4051,0 0.9115,0 L14.4832,0 Z"></path></clipPath><clipPath id="i7"><path d="M31.8398,0 C32.5496,0 33.158,0.547 33.158,1.1852 C33.158,1.8233 32.5496,2.3704 31.8398,2.3704 L1.3182,2.3704 C0.6084,2.3704 0,1.8233 0,1.1852 C0,0.547 0.6084,0 1.3182,0 L31.8398,0 Z"></path></clipPath><clipPath id="i8"><path d="M12.9004,0 C13.6058,0 14.2106,0.547 14.2106,1.1852 C14.2106,1.8234 13.6058,2.3704 13.0011,2.3704 L1.3102,2.3704 C0.6047,2.3704 0,1.8234 0,1.1852 C0,0.547 0.6047,0 1.3102,0 L12.9004,0 Z"></path></clipPath><clipPath id="i9"><path d="M52.3329,0 C52.8113,0 53.194,0.4939 53.2896,1.1852 C53.2896,1.8766 52.8113,2.3704 52.3329,2.3704 L0.9567,2.3704 C0.3827,2.3704 0,1.7778 0,1.1852 C0,0.4939 0.4783,0 0.9567,0 Z"></path></clipPath><clipPath id="i10"><path d="M52.3312,0 C52.8104,0 53.1938,0.4938 53.2896,1.1852 C53.2896,1.8765 52.8104,2.3704 52.3312,2.3704 L0.9584,2.3704 C0.3833,2.3704 0,1.7778 0,1.1852 C0,0.4938 0.4792,0 0.9584,0 Z"></path></clipPath><clipPath id="i11"><path d="M52.418,0 C52.8954,0 53.3728,0.5926 53.2774,1.1852 C53.2774,1.8765 52.8,2.3704 52.3226,2.3704 L0.9548,2.3704 C0.3819,2.3704 0,1.7778 0,1.1852 C0,0.4938 0.4774,0 0.9548,0 Z"></path></clipPath><clipPath id="i12"><path d="M52.3431,0 C52.911,0 53.2896,0.5926 53.2896,1.1852 C53.2896,1.8766 52.911,2.3704 52.2485,2.3704 L0.9465,2.3704 C0.3786,2.3704 0,1.7778 0,1.1852 C0,0.4938 0.4732,0 0.9465,0 Z"></path></clipPath><clipPath id="i13"><path d="M20.93,0 C32.4889,0 41.8599,9.3785 41.8599,20.9475 C41.8599,32.5165 32.4889,41.8948 20.93,41.8948 C9.3707,41.8948 0,32.5165 0,20.9475 C0,9.3785 9.3707,0 20.93,0 Z"></path></clipPath><clipPath id="i14"><path d="M5.5823,13.5341 C6.1676,13.5341 6.6818,13.75 7.125,14.1818 C7.5681,14.608 7.7926,15.1222 7.7982,15.7244 C7.7926,16.1335 7.6846,16.5057 7.4744,16.8409 C7.2698,17.1762 7,17.4432 6.6647,17.6421 C6.3352,17.8409 5.9744,17.9404 5.5823,17.9404 C4.9687,17.9404 4.4431,17.7244 4.0056,17.2926 C3.5738,16.8608 3.3607,16.3381 3.3664,15.7244 C3.3607,15.1222 3.5738,14.608 4.0056,14.1818 C4.4431,13.75 4.9687,13.5341 5.5823,13.5341 Z M5.8977,0 C7.0681,0 8.1079,0.1818 9.017,0.5455 C9.9318,0.9091 10.6505,1.446 11.1732,2.1563 C11.696,2.8665 11.9573,3.7358 11.9573,4.7642 C11.9573,5.4404 11.8437,6.0369 11.6164,6.554 C11.3892,7.071 11.071,7.5284 10.6619,7.9262 C10.2585,8.3182 9.784,8.6762 9.2386,9 C8.8125,9.25 8.4573,9.5114 8.1732,9.7841 C7.8948,10.0568 7.6846,10.3693 7.5426,10.7216 C7.4005,11.0682 7.3295,11.4943 7.3295,12 L7.3295,12.3494 L3.6988,12.3494 L3.6988,12 C3.6988,11.0341 3.7784,10.2642 3.9375,9.6904 C4.1022,9.1165 4.3409,8.6563 4.6534,8.3097 C4.9659,7.9574 5.3465,7.6364 5.7954,7.3466 C6.1534,7.1193 6.4715,6.8892 6.75,6.6563 C7.034,6.4176 7.2585,6.1619 7.4232,5.8892 C7.588,5.6165 7.6704,5.3068 7.6704,4.9602 C7.6704,4.625 7.5909,4.3296 7.4318,4.0739 C7.2727,3.8182 7.0539,3.6222 6.7755,3.4858 C6.5028,3.3438 6.1988,3.2727 5.8636,3.2727 C5.5284,3.2727 5.213,3.3494 4.9176,3.5029 C4.6278,3.6563 4.3892,3.875 4.2017,4.1591 C4.0198,4.4375 3.9261,4.7756 3.9204,5.1733 L0,5.1733 C0.017,3.9801 0.2926,3.0029 0.8267,2.2415 C1.3664,1.4801 2.0795,0.9176 2.9659,0.554 C3.8522,0.1847 4.8295,0 5.8977,0 Z"></path></clipPath><clipPath id="i15"><path d="M14.9573,-3 L14.9573,20.9404 L-3.02869778,20.9404 L-3.02869778,-3 L14.9573,-3 Z M5.5823,13.5341 C4.9687,13.5341 4.4431,13.75 4.0056,14.1818 C3.5738,14.608 3.3607,15.1222 3.3664,15.7244 C3.3607,16.3381 3.5738,16.8608 4.0056,17.2926 C4.4431,17.7244 4.9687,17.9404 5.5823,17.9404 C5.9744,17.9404 6.3352,17.8409 6.6647,17.6421 C7,17.4432 7.2698,17.1762 7.4744,16.8409 C7.6846,16.5057 7.7926,16.1335 7.7982,15.7244 C7.7926,15.1222 7.5681,14.608 7.125,14.1818 C6.6818,13.75 6.1676,13.5341 5.5823,13.5341 Z M5.8977,0 C4.8295,0 3.8522,0.1847 2.9659,0.554 C2.0795,0.9176 1.3664,1.4801 0.8267,2.2415 C0.2926,3.0029 0.017,3.9801 0,5.1733 L3.9204,5.1733 C3.9261,4.7756 4.0198,4.4375 4.2017,4.1591 C4.3892,3.875 4.6278,3.6563 4.9176,3.5029 C5.213,3.3494 5.5284,3.2727 5.8636,3.2727 C6.1988,3.2727 6.5028,3.3438 6.7755,3.4858 C7.0539,3.6222 7.2727,3.8182 7.4318,4.0739 C7.5909,4.3296 7.6704,4.625 7.6704,4.9602 C7.6704,5.3068 7.588,5.6165 7.4232,5.8892 C7.2585,6.1619 7.034,6.4176 6.75,6.6563 C6.4715,6.8892 6.1534,7.1193 5.7954,7.3466 C5.3465,7.6364 4.9659,7.9574 4.6534,8.3097 C4.3409,8.6563 4.1022,9.1165 3.9375,9.6904 C3.7784,10.2642 3.6988,11.0341 3.6988,12 L3.6988,12.3494 L7.3295,12.3494 L7.3295,12 C7.3295,11.4943 7.4005,11.0682 7.5426,10.7216 C7.6846,10.3693 7.8948,10.0568 8.1732,9.7841 C8.4573,9.5114 8.8125,9.25 9.2386,9 C9.784,8.6762 10.2585,8.3182 10.6619,7.9262 C11.071,7.5284 11.3892,7.071 11.6164,6.554 C11.8437,6.0369 11.9573,5.4404 11.9573,4.7642 C11.9573,3.7358 11.696,2.8665 11.1732,2.1563 C10.6505,1.446 9.9318,0.9091 9.017,0.5455 C8.1079,0.1818 7.0681,0 5.8977,0 Z"></path></clipPath></defs><g transform="translate(0.0 1.0)"><g transform="translate(9.746099999999998 0.0)"><g clip-path="url(#i0)"><polygon points="0,0 107.2089,0 107.2089,107 0,107 0,0" stroke="none" fill="#F1F3F9"></polygon></g><path d="M53.6045,107 C83.1417,107 107.2089,83.0121 107.2089,53.5498 C107.1099,23.9879 83.1417,0 53.6045,0 C23.9679,0 0,23.9879 0,53.4502 C0,83.0121 23.9679,107 53.6045,107 Z" stroke="#D6DCE8" stroke-width="2" fill="none" stroke-miterlimit="10"></path></g><g transform="translate(114.172 26.674799999999998)"><g clip-path="url(#i1)"><polygon points="0,0 8.155,0 8.155,8.1619 0,8.1619 0,0" stroke="none" fill="#EAEEF9"></polygon></g></g><g transform="translate(121.43 13.337899999999998)"><g clip-path="url(#i2)"><polygon points="0,0 5.569,0 5.569,5.5739 0,5.5739 0,0" stroke="none" fill="#EAEEF9"></polygon></g></g><g transform="translate(0.0 79.03120000000001)"><g clip-path="url(#i3)"><polygon points="0,0 10.343,0 10.343,10.3517 0,10.3517 0,0" stroke="none" fill="#EAEEF9"></polygon></g></g><g transform="translate(25.7656 2.519530000000003)"><g clip-path="url(#i4)"><polygon points="0,0 75.1904,0 75.1904,101.80347 0,101.80347 0,0" stroke="none" fill="#FFFFFF"></polygon></g><path d="M75.1904,28.50487 L75.1904,93.33317 C75.1904,98.05647 71.4469,101.80347 66.7272,101.80347 L8.463,101.80347 C3.7433,101.80347 0,98.05647 0,93.33317 L0,8.47007 C0,3.74636 3.7433,0 8.463,0 L46.8718,0 C48.9875,0 50.9405,0.81443 52.4053,2.28039 L72.9117,22.80387 C74.3764,24.43277 75.1904,26.38737 75.1904,28.50487 Z" stroke="#D6DDE8" stroke-width="2" fill="none" stroke-miterlimit="10"></path></g><g transform="translate(75.5039 3.1122999999999994)"><g clip-path="url(#i5)"><polygon points="0,0 24.8681,0 24.8681,25.4819 0,25.4819 0,0" stroke="none" fill="#D6DCE8"></polygon></g></g><g transform="translate(36.421899999999994 84.2988)"><g clip-path="url(#i6)"><polygon points="0,0 15.3948,0 15.3948,2.3704 0,2.3704 0,0" stroke="none" fill="#D5DDEA"></polygon></g></g><g transform="translate(36.42190000000001 17.9268)"><g clip-path="url(#i7)"><polygon points="0,0 33.158,0 33.158,2.3704 0,2.3704 0,0" stroke="none" fill="#D6DCE8"></polygon></g></g><g transform="translate(36.4219 25.0381)"><g clip-path="url(#i8)"><polygon points="0,0 14.2106,0 14.2106,2.3704 0,2.3704 0,0" stroke="none" fill="#D6DCE8"></polygon></g></g><g transform="translate(37.60549999999999 68.8906)"><g clip-path="url(#i9)"><polygon points="0,0 53.2896,0 53.2896,2.3704 0,2.3704 0,0" stroke="none" fill="#D6DCE8"></polygon></g></g><g transform="translate(37.60549999999999 60.5938)"><g clip-path="url(#i10)"><polygon points="0,0 53.2896,0 53.2896,2.3704 0,2.3704 0,0" stroke="none" fill="#D6DCE8"></polygon></g></g><g transform="translate(37.605500000000006 52.2979)"><g clip-path="url(#i11)"><polygon points="0,0 53.28967,0 53.28967,2.3704 0,2.3704 0,0" stroke="none" fill="#D6DCE8"></polygon></g></g><g transform="translate(37.60549999999999 44.001)"><g clip-path="url(#i12)"><polygon points="0,0 53.2896,0 53.2896,2.3704 0,2.3704 0,0" stroke="none" fill="#D6DCE8"></polygon></g></g><g transform="translate(69.62110000000001 62.61619999999999)"><g clip-path="url(#i13)"><polygon points="0,0 41.8599,0 41.8599,41.8948 0,41.8948 0,0" stroke="none" fill="#D6DCE8"></polygon></g><path d="M20.93,41.8948 C32.4889,41.8948 41.8599,32.5165 41.8599,20.9475 C41.8599,9.3785 32.4889,0 20.93,0 C9.3707,0 0,9.3785 0,20.9475 C0,32.5165 9.3707,41.8948 20.93,41.8948 Z" stroke="#AAB2C5" stroke-width="2" fill="none" stroke-miterlimit="10"></path></g><g transform="translate(84.9308 75.3068)"><g clip-path="url(#i14)"><polygon points="0,0 11.9573,0 11.9573,17.9404 0,17.9404 0,0" stroke="none" fill="#FFFFFF"></polygon></g><g clip-path="url(#i15)"><path d="M3.6988,12.3494 L3.6988,12 C3.6988,11.0341 3.7784,10.2642 3.9375,9.6904 C4.1022,9.1165 4.3409,8.6563 4.6534,8.3097 C4.9659,7.9574 5.3465,7.6364 5.7954,7.3466 C6.1534,7.1193 6.4715,6.8892 6.75,6.6563 C7.034,6.4176 7.2585,6.1619 7.4232,5.8892 C7.588,5.6165 7.6704,5.3068 7.6704,4.9602 C7.6704,4.625 7.5909,4.3296 7.4318,4.0739 C7.2727,3.8182 7.0539,3.6222 6.7755,3.4858 C6.5028,3.3438 6.1988,3.2727 5.8636,3.2727 C5.5284,3.2727 5.213,3.3494 4.9176,3.5029 C4.6278,3.6563 4.3892,3.875 4.2017,4.1591 C4.0198,4.4375 3.9261,4.7756 3.9204,5.1733 L0,5.1733 C0.017,3.9801 0.2926,3.0029 0.8267,2.2415 C1.3664,1.4801 2.0795,0.9176 2.9659,0.554 C3.8522,0.1847 4.8295,0 5.8977,0 C7.0681,0 8.1079,0.1818 9.017,0.5455 C9.9318,0.9091 10.6505,1.446 11.1732,2.1563 C11.696,2.8665 11.9573,3.7358 11.9573,4.7642 C11.9573,5.4404 11.8437,6.0369 11.6164,6.554 C11.3892,7.071 11.071,7.5284 10.6619,7.9262 C10.2585,8.3182 9.784,8.6762 9.2386,9 C8.8125,9.25 8.4573,9.5114 8.1732,9.7841 C7.8948,10.0568 7.6846,10.3693 7.5426,10.7216 C7.4005,11.0682 7.3295,11.4943 7.3295,12 L7.3295,12.3494 L3.6988,12.3494 Z M5.5823,17.9404 C4.9687,17.9404 4.4431,17.7244 4.0056,17.2926 C3.5738,16.8608 3.3607,16.3381 3.3664,15.7244 C3.3607,15.1222 3.5738,14.608 4.0056,14.1818 C4.4431,13.75 4.9687,13.5341 5.5823,13.5341 C6.1676,13.5341 6.6818,13.75 7.125,14.1818 C7.5681,14.608 7.7926,15.1222 7.7982,15.7244 C7.7926,16.1335 7.6846,16.5057 7.4744,16.8409 C7.2698,17.1762 7,17.4432 6.6647,17.6421 C6.3352,17.8409 5.9744,17.9404 5.5823,17.9404 Z" stroke="#AAB2C5" stroke-width="4" fill="none" stroke-miterlimit="5"></path></g></g></g></svg>