<svg width="35" height="35" viewBox="0 0 35 35" fill="none" xmlns="http://www.w3.org/2000/svg">
<path opacity="0.4" fill-rule="evenodd" clip-rule="evenodd" d="M22.5788 32.4716C10.126 36.7769 6.53426 35.0307 2.22894 22.5779C-2.07639 10.1252 -0.330157 6.53341 12.1226 2.22808C24.5754 -2.07724 28.1671 -0.331012 32.4724 12.1217C36.7778 24.5745 35.0315 28.1662 22.5788 32.4716ZM14.6639 9.57873C12.9462 10.1726 12.0441 12.0393 12.6357 13.7504C13.2117 15.4164 14.9804 16.3181 16.6487 15.823C16.7459 15.7817 16.8511 15.7449 16.9529 15.7178C18.5688 15.0765 19.404 13.2756 18.8352 11.6056C18.2434 9.89622 16.3738 8.98759 14.6639 9.57873ZM11.3756 14.1861C10.544 11.7808 11.8127 9.15372 14.2283 8.31858C16.6345 7.48668 19.2639 8.76504 20.0958 11.1713L20.0967 11.1739C20.9003 13.5299 19.7088 16.0885 17.3957 16.9762C17.368 16.9869 17.3397 16.9956 17.3108 17.0025C17.2689 17.0124 17.2082 17.0328 17.1535 17.0575C17.1284 17.0688 17.1025 17.0786 17.0761 17.0867C14.7091 17.817 12.1898 16.5412 11.3756 14.1861ZM22.6061 17.3538C21.0348 16.9426 19.2424 17.1072 17.6225 17.6672C16.0024 18.2273 14.4879 19.2061 13.4982 20.5014L13.4965 20.5038C12.6149 21.6682 12.3284 22.968 12.7267 24.12C13.125 25.2722 14.1528 26.1156 15.5645 26.4826C17.141 26.8963 18.9359 26.7334 20.5563 26.1733C22.1769 25.613 23.6894 24.6322 24.6737 23.3327L24.6738 23.3326C25.5554 22.1682 25.8419 20.8684 25.4436 19.7163C25.0452 18.5642 24.0177 17.7209 22.6061 17.3538ZM13.9868 23.6843C13.7673 23.0493 13.8784 22.2088 14.5586 21.3098C15.3561 20.2666 16.6292 19.4214 18.0582 18.9273C19.4878 18.4331 21.0065 18.3134 22.2686 18.6437L22.2697 18.644C23.3582 18.9268 23.9639 19.5171 24.1834 20.152C24.4031 20.7873 24.2917 21.6283 23.6108 22.5277C22.8192 23.5727 21.5495 24.4191 20.1206 24.9131C18.6916 25.4071 17.1702 25.5257 15.9022 25.1927L15.9005 25.1923C14.812 24.9095 14.2063 24.3192 13.9868 23.6843Z" fill="url(#paint0_linear_774_13984)"/>
<defs>
<linearGradient id="paint0_linear_774_13984" x1="11.5001" y1="-9.00415" x2="24.5001" y2="32.4959" gradientUnits="userSpaceOnUse">
<stop stop-color="#E80F0F"/>
<stop offset="0.989583" stop-color="#FF0000" stop-opacity="0"/>
</linearGradient>
</defs>
</svg>
