<svg width="20" height="20" viewBox="0 0 20 20" fill="none" xmlns="http://www.w3.org/2000/svg">
<rect width="20" height="20" rx="10" fill="#F4F6FD"/>
<path fill-rule="evenodd" clip-rule="evenodd" d="M12.8159 8.0729C13.0614 7.82746 13.0614 7.42952 12.8159 7.18408C12.5705 6.93864 12.1725 6.93864 11.9271 7.18408L10 9.11118L8.0729 7.18408C7.82746 6.93864 7.42952 6.93864 7.18408 7.18408C6.93864 7.42952 6.93864 7.82746 7.18408 8.0729L9.11118 10L7.18408 11.9271C6.93864 12.1725 6.93864 12.5705 7.18408 12.8159C7.42952 13.0614 7.82746 13.0614 8.0729 12.8159L10 10.8888L11.9271 12.8159C12.1725 13.0614 12.5705 13.0614 12.8159 12.8159C13.0614 12.5705 13.0614 12.1725 12.8159 11.9271L10.8888 10L12.8159 8.0729Z" fill="#0A0A0A"/>
</svg>
