<svg width="18" height="18" viewBox="0 0 18 18" fill="none" xmlns="http://www.w3.org/2000/svg">
<path fill-rule="evenodd" clip-rule="evenodd" d="M15.2499 16.2923C15.8252 16.2923 16.2916 15.8259 16.2916 15.2507V2.75065C16.2916 2.17535 15.8252 1.70898 15.2499 1.70898L2.74992 1.70898C2.17462 1.70898 1.70825 2.17535 1.70825 2.75065L1.70825 15.2507C1.70825 15.8259 2.17462 16.2923 2.74992 16.2923H15.2499ZM17.3333 15.2507C17.3333 16.4012 16.4005 17.334 15.2499 17.334L2.74992 17.334C1.59933 17.334 0.666584 16.4012 0.666584 15.2507L0.666584 2.75065C0.666584 1.60006 1.59933 0.667316 2.74992 0.667316L15.2499 0.667316C16.4005 0.667316 17.3333 1.60006 17.3333 2.75065L17.3333 15.2507Z" fill="#0A0A0A"/>
<path fill-rule="evenodd" clip-rule="evenodd" d="M6.91675 5.87533C6.91675 5.58768 7.14993 5.35449 7.43758 5.35449H12.1251C12.4127 5.35449 12.6459 5.58768 12.6459 5.87533V10.5628C12.6459 10.8505 12.4127 11.0837 12.1251 11.0837C11.8374 11.0837 11.6042 10.8505 11.6042 10.5628V6.39616H7.43758C7.14993 6.39616 6.91675 6.16297 6.91675 5.87533Z" fill="#0A0A0A"/>
<path fill-rule="evenodd" clip-rule="evenodd" d="M12.4932 5.50704C12.6966 5.71044 12.6966 6.04021 12.4932 6.24361L6.24324 12.4936C6.03985 12.697 5.71007 12.697 5.50667 12.4936C5.30328 12.2902 5.30328 11.9604 5.50667 11.757L11.7567 5.50704C11.9601 5.30364 12.2898 5.30364 12.4932 5.50704Z" fill="#0A0A0A"/>
</svg>
