<svg width="20" height="20" viewBox="0 0 20 20" fill="none" xmlns="http://www.w3.org/2000/svg">
<path fill-rule="evenodd" clip-rule="evenodd" d="M17.5 18.75C18.1904 18.75 18.75 18.1904 18.75 17.5L18.75 2.5C18.75 1.80964 18.1904 1.25 17.5 1.25L2.5 1.25C1.80964 1.25 1.25 1.80964 1.25 2.5L1.25 17.5C1.25 18.1904 1.80964 18.75 2.5 18.75L17.5 18.75ZM20 17.5C20 18.8807 18.8807 20 17.5 20L2.5 20C1.11929 20 0 18.8807 0 17.5L0 2.5C0 1.11929 1.11929 0 2.5 0L17.5 0C18.8807 0 20 1.11929 20 2.5L20 17.5Z" fill="#254DDD"/>
<path fill-rule="evenodd" clip-rule="evenodd" d="M7.5 6.25C7.5 5.90482 7.77982 5.625 8.125 5.625H13.75C14.0952 5.625 14.375 5.90482 14.375 6.25V11.875C14.375 12.2202 14.0952 12.5 13.75 12.5C13.4048 12.5 13.125 12.2202 13.125 11.875V6.875H8.125C7.77982 6.875 7.5 6.59518 7.5 6.25Z" fill="#254DDD"/>
<path fill-rule="evenodd" clip-rule="evenodd" d="M14.1919 5.80806C14.436 6.05214 14.436 6.44786 14.1919 6.69194L6.69194 14.1919C6.44786 14.436 6.05214 14.436 5.80806 14.1919C5.56398 13.9479 5.56398 13.5521 5.80806 13.3081L13.3081 5.80806C13.5521 5.56398 13.9479 5.56398 14.1919 5.80806Z" fill="#254DDD"/>
</svg>
