<svg width="100" height="100" viewBox="0 0 100 100" fill="none" xmlns="http://www.w3.org/2000/svg">
<rect width="100" height="100" rx="27" fill="white" fill-opacity="0.23"/>
<g clip-path="url(#clip0_125_3337)">
<path d="M45.3491 60.4252L45.1906 58.8921C46.9286 58.7125 48.2941 59.5841 49.2294 60.5087V45.3719C48.9148 44.7195 47.3477 41.9306 43.977 42.9933L43.5135 41.5233C47.2443 40.1229 49.1769 42.7345 49.2293 42.7856V33.5705C49.2294 31.0503 47.1066 29 44.4973 29C43.1422 29 41.8507 29.5622 40.954 30.5422C40.0871 31.4898 39.6715 32.7066 39.7839 33.9684C39.823 34.4059 39.4731 34.797 39.0343 34.8072C37.1615 34.8507 35.4822 35.7366 34.4272 37.2377C33.5053 38.5492 33.2082 40.1357 33.5832 41.6513C34.1 41.7728 34.9434 42.0238 35.7904 42.5026C37.6421 43.5498 38.6209 45.1592 38.6209 47.1572H37.0796C37.0796 45.7273 36.3906 44.6127 35.0317 43.8443C34.2302 43.3911 33.4113 43.1867 33.0531 43.113C30.5842 44.1397 29 46.4563 29 49.0712C29 51.5583 30.4337 53.7882 32.7418 54.8904C33.204 55.1111 33.3229 55.7379 32.9723 56.1124C31.2683 57.9332 31.0066 60.4982 32.3055 62.6473C33.3151 64.3178 35.5533 65.9673 38.5841 65.243C39.0797 64.602 40.6054 62.3188 39.1899 60.0689L40.4945 59.2482C42.2045 61.9662 40.8529 64.884 39.7704 66.2317C39.7167 67.4156 40.1284 68.5491 40.9432 69.4458C41.8406 70.4335 43.1361 70.9999 44.4976 70.9999C47.1068 70.9999 49.2296 68.9496 49.2296 66.4295V62.9969C48.8697 62.3946 47.4151 60.2109 45.3491 60.4252ZM43.9526 33.6718C46.3805 33.6718 47.4177 35.5622 47.627 36.5618L46.1198 36.8835C46.0811 36.7126 45.6913 35.213 43.9527 35.213V33.6718H43.9526ZM43.0206 53.0166C42.2383 53.7275 41.0453 54.4438 39.4151 54.4438C38.8234 54.4438 38.1743 54.3495 37.4662 54.1263L37.9297 52.6563C41.6554 53.8308 43.1775 50.3004 43.2405 50.1495L44.666 50.7356C44.645 50.7868 44.1413 51.998 43.0206 53.0166Z" fill="#254DDD"/>
<path d="M71.2971 49.0712C71.2971 46.4553 69.7118 44.138 67.2411 43.1118C66.4081 43.2761 63.2175 44.105 63.2175 47.1572H61.6762C61.6762 45.1592 62.655 43.5498 64.5067 42.5026C65.3537 42.0237 66.1971 41.7728 66.7139 41.6513C67.089 40.1357 66.7918 38.5492 65.8699 37.2377C64.8149 35.7366 63.1356 34.8507 61.2628 34.8072C60.824 34.797 60.474 34.4059 60.5131 33.9684C60.6256 32.7067 60.21 31.4898 59.3431 30.5422C58.4463 29.5622 57.1548 29 55.7998 29C53.1906 29 51.0678 31.0503 51.0678 33.5705V42.7857C51.1202 42.7345 51.1738 42.6836 51.2293 42.6331C52.2954 41.6642 54.1243 40.6851 56.7837 41.5234L56.3202 42.9934C54.7459 42.4971 53.3818 42.7597 52.2659 43.7738C51.5944 44.384 51.205 45.0955 51.0679 45.3749V60.5085C52.0033 59.5839 53.3687 58.7122 55.1067 58.8921L54.9481 60.4251C52.8677 60.2103 51.4245 62.393 51.0679 62.9955V66.4296C51.0679 68.9498 53.1907 71.0001 55.7999 71.0001C57.1614 71.0001 58.4568 70.4336 59.3543 69.446C60.1691 68.5493 60.5807 67.4156 60.5271 66.2318C59.4446 64.8842 58.0929 61.9663 59.8029 59.2483L61.1075 60.069C59.6921 62.319 61.2178 64.6022 61.7134 65.2432C64.7441 65.9676 66.9823 64.318 67.9918 62.6475C69.2908 60.4984 69.029 57.9333 67.325 56.1125C66.9745 55.738 67.0932 55.1113 67.5556 54.8906C69.8633 53.7882 71.2971 51.5584 71.2971 49.0712ZM56.3445 35.213C54.4855 35.213 53.7483 36.9374 53.7178 37.0107L52.289 36.4327C52.3343 36.32 53.4301 33.6718 56.3445 33.6718V35.213ZM60.8821 54.4439C59.2517 54.4439 58.0589 53.7276 57.2766 53.0166C56.1558 51.9981 55.6522 50.7869 55.6313 50.7357L57.0568 50.1496C57.1198 50.3005 58.6417 53.8309 62.3676 52.6564L62.831 54.1264C62.123 54.3495 61.4736 54.4439 60.8821 54.4439Z" fill="#254DDD"/>
</g>
<rect x="1" y="1" width="98" height="98" rx="26" stroke="url(#paint0_linear_125_3337)" stroke-opacity="0.15" stroke-width="2"/>
<defs>
<linearGradient id="paint0_linear_125_3337" x1="7.56303" y1="-4.62185" x2="81.0924" y2="100" gradientUnits="userSpaceOnUse">
<stop stop-color="#254DDD"/>
<stop offset="1" stop-color="#254DDD" stop-opacity="0.25"/>
</linearGradient>
<clipPath id="clip0_125_3337">
<rect width="42" height="42" fill="white" transform="translate(29 29)"/>
</clipPath>
</defs>
</svg>
