<?xml version="1.0" encoding="UTF-8"?>
<svg width="194px" height="63px" viewBox="0 0 194 63" version="1.1" xmlns="http://www.w3.org/2000/svg" xmlns:xlink="http://www.w3.org/1999/xlink">
    <title>logo-with-text-white</title>
    <defs>
        <linearGradient x1="6.17165574%" y1="-6.4127377%" x2="82.1118033%" y2="101.639344%" id="linearGradient-1">
            <stop stop-color="#254DDD" offset="0%"></stop>
            <stop stop-color="#254DDD" stop-opacity="0.25" offset="100%"></stop>
        </linearGradient>
    </defs>
    <g id="Page-1" stroke="none" stroke-width="1" fill="none" fill-rule="evenodd">
        <g id="logo-with-text-white">
            <rect id="Rectangle" fill-opacity="0.23" fill="#FFFFFF" fill-rule="nonzero" x="0" y="0" width="63" height="63" rx="27"></rect>
            <rect id="Rectangle" stroke="url(#linearGradient-1)" stroke-width="2" fill="#FFFFFF" x="1" y="1" width="61" height="61" rx="26"></rect>
            <g id="Group" transform="translate(18.000000, 18.000000)" fill="#254DDD" fill-rule="nonzero">
                <path d="M10.5376,20.1403 L10.4366,19.1638 C11.5437,19.0494 12.4134,19.6046 13.0091,20.1935 L13.0091,10.5521 C12.8088,10.1366 11.8106,8.3602 9.6636,9.037 L9.3684,8.1007 C11.7448,7.2088 12.9757,8.8722 13.0091,8.9048 L13.0091,3.0352 C13.0091,1.43 11.657,0.124 9.995,0.124 C9.1319,0.124 8.3093,0.4821 7.7381,1.1064 C7.186,1.7099 6.9212,2.4849 6.9929,3.2886 C7.0177,3.5673 6.7949,3.8164 6.5154,3.8229 C5.3225,3.8507 4.2529,4.4149 3.5809,5.371 C2.9937,6.2064 2.8044,7.2169 3.0433,8.1823 C3.3725,8.2596 3.9097,8.4195 4.4491,8.7245 C5.6286,9.3915 6.252,10.4167 6.252,11.6893 L5.2703,11.6893 C5.2703,10.7785 4.8314,10.0685 3.9659,9.5791 C3.4554,9.2904 2.9338,9.1602 2.7056,9.1133 C1.1331,9.7673 0.124,11.2428 0.124,12.9084 C0.124,14.4926 1.0372,15.9129 2.5073,16.6149 C2.8018,16.7555 2.8775,17.1547 2.6542,17.3933 C1.5688,18.553 1.4021,20.1868 2.2295,21.5557 C2.8726,22.6197 4.2981,23.6704 6.2286,23.2091 C6.5443,22.8007 7.5161,21.3465 6.6145,19.9134 L7.4455,19.3906 C8.5346,21.1219 7.6737,22.9803 6.9842,23.8388 C6.9501,24.5928 7.2123,25.3149 7.7312,25.886 C8.3029,26.5151 9.128,26.8759 9.9952,26.8759 C11.6571,26.8759 13.0093,25.57 13.0093,23.9647 L13.0093,21.7784 C12.78,21.3947 11.8535,20.0038 10.5376,20.1403 Z M9.6481,3.0997 C11.1945,3.0997 11.8552,4.3038 11.9885,4.9405 L11.0285,5.1454 C11.0038,5.0365 10.7556,4.0814 9.6482,4.0814 L9.6482,3.0997 L9.6481,3.0997 Z M9.0544,15.4214 C8.5562,15.8742 7.7963,16.3305 6.7579,16.3305 C6.3811,16.3305 5.9676,16.2704 5.5166,16.1283 L5.8118,15.1919 C8.1849,15.94 9.1544,13.6913 9.1945,13.5952 L10.1025,13.9685 C10.0891,14.0011 9.7683,14.7726 9.0544,15.4214 Z" id="Shape"></path>
                <path d="M27.0652,12.9084 C27.0652,11.2422 26.0555,9.7662 24.4818,9.1126 C23.9512,9.2172 21.9189,9.7452 21.9189,11.6893 L20.9372,11.6893 C20.9372,10.4167 21.5606,9.3915 22.7401,8.7245 C23.2796,8.4195 23.8168,8.2596 24.146,8.1823 C24.3849,7.2169 24.1956,6.2064 23.6084,5.371 C22.9364,4.4149 21.8668,3.8507 20.6739,3.8229 C20.3944,3.8164 20.1715,3.5673 20.1964,3.2886 C20.268,2.485 20.0033,1.7099 19.4511,1.1064 C18.8799,0.4821 18.0573,0.124 17.1942,0.124 C15.5323,0.124 14.1802,1.43 14.1802,3.0352 L14.1802,8.9048 C14.2136,8.8722 14.2477,8.8398 14.283,8.8077 C14.9621,8.1905 16.127,7.5668 17.8209,8.1008 L17.5257,9.0371 C16.5229,8.721 15.654,8.8883 14.9433,9.5342 C14.5156,9.9229 14.2676,10.3761 14.1802,10.554 L14.1802,20.1934 C14.776,19.6045 15.6458,19.0492 16.7528,19.1638 L16.6518,20.1403 C15.3266,20.0034 14.4073,21.3937 14.1802,21.7775 L14.1802,23.9648 C14.1802,25.5701 15.5323,26.876 17.1943,26.876 C18.0615,26.876 18.8866,26.5152 19.4583,25.8861 C19.9772,25.315 20.2394,24.5929 20.2052,23.8389 C19.5158,22.9805 18.6548,21.1219 19.744,19.3907 L20.575,19.9135 C19.6734,21.3466 20.6452,22.8009 20.9609,23.2092 C22.8913,23.6706 24.3169,22.6198 24.9599,21.5558 C25.7873,20.1869 25.6206,18.5531 24.5352,17.3934 C24.312,17.1548 24.3876,16.7556 24.6821,16.615 C26.152,15.9129 27.0652,14.4926 27.0652,12.9084 Z M17.5411,4.0814 C16.3571,4.0814 15.8875,5.1797 15.8681,5.2264 L14.958,4.8583 C14.9869,4.7865 15.6849,3.0997 17.5411,3.0997 L17.5411,4.0814 Z M20.4314,16.3305 C19.3929,16.3305 18.6332,15.8743 18.1349,15.4214 C17.421,14.7726 17.1002,14.0012 17.0869,13.9686 L17.9948,13.5953 C18.035,13.6914 19.0044,15.9401 21.3776,15.192 L21.6728,16.1283 C21.2218,16.2704 20.8081,16.3305 20.4314,16.3305 Z" id="Shape"></path>
            </g>
            <path d="M79.9147,38.5 L88.5787,38.5 C91.7467,38.5 94.0027,36.676 94.0027,34.036 C94.0027,32.212 92.8747,30.676 90.9547,29.812 C92.4187,29.044 93.2827,27.82 93.2827,26.14 C93.2827,23.74 91.2187,22.012 88.2667,22.012 L79.9147,22.012 L79.9147,38.5 Z M83.4427,28.66 L83.4427,25.036 L87.4027,25.036 C88.6987,25.036 89.6347,25.804 89.6347,26.836 C89.6347,27.892 88.6987,28.66 87.4027,28.66 L83.4427,28.66 Z M83.4427,35.476 L83.4427,31.444 L87.9307,31.444 C89.3467,31.444 90.3547,32.284 90.3547,33.46 C90.3547,34.636 89.3467,35.476 87.9307,35.476 L83.4427,35.476 Z M99.6993,28.42 L99.6993,26.092 L96.1953,26.092 L96.1953,38.5 L99.6993,38.5 L99.6993,32.572 C99.6993,30.244 101.355,28.756 103.947,28.756 L103.947,25.804 C102.051,25.804 100.515,26.812 99.6993,28.42 Z M110.104,25.804 C108.376,25.804 106.672,26.284 104.92,27.172 L106.096,29.5 C107.08,28.996 108.16,28.612 109.312,28.612 C111.352,28.612 112.192,29.764 112.192,31.084 L112.192,31.348 C111.136,30.916 110.008,30.7 109,30.7 C106.144,30.7 103.864,32.38 103.864,34.828 C103.864,37.204 105.88,38.788 108.52,38.788 C109.888,38.788 111.304,38.236 112.192,37.252 L112.192,38.5 L115.576,38.5 L115.576,31.084 C115.576,27.844 113.344,25.804 110.104,25.804 Z M109.312,36.364 C108.112,36.364 107.2,35.74 107.2,34.732 C107.2,33.724 108.232,32.98 109.504,32.98 C110.464,32.98 111.4,33.148 112.192,33.46 L112.192,34.588 C111.928,35.74 110.656,36.364 109.312,36.364 Z M119.768,24.388 C120.8,24.388 121.664,23.524 121.664,22.468 C121.664,21.484 120.8,20.596 119.768,20.596 C118.688,20.596 117.848,21.484 117.848,22.468 C117.848,23.524 118.688,24.388 119.768,24.388 Z M117.992,38.5 L121.496,38.5 L121.496,26.092 L117.992,26.092 L117.992,38.5 Z M131.451,25.804 C129.843,25.804 128.451,26.524 127.707,27.628 L127.707,26.092 L124.203,26.092 L124.203,38.5 L127.707,38.5 L127.707,31.156 C127.707,29.812 128.859,28.756 130.323,28.756 C131.715,28.756 132.675,29.812 132.675,31.348 L132.675,38.5 L136.035,38.5 L136.035,30.604 C136.035,27.772 134.139,25.804 131.451,25.804 Z M153.991,26.092 L153.991,27.772 C153.151,26.596 151.543,25.804 149.887,25.804 C146.743,25.804 144.367,28.228 144.367,31.684 C144.367,35.14 146.743,37.588 149.887,37.588 C151.543,37.588 153.007,36.868 153.991,35.644 L153.991,37.036 C153.991,38.644 152.551,39.676 150.295,39.676 C148.855,39.676 147.391,39.22 146.575,38.5 L145.351,40.972 C146.599,41.932 148.639,42.628 150.823,42.628 C154.735,42.628 157.495,40.372 157.495,37.18 L157.495,26.092 L153.991,26.092 Z M150.991,34.636 C149.239,34.636 147.991,33.412 147.991,31.684 C147.991,29.956 149.239,28.756 150.991,28.756 C152.743,28.756 153.991,29.956 153.991,31.684 C153.991,33.412 152.743,34.636 150.991,34.636 Z M163.275,42.82 C165.243,42.82 166.803,41.548 167.763,39.124 L172.827,26.092 L169.251,26.092 L166.179,34.804 L162.915,26.092 L159.291,26.092 L164.451,38.62 L164.115,39.34 C163.779,39.916 163.203,40.204 162.555,40.204 C162.147,40.204 161.499,39.988 160.923,39.652 L160.179,42.052 C161.019,42.508 162.243,42.82 163.275,42.82 Z M189.355,25.804 C187.507,25.804 186.019,26.62 185.275,27.94 C184.483,26.62 183.067,25.804 181.411,25.804 C179.875,25.804 178.627,26.548 178.027,27.724 L178.027,26.092 L174.523,26.092 L174.523,38.476 L178.027,38.476 L178.027,31.012 C178.027,29.692 179.011,28.756 180.427,28.756 C181.723,28.756 182.611,29.764 182.611,31.204 L182.611,38.476 L185.995,38.476 L185.995,31.012 C185.995,29.692 186.979,28.756 188.395,28.756 C189.667,28.756 190.579,29.764 190.579,31.204 L190.579,38.476 L193.939,38.476 L193.939,30.604 C193.939,27.796 191.947,25.804 189.355,25.804 Z" id="Shape" fill="#FFFFFF" fill-rule="nonzero"></path>
        </g>
    </g>
</svg>