<?xml version="1.0" encoding="UTF-8"?>
<svg width="26px" height="26px" viewBox="0 0 26 26" version="1.1" xmlns="http://www.w3.org/2000/svg" xmlns:xlink="http://www.w3.org/1999/xlink">
    <title>Group 2</title>
    <g id="Page-1" stroke="none" stroke-width="1" fill="none" fill-rule="evenodd">
        <g id="Group-2" transform="translate(0.750000, 1.000000)" stroke="#000000">
            <path d="M7.02,4 C7.66954164,4 8.29194198,4.07094433 8.73125812,4.46126341 C9.16202976,4.84399137 9.25,5.40808258 9.25,5.98 L9.25,5.98 L9.25,10.52 C9.25,11.0909491 9.16268027,11.6556598 8.73122458,12.0374809 C8.29188229,12.4263321 7.67006656,12.4938864 7.0178,12.49 L7.0178,12.49 L2.98,12.49 C2.33227218,12.49 1.70891247,12.4220177 1.26871644,12.0324287 C0.836554448,11.6500135 0.75,11.0841781 0.75,10.51 L0.75,10.51 L0.75,5.98 C0.75,5.40808258 0.837970244,4.84399137 1.26874157,4.46126368 C1.70805802,4.07094433 2.33053445,4 2.98,4 L2.98,4 Z" id="Path-Copy" stroke-width="1.5"></path>
            <path d="M19.02,15.5 C19.6711441,15.5 20.297838,15.5853746 20.7312232,16.0186834 C21.1646254,16.452162 21.25,17.0788559 21.25,17.73 L21.25,17.73 L21.25,21.77 C21.25,22.4211441 21.1646254,23.047838 20.7313166,23.4812232 C20.297838,23.9146254 19.6711441,24 19.02,24 L19.02,24 L14.98,24 C14.3288559,24 13.702162,23.9146254 13.2687768,23.4813166 C12.8353746,23.047838 12.75,22.4211441 12.75,21.77 L12.75,21.77 L12.75,17.73 C12.75,17.0788559 12.8353746,16.452162 13.2686834,16.0187768 C13.702162,15.5853746 14.3288559,15.5 14.98,15.5 L14.98,15.5 Z" id="Path" stroke-width="1.5"></path>
            <path d="M7.02,15.5 C7.67114411,15.5 8.29783804,15.5853746 8.73122321,16.0186834 C9.16462544,16.452162 9.25,17.0788559 9.25,17.73 L9.25,17.73 L9.25,21.77 C9.25,22.4211441 9.16462544,23.047838 8.73131662,23.4812232 C8.29783804,23.9146254 7.67114411,24 7.02,24 L7.02,24 L2.98,24 C2.32885589,24 1.70216196,23.9146254 1.26877679,23.4813166 C0.835374555,23.047838 0.75,22.4211441 0.75,21.77 L0.75,21.77 L0.75,17.73 C0.75,17.0788559 0.835374555,16.452162 1.26868338,16.0187768 C1.70216196,15.5853746 2.32885589,15.5 2.98,15.5 L2.98,15.5 Z" id="Path-Copy-3" stroke-width="1.5"></path>
            <g id="Group" transform="translate(12.250000, 0.000000)" stroke-linecap="round" stroke-linejoin="round" stroke-width="1.30970724">
                <path d="M4.88333333,0.878 C5.16733333,-0.292666667 6.83266667,-0.292666667 7.11666667,0.878 C7.20309536,1.23470614 7.45468916,1.52868283 7.79376771,1.66916387 C8.13284625,1.80964492 8.51862739,1.77973417 8.832,1.58866667 C9.86066667,0.962 11.0386667,2.13933333 10.412,3.16866667 C10.2212083,3.4819026 10.1913697,3.86738738 10.3316853,4.20625278 C10.4720009,4.54511818 10.7656192,4.79666766 11.122,4.88333333 C12.2926667,5.16733333 12.2926667,6.83266667 11.122,7.11666667 C10.7652939,7.20309536 10.4713172,7.45468916 10.3308361,7.79376771 C10.1903551,8.13284625 10.2202658,8.51862739 10.4113333,8.832 C11.038,9.86066667 9.86066667,11.0386667 8.83133333,10.412 C8.5180974,10.2212083 8.13261262,10.1913697 7.79374722,10.3316853 C7.45488182,10.4720009 7.20333234,10.7656192 7.11666667,11.122 C6.83266667,12.2926667 5.16733333,12.2926667 4.88333333,11.122 C4.79690464,10.7652939 4.54531084,10.4713172 4.20623229,10.3308361 C3.86715375,10.1903551 3.48137261,10.2202658 3.168,10.4113333 C2.13933333,11.038 0.961333333,9.86066667 1.588,8.83133333 C1.77879169,8.5180974 1.80863026,8.13261262 1.66831469,7.79374722 C1.52799912,7.45488182 1.23438081,7.20333234 0.878,7.11666667 C-0.292666667,6.83266667 -0.292666667,5.16733333 0.878,4.88333333 C1.23470614,4.79690464 1.52868283,4.54531084 1.66916387,4.20623229 C1.80964492,3.86715375 1.77973417,3.48137261 1.58866667,3.168 C0.962,2.13933333 2.13933333,0.961333333 3.16866667,1.588 C3.83533333,1.99333333 4.69933333,1.63466667 4.88333333,0.878 Z" id="Path"></path>
                <circle id="Oval" cx="6" cy="6" r="2"></circle>
            </g>
        </g>
    </g>
</svg>