<svg width="196" height="63" viewBox="0 0 196 63" fill="none" xmlns="http://www.w3.org/2000/svg">
<rect width="63" height="63" rx="27" fill="white" fill-opacity="0.23"/>
<g clip-path="url(#clip0_29_18042)">
<path d="M28.5376 38.1403L28.4366 37.1638C29.5437 37.0494 30.4134 37.6046 31.0091 38.1935V28.5521C30.8088 28.1366 29.8106 26.3602 27.6636 27.037L27.3684 26.1007C29.7448 25.2088 30.9757 26.8722 31.0091 26.9048V21.0352C31.0091 19.43 29.657 18.124 27.995 18.124C27.1319 18.124 26.3093 18.4821 25.7381 19.1064C25.186 19.7099 24.9212 20.4849 24.9929 21.2886C25.0177 21.5673 24.7949 21.8164 24.5154 21.8229C23.3225 21.8507 22.2529 22.4149 21.5809 23.371C20.9937 24.2064 20.8044 25.2169 21.0433 26.1823C21.3725 26.2596 21.9097 26.4195 22.4491 26.7245C23.6286 27.3915 24.252 28.4167 24.252 29.6893H23.2703C23.2703 28.7785 22.8314 28.0685 21.9659 27.5791C21.4554 27.2904 20.9338 27.1602 20.7056 27.1133C19.1331 27.7673 18.124 29.2428 18.124 30.9084C18.124 32.4926 19.0372 33.9129 20.5073 34.6149C20.8018 34.7555 20.8775 35.1547 20.6542 35.3933C19.5688 36.553 19.4021 38.1868 20.2295 39.5557C20.8726 40.6197 22.2981 41.6704 24.2286 41.2091C24.5443 40.8007 25.5161 39.3465 24.6145 37.9134L25.4455 37.3906C26.5346 39.1219 25.6737 40.9803 24.9842 41.8388C24.9501 42.5928 25.2123 43.3149 25.7312 43.886C26.3029 44.5151 27.128 44.8759 27.9952 44.8759C29.6571 44.8759 31.0093 43.57 31.0093 41.9647V39.7784C30.78 39.3947 29.8535 38.0038 28.5376 38.1403ZM27.6481 21.0997C29.1945 21.0997 29.8552 22.3038 29.9885 22.9405L29.0285 23.1454C29.0038 23.0365 28.7556 22.0814 27.6482 22.0814V21.0997H27.6481ZM27.0544 33.4214C26.5562 33.8742 25.7963 34.3305 24.7579 34.3305C24.3811 34.3305 23.9676 34.2704 23.5166 34.1283L23.8118 33.1919C26.1849 33.94 27.1544 31.6913 27.1945 31.5952L28.1025 31.9685C28.0891 32.0011 27.7683 32.7726 27.0544 33.4214Z" fill="#254DDD"/>
<path d="M45.0652 30.9084C45.0652 29.2422 44.0555 27.7662 42.4818 27.1126C41.9512 27.2172 39.9189 27.7452 39.9189 29.6893H38.9372C38.9372 28.4167 39.5606 27.3915 40.7401 26.7245C41.2796 26.4195 41.8168 26.2596 42.146 26.1823C42.3849 25.2169 42.1956 24.2064 41.6084 23.371C40.9364 22.4149 39.8668 21.8507 38.6739 21.8229C38.3944 21.8164 38.1715 21.5673 38.1964 21.2886C38.268 20.485 38.0033 19.7099 37.4511 19.1064C36.8799 18.4821 36.0573 18.124 35.1942 18.124C33.5323 18.124 32.1802 19.43 32.1802 21.0352V26.9048C32.2136 26.8722 32.2477 26.8398 32.283 26.8077C32.9621 26.1905 34.127 25.5668 35.8209 26.1008L35.5257 27.0371C34.5229 26.721 33.654 26.8883 32.9433 27.5342C32.5156 27.9229 32.2676 28.3761 32.1802 28.554V38.1934C32.776 37.6045 33.6458 37.0492 34.7528 37.1638L34.6518 38.1403C33.3266 38.0034 32.4073 39.3937 32.1802 39.7775V41.9648C32.1802 43.5701 33.5323 44.876 35.1943 44.876C36.0615 44.876 36.8866 44.5152 37.4583 43.8861C37.9772 43.315 38.2394 42.5929 38.2052 41.8389C37.5158 40.9805 36.6548 39.1219 37.744 37.3907L38.575 37.9135C37.6734 39.3466 38.6452 40.8009 38.9609 41.2092C40.8913 41.6706 42.3169 40.6198 42.9599 39.5558C43.7873 38.1869 43.6206 36.5531 42.5352 35.3934C42.312 35.1548 42.3876 34.7556 42.6821 34.615C44.152 33.9129 45.0652 32.4926 45.0652 30.9084ZM35.5411 22.0814C34.3571 22.0814 33.8875 23.1797 33.8681 23.2264L32.958 22.8583C32.9869 22.7865 33.6849 21.0997 35.5411 21.0997V22.0814ZM38.4314 34.3305C37.3929 34.3305 36.6332 33.8743 36.1349 33.4214C35.421 32.7726 35.1002 32.0012 35.0869 31.9686L35.9948 31.5953C36.035 31.6914 37.0044 33.9401 39.3776 33.192L39.6728 34.1283C39.2218 34.2704 38.8081 34.3305 38.4314 34.3305Z" fill="#254DDD"/>
</g>
<rect x="1" y="1" width="61" height="61" rx="26" stroke="url(#paint0_linear_29_18042)" stroke-opacity="0.15" stroke-width="2"/>
<path d="M79.9147 38.5H88.5787C91.7467 38.5 94.0027 36.676 94.0027 34.036C94.0027 32.212 92.8747 30.676 90.9547 29.812C92.4187 29.044 93.2827 27.82 93.2827 26.14C93.2827 23.74 91.2187 22.012 88.2667 22.012H79.9147V38.5ZM83.4427 28.66V25.036H87.4027C88.6987 25.036 89.6347 25.804 89.6347 26.836C89.6347 27.892 88.6987 28.66 87.4027 28.66H83.4427ZM83.4427 35.476V31.444H87.9307C89.3467 31.444 90.3547 32.284 90.3547 33.46C90.3547 34.636 89.3467 35.476 87.9307 35.476H83.4427ZM99.6993 28.42V26.092H96.1953V38.5H99.6993V32.572C99.6993 30.244 101.355 28.756 103.947 28.756V25.804C102.051 25.804 100.515 26.812 99.6993 28.42ZM110.104 25.804C108.376 25.804 106.672 26.284 104.92 27.172L106.096 29.5C107.08 28.996 108.16 28.612 109.312 28.612C111.352 28.612 112.192 29.764 112.192 31.084V31.348C111.136 30.916 110.008 30.7 109 30.7C106.144 30.7 103.864 32.38 103.864 34.828C103.864 37.204 105.88 38.788 108.52 38.788C109.888 38.788 111.304 38.236 112.192 37.252V38.5H115.576V31.084C115.576 27.844 113.344 25.804 110.104 25.804ZM109.312 36.364C108.112 36.364 107.2 35.74 107.2 34.732C107.2 33.724 108.232 32.98 109.504 32.98C110.464 32.98 111.4 33.148 112.192 33.46V34.588C111.928 35.74 110.656 36.364 109.312 36.364ZM119.768 24.388C120.8 24.388 121.664 23.524 121.664 22.468C121.664 21.484 120.8 20.596 119.768 20.596C118.688 20.596 117.848 21.484 117.848 22.468C117.848 23.524 118.688 24.388 119.768 24.388ZM117.992 38.5H121.496V26.092H117.992V38.5ZM131.451 25.804C129.843 25.804 128.451 26.524 127.707 27.628V26.092H124.203V38.5H127.707V31.156C127.707 29.812 128.859 28.756 130.323 28.756C131.715 28.756 132.675 29.812 132.675 31.348V38.5H136.035V30.604C136.035 27.772 134.139 25.804 131.451 25.804ZM153.991 26.092V27.772C153.151 26.596 151.543 25.804 149.887 25.804C146.743 25.804 144.367 28.228 144.367 31.684C144.367 35.14 146.743 37.588 149.887 37.588C151.543 37.588 153.007 36.868 153.991 35.644V37.036C153.991 38.644 152.551 39.676 150.295 39.676C148.855 39.676 147.391 39.22 146.575 38.5L145.351 40.972C146.599 41.932 148.639 42.628 150.823 42.628C154.735 42.628 157.495 40.372 157.495 37.18V26.092H153.991ZM150.991 34.636C149.239 34.636 147.991 33.412 147.991 31.684C147.991 29.956 149.239 28.756 150.991 28.756C152.743 28.756 153.991 29.956 153.991 31.684C153.991 33.412 152.743 34.636 150.991 34.636ZM163.275 42.82C165.243 42.82 166.803 41.548 167.763 39.124L172.827 26.092H169.251L166.179 34.804L162.915 26.092H159.291L164.451 38.62L164.115 39.34C163.779 39.916 163.203 40.204 162.555 40.204C162.147 40.204 161.499 39.988 160.923 39.652L160.179 42.052C161.019 42.508 162.243 42.82 163.275 42.82ZM189.355 25.804C187.507 25.804 186.019 26.62 185.275 27.94C184.483 26.62 183.067 25.804 181.411 25.804C179.875 25.804 178.627 26.548 178.027 27.724V26.092H174.523V38.476H178.027V31.012C178.027 29.692 179.011 28.756 180.427 28.756C181.723 28.756 182.611 29.764 182.611 31.204V38.476H185.995V31.012C185.995 29.692 186.979 28.756 188.395 28.756C189.667 28.756 190.579 29.764 190.579 31.204V38.476H193.939V30.604C193.939 27.796 191.947 25.804 189.355 25.804Z" fill="#0A0A0A"/>
<defs>
<linearGradient id="paint0_linear_29_18042" x1="4.76471" y1="-2.91177" x2="51.0882" y2="63" gradientUnits="userSpaceOnUse">
<stop stop-color="#254DDD"/>
<stop offset="1" stop-color="#254DDD" stop-opacity="0.25"/>
</linearGradient>
<clipPath id="clip0_29_18042">
<rect width="26.7519" height="26.7519" fill="white" transform="translate(18.124 18.124)"/>
</clipPath>
</defs>
</svg>
