<svg width="48" height="48" viewBox="0 0 48 48" fill="none" xmlns="http://www.w3.org/2000/svg">
<rect width="48" height="48" rx="24" fill="black" fill-opacity="0.5"/>
<path fill-rule="evenodd" clip-rule="evenodd" d="M20.9452 16.1301C21.0689 15.9447 21.277 15.8333 21.4999 15.8333H26.4999C26.7228 15.8333 26.931 15.9447 27.0546 16.1301L28.5234 18.3333H31.4999C32.1188 18.3333 32.7122 18.5791 33.1498 19.0167C33.5874 19.4543 33.8332 20.0477 33.8332 20.6666V29.8333C33.8332 30.4521 33.5874 31.0456 33.1498 31.4832C32.7122 31.9208 32.1188 32.1666 31.4999 32.1666H16.4999C15.8811 32.1666 15.2876 31.9208 14.85 31.4832C14.4124 31.0456 14.1666 30.4521 14.1666 29.8333V20.6666C14.1666 20.0477 14.4124 19.4543 14.85 19.0167C15.2876 18.5791 15.8811 18.3333 16.4999 18.3333H19.4765L20.9452 16.1301ZM21.8567 17.1666L20.3879 19.3697C20.2643 19.5552 20.0561 19.6666 19.8332 19.6666H16.4999C16.2347 19.6666 15.9803 19.7719 15.7928 19.9595C15.6053 20.147 15.4999 20.4014 15.4999 20.6666V29.8333C15.4999 30.0985 15.6053 30.3528 15.7928 30.5404C15.9803 30.7279 16.2347 30.8333 16.4999 30.8333H31.4999C31.7651 30.8333 32.0195 30.7279 32.207 30.5404C32.3946 30.3528 32.4999 30.0985 32.4999 29.8333V20.6666C32.4999 20.4014 32.3946 20.147 32.207 19.9595C32.0195 19.7719 31.7651 19.6666 31.4999 19.6666H28.1666C27.9437 19.6666 27.7355 19.5552 27.6119 19.3697L26.1431 17.1666H21.8567Z" fill="white"/>
<g clip-path="url(#clip0_117_73493)">
<path fill-rule="evenodd" clip-rule="evenodd" d="M23.9997 21.2571C24.2758 21.2571 24.4997 21.4809 24.4997 21.7571V27.9476C24.4997 28.2237 24.2758 28.4476 23.9997 28.4476C23.7236 28.4476 23.4997 28.2237 23.4997 27.9476V21.7571C23.4997 21.4809 23.7236 21.2571 23.9997 21.2571Z" fill="white"/>
<path fill-rule="evenodd" clip-rule="evenodd" d="M20.4046 24.8333C20.4046 24.5571 20.6284 24.3333 20.9046 24.3333H27.095C27.3712 24.3333 27.595 24.5571 27.595 24.8333C27.595 25.1094 27.3712 25.3333 27.095 25.3333H20.9046C20.6284 25.3333 20.4046 25.1094 20.4046 24.8333Z" fill="white"/>
</g>
<defs>
<clipPath id="clip0_117_73493">
<rect width="6.66667" height="6.66667" fill="white" transform="translate(20.6666 21.5)"/>
</clipPath>
</defs>
</svg>
