<svg width="354" height="294" viewBox="0 0 354 294" fill="none" xmlns="http://www.w3.org/2000/svg">
<path d="M96.5153 232.492C112.926 244.404 131.924 252.263 151.954 255.427C171.984 258.59 192.479 256.968 211.762 250.693C231.046 244.418 248.57 233.669 262.903 219.323C277.236 204.978 287.97 187.444 294.228 168.155C300.486 148.866 302.09 128.37 298.909 108.342C295.728 88.3148 287.852 69.3244 275.925 52.9239C263.999 36.5233 248.36 23.1784 230.287 13.98C212.215 4.78165 192.222 -0.00891108 171.943 1.24414e-05L172 128.5L96.5153 232.492Z" fill="#B7E5A5"/>
<path d="M172 0C151.721 -2.4182e-07 131.731 4.79935 113.662 14.0057C95.5938 23.212 79.9608 36.5638 68.0413 52.9696L172 128.5L172 0Z" fill="#F9E380"/>
<path d="M68.033 52.981C58.1157 66.6341 50.9847 82.1069 47.0472 98.516C43.1096 114.925 42.4426 131.949 45.0843 148.616C47.7259 165.283 53.6244 181.266 62.4431 195.653C71.2618 210.04 82.8279 222.55 96.481 232.467L172 128.5L68.033 52.981Z" fill="#C4BDF6"/>
<g clip-path="url(#clip0_106_73797)">
<g filter="url(#filter0_d_106_73797)">
<path d="M219.936 141.25L219.286 140.121C218.842 139.351 217.896 139.069 217.173 139.492L217.341 139.394C217.162 139.498 217.076 139.76 217.15 139.977L218.05 142.623C218.192 143.043 218.557 143.636 218.859 143.934C218.859 143.934 220.669 145.637 220.669 146.275V147.084H223.602L224.336 145.417L225.069 147.084H225.802V146.275C225.802 145.637 226.909 143.626 226.909 143.626C227.113 143.235 227.282 142.546 227.282 142.089V138.727C227.269 137.982 226.712 137.379 226.025 137.379C225.681 137.379 225.403 137.681 225.403 138.053V138.322C225.403 137.578 224.846 136.975 224.159 136.975C223.815 136.975 223.537 137.276 223.537 137.649V137.918C223.537 137.174 222.98 136.57 222.293 136.57C221.949 136.57 221.671 136.872 221.671 137.244V137.514C221.671 137.394 221.66 137.299 221.638 137.224L221.448 133.751C221.422 133.282 221.074 132.917 220.669 132.917C220.261 132.917 219.936 133.29 219.936 133.75V137.084V141.25ZM225.082 140.417H225.816V143.75H225.082V140.417ZM223.616 140.417H224.349V143.75H223.616V140.417ZM222.149 140.417H222.882V143.75H222.149V140.417Z" fill="black"/>
</g>
<path fill-rule="evenodd" clip-rule="evenodd" d="M219.57 139.853V137.083V133.75C219.57 133.059 220.06 132.5 220.67 132.5C221.271 132.5 221.777 133.039 221.814 133.725L221.951 136.221C222.058 136.177 222.173 136.153 222.293 136.153C222.794 136.153 223.243 136.404 223.539 136.799C223.709 136.648 223.925 136.558 224.16 136.558C224.66 136.558 225.109 136.809 225.405 137.203C225.575 137.052 225.792 136.962 226.026 136.962C226.908 136.962 227.632 137.741 227.65 138.727V142.089C227.65 142.618 227.463 143.38 227.22 143.846C227.187 143.907 227.128 144.017 227.052 144.163C226.925 144.406 226.797 144.659 226.679 144.909C226.626 145.021 226.575 145.13 226.528 145.235C226.303 145.74 226.17 146.134 226.17 146.275V147.5H224.843L224.336 146.348L223.83 147.5H220.303V146.275C220.303 146.203 220.116 145.889 219.803 145.507C219.713 145.397 219.614 145.281 219.507 145.162C219.315 144.947 219.107 144.73 218.9 144.523C218.775 144.398 218.679 144.305 218.619 144.248C218.273 143.907 217.873 143.258 217.708 142.773L216.808 140.127C216.69 139.781 216.782 139.386 217.017 139.146L217.006 139.121C217.04 139.101 217.075 139.082 217.111 139.064C217.131 139.049 217.152 139.035 217.174 139.023L217.178 139.032C218.027 138.653 219.05 138.994 219.57 139.853ZM217.017 139.146C217.046 139.116 217.077 139.089 217.111 139.064C217.133 139.053 217.156 139.042 217.178 139.032L217.509 139.764L217.341 139.862L217.017 139.146ZM225.45 142.083V143.75L225.816 143.333H225.083L225.45 143.75V142.083ZM225.45 142.083V140.417L225.083 140.833H225.816L225.45 140.417V142.083ZM223.983 142.083V143.75L224.35 143.333H223.616L223.983 143.75V142.083ZM223.983 142.083V140.417L223.616 140.833H224.35L223.983 140.417V142.083ZM222.516 142.083V143.75L222.883 143.333H222.15L222.516 143.75V142.083ZM222.516 142.083V140.417L222.15 140.833H222.883L222.516 140.417V142.083Z" fill="white" stroke="black" stroke-opacity="0.8"/>
</g>
<g filter="url(#filter1_d_106_73797)">
<rect x="187" y="65" width="67" height="47" rx="8" fill="white"/>
<path d="M216.529 78.398L214.877 79.448L214.163 78.216L216.865 76.382H218.265V86H216.529V78.398ZM223.615 86.168C222.149 86.168 220.945 85.6733 220.003 84.684L221.053 83.438C221.865 84.25 222.723 84.656 223.629 84.656C224.207 84.656 224.674 84.4927 225.029 84.166C225.383 83.8393 225.561 83.438 225.561 82.962C225.561 82.4767 225.383 82.0847 225.029 81.786C224.674 81.478 224.207 81.324 223.629 81.324C222.91 81.324 222.261 81.548 221.683 81.996L220.493 81.492L220.633 76.382H226.779V77.978H222.257L222.187 80.456C222.756 80.064 223.4 79.868 224.119 79.868C224.697 79.868 225.229 79.9893 225.715 80.232C226.2 80.4653 226.583 80.8107 226.863 81.268C227.152 81.7253 227.297 82.2667 227.297 82.892C227.297 83.5453 227.143 84.1193 226.835 84.614C226.527 85.1087 226.093 85.4913 225.533 85.762C224.973 86.0327 224.333 86.168 223.615 86.168Z" fill="black"/>
<path d="M202.432 100.12C201.865 100.12 201.355 99.9933 200.902 99.74C200.455 99.48 200.105 99.1233 199.852 98.67C199.605 98.21 199.482 97.69 199.482 97.11V93.13H200.492V97.09C200.492 97.4967 200.575 97.86 200.742 98.18C200.908 98.5 201.138 98.75 201.432 98.93C201.725 99.11 202.058 99.2 202.432 99.2C202.805 99.2 203.138 99.11 203.432 98.93C203.725 98.75 203.955 98.5 204.122 98.18C204.288 97.86 204.372 97.4967 204.372 97.09V93.13H205.382V97.11C205.382 97.69 205.255 98.21 205.002 98.67C204.755 99.1233 204.405 99.48 203.952 99.74C203.505 99.9933 202.998 100.12 202.432 100.12ZM209.44 94.71C209.893 94.71 210.3 94.8267 210.66 95.06C211.02 95.2867 211.303 95.6067 211.51 96.02C211.716 96.4267 211.82 96.89 211.82 97.41C211.82 97.93 211.716 98.3967 211.51 98.81C211.303 99.2233 211.02 99.5467 210.66 99.78C210.3 100.007 209.893 100.12 209.44 100.12C209.053 100.12 208.703 100.033 208.39 99.86C208.076 99.68 207.816 99.4333 207.61 99.12V101.72H206.62V94.83H207.61V95.71C207.816 95.3967 208.076 95.1533 208.39 94.98C208.703 94.8 209.053 94.71 209.44 94.71ZM209.21 99.26C209.516 99.26 209.793 99.1833 210.04 99.03C210.286 98.87 210.476 98.65 210.61 98.37C210.75 98.0833 210.82 97.7633 210.82 97.41C210.82 97.0567 210.75 96.74 210.61 96.46C210.476 96.18 210.286 95.9633 210.04 95.81C209.793 95.65 209.516 95.57 209.21 95.57C208.903 95.57 208.626 95.65 208.38 95.81C208.14 95.9633 207.95 96.18 207.81 96.46C207.676 96.74 207.61 97.0567 207.61 97.41C207.61 97.7633 207.676 98.0833 207.81 98.37C207.95 98.65 208.14 98.87 208.38 99.03C208.626 99.1833 208.903 99.26 209.21 99.26ZM215.192 100.12C214.712 100.12 214.262 99.9967 213.842 99.75C213.422 99.5033 213.089 99.1733 212.842 98.76C212.596 98.34 212.472 97.89 212.472 97.41C212.472 96.93 212.596 96.4833 212.842 96.07C213.096 95.6567 213.429 95.3267 213.842 95.08C214.262 94.8333 214.716 94.71 215.202 94.71C215.562 94.71 215.906 94.78 216.232 94.92C216.559 95.06 216.849 95.2567 217.102 95.51L216.432 96.13C216.279 95.9567 216.092 95.82 215.872 95.72C215.659 95.62 215.432 95.57 215.192 95.57C214.886 95.57 214.599 95.6533 214.332 95.82C214.072 95.9867 213.862 96.2133 213.702 96.5C213.549 96.78 213.472 97.0833 213.472 97.41C213.472 97.7433 213.549 98.0533 213.702 98.34C213.862 98.62 214.072 98.8433 214.332 99.01C214.599 99.1767 214.886 99.26 215.192 99.26C215.432 99.26 215.662 99.21 215.882 99.11C216.109 99.0033 216.302 98.86 216.462 98.68L217.132 99.29C216.872 99.55 216.576 99.7533 216.242 99.9C215.916 100.047 215.566 100.12 215.192 100.12ZM220.427 100.12C219.933 100.12 219.477 100 219.057 99.76C218.643 99.5133 218.313 99.1833 218.067 98.77C217.827 98.35 217.707 97.8967 217.707 97.41C217.707 96.9233 217.827 96.4733 218.067 96.06C218.313 95.6467 218.643 95.32 219.057 95.08C219.477 94.8333 219.933 94.71 220.427 94.71C220.913 94.71 221.363 94.8333 221.777 95.08C222.197 95.32 222.527 95.6467 222.767 96.06C223.013 96.4733 223.137 96.9233 223.137 97.41C223.137 97.8967 223.013 98.35 222.767 98.77C222.527 99.1833 222.197 99.5133 221.777 99.76C221.363 100 220.913 100.12 220.427 100.12ZM220.427 99.26C220.733 99.26 221.017 99.1767 221.277 99.01C221.543 98.8433 221.753 98.62 221.907 98.34C222.067 98.0533 222.147 97.7433 222.147 97.41C222.147 97.0767 222.067 96.77 221.907 96.49C221.753 96.2033 221.543 95.98 221.277 95.82C221.017 95.6533 220.733 95.57 220.427 95.57C220.113 95.57 219.823 95.6533 219.557 95.82C219.29 95.98 219.077 96.2033 218.917 96.49C218.763 96.77 218.687 97.0767 218.687 97.41C218.687 97.7433 218.763 98.0533 218.917 98.34C219.077 98.62 219.29 98.8433 219.557 99.01C219.823 99.1767 220.113 99.26 220.427 99.26ZM229.811 94.71C230.164 94.71 230.484 94.7967 230.771 94.97C231.058 95.1367 231.281 95.3733 231.441 95.68C231.601 95.98 231.681 96.3233 231.681 96.71V100H230.711V96.86C230.711 96.48 230.608 96.17 230.401 95.93C230.201 95.69 229.938 95.57 229.611 95.57C229.238 95.57 228.934 95.6833 228.701 95.91C228.468 96.13 228.351 96.4167 228.351 96.77V100H227.381V96.86C227.381 96.48 227.278 96.17 227.071 95.93C226.871 95.69 226.608 95.57 226.281 95.57C225.908 95.57 225.601 95.6833 225.361 95.91C225.128 96.13 225.011 96.4167 225.011 96.77V100H224.031V94.83H225.011V95.57C225.144 95.3033 225.338 95.0933 225.591 94.94C225.851 94.7867 226.148 94.71 226.481 94.71C226.814 94.71 227.118 94.7867 227.391 94.94C227.664 95.0933 227.884 95.3033 228.051 95.57C228.231 95.3033 228.474 95.0933 228.781 94.94C229.094 94.7867 229.438 94.71 229.811 94.71ZM232.742 94.83H233.722V100H232.742V94.83ZM233.232 93.97C233.065 93.97 232.922 93.91 232.802 93.79C232.689 93.67 232.632 93.53 232.632 93.37C232.632 93.21 232.689 93.0733 232.802 92.96C232.922 92.84 233.065 92.78 233.232 92.78C233.392 92.78 233.529 92.84 233.642 92.96C233.762 93.0733 233.822 93.21 233.822 93.37C233.822 93.53 233.762 93.67 233.642 93.79C233.529 93.91 233.392 93.97 233.232 93.97ZM237.501 94.71C237.874 94.71 238.208 94.7933 238.501 94.96C238.794 95.1267 239.021 95.3633 239.181 95.67C239.348 95.97 239.431 96.3167 239.431 96.71V100H238.461V96.88C238.461 96.4933 238.351 96.18 238.131 95.94C237.911 95.6933 237.624 95.57 237.271 95.57C237.011 95.57 236.771 95.6267 236.551 95.74C236.331 95.8467 236.158 95.9933 236.031 96.18C235.904 96.3667 235.841 96.57 235.841 96.79V100H234.861V94.83H235.841V95.59C235.994 95.3233 236.221 95.11 236.521 94.95C236.821 94.79 237.148 94.71 237.501 94.71ZM245.426 94.83V99.45C245.426 99.89 245.312 100.28 245.086 100.62C244.866 100.967 244.556 101.237 244.156 101.43C243.762 101.623 243.312 101.72 242.806 101.72C242.386 101.72 241.982 101.657 241.596 101.53C241.216 101.403 240.899 101.237 240.646 101.03L241.036 100.29C241.222 100.47 241.459 100.61 241.746 100.71C242.039 100.81 242.346 100.86 242.666 100.86C243.219 100.86 243.652 100.733 243.966 100.48C244.279 100.227 244.436 99.8767 244.436 99.43V98.68C244.229 98.98 243.969 99.2133 243.656 99.38C243.342 99.54 242.996 99.62 242.616 99.62C242.162 99.62 241.756 99.5167 241.396 99.31C241.042 99.0967 240.762 98.8033 240.556 98.43C240.356 98.0567 240.256 97.6333 240.256 97.16C240.256 96.6867 240.356 96.2633 240.556 95.89C240.762 95.5167 241.042 95.2267 241.396 95.02C241.756 94.8133 242.162 94.71 242.616 94.71C242.996 94.71 243.342 94.7933 243.656 94.96C243.976 95.1267 244.236 95.3567 244.436 95.65V94.83H245.426ZM242.856 98.76C243.322 98.76 243.702 98.6133 243.996 98.32C244.289 98.02 244.436 97.6333 244.436 97.16C244.436 96.6933 244.289 96.3133 243.996 96.02C243.702 95.72 243.322 95.57 242.856 95.57C242.402 95.57 242.026 95.72 241.726 96.02C241.432 96.3133 241.286 96.6933 241.286 97.16C241.286 97.6267 241.432 98.01 241.726 98.31C242.026 98.61 242.402 98.76 242.856 98.76Z" fill="#666666"/>
<path d="M220.5 122L212.375 112H228.625L220.5 122Z" fill="white"/>
</g>
<circle cx="6" cy="285.5" r="6" fill="#B7E5A5"/>
<path d="M24.26 289.144C23.596 289.144 23 288.992 22.472 288.688C21.952 288.384 21.544 287.964 21.248 287.428C20.96 286.884 20.816 286.268 20.816 285.58V280.756H21.752V285.58C21.752 286.1 21.86 286.568 22.076 286.984C22.292 287.392 22.588 287.712 22.964 287.944C23.348 288.176 23.78 288.292 24.26 288.292C24.74 288.292 25.168 288.176 25.544 287.944C25.928 287.712 26.228 287.392 26.444 286.984C26.66 286.568 26.768 286.1 26.768 285.58V280.756H27.704V285.58C27.704 286.268 27.556 286.884 27.26 287.428C26.972 287.964 26.564 288.384 26.036 288.688C25.516 288.992 24.924 289.144 24.26 289.144ZM32.6235 282.652C33.1595 282.652 33.6435 282.792 34.0755 283.072C34.5155 283.344 34.8595 283.728 35.1075 284.224C35.3555 284.712 35.4795 285.268 35.4795 285.892C35.4795 286.516 35.3555 287.076 35.1075 287.572C34.8595 288.068 34.5155 288.456 34.0755 288.736C33.6435 289.008 33.1595 289.144 32.6235 289.144C32.1355 289.144 31.6955 289.032 31.3035 288.808C30.9195 288.576 30.6075 288.252 30.3675 287.836V291.064H29.4675V282.796H30.3675V283.96C30.6075 283.544 30.9195 283.224 31.3035 283C31.6955 282.768 32.1355 282.652 32.6235 282.652ZM32.4555 288.34C32.8555 288.34 33.2115 288.236 33.5235 288.028C33.8435 287.82 34.0915 287.532 34.2675 287.164C34.4435 286.788 34.5315 286.364 34.5315 285.892C34.5315 285.42 34.4435 285 34.2675 284.632C34.0915 284.264 33.8435 283.976 33.5235 283.768C33.2115 283.56 32.8555 283.456 32.4555 283.456C32.0555 283.456 31.6955 283.56 31.3755 283.768C31.0555 283.976 30.8075 284.264 30.6315 284.632C30.4555 285 30.3675 285.42 30.3675 285.892C30.3675 286.364 30.4555 286.788 30.6315 287.164C30.8075 287.532 31.0555 287.82 31.3755 288.028C31.6955 288.236 32.0555 288.34 32.4555 288.34ZM39.784 289.144C39.216 289.144 38.684 288.996 38.188 288.7C37.692 288.404 37.296 288.008 37 287.512C36.712 287.008 36.568 286.468 36.568 285.892C36.568 285.316 36.712 284.78 37 284.284C37.296 283.788 37.692 283.392 38.188 283.096C38.684 282.8 39.216 282.652 39.784 282.652C40.2 282.652 40.596 282.732 40.972 282.892C41.356 283.052 41.696 283.276 41.992 283.564L41.368 284.176C41.16 283.952 40.92 283.776 40.648 283.648C40.376 283.52 40.088 283.456 39.784 283.456C39.376 283.456 38.996 283.568 38.644 283.792C38.3 284.008 38.024 284.304 37.816 284.68C37.616 285.056 37.516 285.46 37.516 285.892C37.516 286.332 37.616 286.74 37.816 287.116C38.024 287.484 38.3 287.78 38.644 288.004C38.996 288.228 39.376 288.34 39.784 288.34C40.088 288.34 40.38 288.276 40.66 288.148C40.94 288.012 41.188 287.824 41.404 287.584L42.028 288.196C41.732 288.492 41.388 288.724 40.996 288.892C40.612 289.06 40.208 289.144 39.784 289.144ZM46.2346 289.144C45.6586 289.144 45.1226 289 44.6266 288.712C44.1386 288.416 43.7506 288.02 43.4626 287.524C43.1746 287.02 43.0306 286.476 43.0306 285.892C43.0306 285.308 43.1746 284.768 43.4626 284.272C43.7506 283.776 44.1386 283.384 44.6266 283.096C45.1226 282.8 45.6586 282.652 46.2346 282.652C46.8106 282.652 47.3426 282.8 47.8306 283.096C48.3186 283.384 48.7066 283.776 48.9946 284.272C49.2826 284.768 49.4266 285.308 49.4266 285.892C49.4266 286.476 49.2826 287.02 48.9946 287.524C48.7066 288.02 48.3186 288.416 47.8306 288.712C47.3426 289 46.8106 289.144 46.2346 289.144ZM46.2346 288.34C46.6426 288.34 47.0186 288.232 47.3626 288.016C47.7066 287.792 47.9786 287.492 48.1786 287.116C48.3866 286.74 48.4906 286.332 48.4906 285.892C48.4906 285.452 48.3866 285.048 48.1786 284.68C47.9786 284.304 47.7066 284.008 47.3626 283.792C47.0186 283.568 46.6426 283.456 46.2346 283.456C45.8266 283.456 45.4466 283.568 45.0946 283.792C44.7506 284.008 44.4746 284.304 44.2666 284.68C44.0666 285.048 43.9666 285.452 43.9666 285.892C43.9666 286.332 44.0666 286.74 44.2666 287.116C44.4746 287.492 44.7506 287.792 45.0946 288.016C45.4466 288.232 45.8266 288.34 46.2346 288.34ZM57.4731 282.652C57.8971 282.652 58.2771 282.756 58.6131 282.964C58.9491 283.164 59.2091 283.448 59.3931 283.816C59.5851 284.176 59.6811 284.588 59.6811 285.052V289H58.7811V285.172C58.7811 284.668 58.6451 284.256 58.3731 283.936C58.1091 283.616 57.7691 283.456 57.3531 283.456C56.8571 283.456 56.4531 283.608 56.1411 283.912C55.8291 284.208 55.6731 284.588 55.6731 285.052V289H54.7731V285.172C54.7731 284.668 54.6371 284.256 54.3651 283.936C54.1011 283.616 53.7611 283.456 53.3451 283.456C52.8491 283.456 52.4451 283.608 52.1331 283.912C51.8211 284.208 51.6651 284.588 51.6651 285.052V289H50.7651V282.796H51.6651V283.708C51.8251 283.38 52.0611 283.124 52.3731 282.94C52.6931 282.748 53.0571 282.652 53.4651 282.652C53.8651 282.652 54.2251 282.744 54.5451 282.928C54.8651 283.104 55.1211 283.352 55.3131 283.672C55.5531 283.352 55.8571 283.104 56.2251 282.928C56.6011 282.744 57.0171 282.652 57.4731 282.652ZM61.2004 282.796H62.1004V289H61.2004V282.796ZM61.6564 281.668C61.4884 281.668 61.3444 281.608 61.2244 281.488C61.1124 281.368 61.0564 281.228 61.0564 281.068C61.0564 280.908 61.1124 280.772 61.2244 280.66C61.3444 280.54 61.4884 280.48 61.6564 280.48C61.8164 280.48 61.9524 280.54 62.0644 280.66C62.1844 280.772 62.2444 280.908 62.2444 281.068C62.2444 281.228 62.1844 281.368 62.0644 281.488C61.9524 281.608 61.8164 281.668 61.6564 281.668ZM66.6538 282.652C67.1098 282.652 67.5138 282.752 67.8658 282.952C68.2178 283.152 68.4898 283.436 68.6818 283.804C68.8818 284.164 68.9818 284.58 68.9818 285.052V289H68.0818V285.172C68.0818 284.66 67.9378 284.248 67.6498 283.936C67.3618 283.616 66.9898 283.456 66.5338 283.456C66.1898 283.456 65.8698 283.528 65.5738 283.672C65.2778 283.816 65.0418 284.012 64.8658 284.26C64.6978 284.5 64.6138 284.764 64.6138 285.052V289H63.7138V282.796H64.6138V283.78C64.7978 283.444 65.0738 283.172 65.4418 282.964C65.8098 282.756 66.2138 282.652 66.6538 282.652ZM76.2646 282.796V288.34C76.2646 288.868 76.1326 289.336 75.8686 289.744C75.6126 290.16 75.2526 290.484 74.7886 290.716C74.3326 290.948 73.8086 291.064 73.2166 291.064C72.7286 291.064 72.2606 290.988 71.8126 290.836C71.3646 290.684 70.9966 290.484 70.7086 290.236L71.1046 289.528C71.3446 289.76 71.6406 289.94 71.9926 290.068C72.3446 290.196 72.7126 290.26 73.0966 290.26C73.8086 290.26 74.3646 290.092 74.7646 289.756C75.1646 289.42 75.3646 288.948 75.3646 288.34V287.332C75.1246 287.716 74.8086 288.016 74.4166 288.232C74.0326 288.44 73.5966 288.544 73.1086 288.544C72.5566 288.544 72.0646 288.42 71.6326 288.172C71.2006 287.916 70.8606 287.564 70.6126 287.116C70.3726 286.668 70.2526 286.16 70.2526 285.592C70.2526 285.024 70.3726 284.516 70.6126 284.068C70.8606 283.62 71.2006 283.272 71.6326 283.024C72.0646 282.776 72.5566 282.652 73.1086 282.652C73.5966 282.652 74.0326 282.76 74.4166 282.976C74.8086 283.184 75.1246 283.48 75.3646 283.864V282.796H76.2646ZM73.2766 287.74C73.6766 287.74 74.0366 287.648 74.3566 287.464C74.6766 287.28 74.9246 287.028 75.1006 286.708C75.2766 286.38 75.3646 286.008 75.3646 285.592C75.3646 285.184 75.2766 284.82 75.1006 284.5C74.9246 284.172 74.6766 283.916 74.3566 283.732C74.0366 283.548 73.6766 283.456 73.2766 283.456C72.8766 283.456 72.5166 283.548 72.1966 283.732C71.8846 283.916 71.6406 284.172 71.4646 284.5C71.2886 284.82 71.2006 285.184 71.2006 285.592C71.2006 286.008 71.2886 286.38 71.4646 286.708C71.6406 287.028 71.8846 287.28 72.1966 287.464C72.5166 287.648 72.8766 287.74 73.2766 287.74ZM83.8863 291.04C83.0783 290.36 82.4583 289.576 82.0263 288.688C81.5943 287.8 81.3783 286.844 81.3783 285.82C81.3783 284.788 81.5943 283.832 82.0263 282.952C82.4583 282.064 83.0783 281.28 83.8863 280.6L84.3663 281.104C83.6863 281.808 83.1783 282.532 82.8423 283.276C82.5063 284.02 82.3383 284.868 82.3383 285.82C82.3383 286.764 82.5063 287.612 82.8423 288.364C83.1783 289.108 83.6863 289.828 84.3663 290.524L83.8863 291.04ZM87.5776 281.896L86.1376 282.832L85.7296 282.136L87.7576 280.756H88.5136V289H87.5776V281.896ZM93.1507 289.144C92.5427 289.144 91.9947 289.028 91.5067 288.796C91.0267 288.564 90.6067 288.244 90.2467 287.836L90.8587 287.152C91.5627 287.92 92.3387 288.304 93.1867 288.304C93.5627 288.304 93.8987 288.224 94.1947 288.064C94.4907 287.904 94.7187 287.684 94.8787 287.404C95.0467 287.124 95.1307 286.812 95.1307 286.468C95.1307 285.94 94.9467 285.512 94.5787 285.184C94.2107 284.856 93.7387 284.692 93.1627 284.692C92.5067 284.692 91.8947 284.904 91.3267 285.328L90.6427 284.992L90.7627 280.756H95.6347V281.644H91.6747L91.5907 284.416C92.1347 284.048 92.7227 283.864 93.3547 283.864C93.8587 283.864 94.3147 283.968 94.7227 284.176C95.1387 284.376 95.4667 284.672 95.7067 285.064C95.9547 285.448 96.0787 285.904 96.0787 286.432C96.0787 286.968 95.9507 287.444 95.6947 287.86C95.4467 288.268 95.0987 288.584 94.6507 288.808C94.2107 289.032 93.7107 289.144 93.1507 289.144ZM97.5065 290.524C98.1865 289.828 98.6945 289.108 99.0305 288.364C99.3665 287.612 99.5345 286.764 99.5345 285.82C99.5345 284.868 99.3665 284.02 99.0305 283.276C98.6945 282.532 98.1865 281.808 97.5065 281.104L97.9865 280.6C98.7945 281.28 99.4145 282.064 99.8465 282.952C100.278 283.832 100.494 284.788 100.494 285.82C100.494 286.844 100.278 287.8 99.8465 288.688C99.4145 289.576 98.7945 290.36 97.9865 291.04L97.5065 290.524Z" fill="#0A0A0A"/>
<circle cx="143" cy="285.5" r="6" fill="#C4BDF6"/>
<path d="M161.872 289.144C161.128 289.144 160.428 288.952 159.772 288.568C159.124 288.176 158.608 287.652 158.224 286.996C157.84 286.34 157.648 285.632 157.648 284.872C157.648 284.112 157.84 283.408 158.224 282.76C158.608 282.104 159.124 281.584 159.772 281.2C160.428 280.808 161.128 280.612 161.872 280.612C162.624 280.612 163.32 280.808 163.96 281.2C164.608 281.584 165.124 282.104 165.508 282.76C165.892 283.408 166.084 284.112 166.084 284.872C166.084 285.632 165.892 286.34 165.508 286.996C165.124 287.652 164.608 288.176 163.96 288.568C163.32 288.952 162.624 289.144 161.872 289.144ZM161.872 288.28C162.456 288.28 162.996 288.124 163.492 287.812C163.996 287.5 164.396 287.084 164.692 286.564C164.988 286.044 165.136 285.48 165.136 284.872C165.136 284.272 164.988 283.712 164.692 283.192C164.396 282.664 163.996 282.248 163.492 281.944C162.996 281.632 162.456 281.476 161.872 281.476C161.288 281.476 160.744 281.632 160.24 281.944C159.744 282.248 159.344 282.664 159.04 283.192C158.744 283.712 158.596 284.272 158.596 284.872C158.596 285.48 158.744 286.044 159.04 286.564C159.344 287.084 159.744 287.5 160.24 287.812C160.744 288.124 161.288 288.28 161.872 288.28ZM170.591 282.652C171.047 282.652 171.451 282.752 171.803 282.952C172.155 283.152 172.427 283.436 172.619 283.804C172.819 284.164 172.919 284.58 172.919 285.052V289H172.019V285.172C172.019 284.66 171.875 284.248 171.587 283.936C171.299 283.616 170.927 283.456 170.471 283.456C170.127 283.456 169.807 283.528 169.511 283.672C169.215 283.816 168.979 284.012 168.803 284.26C168.635 284.5 168.551 284.764 168.551 285.052V289H167.651V282.796H168.551V283.78C168.735 283.444 169.011 283.172 169.379 282.964C169.747 282.756 170.151 282.652 170.591 282.652ZM180.201 282.796V288.34C180.201 288.868 180.069 289.336 179.805 289.744C179.549 290.16 179.189 290.484 178.725 290.716C178.269 290.948 177.745 291.064 177.153 291.064C176.665 291.064 176.197 290.988 175.749 290.836C175.301 290.684 174.933 290.484 174.645 290.236L175.041 289.528C175.281 289.76 175.577 289.94 175.929 290.068C176.281 290.196 176.649 290.26 177.033 290.26C177.745 290.26 178.301 290.092 178.701 289.756C179.101 289.42 179.301 288.948 179.301 288.34V287.332C179.061 287.716 178.745 288.016 178.353 288.232C177.969 288.44 177.533 288.544 177.045 288.544C176.493 288.544 176.001 288.42 175.569 288.172C175.137 287.916 174.797 287.564 174.549 287.116C174.309 286.668 174.189 286.16 174.189 285.592C174.189 285.024 174.309 284.516 174.549 284.068C174.797 283.62 175.137 283.272 175.569 283.024C176.001 282.776 176.493 282.652 177.045 282.652C177.533 282.652 177.969 282.76 178.353 282.976C178.745 283.184 179.061 283.48 179.301 283.864V282.796H180.201ZM177.213 287.74C177.613 287.74 177.973 287.648 178.293 287.464C178.613 287.28 178.861 287.028 179.037 286.708C179.213 286.38 179.301 286.008 179.301 285.592C179.301 285.184 179.213 284.82 179.037 284.5C178.861 284.172 178.613 283.916 178.293 283.732C177.973 283.548 177.613 283.456 177.213 283.456C176.813 283.456 176.453 283.548 176.133 283.732C175.821 283.916 175.577 284.172 175.401 284.5C175.225 284.82 175.137 285.184 175.137 285.592C175.137 286.008 175.225 286.38 175.401 286.708C175.577 287.028 175.821 287.28 176.133 287.464C176.453 287.648 176.813 287.74 177.213 287.74ZM184.746 289.144C184.17 289.144 183.634 289 183.138 288.712C182.65 288.416 182.262 288.02 181.974 287.524C181.686 287.02 181.542 286.476 181.542 285.892C181.542 285.308 181.686 284.768 181.974 284.272C182.262 283.776 182.65 283.384 183.138 283.096C183.634 282.8 184.17 282.652 184.746 282.652C185.322 282.652 185.854 282.8 186.342 283.096C186.83 283.384 187.218 283.776 187.506 284.272C187.794 284.768 187.938 285.308 187.938 285.892C187.938 286.476 187.794 287.02 187.506 287.524C187.218 288.02 186.83 288.416 186.342 288.712C185.854 289 185.322 289.144 184.746 289.144ZM184.746 288.34C185.154 288.34 185.53 288.232 185.874 288.016C186.218 287.792 186.49 287.492 186.69 287.116C186.898 286.74 187.002 286.332 187.002 285.892C187.002 285.452 186.898 285.048 186.69 284.68C186.49 284.304 186.218 284.008 185.874 283.792C185.53 283.568 185.154 283.456 184.746 283.456C184.338 283.456 183.958 283.568 183.606 283.792C183.262 284.008 182.986 284.304 182.778 284.68C182.578 285.048 182.478 285.452 182.478 285.892C182.478 286.332 182.578 286.74 182.778 287.116C182.986 287.492 183.262 287.792 183.606 288.016C183.958 288.232 184.338 288.34 184.746 288.34ZM189.277 282.796H190.177V289H189.277V282.796ZM189.733 281.668C189.565 281.668 189.421 281.608 189.301 281.488C189.189 281.368 189.133 281.228 189.133 281.068C189.133 280.908 189.189 280.772 189.301 280.66C189.421 280.54 189.565 280.48 189.733 280.48C189.893 280.48 190.029 280.54 190.141 280.66C190.261 280.772 190.321 280.908 190.321 281.068C190.321 281.228 190.261 281.368 190.141 281.488C190.029 281.608 189.893 281.668 189.733 281.668ZM194.73 282.652C195.186 282.652 195.59 282.752 195.942 282.952C196.294 283.152 196.566 283.436 196.758 283.804C196.958 284.164 197.058 284.58 197.058 285.052V289H196.158V285.172C196.158 284.66 196.014 284.248 195.726 283.936C195.438 283.616 195.066 283.456 194.61 283.456C194.266 283.456 193.946 283.528 193.65 283.672C193.354 283.816 193.118 284.012 192.942 284.26C192.774 284.5 192.69 284.764 192.69 285.052V289H191.79V282.796H192.69V283.78C192.874 283.444 193.15 283.172 193.518 282.964C193.886 282.756 194.29 282.652 194.73 282.652ZM204.341 282.796V288.34C204.341 288.868 204.209 289.336 203.945 289.744C203.689 290.16 203.329 290.484 202.865 290.716C202.409 290.948 201.885 291.064 201.293 291.064C200.805 291.064 200.337 290.988 199.889 290.836C199.441 290.684 199.073 290.484 198.785 290.236L199.181 289.528C199.421 289.76 199.717 289.94 200.069 290.068C200.421 290.196 200.789 290.26 201.173 290.26C201.885 290.26 202.441 290.092 202.841 289.756C203.241 289.42 203.441 288.948 203.441 288.34V287.332C203.201 287.716 202.885 288.016 202.493 288.232C202.109 288.44 201.673 288.544 201.185 288.544C200.633 288.544 200.141 288.42 199.709 288.172C199.277 287.916 198.937 287.564 198.689 287.116C198.449 286.668 198.329 286.16 198.329 285.592C198.329 285.024 198.449 284.516 198.689 284.068C198.937 283.62 199.277 283.272 199.709 283.024C200.141 282.776 200.633 282.652 201.185 282.652C201.673 282.652 202.109 282.76 202.493 282.976C202.885 283.184 203.201 283.48 203.441 283.864V282.796H204.341ZM201.353 287.74C201.753 287.74 202.113 287.648 202.433 287.464C202.753 287.28 203.001 287.028 203.177 286.708C203.353 286.38 203.441 286.008 203.441 285.592C203.441 285.184 203.353 284.82 203.177 284.5C203.001 284.172 202.753 283.916 202.433 283.732C202.113 283.548 201.753 283.456 201.353 283.456C200.953 283.456 200.593 283.548 200.273 283.732C199.961 283.916 199.717 284.172 199.541 284.5C199.365 284.82 199.277 285.184 199.277 285.592C199.277 286.008 199.365 286.38 199.541 286.708C199.717 287.028 199.961 287.28 200.273 287.464C200.593 287.648 200.953 287.74 201.353 287.74ZM211.963 291.04C211.155 290.36 210.535 289.576 210.103 288.688C209.671 287.8 209.455 286.844 209.455 285.82C209.455 284.788 209.671 283.832 210.103 282.952C210.535 282.064 211.155 281.28 211.963 280.6L212.443 281.104C211.763 281.808 211.255 282.532 210.919 283.276C210.583 284.02 210.415 284.868 210.415 285.82C210.415 286.764 210.583 287.612 210.919 288.364C211.255 289.108 211.763 289.828 212.443 290.524L211.963 291.04ZM217.346 289.144C216.682 289.144 216.09 288.964 215.57 288.604C215.05 288.236 214.642 287.728 214.346 287.08C214.058 286.432 213.914 285.696 213.914 284.872C213.914 284.048 214.058 283.316 214.346 282.676C214.642 282.028 215.05 281.524 215.57 281.164C216.09 280.796 216.682 280.612 217.346 280.612C218.002 280.612 218.59 280.796 219.11 281.164C219.63 281.524 220.034 282.028 220.322 282.676C220.618 283.316 220.766 284.048 220.766 284.872C220.766 285.696 220.618 286.432 220.322 287.08C220.034 287.728 219.63 288.236 219.11 288.604C218.598 288.964 218.01 289.144 217.346 289.144ZM217.346 288.28C217.826 288.28 218.254 288.136 218.63 287.848C219.006 287.552 219.298 287.148 219.506 286.636C219.714 286.116 219.818 285.528 219.818 284.872C219.818 284.216 219.714 283.632 219.506 283.12C219.298 282.6 219.006 282.196 218.63 281.908C218.254 281.62 217.826 281.476 217.346 281.476C216.866 281.476 216.438 281.62 216.062 281.908C215.686 282.196 215.39 282.6 215.174 283.12C214.966 283.632 214.862 284.216 214.862 284.872C214.862 285.528 214.966 286.116 215.174 286.636C215.39 287.148 215.686 287.552 216.062 287.848C216.438 288.136 216.866 288.28 217.346 288.28ZM225.129 289.144C224.521 289.144 223.973 289.028 223.485 288.796C223.005 288.564 222.585 288.244 222.225 287.836L222.837 287.152C223.541 287.92 224.317 288.304 225.165 288.304C225.541 288.304 225.877 288.224 226.173 288.064C226.469 287.904 226.697 287.684 226.857 287.404C227.025 287.124 227.109 286.812 227.109 286.468C227.109 285.94 226.925 285.512 226.557 285.184C226.189 284.856 225.717 284.692 225.141 284.692C224.485 284.692 223.873 284.904 223.305 285.328L222.621 284.992L222.741 280.756H227.613V281.644H223.653L223.569 284.416C224.113 284.048 224.701 283.864 225.333 283.864C225.837 283.864 226.293 283.968 226.701 284.176C227.117 284.376 227.445 284.672 227.685 285.064C227.933 285.448 228.057 285.904 228.057 286.432C228.057 286.968 227.929 287.444 227.673 287.86C227.425 288.268 227.077 288.584 226.629 288.808C226.189 289.032 225.689 289.144 225.129 289.144ZM229.485 290.524C230.165 289.828 230.673 289.108 231.009 288.364C231.345 287.612 231.513 286.764 231.513 285.82C231.513 284.868 231.345 284.02 231.009 283.276C230.673 282.532 230.165 281.808 229.485 281.104L229.965 280.6C230.773 281.28 231.393 282.064 231.825 282.952C232.257 283.832 232.473 284.788 232.473 285.82C232.473 286.844 232.257 287.8 231.825 288.688C231.393 289.576 230.773 290.36 229.965 291.04L229.485 290.524Z" fill="#0A0A0A"/>
<circle cx="252" cy="285.5" r="6" fill="#F9E380"/>
<path d="M270.872 289.144C270.128 289.144 269.428 288.952 268.772 288.568C268.124 288.176 267.608 287.652 267.224 286.996C266.84 286.34 266.648 285.632 266.648 284.872C266.648 284.112 266.84 283.408 267.224 282.76C267.608 282.104 268.124 281.584 268.772 281.2C269.428 280.808 270.128 280.612 270.872 280.612C271.432 280.612 271.968 280.724 272.48 280.948C272.992 281.164 273.444 281.472 273.836 281.872L273.2 282.52C272.896 282.192 272.54 281.936 272.132 281.752C271.732 281.568 271.312 281.476 270.872 281.476C270.288 281.476 269.744 281.632 269.24 281.944C268.744 282.248 268.344 282.664 268.04 283.192C267.744 283.712 267.596 284.272 267.596 284.872C267.596 285.48 267.744 286.044 268.04 286.564C268.344 287.084 268.744 287.5 269.24 287.812C269.744 288.124 270.288 288.28 270.872 288.28C271.312 288.28 271.732 288.188 272.132 288.004C272.54 287.82 272.896 287.564 273.2 287.236L273.836 287.884C273.444 288.276 272.992 288.584 272.48 288.808C271.968 289.032 271.432 289.144 270.872 289.144ZM278.278 289.144C277.702 289.144 277.166 289 276.67 288.712C276.182 288.416 275.794 288.02 275.506 287.524C275.218 287.02 275.074 286.476 275.074 285.892C275.074 285.308 275.218 284.768 275.506 284.272C275.794 283.776 276.182 283.384 276.67 283.096C277.166 282.8 277.702 282.652 278.278 282.652C278.854 282.652 279.386 282.8 279.874 283.096C280.362 283.384 280.75 283.776 281.038 284.272C281.326 284.768 281.47 285.308 281.47 285.892C281.47 286.476 281.326 287.02 281.038 287.524C280.75 288.02 280.362 288.416 279.874 288.712C279.386 289 278.854 289.144 278.278 289.144ZM278.278 288.34C278.686 288.34 279.062 288.232 279.406 288.016C279.75 287.792 280.022 287.492 280.222 287.116C280.43 286.74 280.534 286.332 280.534 285.892C280.534 285.452 280.43 285.048 280.222 284.68C280.022 284.304 279.75 284.008 279.406 283.792C279.062 283.568 278.686 283.456 278.278 283.456C277.87 283.456 277.49 283.568 277.138 283.792C276.794 284.008 276.518 284.304 276.31 284.68C276.11 285.048 276.01 285.452 276.01 285.892C276.01 286.332 276.11 286.74 276.31 287.116C276.518 287.492 276.794 287.792 277.138 288.016C277.49 288.232 277.87 288.34 278.278 288.34ZM289.517 282.652C289.941 282.652 290.321 282.756 290.657 282.964C290.993 283.164 291.253 283.448 291.437 283.816C291.629 284.176 291.725 284.588 291.725 285.052V289H290.825V285.172C290.825 284.668 290.689 284.256 290.417 283.936C290.153 283.616 289.813 283.456 289.397 283.456C288.901 283.456 288.497 283.608 288.185 283.912C287.873 284.208 287.717 284.588 287.717 285.052V289H286.817V285.172C286.817 284.668 286.681 284.256 286.409 283.936C286.145 283.616 285.805 283.456 285.389 283.456C284.893 283.456 284.489 283.608 284.177 283.912C283.865 284.208 283.709 284.588 283.709 285.052V289H282.809V282.796H283.709V283.708C283.869 283.38 284.105 283.124 284.417 282.94C284.737 282.748 285.101 282.652 285.509 282.652C285.909 282.652 286.269 282.744 286.589 282.928C286.909 283.104 287.165 283.352 287.357 283.672C287.597 283.352 287.901 283.104 288.269 282.928C288.645 282.744 289.061 282.652 289.517 282.652ZM296.424 282.652C296.96 282.652 297.444 282.792 297.876 283.072C298.316 283.344 298.66 283.728 298.908 284.224C299.156 284.712 299.28 285.268 299.28 285.892C299.28 286.516 299.156 287.076 298.908 287.572C298.66 288.068 298.316 288.456 297.876 288.736C297.444 289.008 296.96 289.144 296.424 289.144C295.936 289.144 295.496 289.032 295.104 288.808C294.72 288.576 294.408 288.252 294.168 287.836V291.064H293.268V282.796H294.168V283.96C294.408 283.544 294.72 283.224 295.104 283C295.496 282.768 295.936 282.652 296.424 282.652ZM296.256 288.34C296.656 288.34 297.012 288.236 297.324 288.028C297.644 287.82 297.892 287.532 298.068 287.164C298.244 286.788 298.332 286.364 298.332 285.892C298.332 285.42 298.244 285 298.068 284.632C297.892 284.264 297.644 283.976 297.324 283.768C297.012 283.56 296.656 283.456 296.256 283.456C295.856 283.456 295.496 283.56 295.176 283.768C294.856 283.976 294.608 284.264 294.432 284.632C294.256 285 294.168 285.42 294.168 285.892C294.168 286.364 294.256 286.788 294.432 287.164C294.608 287.532 294.856 287.82 295.176 288.028C295.496 288.236 295.856 288.34 296.256 288.34ZM300.656 280.612H301.556V289H300.656V280.612ZM306.073 288.34C306.441 288.34 306.809 288.268 307.177 288.124C307.553 287.98 307.837 287.804 308.029 287.596L308.581 288.184C308.317 288.472 307.945 288.704 307.465 288.88C306.993 289.056 306.533 289.144 306.085 289.144C305.533 289.144 305.017 289.004 304.537 288.724C304.057 288.444 303.669 288.056 303.373 287.56C303.085 287.056 302.941 286.496 302.941 285.88C302.941 285.28 303.077 284.732 303.349 284.236C303.629 283.74 304.001 283.352 304.465 283.072C304.937 282.792 305.449 282.652 306.001 282.652C306.929 282.652 307.649 282.976 308.161 283.624C308.681 284.272 308.941 285.144 308.941 286.24H303.865C303.929 286.856 304.161 287.36 304.561 287.752C304.969 288.144 305.473 288.34 306.073 288.34ZM306.037 283.456C305.477 283.456 304.997 283.64 304.597 284.008C304.197 284.368 303.957 284.844 303.877 285.436H308.053C307.989 284.844 307.785 284.368 307.441 284.008C307.097 283.64 306.629 283.456 306.037 283.456ZM313.202 288.748C312.866 289.012 312.482 289.144 312.05 289.144C311.61 289.144 311.246 288.996 310.958 288.7C310.678 288.404 310.538 288.024 310.538 287.56V283.6H309.566V282.796H310.538V281.092H311.438V282.796H312.962V283.6H311.438V287.56C311.438 287.784 311.502 287.972 311.63 288.124C311.766 288.268 311.926 288.34 312.11 288.34C312.246 288.34 312.37 288.316 312.482 288.268C312.594 288.22 312.686 288.16 312.758 288.088L313.202 288.748ZM316.994 288.34C317.362 288.34 317.73 288.268 318.098 288.124C318.474 287.98 318.758 287.804 318.95 287.596L319.502 288.184C319.238 288.472 318.866 288.704 318.386 288.88C317.914 289.056 317.454 289.144 317.006 289.144C316.454 289.144 315.938 289.004 315.458 288.724C314.978 288.444 314.59 288.056 314.294 287.56C314.006 287.056 313.862 286.496 313.862 285.88C313.862 285.28 313.998 284.732 314.27 284.236C314.55 283.74 314.922 283.352 315.386 283.072C315.858 282.792 316.37 282.652 316.922 282.652C317.85 282.652 318.57 282.976 319.082 283.624C319.602 284.272 319.862 285.144 319.862 286.24H314.786C314.85 286.856 315.082 287.36 315.482 287.752C315.89 288.144 316.394 288.34 316.994 288.34ZM316.958 283.456C316.398 283.456 315.918 283.64 315.518 284.008C315.118 284.368 314.878 284.844 314.798 285.436H318.974C318.91 284.844 318.706 284.368 318.362 284.008C318.018 283.64 317.55 283.456 316.958 283.456ZM326.946 280.612V289H326.046V287.836C325.806 288.252 325.49 288.576 325.098 288.808C324.714 289.032 324.278 289.144 323.79 289.144C323.254 289.144 322.766 289.008 322.326 288.736C321.894 288.456 321.554 288.068 321.306 287.572C321.058 287.076 320.934 286.516 320.934 285.892C320.934 285.268 321.058 284.712 321.306 284.224C321.554 283.728 321.894 283.344 322.326 283.072C322.766 282.792 323.254 282.652 323.79 282.652C324.278 282.652 324.714 282.768 325.098 283C325.49 283.224 325.806 283.544 326.046 283.96V280.612H326.946ZM323.958 288.34C324.358 288.34 324.718 288.236 325.038 288.028C325.358 287.82 325.606 287.532 325.782 287.164C325.958 286.788 326.046 286.364 326.046 285.892C326.046 285.42 325.958 285 325.782 284.632C325.606 284.264 325.358 283.976 325.038 283.768C324.718 283.56 324.358 283.456 323.958 283.456C323.558 283.456 323.198 283.56 322.878 283.768C322.566 283.976 322.322 284.264 322.146 284.632C321.97 285 321.882 285.42 321.882 285.892C321.882 286.364 321.97 286.788 322.146 287.164C322.322 287.532 322.566 287.82 322.878 288.028C323.198 288.236 323.558 288.34 323.958 288.34ZM334.591 291.04C333.783 290.36 333.163 289.576 332.731 288.688C332.299 287.8 332.083 286.844 332.083 285.82C332.083 284.788 332.299 283.832 332.731 282.952C333.163 282.064 333.783 281.28 334.591 280.6L335.071 281.104C334.391 281.808 333.883 282.532 333.547 283.276C333.211 284.02 333.043 284.868 333.043 285.82C333.043 286.764 333.211 287.612 333.547 288.364C333.883 289.108 334.391 289.828 335.071 290.524L334.591 291.04ZM338.282 281.896L336.842 282.832L336.434 282.136L338.462 280.756H339.218V289H338.282V281.896ZM344.504 289.144C343.84 289.144 343.248 288.964 342.728 288.604C342.208 288.236 341.8 287.728 341.504 287.08C341.216 286.432 341.072 285.696 341.072 284.872C341.072 284.048 341.216 283.316 341.504 282.676C341.8 282.028 342.208 281.524 342.728 281.164C343.248 280.796 343.84 280.612 344.504 280.612C345.16 280.612 345.748 280.796 346.268 281.164C346.788 281.524 347.192 282.028 347.48 282.676C347.776 283.316 347.924 284.048 347.924 284.872C347.924 285.696 347.776 286.432 347.48 287.08C347.192 287.728 346.788 288.236 346.268 288.604C345.756 288.964 345.168 289.144 344.504 289.144ZM344.504 288.28C344.984 288.28 345.412 288.136 345.788 287.848C346.164 287.552 346.456 287.148 346.664 286.636C346.872 286.116 346.976 285.528 346.976 284.872C346.976 284.216 346.872 283.632 346.664 283.12C346.456 282.6 346.164 282.196 345.788 281.908C345.412 281.62 344.984 281.476 344.504 281.476C344.024 281.476 343.596 281.62 343.22 281.908C342.844 282.196 342.548 282.6 342.332 283.12C342.124 283.632 342.02 284.216 342.02 284.872C342.02 285.528 342.124 286.116 342.332 286.636C342.548 287.148 342.844 287.552 343.22 287.848C343.596 288.136 344.024 288.28 344.504 288.28ZM349.395 290.524C350.075 289.828 350.583 289.108 350.919 288.364C351.255 287.612 351.423 286.764 351.423 285.82C351.423 284.868 351.255 284.02 350.919 283.276C350.583 282.532 350.075 281.808 349.395 281.104L349.875 280.6C350.683 281.28 351.303 282.064 351.735 282.952C352.167 283.832 352.383 284.788 352.383 285.82C352.383 286.844 352.167 287.8 351.735 288.688C351.303 289.576 350.683 290.36 349.875 291.04L349.395 290.524Z" fill="#0A0A0A"/>
<defs>
<filter id="filter0_d_106_73797" x="214.123" y="130.917" width="16.1592" height="20.167" filterUnits="userSpaceOnUse" color-interpolation-filters="sRGB">
<feFlood flood-opacity="0" result="BackgroundImageFix"/>
<feColorMatrix in="SourceAlpha" type="matrix" values="0 0 0 0 0 0 0 0 0 0 0 0 0 0 0 0 0 0 127 0" result="hardAlpha"/>
<feOffset dy="1"/>
<feGaussianBlur stdDeviation="1.5"/>
<feColorMatrix type="matrix" values="0 0 0 0 0 0 0 0 0 0 0 0 0 0 0 0 0 0 0.2 0"/>
<feBlend mode="normal" in2="BackgroundImageFix" result="effect1_dropShadow_106_73797"/>
<feBlend mode="normal" in="SourceGraphic" in2="effect1_dropShadow_106_73797" result="shape"/>
</filter>
<filter id="filter1_d_106_73797" x="175" y="55" width="91" height="81" filterUnits="userSpaceOnUse" color-interpolation-filters="sRGB">
<feFlood flood-opacity="0" result="BackgroundImageFix"/>
<feColorMatrix in="SourceAlpha" type="matrix" values="0 0 0 0 0 0 0 0 0 0 0 0 0 0 0 0 0 0 127 0" result="hardAlpha"/>
<feOffset dy="2"/>
<feGaussianBlur stdDeviation="6"/>
<feComposite in2="hardAlpha" operator="out"/>
<feColorMatrix type="matrix" values="0 0 0 0 0 0 0 0 0 0 0 0 0 0 0 0 0 0 0.08 0"/>
<feBlend mode="normal" in2="BackgroundImageFix" result="effect1_dropShadow_106_73797"/>
<feBlend mode="normal" in="SourceGraphic" in2="effect1_dropShadow_106_73797" result="shape"/>
</filter>
<clipPath id="clip0_106_73797">
<rect width="17.6" height="20" fill="white" transform="translate(213.09 130)"/>
</clipPath>
</defs>
</svg>
