<svg width="28" height="24" viewBox="0 0 28 24" fill="none" xmlns="http://www.w3.org/2000/svg">
<path fill-rule="evenodd" clip-rule="evenodd" d="M4.02392 3.69612C3.20052 4.46071 2.64199 5.70692 2.64199 7.67917V16.3211C2.64199 18.2934 3.20052 19.5396 4.02392 20.3042C4.86057 21.0811 6.12673 21.5063 7.82717 21.5063H20.1728C21.8733 21.5063 23.1395 21.0811 23.9761 20.3042C24.7995 19.5396 25.358 18.2934 25.358 16.3211V7.67917C25.358 5.70692 24.7995 4.46071 23.9761 3.69612C23.1395 2.91924 21.8733 2.49398 20.1728 2.49398H7.82717C6.12673 2.49398 4.86057 2.91924 4.02392 3.69612ZM2.67982 2.24863C4.00367 1.01935 5.82392 0.518677 7.82717 0.518677H20.1728C22.1761 0.518677 23.9963 1.01935 25.3202 2.24863C26.6573 3.49022 27.3333 5.33043 27.3333 7.67917V16.3211C27.3333 18.6699 26.6573 20.5101 25.3202 21.7517C23.9963 22.981 22.1761 23.4816 20.1728 23.4816H7.82717C5.82392 23.4816 4.00367 22.981 2.67982 21.7517C1.34272 20.5101 0.666687 18.6699 0.666687 16.3211V7.67917C0.666687 5.33043 1.34272 3.49022 2.67982 2.24863Z" fill="#254DDD"/>
<path fill-rule="evenodd" clip-rule="evenodd" d="M20.9445 7.6799C21.2849 8.10611 21.2154 8.72758 20.7892 9.06799L16.9238 12.1554C15.2921 13.4544 12.6955 13.4544 11.0638 12.1554L11.0614 12.1535L7.20955 9.06703C6.78388 8.72595 6.71531 8.10437 7.05639 7.6787C7.39747 7.25303 8.01905 7.18446 8.44472 7.52554L12.2952 10.6109C13.2067 11.3356 14.7815 11.3354 15.6928 10.6105C15.693 10.6104 15.6926 10.6107 15.6928 10.6105L19.5564 7.52457C19.9826 7.18416 20.6041 7.2537 20.9445 7.6799Z" fill="#254DDD"/>
</svg>
