<svg version="1.1" width="152px" height="132px" viewBox="0 0 152.0 132.0" xmlns="http://www.w3.org/2000/svg" xmlns:xlink="http://www.w3.org/1999/xlink"><defs><clipPath id="55955511411153103114112109"><path d="M20.4537,0 C31.7499666,0 40.9074,9.17816263 40.9074,20.5 C40.9074,31.8218374 31.7499666,41 20.4537,41 C9.15743341,41 0,31.8218374 0,20.5 C0,9.17816263 9.15743341,0 20.4537,0 Z"></path></clipPath><clipPath id="9750118545710657115103119"><path d="M4.9887,0 C7.74388293,0 9.9774,2.23857625 9.9774,5 C9.9774,7.76142375 7.74388293,10 4.9887,10 C2.23351707,10 0,7.76142375 0,5 C0,2.23857625 2.23351707,0 4.9887,0 Z"></path></clipPath><clipPath id="51112951004911911610311956"><path d="M2.99322,0 C4.64632976,0 5.98644,1.34314575 5.98644,3 C5.98644,4.65685425 4.64632976,6 2.99322,6 C1.34011024,6 0,4.65685425 0,3 C0,1.34314575 1.34011024,0 2.99322,0 Z"></path></clipPath><clipPath id="11011110950955710911345114"><path d="M42.5,0 C65.9721019,2.79367219e-15 85,19.0278981 85,42.5 C85,65.9721019 65.9721019,85 42.5,85 C19.0278981,85 9.9799308e-15,65.9721019 0,42.5 C4.23092392e-15,19.0278981 19.0278981,1.14171825e-14 42.5,0 Z"></path></clipPath></defs><g transform="translate(2.0 0.0)"><g transform="translate(64.67229999999995 52.0)"><g clip-path="url(#55955511411153103114112109)"><polygon points="0,0 40.9074,0 40.9074,41 0,41 0,0" stroke="none" fill="#244DDD"></polygon></g></g><g transform="translate(65.35199999999998 0.0)"><g clip-path="url(#9750118545710657115103119)"><polygon points="0,0 9.9774,0 9.9774,10 0,10 0,0" stroke="none" fill="#B569E1"></polygon></g></g><g transform="translate(131.20230000000004 57.0)"><g clip-path="url(#9750118545710657115103119)"><polygon points="0,0 9.9774,0 9.9774,10 0,10 0,0" stroke="none" fill="#76D3FD"></polygon></g></g><g transform="translate(124.21899999999995 5.8977073969253695)"><path d="M21.95,0.102402603 C7.483,-1.8975874 19.456,26.1022926 0,22.6023926" stroke="#DB6185" stroke-width="5" fill="none" stroke-linecap="round" stroke-miterlimit="10"></path></g><g transform="translate(0.0 78.00000560658754)"><path d="M35.4197,5.33159439 C35.4197,5.33159439 31.7812,9.69179439 28.324,9.73389439 C25.695,9.76589439 24.216,9.36709439 21.2283,7.16589439 C18.2407,4.96469439 18.6141,2.02969439 19.7345,0.562294393 C20.8549,-0.905105607 25.3364,0.562394393 26.4567,4.23099439 C27.5771,7.89959439 28.6975,9.36709439 24.216,13.7694944 C19.7345,18.1717944 0,13.7694944 0,13.7694944" stroke="#7CCFF1" stroke-width="4" fill="none" stroke-linecap="round" stroke-miterlimit="10"></path></g><g transform="translate(25.44240000000002 43.0)"><g clip-path="url(#9750118545710657115103119)"><polygon points="0,0 9.9774,0 9.9774,10 0,10 0,0" stroke="none" fill="#F3C169"></polygon></g></g><g transform="translate(35.419899999999984 109.0)"><g clip-path="url(#9750118545710657115103119)"><polygon points="0,0 9.9774,0 9.9774,10 0,10 0,0" stroke="none" fill="#74BB48"></polygon></g></g><g transform="translate(92.29100000000005 122.0)"><g clip-path="url(#9750118545710657115103119)"><polygon points="0,0 9.9774,0 9.9774,10 0,10 0,0" stroke="none" fill="#18A2B9"></polygon></g></g><g transform="translate(80.31788000000006 10.0)"><g clip-path="url(#51112951004911911610311956)"><polygon points="0,0 5.98644,0 5.98644,6 0,6 0,0" stroke="none" fill="#F3C169"></polygon></g></g><g transform="translate(134.029 99.75)"><path d="M0,0 C4.324,0.1667 12.971,3.3 12.971,14.5" stroke="#ECC376" stroke-width="5" fill="none" stroke-linecap="round" stroke-miterlimit="10"></path></g><g transform="translate(39.0 23.0)"><g clip-path="url(#11011110950955710911345114)"><polygon points="0,0 85,0 85,85 0,85 0,0" stroke="none" fill="#14AF2C"></polygon></g><g transform="translate(30.387699999999995 34.6375)"><path d="M0,6.8 L7.65,15.725 L24.225,0" stroke="#FFFFFF" stroke-width="3.4" fill="none" stroke-linecap="round" stroke-linejoin="round"></path></g></g></g></svg>