<svg width="36" height="38" viewBox="0 0 36 38" fill="none" xmlns="http://www.w3.org/2000/svg">
<path opacity="0.3" fill-rule="evenodd" clip-rule="evenodd" d="M20.9017 2.16807C21.5047 2.03989 22.0975 2.42483 22.2257 3.02786L22.4881 4.26232C24.518 3.97238 26.3958 4.25431 27.9423 5.20678C29.7028 6.29114 30.8632 8.13945 31.3691 10.5543L31.5024 11.1813L3.11376 17.2155L2.98015 16.5869C2.46683 14.172 2.78349 12.0106 3.95381 10.3046C4.9806 8.80784 6.57858 7.78694 8.54414 7.22663L8.28166 5.99178C8.15349 5.38876 8.53843 4.796 9.14145 4.66783C9.74448 4.53965 10.3372 4.92459 10.4654 5.52761L10.7221 6.73528L20.2986 4.69972L20.0419 3.49203C19.9137 2.889 20.2987 2.29625 20.9017 2.16807ZM31.9666 13.3651L3.57793 19.3993L5.78053 29.7617C6.30007 32.2059 7.47109 34.0804 9.23475 35.187C10.9919 36.2894 13.1724 36.5261 15.5133 36.0285L27.8268 33.4112C30.1687 32.9134 32.0659 31.8242 33.2269 30.1238C34.394 28.4144 34.7056 26.2509 34.1926 23.8376L31.9666 13.3651ZM24.1213 19.8341C23.9931 19.231 24.3781 18.6383 24.9811 18.5101L24.9946 18.5072C25.5976 18.3791 26.1903 18.764 26.3185 19.367C26.4467 19.97 26.0618 20.5628 25.4587 20.691L25.4452 20.6938C24.8422 20.822 24.2495 20.4371 24.1213 19.8341ZM18.5216 19.883C17.9186 20.0112 17.5337 20.604 17.6618 21.207C17.79 21.81 18.3828 22.195 18.9858 22.0668L18.9993 22.0639C19.6023 21.9357 19.9873 21.343 19.8591 20.74C19.7309 20.1369 19.1381 19.752 18.5351 19.8802L18.5216 19.883ZM11.1909 22.5823C11.0628 21.9793 11.4477 21.3865 12.0507 21.2583L12.0642 21.2555C12.6672 21.1273 13.26 21.5122 13.3882 22.1152C13.5163 22.7183 13.1314 23.311 12.5284 23.4392L12.5149 23.4421C11.9119 23.5702 11.3191 23.1853 11.1909 22.5823ZM26.184 24.1682C25.5809 24.2964 25.196 24.8891 25.3242 25.4921C25.4523 26.0952 26.0451 26.4801 26.6481 26.3519L26.6616 26.3491C27.2646 26.2209 27.6496 25.6281 27.5214 25.0251C27.3932 24.4221 26.8005 24.0371 26.1974 24.1653L26.184 24.1682ZM18.8644 26.8651C18.7362 26.262 19.1212 25.6693 19.7242 25.5411L19.7377 25.5382C20.3407 25.4101 20.9334 25.795 21.0616 26.398C21.1898 27.0011 20.8049 27.5938 20.2018 27.722L20.1883 27.7249C19.5853 27.853 18.9926 27.4681 18.8644 26.8651ZM13.2536 26.9167C12.6506 27.0449 12.2656 27.6377 12.3938 28.2407C12.522 28.8437 13.1147 29.2287 13.7178 29.1005L13.7313 29.0976C14.3343 28.9694 14.7192 28.3767 14.591 27.7737C14.4629 27.1706 13.8701 26.7857 13.2671 26.9139L13.2536 26.9167Z" fill="url(#paint0_linear_84_28031)"/>
<defs>
<linearGradient id="paint0_linear_84_28031" x1="13.5" y1="3" x2="19.5" y2="35.5" gradientUnits="userSpaceOnUse">
<stop stop-color="#D72700"/>
<stop offset="1" stop-color="#D72700" stop-opacity="0"/>
</linearGradient>
</defs>
</svg>
