<svg width="35" height="36" viewBox="0 0 35 36" fill="none" xmlns="http://www.w3.org/2000/svg">
<path opacity="0.4" fill-rule="evenodd" clip-rule="evenodd" d="M22.5787 32.9756C10.126 37.2809 6.53423 35.5347 2.22891 23.0819C-2.07642 10.6292 -0.330188 7.03744 12.1226 2.73211C24.5753 -1.57321 28.1671 0.173017 32.4724 12.6258C36.7777 25.0785 35.0315 28.6703 22.5787 32.9756ZM14.6639 10.0828C12.9462 10.6766 12.0441 12.5433 12.6357 14.2545C13.2117 15.9204 14.9804 16.8222 16.6487 16.3271C16.7459 16.2857 16.851 16.249 16.9528 16.2218C18.5688 15.5806 19.404 13.7796 18.8352 12.1097C18.2434 10.4002 16.3737 9.49161 14.6639 10.0828ZM11.3755 14.6901C10.544 12.2849 11.8127 9.65774 14.2282 8.82261C16.6344 7.99071 19.2638 9.26907 20.0958 11.6753L20.0967 11.6779C20.9002 14.0339 19.7087 16.5925 17.3956 17.4803C17.368 17.4909 17.3396 17.4996 17.3108 17.5065C17.2689 17.5164 17.2082 17.5368 17.1535 17.5615C17.1283 17.5728 17.1025 17.5826 17.0761 17.5908C14.709 18.3211 12.1898 17.0453 11.3755 14.6901ZM22.6061 17.8579C21.0347 17.4466 19.2423 17.6112 17.6225 18.1712C16.0024 18.7313 14.4879 19.7102 13.4982 21.0055L13.4964 21.0078C12.6149 22.1722 12.3284 23.472 12.7267 24.624C13.125 25.7763 14.1527 26.6196 15.5645 26.9866C17.1409 27.4004 18.9359 27.2375 20.5562 26.6773C22.1768 26.117 23.6894 25.1362 24.6737 23.8367L24.6738 23.8366C25.5553 22.6722 25.8418 21.3724 25.4435 20.2203C25.0452 19.0682 24.0176 18.2249 22.6061 17.8579ZM13.9868 24.1884C13.7673 23.5534 13.8784 22.7128 14.5586 21.8138C15.3561 20.7706 16.6292 19.9254 18.0581 19.4314C19.4878 18.9371 21.0065 18.8175 22.2685 19.1478L22.2697 19.1481C23.3582 19.4309 23.9639 20.0212 24.1834 20.656C24.403 21.2913 24.2917 22.1323 23.6107 23.0318C22.8192 24.0768 21.5494 24.9231 20.1205 25.4171C18.6916 25.9112 17.1702 26.0298 15.9022 25.6968L15.9005 25.6963C14.812 25.4135 14.2063 24.8232 13.9868 24.1884Z" fill="url(#paint0_linear_84_28059)"/>
<defs>
<linearGradient id="paint0_linear_84_28059" x1="11.5001" y1="-8.50012" x2="24.5001" y2="32.9999" gradientUnits="userSpaceOnUse">
<stop stop-color="#007C14"/>
<stop offset="0.989583" stop-color="#007C14" stop-opacity="0"/>
</linearGradient>
</defs>
</svg>
