<svg width="53" height="52" viewBox="0 0 53 52" fill="none" xmlns="http://www.w3.org/2000/svg">
<rect x="0.5" width="52" height="52" rx="26" fill="#E9EDFC"/>
<g clip-path="url(#clip0_615_164)">
<path fill-rule="evenodd" clip-rule="evenodd" d="M14.5 18.9333C14.4823 18.9333 14.4653 18.9403 14.4528 18.9528C14.4403 18.9653 14.4333 18.9823 14.4333 19V33C14.4333 33.0177 14.4403 33.0346 14.4528 33.0471C14.4653 33.0596 14.4823 33.0667 14.5 33.0667H38.5C38.5177 33.0667 38.5346 33.0596 38.5471 33.0471C38.5596 33.0346 38.5667 33.0177 38.5667 33V19C38.5667 18.9823 38.5596 18.9653 38.5471 18.9528C38.5346 18.9403 38.5177 18.9333 38.5 18.9333H36.5C35.9845 18.9333 35.5667 18.5154 35.5667 18C35.5667 17.4845 35.9845 17.0667 36.5 17.0667H38.5C39.0127 17.0667 39.5045 17.2703 39.8671 17.6329C40.2296 17.9955 40.4333 18.4872 40.4333 19V33C40.4333 33.5127 40.2296 34.0045 39.8671 34.3671C39.5045 34.7296 39.0127 34.9333 38.5 34.9333H14.5C13.9872 34.9333 13.4955 34.7296 13.1329 34.3671C12.7703 34.0045 12.5667 33.5127 12.5667 33V19C12.5667 18.4872 12.7703 17.9955 13.1329 17.6329C13.4955 17.2703 13.9872 17.0667 14.5 17.0667H16.5C17.0154 17.0667 17.4333 17.4845 17.4333 18C17.4333 18.5154 17.0154 18.9333 16.5 18.9333H14.5Z" fill="#254DDD"/>
<path fill-rule="evenodd" clip-rule="evenodd" d="M26.5 33.0667C27.0154 33.0667 27.4333 33.4845 27.4333 34V39C27.4333 39.5154 27.0154 39.9333 26.5 39.9333C25.9845 39.9333 25.5667 39.5154 25.5667 39V34C25.5667 33.4845 25.9845 33.0667 26.5 33.0667Z" fill="#254DDD"/>
<path fill-rule="evenodd" clip-rule="evenodd" d="M21.5667 39C21.5667 38.4845 21.9845 38.0667 22.5 38.0667H30.5C31.0154 38.0667 31.4333 38.4845 31.4333 39C31.4333 39.5154 31.0154 39.9333 30.5 39.9333H22.5C21.9845 39.9333 21.5667 39.5154 21.5667 39Z" fill="#254DDD"/>
<path fill-rule="evenodd" clip-rule="evenodd" d="M26.5 12.0667C27.0154 12.0667 27.4333 12.4845 27.4333 13V25C27.4333 25.5154 27.0154 25.9333 26.5 25.9333C25.9845 25.9333 25.5667 25.5154 25.5667 25V13C25.5667 12.4845 25.9845 12.0667 26.5 12.0667Z" fill="#254DDD"/>
<path fill-rule="evenodd" clip-rule="evenodd" d="M25.84 12.34C26.2045 11.9755 26.7955 11.9755 27.16 12.34L31.1599 16.34C31.5244 16.7045 31.5244 17.2955 31.1599 17.66C30.7955 18.0244 30.2045 18.0244 29.84 17.66L26.5 14.3199L23.16 17.66C22.7955 18.0244 22.2045 18.0244 21.84 17.66C21.4755 17.2955 21.4755 16.7045 21.84 16.34L25.84 12.34Z" fill="#254DDD"/>
</g>
<defs>
<clipPath id="clip0_615_164">
<rect width="28" height="28" fill="white" transform="translate(12.5 12)"/>
</clipPath>
</defs>
</svg>
