<svg width="16" height="16" viewBox="0 0 16 16" fill="none" xmlns="http://www.w3.org/2000/svg">
<g clip-path="url(#clip0_1542_90075)">
<path fill-rule="evenodd" clip-rule="evenodd" d="M7.99999 1.10573C4.19186 1.10573 1.10475 4.19283 1.10475 8.00097C1.10475 11.8091 4.19186 14.8962 7.99999 14.8962C11.8081 14.8962 14.8952 11.8091 14.8952 8.00097C14.8952 4.19283 11.8081 1.10573 7.99999 1.10573ZM0.0380859 8.00097C0.0380859 3.60373 3.60275 0.0390625 7.99999 0.0390625C12.3972 0.0390625 15.9619 3.60373 15.9619 8.00097C15.9619 12.3982 12.3972 15.9629 7.99999 15.9629C3.60275 15.9629 0.0380859 12.3982 0.0380859 8.00097Z" fill="#243383"/>
<path fill-rule="evenodd" clip-rule="evenodd" d="M7.92229 5.6065C6.66665 5.6065 5.65626 6.64082 5.65626 7.91527C5.65626 9.15602 6.60755 10.1627 7.80861 10.2171C7.88145 10.2119 7.9584 10.2117 8.03099 10.217C9.23087 10.1621 10.1827 9.15605 10.1883 7.91432C10.1878 6.64099 9.17216 5.6065 7.92229 5.6065ZM4.73511 7.91527C4.73511 6.12387 6.15656 4.66797 7.92229 4.66797C9.68121 4.66797 11.1095 6.12318 11.1095 7.91527L11.1095 7.91723C11.1023 9.66939 9.74676 11.0975 8.03602 11.156C8.01557 11.1568 7.99509 11.1561 7.97472 11.154C7.94511 11.151 7.90086 11.1506 7.85959 11.1544C7.84059 11.1561 7.8215 11.1567 7.80242 11.156C6.09202 11.0975 4.73511 9.6693 4.73511 7.91527Z" fill="#243383"/>
<path fill-rule="evenodd" clip-rule="evenodd" d="M11.3529 12.6058C10.4198 11.9707 9.21227 11.668 8.02816 11.668C6.8439 11.668 5.63407 11.9708 4.69546 12.6049L4.69546 12.6049L4.69377 12.606C3.90978 13.1407 3.43875 13.8739 3.38086 14.6683H4.3067C4.36185 14.2395 4.63319 13.777 5.20534 13.3865C5.96157 12.876 6.98362 12.6065 8.02816 12.6065C9.07324 12.6065 10.0919 12.8762 10.8413 13.3862L10.842 13.3867C11.4161 13.7758 11.6872 14.2386 11.741 14.6683H12.6666C12.6102 13.8722 12.1388 13.1387 11.3529 12.6058Z" fill="#243383"/>
</g>
<defs>
<clipPath id="clip0_1542_90075">
<rect width="16" height="16" fill="white"/>
</clipPath>
</defs>
</svg>
