<?xml version="1.0" standalone="no"?>
<!DOCTYPE svg PUBLIC "-//W3C//DTD SVG 1.1//EN" "http://www.w3.org/Graphics/SVG/1.1/DTD/svg11.dtd" >
<svg xmlns="http://www.w3.org/2000/svg">
<metadata>Generated by IcoMoon</metadata>
<defs>
<font id="icomoon" horiz-adv-x="1024">
<font-face units-per-em="1024" ascent="960" descent="-64" />
<missing-glyph horiz-adv-x="1024" />
<glyph unicode="&#x20;" horiz-adv-x="512" d="" />
<glyph unicode="&#xe900;" glyph-name="pronouns" d="M512.396 960c185.494 0 335.867-150.373 335.867-335.867 0-15.052-0.99-29.873-2.909-44.401 104.088-56.99 174.686-167.6 174.686-294.699 0-185.494-150.373-335.867-335.867-335.867-63.756 0-123.362 17.764-174.14 48.613-50.764-30.837-110.389-48.613-174.166-48.613-185.494 0-335.867 150.373-335.867 335.867 0 128.892 72.603 240.826 179.144 297.136-1.73 13.706-2.615 27.732-2.615 41.964 0 185.494 150.373 335.867 335.867 335.867zM826.231 504.297l-1.201-3.156c-29.529-74.999-85.265-136.811-155.928-174.154 1.747-13.697 2.632-27.723 2.632-41.955 0-92.444-37.347-176.164-97.777-236.896 33.481-15.617 70.831-24.334 110.217-24.334 144.273 0 261.23 116.957 261.23 261.23 0 91.889-47.444 172.698-119.173 219.264zM197.629 506.705l-7.818-5.056c-69.488-46.945-115.174-126.445-115.174-216.616 0-144.273 116.957-261.23 261.23-261.23 39.386 0 76.736 8.716 110.226 24.325-60.439 60.741-97.787 144.461-97.787 236.905 0 15.052 0.99 29.873 2.909 44.401-70.247 38.449-125.255 101.359-153.587 177.271zM423.423 300.177l-0.261-4.377-0.218-10.768c0-77.368 33.634-146.88 87.077-194.713 53.463 47.876 87.076 117.369 87.076 194.713 0 4.686-0.123 9.342-0.367 13.967-26.967-7.029-55.218-10.734-84.334-10.734-30.802 0-60.636 4.146-88.973 11.911zM510.020 479.746l-3.339-3.041c-30.365-28.132-54.033-63.39-68.345-103.116 23.516-6.973 48.355-10.686 74.060-10.686 24.148 0 47.53 3.276 69.727 9.409-14.773 41.745-39.825 78.544-72.103 107.434zM684.174 546.263c-39.386 0-76.736-8.716-110.226-24.325 33.436-33.602 59.8-74.23 76.687-119.477 49.29 30.766 87.589 77.574 107.599 133.116-23.516 6.973-48.355 10.686-74.060 10.686zM335.867 546.263c-24.135 0-47.506-3.273-69.693-9.4 19.309-54.674 56.339-100.946 104.165-131.995 16.926 44.33 42.933 84.084 75.745 117.061-33.481 15.617-70.831 24.334-110.217 24.334zM512.396 885.363c-144.273 0-261.23-116.957-261.23-261.23 0-4.686 0.123-9.342 0.367-13.967 26.989 7.032 55.229 10.734 84.334 10.734 63.756 0 123.362-17.764 174.14-48.613 50.764 30.837 110.389 48.613 174.166 48.613 30.817 0 60.664-4.15 89.013-11.922l0.221 4.388 0.218 10.768c0 144.273-116.957 261.23-261.23 261.23z" />
<glyph unicode="&#xe901;" glyph-name="gender" d="M805.013 968.542c-17.289 0-31.287-14.013-31.287-31.287 0-17.286 14.012-31.287 31.287-31.287h117.705l-178.714-178.713c-38.775 23.189-84.083 36.485-132.425 36.485-60.109 0-115.328-20.659-159.283-55.174-43.958 34.514-99.177 55.174-159.285 55.174-142.689 0-258.845-116.162-258.845-258.844 0-132.113 99.548-241.429 227.555-256.934v-132.762h-93.862c-17.286 0-31.287-14.016-31.287-31.287 0-17.289 14.013-31.287 31.287-31.287h93.862v-93.862c0-17.289 14.013-31.287 31.287-31.287 17.286 0 31.287 14.012 31.287 31.287v93.862h93.862c17.285 0 31.288 14.012 31.288 31.287 0 17.284-14.016 31.287-31.288 31.287h-93.862v132.762c47.981 5.811 91.788 24.823 127.996 53.248 43.959-34.517 99.179-55.177 159.287-55.177 142.686 0 258.842 116.164 258.842 258.846 0 71.716-29.423 136.688-76.693 183.595l173.363 173.363-0.329-126.545h1.557c3.716-13.135 15.791-22.754 30.11-22.754 17.284 0 31.287 14.013 31.287 31.287v8.533h-0.333l0.341 176.353v8.533c0 17.276-14.012 31.287-31.287 31.287l-193.425 0.010zM551.851 504.9c0 60.047-20.553 115.282-55.006 159.233 31.927 23.038 71.014 36.76 113.468 37.031h1.276c108.668 0 196.267-87.6 196.267-196.268 0-108.659-87.599-196.267-196.267-196.267-42.94 0-82.487 13.769-114.743 37.039 34.453 43.947 55.006 99.183 55.006 159.232zM293.011 701.16h1.278c42.448-0.27 81.532-13.992 113.465-37.031-34.452-43.951-55.006-99.185-55.006-159.232 0-60.049 20.555-115.285 55.007-159.236-32.247-23.266-71.8-37.035-114.744-37.035-108.669 0-196.267 87.603-196.267 196.267 0 108.662 87.6 196.268 196.267 196.268zM415.331 504.905c0 43.026 13.679 82.755 36.975 115.026 23.296-32.278 36.971-72.009 36.971-115.026 0-43.025-13.675-82.752-36.971-115.025-23.296 32.277-36.975 72.004-36.975 115.025z" />
<glyph unicode="&#xe902;" glyph-name="email" d="M117.333 597.333c0 68.567 19.43 112.278 48.441 139.217 29.44 27.338 73.798 42.116 132.892 42.116h426.667c59.093 0 103.45-14.778 132.894-42.116 29.009-26.939 48.439-70.65 48.439-139.217v-298.667c0-68.565-19.43-112.277-48.439-139.217-29.444-27.337-73.801-42.116-132.894-42.116h-426.667c-59.095 0-103.452 14.78-132.892 42.116-29.012 26.94-48.441 70.652-48.441 139.217v298.667zM298.667 842.667c-68.905 0-131.215-17.222-176.441-59.217-45.655-42.394-68.892-105.35-68.892-186.116v-298.667c0-80.768 23.237-143.723 68.892-186.116 45.226-41.997 107.536-59.217 176.441-59.217h426.667c68.907 0 131.217 17.22 176.439 59.217 45.658 42.394 68.894 105.348 68.894 186.116v298.667c0 80.766-23.236 143.722-68.894 186.116-45.222 41.996-107.533 59.217-176.439 59.217h-426.667zM745.306 550.995c13.807 11.030 16.060 31.165 5.030 44.975s-31.164 16.062-44.971 5.033l-133.525-106.645c-32.269-25.681-87.804-25.685-120.085-0.021l-133.077 106.635c-13.792 11.051-33.931 8.829-44.982-4.963s-8.829-33.931 4.963-44.982l133.199-106.73c55.612-44.271 144.252-44.271 199.864 0l133.585 106.699z" />
<glyph unicode="&#xe903;" glyph-name="user-group" d="M114.333 764.578c0 79.352 64.262 144.213 144.213 144.213 79.865 0 144.213-64.349 144.213-144.213 0-78.121-61.49-141.393-138.711-144.191-1.767-0.064-3.535 0.009-5.289 0.219-1.754-0.209-3.523-0.283-5.289-0.219-77.263 2.799-138.58 66.058-139.136 143.947l-0.001 0.244zM182.6 764.7c0.353-40.711 31.63-73.331 70.985-75.969 3.425 0.294 6.925 0.294 10.35 0 39.43 2.641 70.558 35.307 70.558 75.847 0 42.162-33.785 75.947-75.947 75.947-42.035 0-75.881-34.059-75.947-75.825zM688.183 764.578c0 42.162 33.783 75.947 75.947 75.947 42.035 0 75.883-34.059 75.947-75.825-0.354-40.711-31.629-73.33-70.985-75.968-3.426 0.294-6.925 0.294-10.351 0-39.428 2.641-70.558 35.307-70.558 75.847zM764.13 908.791c-79.863 0-144.213-64.349-144.213-144.213 0-78.121 61.491-141.393 138.709-144.191 1.766-0.064 3.537 0.009 5.291 0.219 1.754-0.209 3.524-0.283 5.291-0.219 77.261 2.799 138.577 66.058 139.136 143.947v0 0.244c0 79.352-64.265 144.213-144.213 144.213zM911.066 548.967c-54.31 36.038-128.858 46.912-194.15 35.473-18.569-3.252-30.985-20.943-27.729-39.511 3.251-18.568 20.941-30.984 39.509-27.732 51.597 9.041 107.601-0.559 144.593-25.092 22.938-15.305 29.892-32.094 29.892-44.54 0-12.45-6.959-29.248-29.922-44.557l-0.060-0.043c-36.535-24.469-91.699-34.108-143.462-25.417-18.59 3.119-36.19-9.421-39.313-28.011-3.123-18.594 9.421-36.194 28.011-39.313 65.122-10.935 138.778-0.102 192.691 35.981 37.197 24.798 60.322 60.902 60.322 101.359s-23.125 76.565-60.322 101.361l-0.060 0.041zM294.083 517.197c-51.598 9.041-107.598-0.559-144.593-25.092-22.939-15.305-29.89-32.094-29.89-44.54 0-12.45 6.958-29.248 29.92-44.557l0.062-0.043c36.533-24.469 91.698-34.108 143.46-25.417 18.591 3.119 36.192-9.421 39.313-28.011 3.121-18.594-9.42-36.194-28.011-39.313-65.133-10.935-138.805-0.098-192.723 36.002-37.179 24.798-60.289 60.894-60.289 101.338 0 40.457 23.122 76.565 60.32 101.361l0.061 0.041c54.312 36.038 128.855 46.912 194.149 35.473 18.569-3.252 30.984-20.943 27.731-39.511s-20.943-30.984-39.511-27.732zM508.13 521.818c-42.163 0-75.947-33.788-75.947-75.947 0-40.542 31.13-73.207 70.558-75.849 3.477 0.299 7.031 0.294 10.505-0.013 39.006 2.317 70.477 35.029 70.831 75.981-0.064 41.766-33.911 75.827-75.947 75.827zM363.917 445.871c0 79.863 64.35 144.212 144.213 144.212 79.949 0 144.213-64.861 144.213-144.212v-0.243c-0.555-77.67-61.709-141.705-139.383-143.957-1.685-0.047-3.371 0.026-5.043 0.226-1.754-0.209-3.524-0.282-5.291-0.218-77.219 2.799-138.709 66.069-138.709 144.192zM655.091 229.786c-40.747 27.162-92.757 39.65-142.933 39.65-50.185 0-102.259-12.493-143.173-39.595l-0.082-0.055c-37.197-24.798-60.32-60.907-60.32-101.363 0-40.448 23.117-76.553 60.306-101.35 40.913-27.349 92.905-39.983 143.107-39.983 50.206 0 102.204 12.634 143.117 39.987 37.184 24.798 60.297 60.898 60.297 101.346 0 40.457-23.121 76.565-60.318 101.363zM376.85 128.422c0 12.446 6.95 29.231 29.879 44.535 27.348 18.103 65.501 28.211 105.428 28.211 39.957 0 77.969-10.121 105.067-28.186 22.963-15.309 29.918-32.107 29.918-44.561 0-12.45-6.955-29.248-29.918-44.557l-0.043-0.030c-27.349-18.287-65.37-28.48-105.186-28.48-39.812 0-77.833 10.193-105.184 28.48l-0.041 0.030c-22.963 15.309-29.92 32.107-29.92 44.557z" />
<glyph unicode="&#xe904;" glyph-name="star-fill" d="M317.6 656.447l134.71 267.121c11.45 22.363 34.459 36.432 59.583 36.432s48.132-14.069 59.586-36.432l134.912-267.291 256.758-25.44c25.8-2.144 47.995-19.1 56.847-43.428 8.858-24.328 2.749-51.583-15.642-69.806l-212.823-210.936 78.945-286.771c6.733-25.364-2.038-52.321-22.405-68.869-20.372-16.548-48.553-19.61-71.828-7.905l-264.349 130.898-263.793-130.642c-23.448-11.791-51.631-8.73-72.002 7.818s-29.14 43.505-22.329 69.151l78.864 286.484-212.992 210.942c-18.388 18.224-24.495 45.479-15.642 69.807s31.049 41.284 56.343 43.381l257.255 25.486z" />
<glyph unicode="&#xe905;" glyph-name="user-account" d="M87.349 204.933c13.256-59.648 33.164-97.126 58.811-122.772s63.127-45.558 122.775-58.813c60.423-13.425 139.216-19.082 243.066-19.082s182.641 5.658 243.067 19.082c59.648 13.256 97.126 33.167 122.772 58.813s45.558 63.124 58.813 122.772c13.425 60.426 19.082 139.218 19.082 243.067s-5.658 182.643-19.082 243.065c-13.256 59.648-33.167 97.128-58.813 122.775s-63.124 45.555-122.772 58.811c-60.426 13.428-139.218 19.082-243.067 19.082s-182.643-5.654-243.066-19.082c-59.647-13.256-97.127-33.164-122.775-58.811s-45.555-63.127-58.811-122.775c-13.428-60.423-19.082-139.215-19.082-243.065s5.654-182.641 19.082-243.067zM512-64c-421.632 0-512 90.368-512 512s90.368 512 512 512c421.632 0 512-90.368 512-512s-90.368-512-512-512zM512 514.565c-50.898 0-92.16 41.262-92.16 92.16s41.262 92.16 92.16 92.16c50.898 0 92.16-41.262 92.16-92.16s-41.262-92.16-92.16-92.16zM512 453.125c84.833 0 153.6 68.769 153.6 153.6s-68.767 153.6-153.6 153.6c-84.831 0-153.6-68.769-153.6-153.6s68.769-153.6 153.6-153.6zM680.96 268.8c0 15.483-9.416 37.018-40.125 57.492-30.28 20.183-75.648 34.668-128.835 34.668-53.185 0-98.556-14.484-128.837-34.668-30.71-20.475-40.123-42.010-40.123-57.492s9.414-37.018 40.123-57.492c30.28-20.183 75.652-34.668 128.837-34.668 53.187 0 98.555 14.484 128.835 34.668 30.71 20.475 40.125 42.010 40.125 57.492zM742.4 268.8c0-84.833-103.153-153.6-230.4-153.6s-230.4 68.767-230.4 153.6 103.154 153.6 230.4 153.6c127.247 0 230.4-68.767 230.4-153.6z" />
<glyph unicode="&#xe906;" glyph-name="filter" d="M230.417 838.396c-28.246 0-53.333-23.042-53.333-57.6v-98.133c0-6.688 2.522-18.062 8.4-31.177 5.755-12.838 13.349-24.25 20.627-31.529l0.573-0.588 162.133-170.665c0.625-0.657 1.221-1.344 1.788-2.052 10.822-13.525 20.832-31.309 28.19-49.707 7.289-18.223 12.955-39.484 12.955-59.883v-226.133c0-41.25 47.51-67.179 83.256-45.427l59.439 38.212c0.277 0.179 0.559 0.35 0.841 0.521 3.883 2.33 9.971 8.593 15.275 18.79 5.201 10.001 7.59 19.87 7.59 26.304v183.467c0 21.99 5.393 45.431 14.272 66.364 8.759 20.642 21.926 41.229 39.522 56.030l182.332 161.129c7.232 7.446 15.603 19.727 22.208 34.252 6.831 15.028 10.466 29.596 10.466 40.625v93.867c0 29.26-24.073 53.333-53.333 53.333h-563.2zM113.083 780.796c0 67.842 51.713 121.6 117.333 121.6h563.2c64.606 0 117.333-52.727 117.333-117.333v-93.867c0-23.105-7.036-46.937-16.205-67.108-9.207-20.258-21.875-39.692-35.836-53.652-0.465-0.465-0.943-0.916-1.438-1.351l-183.467-162.134c-0.23-0.205-0.465-0.405-0.704-0.606-7.812-6.507-15.846-17.771-21.961-32.179-6.054-14.268-9.19-29.222-9.19-41.37v-183.467c0-19.166-6.144-39.164-14.81-55.829-8.486-16.316-21.436-33.357-38.647-43.853l-59.908-38.502c-75.157-46.255-181.035 4.595-181.035 99.785v226.133c0 9.468-2.867 22.34-8.378 36.117-5.22 13.047-11.925 24.7-17.975 32.516l-160.852 169.318c-13.915 14.015-25.41 32.331-33.462 50.292-7.988 17.819-14 38.445-14 57.356v98.133z" />
<glyph unicode="&#xe907;" glyph-name="badge" d="M205.3 594.282c0 164.108 133.035 297.143 297.143 297.143 164.109 0 297.142-133.035 297.142-297.143 0-164.11-133.033-297.143-297.142-297.143s-297.143 133.033-297.143 297.143zM502.443 955.425c-199.454 0-361.143-161.689-361.143-361.143 0-82.378 27.581-158.314 74.013-219.078l-172.315-215.895c-6.533-8.161-11.135-17.695-13.461-27.889-2.329-10.204-2.316-20.803 0.037-31.002s6.987-19.732 13.553-27.884c6.565-8.156 14.892-14.715 24.355-19.19l0.869-0.394 242.901-106.086c8.984-3.896 18.673-5.908 28.467-5.908s19.483 2.012 28.466 5.908c0.68 0.297 1.35 0.614 2.007 0.957 8.736 4.536 16.406 10.88 22.497 18.611 6.092 7.736 10.468 16.676 12.835 26.23l57.695 242.58c12.883-1.393 25.97-2.104 39.223-2.104 19.945 0 39.514 1.618 58.581 4.726l58.87-245.274c2.452-9.81 7.045-18.949 13.45-26.772 6.4-7.823 14.454-14.136 23.578-18.483l0.589-0.276c8.965-4.050 18.693-6.144 28.534-6.144 9.779 0 19.441 2.068 28.36 6.067l241.751 106.23c9.692 4.46 18.212 11.121 24.878 19.456 6.538 8.166 11.116 17.72 13.389 27.93 2.499 10.22 2.56 20.89 0.174 31.145-2.376 10.22-7.112 19.738-13.829 27.786l-180.777 230.021c40.11 58.184 63.596 128.716 63.596 204.732 0 199.454-161.69 361.143-361.142 361.143zM758.129 339.236l172.652-219.679c0.266-0.338 0.538-0.671 0.819-0.993 0.323-0.379 0.548-0.829 0.66-1.316s0.108-0.988-0.015-1.469c-0.102-0.41-0.2-0.819-0.287-1.229-0.148-0.696-0.456-1.347-0.901-1.905-0.415-0.517-0.937-0.937-1.526-1.234l-241.3-106.025c-0.691-0.312-1.434-0.471-2.186-0.471-0.64 0-1.275 0.113-1.874 0.343-0.497 0.276-0.937 0.645-1.295 1.085-0.41 0.502-0.707 1.085-0.876 1.705l-58.972 245.714c51.374 18.191 97.403 47.677 135.101 85.473zM93.004 119.368l166.076 208.082c39.933-36.444 88.076-64.041 141.329-79.693l-57.030-239.785c-0.185-0.701-0.513-1.357-0.962-1.93-0.251-0.317-0.536-0.604-0.85-0.855-0.603-0.154-1.224-0.23-1.849-0.23-1.019 0-2.049 0.215-2.985 0.62l-242.132 105.748c-0.628 0.338-1.182 0.794-1.63 1.352-0.502 0.625-0.857 1.352-1.037 2.135-0.18 0.778-0.181 1.587-0.003 2.371 0.178 0.778 0.531 1.51 1.032 2.135l0.039 0.051zM388.2 594.289c0 63.118 51.168 114.286 114.286 114.286 63.121 0 114.285-51.168 114.285-114.286s-51.164-114.286-114.285-114.286c-63.118 0-114.286 51.167-114.286 114.286zM502.486 772.575c-98.464 0-178.286-79.821-178.286-178.286s79.821-178.284 178.286-178.284c98.464 0 178.285 79.82 178.285 178.284s-79.821 178.286-178.285 178.286z" />
<glyph unicode="&#xe908;" glyph-name="call" d="M105.626 894.254c31.832 27.117 79.277 58.826 129.376 57.158l1.256-0.042 1.249-0.134c27.359-2.936 52.625-16.628 74.708-37.954l0.115-0.111c15.379-14.992 42.994-47.226 67.159-78.713 12.212-15.914 24.068-32.315 33.401-46.907 4.659-7.284 8.943-14.511 12.383-21.265 3.155-6.194 6.656-13.999 8.338-22.042 9.399-43.628-10.268-78.007-22.189-98.845-0.409-0.714-0.808-1.413-1.197-2.095 0 0 0 0 0 0l-0.953-1.674c-3.331-5.754-7.622-12.239-11.505-18.108l-0.362-0.548c-7.987-12.073-15.37-23.358-20.167-33.617-2.344-5.014-3.437-8.495-3.83-10.599 16.657-40.194 40.286-79.942 68.958-116.99 33.516-39.976 85.297-89.814 112.151-108.732 27.571-19.42 56.141-35.635 85.263-47.98 0.159 0.026 0.333 0.051 0.532 0.092 2.432 0.451 6.216 1.654 11.479 4.086 10.737 4.961 22.426 12.534 34.58 20.485l0.486 0.317c5.468 3.584 11.423 7.48 16.686 10.547l0.481 0.276 1.464 0.819c0.65 0.364 1.316 0.737 1.997 1.121 21.176 11.93 55.613 31.329 99.789 22.026 7.885-1.644 15.601-5.038 21.77-8.115 6.707-3.343 13.911-7.511 21.197-12.052 14.602-9.103 31.058-20.664 47.063-32.599 31.534-23.521 64.036-50.555 79.299-65.951 21.402-21.279 36.388-46.863 38.661-76.196l0.046-0.604 0.026-0.609c2.043-49.060-28.759-95.124-55.547-126.275-27.054-31.452-57.846-56.571-73.226-66.227-61.517-44.124-139.254-39.439-221.235-2.509-87.706 35.692-189.454 108.8-285.446 194.796-34.288 30.72-100.302 95.447-120.704 118.83-96.857 104.975-180.555 219.784-220.898 315.389-19.407 41.321-29.781 81.443-29.781 118.972 0 37.299 10.547 71.501 31.396 101.009 4.665 7.603 13.118 18.39 22.966 29.524 11.185 12.645 25.859 27.644 42.764 42.045zM99.242 788.731c-0.725-1.041-1.056-1.576-1.117-1.676-0.012-0.020-0.008-0.015 0 0l-0.89-1.554-1.041-1.447c-12.712-17.664-19.427-38.224-19.427-62.378 0-25.215 7.076-55.559 23.567-90.508l0.314-0.665 0.285-0.677c35.822-85.243 113.772-193.689 208.749-296.575l0.357-0.389 0.345-0.399c17.249-19.881 81.437-83.016 115.050-113.132 94.036-84.239 189.114-151.409 266.16-182.63l0.63-0.256 0.62-0.276c71.444-32.317 120.842-28.631 154.614-4.009l1.193 0.876 1.265 0.763c7.567 4.572 34.033 25.139 58.122 53.146 24.914 28.964 39.675 57.19 39.112 78.275-0.809 8.325-5.391 19.297-18.744 32.548l-0.22 0.22c-11.612 11.735-40.98 36.444-71.695 59.351-15.155 11.305-29.952 21.658-42.353 29.384-6.211 3.871-11.443 6.845-15.565 8.904-3.784 1.889-5.437 2.391-5.432 2.412 0 0 0.026 0 0.072-0.010-17.393 3.661-31.16-2.877-54.298-15.872l-1.219-0.686c-3.523-2.063-7.962-4.956-13.942-8.873l-0.819-0.532c-11.213-7.342-26.778-17.531-42.501-24.796-14.177-6.559-38.543-15.713-62.566-7.004l-0.727 0.266-0.717 0.297c-35.277 14.633-69.176 33.828-101.217 56.402-33.526 23.613-89.918 78.551-125.608 121.226l-0.403 0.481-0.386 0.497c-32.843 42.342-60.366 88.605-79.779 136.387l-0.183 0.452-0.17 0.457c-8.889 23.809 0.315 47.845 6.721 61.545 7.134 15.259 17.182 30.442 24.508 41.516l0.563 0.85c4.324 6.538 7.479 11.33 9.666 15.099l0.782 1.372c13.204 23.166 19.494 36.467 15.944 52.824l-0.028 0.13c0.005-0.027 0.002 0.001 0 0-0.023-0.007-0.518 1.563-2.391 5.239-2.082 4.088-5.108 9.284-9.063 15.467-7.894 12.343-18.479 27.052-30.048 42.128-23.362 30.442-48.632 59.657-60.596 71.335-13.358 12.883-24.708 17.747-33.305 18.977-22.437 0.115-51.984-15.747-81.534-40.92-14.072-11.987-26.473-24.65-35.899-35.307-4.7-5.315-8.545-9.999-11.399-13.705-1.426-1.852-2.541-3.376-3.355-4.545z" />
<glyph unicode="&#xe909;" glyph-name="dashboard" d="M109.676 889.284c-21.544 0-39.009-17.465-39.009-39.010v-219.428c0-21.544 17.465-39.010 39.009-39.010h219.429c21.544 0 39.009 17.465 39.009 39.010v219.428c0 21.544-17.465 39.010-39.009 39.010h-219.429zM2.4 850.274c0 59.247 48.029 107.276 107.276 107.276h219.429c59.247 0 107.276-48.029 107.276-107.276v-219.428c0-59.247-48.030-107.276-107.276-107.276h-219.429c-59.247 0-107.276 48.029-107.276 107.276v219.428zM694.774 889.284c-21.54 0-39.009-17.465-39.009-39.010v-219.428c0-21.544 17.469-39.010 39.009-39.010h219.433c21.54 0 39.009 17.465 39.009 39.010v219.428c0 21.544-17.469 39.010-39.009 39.010h-219.433zM587.5 850.274c0 59.247 48.031 107.276 107.274 107.276h219.433c59.244 0 107.274-48.029 107.274-107.276v-219.428c0-59.247-48.031-107.276-107.274-107.276h-219.433c-59.244 0-107.274 48.029-107.274 107.276v219.428zM109.676 304.133c-21.544 0-39.009-17.464-39.009-39.009v-219.428c0-21.545 17.465-39.009 39.009-39.009h219.429c21.544 0 39.009 17.464 39.009 39.009v219.428c0 21.545-17.465 39.009-39.009 39.009h-219.429zM2.4 265.124c0 59.249 48.029 107.274 107.276 107.274h219.429c59.247 0 107.276-48.026 107.276-107.274v-219.428c0-59.249-48.030-107.279-107.276-107.279h-219.429c-59.247 0-107.276 48.031-107.276 107.279v219.428zM694.774 304.133c-21.54 0-39.009-17.464-39.009-39.009v-219.428c0-21.545 17.469-39.009 39.009-39.009h219.433c21.54 0 39.009 17.464 39.009 39.009v219.428c0 21.545-17.469 39.009-39.009 39.009h-219.433zM587.5 265.124c0 59.249 48.031 107.274 107.274 107.274h219.433c59.244 0 107.274-48.026 107.274-107.274v-219.428c0-59.249-48.031-107.279-107.274-107.279h-219.433c-59.244 0-107.274 48.031-107.274 107.279v219.428z" />
<glyph unicode="&#xe90a;" glyph-name="link" d="M316.807 509.314c13.267-13.392 13.166-35.004-0.227-48.271l-234.774-232.578c-3.657-3.63-6.559-7.941-8.539-12.698-1.98-4.751-3-9.851-3-15.002s1.019-10.25 3-15.002c1.98-4.751 4.882-9.068 8.539-12.692l0.099-0.102 155.162-155.162c3.626-3.656 7.941-6.559 12.694-8.54 4.754-1.976 9.853-3 15.003-3s10.248 1.024 15.002 3c4.75 1.981 9.061 4.879 12.686 8.535 0.003 0-0.003-0.005 0 0l232.589 234.783c13.266 13.389 34.877 13.491 48.271 0.225s13.491-34.883 0.225-48.271l-232.594-234.788c-9.973-10.056-21.852-18.053-34.924-23.496-13.073-5.448-27.095-8.253-41.256-8.253s-28.184 2.806-41.256 8.253c-13.049 5.432-24.894 13.394-34.856 23.424-0.018 0.020-0.036 0.036-0.054 0.056l-154.865 154.865c-0.018 0.015-0.036 0.036-0.054 0.051-10.029 9.964-17.991 21.811-23.428 34.857-5.446 13.076-8.25 27.095-8.25 41.257s2.804 28.186 8.25 41.257c5.446 13.071 13.427 24.934 23.482 34.908l234.803 232.61c13.392 13.267 35.004 13.166 48.271-0.227zM717.901 949.725c13.076 5.446 27.095 8.25 41.257 8.25s28.186-2.804 41.257-8.25c13.071-5.446 24.94-13.427 34.908-23.482l0.077-0.073 152.745-154.94c9.984-9.942 17.915-21.754 23.332-34.761 5.448-13.073 8.253-27.095 8.253-41.256s-2.806-28.184-8.253-41.256c-5.437-13.049-13.399-24.894-23.424-34.856-0.020-0.018-0.041-0.036-0.056-0.054l-232.494-232.496c-13.332-13.327-34.944-13.327-48.271 0-13.332 13.332-13.332 34.944 0 48.271l232.694 232.694c3.656 3.626 6.559 7.941 8.535 12.695 1.981 4.753 3 9.852 3 15.002s-1.019 10.248-3 15.002c-1.976 4.753-4.879 9.068-8.535 12.695l-0.276 0.27-152.791 154.991c-0.010 0.011-0.020 0.022-0.036 0.033-3.62 3.641-7.921 6.532-12.662 8.506-4.751 1.98-9.851 3-15.002 3s-10.245-1.020-15.002-3c-4.751-1.98-9.068-4.882-12.692-8.539l-232.582-234.775c-13.267-13.392-34.878-13.494-48.271-0.226s-13.494 34.879-0.227 48.271l232.593 234.789c9.974 10.055 21.852 18.050 34.924 23.496zM682.44 618.403c13.332-13.33 13.332-34.942 0-48.272l-292.571-292.571c-13.33-13.332-34.942-13.332-48.272 0-13.329 13.327-13.329 34.939 0 48.271l292.571 292.571c13.332 13.329 34.944 13.329 48.271 0z" />
<glyph unicode="&#xe90b;" glyph-name="manage" d="M87.349 204.933c13.256-59.648 33.164-97.126 58.811-122.772s63.127-45.558 122.775-58.813c60.423-13.425 139.216-19.082 243.066-19.082s182.641 5.658 243.067 19.082c59.648 13.256 97.126 33.167 122.772 58.813s45.558 63.124 58.813 122.772c13.425 60.426 19.082 139.218 19.082 243.067s-5.658 182.643-19.082 243.065c-13.256 59.648-33.167 97.128-58.813 122.775s-63.124 45.555-122.772 58.811c-60.426 13.428-139.218 19.082-243.067 19.082s-182.643-5.654-243.066-19.082c-59.647-13.256-97.127-33.164-122.775-58.811s-45.555-63.127-58.811-122.775c-13.428-60.423-19.082-139.215-19.082-243.065s5.654-182.641 19.082-243.067zM512-64c-421.632 0-512 90.368-512 512s90.368 512 512 512c421.632 0 512-90.368 512-512s-90.368-512-512-512zM682.634 558.942c32.988 0 59.73 26.743 59.73 59.734s-26.742 59.733-59.73 59.733c-32.993 0-59.735-26.743-59.735-59.733s26.742-59.734 59.735-59.734zM648.796 495.195c-54.272 14.838-94.162 64.5-94.162 123.48 0 70.692 57.308 128 128 128s128-57.308 128-128c0-58.98-39.89-108.642-94.162-123.48 0.195-1.479 0.292-2.988 0.292-4.52v-298.665c0-18.852-15.278-34.135-34.13-34.135s-34.135 15.283-34.135 34.135v298.665c0 1.532 0.102 3.041 0.297 4.52zM375.433 704.008v-298.668c0-1.531-0.101-3.041-0.296-4.521 54.273-14.838 94.163-64.497 94.163-123.479 0-70.692-57.308-128-128-128s-128 57.308-128 128c0 58.982 39.89 108.641 94.163 123.479-0.196 1.48-0.296 2.99-0.296 4.521v298.668c0 18.851 15.282 34.134 34.134 34.134s34.133-15.282 34.133-34.134zM281.567 277.34c0-32.988 26.743-59.73 59.734-59.73s59.733 26.742 59.733 59.73c0 32.993-26.743 59.735-59.733 59.735s-59.734-26.742-59.734-59.735z" />
<glyph unicode="&#xe90c;" glyph-name="message" d="M309.3 234.65c0 17.674 14.327 32 32 32h341.334c17.674 0 32-14.326 32-32s-14.326-32-32-32h-341.334c-17.673 0-32 14.326-32 32zM995.077 713.78c-3.476 10.872-7.316 21.201-11.546 31.011-4.716 10.937-9.912 21.23-15.631 30.911-65.556 110.971-199.46 141.615-455.9 141.615-256.847 0-390.764-30.74-456.209-142.139-5.274-8.977-10.103-18.478-14.516-28.528-4.698-10.7-8.925-22.024-12.714-34.001-20.989-66.347-28.562-152.783-28.562-264.664 0-386.499 90.368-469.335 512-469.335s512 82.836 512 469.335c0 112.518-7.66 199.301-28.923 265.795zM102.626 726.95c21.765 45.931 54.983 75.256 112.811 95.008 64.869 22.158 158.613 31.358 296.563 31.358 104.079 0 183.69-5.184 245.1-17.694 60.969-12.421 99.569-31.202 125.768-55.215 14.909-13.67 27.581-30.684 38.077-52.519-1.746-1.829-3.548-3.707-5.407-5.631-26.455-27.382-63.872-63.821-107.807-100.179-44.022-36.434-93.962-72.264-145.444-98.88-51.722-26.741-103.025-43.152-150.33-43.215-47.404-0.063-98.835 16.278-150.701 42.992-51.625 26.59-101.717 62.436-145.884 98.907-44.074 36.394-81.621 72.887-108.167 100.315-1.565 1.617-3.091 3.203-4.578 4.753zM80.37 658.267c25.544-25.421 57.701-55.554 94.252-85.735 46.3-38.233 100.282-77.071 157.329-106.454 56.805-29.256 118.641-50.176 180.090-50.094 61.322 0.082 122.998 21.074 179.64 50.362 56.888 29.411 110.705 68.23 156.856 106.426 36.864 30.51 69.243 60.956 94.843 86.526 11.182-51.626 16.62-119.854 16.62-211.315 0-194.98-24.704-284.365-77.133-332.426-26.199-24.013-64.799-42.793-125.768-55.214-61.409-12.508-141.020-17.695-245.1-17.695s-183.691 5.187-245.1 17.695c-60.97 12.421-99.57 31.201-125.766 55.214-52.429 48.061-77.134 137.446-77.134 332.426 0 89.812 5.118 157.974 16.37 210.282z" />
<glyph unicode="&#xe90d;" glyph-name="more" d="M605.091 866.909c0-51.413-41.678-93.091-93.091-93.091s-93.091 41.678-93.091 93.091c0 51.413 41.678 93.091 93.091 93.091s93.091-41.678 93.091-93.091zM605.091 448c0-51.413-41.678-93.091-93.091-93.091s-93.091 41.678-93.091 93.091c0 51.413 41.678 93.091 93.091 93.091s93.091-41.678 93.091-93.091zM605.091 29.091c0-51.413-41.678-93.091-93.091-93.091s-93.091 41.678-93.091 93.091c0 51.413 41.678 93.091 93.091 93.091s93.091-41.678 93.091-93.091z" />
<glyph unicode="&#xe90e;" glyph-name="notification-header" d="M372.125 43.004c13.151 14.797 35.803 16.128 50.597 2.977 25.234-22.429 66.205-35.745 110.588-35.745 44.387 0 85.358 13.316 110.592 35.745 14.793 13.151 37.445 11.82 50.597-2.977 13.151-14.793 11.816-37.445-2.977-50.597-41.966-37.303-101.797-53.851-158.212-53.851-56.411 0-116.242 16.549-158.208 53.851-14.795 13.151-16.128 35.803-2.977 50.597zM578.099 912.867c0.037 0.773 0.059 1.551 0.059 2.333 0 24.742-20.059 44.8-44.8 44.8-24.744 0-44.8-20.058-44.8-44.8 0-0.783 0.018-1.562 0.059-2.335-149.974-21.616-291.094-190.282-268.857-378.465 11.517-57.585-24.746-88.093-62.49-119.848-35.666-30.007-72.655-61.125-71.901-117.255 0-78.665 44.789-121.296 110.569-142.438 0 0 120.471-46.058 337.424-46.058 216.956 0 337.426 46.058 337.426 46.058 65.777 21.142 110.581 65.942 110.57 142.438-0.007 56.613-36.974 87.746-72.441 117.614-37.577 31.645-73.476 61.872-61.952 119.49 4.001 33.832 2.717 67.036-2.948 98.866-23.223-19.608-53.182-31.486-85.91-31.664 1.989-17.655 2.128-35.696 0.194-53.883-8.883-49.642 1.763-92.968 24.357-128.907 19.606-31.188 47.163-54.418 64.048-68.652l1.28-1.075c42.427-35.792 43.769-41.355 43.772-51.8 0.004-19.536-5.226-29.038-9.966-34.75-5.712-6.879-16.973-15.481-38.422-22.374l-2.311-0.742-2.074-0.794c-0.395-0.139-1.243-0.443-2.545-0.881-2.597-0.881-6.992-2.315-13.144-4.122-12.295-3.617-31.598-8.733-57.534-13.952-51.858-10.434-130.289-21.27-232.4-21.27s-180.54 10.836-232.399 21.27c-25.936 5.219-45.237 10.335-57.535 13.952-6.149 1.807-10.545 3.24-13.144 4.122-1.299 0.439-2.149 0.742-2.542 0.881l-0.14 0.051-1.936 0.742-2.312 0.742c-22.458 7.219-33.441 15.638-38.743 21.954-4.146 4.937-9.643 14.073-9.643 35.182v0.603l-0.008 0.603c-0.12 8.916 0.103 13.872 43.159 50.15l1.294 1.090c16.97 14.292 44.604 37.563 64.306 68.714 22.697 35.884 33.632 79.342 24.707 129.258-7.721 72.494 17.566 142.62 61.418 195.469 45.345 54.645 103.047 82.416 150.93 82.416h25.179c28.496 0 60.471-9.836 91.249-29.319 14.073 27.999 37.647 50.401 66.491 62.976-38.521 28.344-81.679 47.281-125.594 53.609zM488.616 912.867c-0.040 0.773-0.059 1.551-0.059 2.333 0 24.742 20.056 44.8 44.8 44.8 24.741 0 44.8-20.058 44.8-44.8 0-0.783-0.022-1.562-0.062-2.335 149.976-21.616 291.098-190.282 268.859-378.465-11.516-57.585 24.748-88.093 62.49-119.848 35.668-30.007 72.656-61.125 71.903-117.255 0-78.665-44.789-121.296-110.57-142.438 0 0-120.47-46.058-337.426-46.058-216.953 0-337.424 46.058-337.424 46.058-65.778 21.142-110.578 65.942-110.569 142.438 0.007 56.613 36.973 87.746 72.441 117.614 37.578 31.645 73.473 61.872 61.95 119.49-3.998 33.832-2.715 67.036 2.949 98.866 23.221-19.608 53.181-31.486 85.911-31.664-1.991-17.655-2.132-35.696-0.195-53.883 8.883-49.642-1.764-92.968-24.357-128.907-19.605-31.188-47.165-54.418-64.049-68.652l-1.279-1.075c-42.428-35.792-43.772-41.355-43.773-51.8-0.003-19.536 5.226-29.038 9.966-34.75 5.709-6.879 16.973-15.481 38.419-22.374l2.311-0.742 2.076-0.794c0.394-0.139 1.243-0.443 2.542-0.881 2.598-0.881 6.995-2.315 13.144-4.122 12.298-3.617 31.598-8.733 57.535-13.952 51.859-10.434 130.288-21.27 232.399-21.27s180.542 10.836 232.4 21.27c25.936 5.219 45.239 10.335 57.534 13.952 6.151 1.807 10.547 3.24 13.144 4.122 1.302 0.439 2.15 0.742 2.545 0.881l0.139 0.051 1.935 0.742 2.311 0.742c22.459 7.219 33.445 15.638 38.744 21.954 4.147 4.937 9.644 14.073 9.644 35.182v0.603l0.007 0.603c0.121 8.916-0.102 13.872-43.158 50.15l-1.295 1.090c-16.969 14.288-44.603 37.563-64.307 68.714-22.696 35.884-33.631 79.342-24.704 129.258 7.72 72.494-17.569 142.62-61.422 195.469-45.341 54.645-103.044 82.416-150.927 82.416h-25.179c-28.496 0-60.471-9.836-91.249-29.319-14.076 27.999-37.647 50.401-66.49 62.976 38.52 28.344 81.678 47.281 125.593 53.609z" />
<glyph unicode="&#xe90f;" glyph-name="star" d="M317.6 656.447l134.71 267.121c11.45 22.363 34.459 36.432 59.583 36.432s48.132-14.069 59.586-36.432l134.912-267.291 256.758-25.44c25.8-2.144 47.995-19.1 56.847-43.428 8.858-24.328 2.749-51.583-15.642-69.806l-212.823-210.936 78.945-286.771c6.733-25.364-2.038-52.321-22.405-68.869-20.372-16.548-48.553-19.61-71.828-7.905l-264.349 130.898-263.793-130.642c-23.448-11.791-51.631-8.73-72.002 7.818s-29.14 43.505-22.329 69.151l78.864 286.484-212.992 210.942c-18.388 18.224-24.495 45.479-15.642 69.807s31.049 41.284 56.343 43.381l257.255 25.486zM514.432 894.567l-0.573 0.688c-0.532 0.475-1.229 0.75-1.965 0.75-1.105 0-2.117-0.618-2.531-1.427l-142.539-282.646c-4.931-9.777-14.519-16.354-25.416-17.434l-275.258-27.265c-0.912-0.076-1.697-0.676-2.011-1.536s-0.097-1.825 0.545-2.461l226.288-224.112c8.217-8.136 11.403-20.076 8.334-31.227l-83.758-304.251c-0.272-1.024 0.082-2.109 0.903-2.775 0.821-0.671 1.957-0.794 3.076-0.23l278.166 137.759c8.948 4.434 19.453 4.434 28.398 0l278.728-138.015c0.947-0.476 2.084-0.353 2.903 0.312s1.172 1.756 0.978 2.499l-83.835 304.532c-3.067 11.146 0.118 23.081 8.325 31.217l226.12 224.113c0.65 0.645 0.865 1.609 0.553 2.469s-1.101 1.46-2.514 1.582l-274.755 27.219c-10.895 1.079-20.48 7.651-25.411 17.423l-142.751 282.817z" />
<glyph unicode="&#xe910;" glyph-name="user-2" d="M87.612 71.869c6.375-11.95 16.758-22.794 41.093-32.937 26.768-11.151 68.202-20.393 132.904-26.383 63.988-5.924 145.72-8.284 250.391-8.284 104.673 0 186.404 2.36 250.388 8.284 64.701 5.99 106.138 15.232 132.905 26.383 24.335 10.143 34.719 20.987 41.093 32.937 7.757 14.536 13.143 37.642 13.143 77.466 0 39.818-5.386 62.925-13.143 77.46-6.374 11.955-16.758 22.799-41.093 32.937-26.767 11.151-68.204 20.393-132.905 26.383-63.985 5.929-145.715 8.284-250.388 8.284-104.671 0-186.403-2.355-250.391-8.284-64.701-5.99-106.136-15.232-132.904-26.383-24.335-10.138-34.718-20.982-41.093-32.937-7.753-14.536-13.139-37.642-13.139-77.46 0-39.823 5.386-62.93 13.139-77.466zM512-64c-421.632 0-512 37.652-512 213.335 0 175.677 90.368 213.33 512 213.33s512-37.652 512-213.33c0-175.683-90.368-213.335-512-213.335zM512.026 516.266c113.111 0 204.8 84.051 204.8 187.734s-91.689 187.734-204.8 187.734c-113.106 0-204.798-84.051-204.798-187.734s91.692-187.734 204.798-187.734zM512.026 448c-154.236 0-279.271 114.615-279.271 256s125.034 256 279.271 256c154.24 0 279.276-114.615 279.276-256s-125.036-256-279.276-256z" />
<glyph unicode="&#xe911;" glyph-name="alert" d="M512 832c-212.077 0-384-171.923-384-384 0-212.079 171.923-384 384-384 212.079 0 384 171.921 384 384 0 212.077-171.921 384-384 384zM42.667 448c0 259.206 210.128 469.333 469.333 469.333 259.204 0 469.333-210.128 469.333-469.333 0-259.204-210.129-469.333-469.333-469.333-259.206 0-469.333 210.129-469.333 469.333zM512 661.333c23.565 0 42.667-19.103 42.667-42.667v-170.667c0-23.565-19.102-42.667-42.667-42.667s-42.667 19.102-42.667 42.667v170.667c0 23.564 19.102 42.667 42.667 42.667zM512 320c-23.565 0-42.667-19.102-42.667-42.667s19.102-42.667 42.667-42.667h0.427c23.565 0 42.667 19.102 42.667 42.667s-19.102 42.667-42.667 42.667h-0.427z" />
<glyph unicode="&#xe912;" glyph-name="angle-down" d="M798.106 606.178c-16.666 16.663-43.679 16.663-60.344 0l-225.828-225.834-225.828 225.834c-16.666 16.663-43.679 16.663-60.339 0-16.666-16.662-16.666-43.677 0-60.34l256-256.001c16.66-16.666 43.674-16.666 60.34 0l256 256.001c16.66 16.663 16.66 43.678 0 60.34z" />
<glyph unicode="&#xe913;" glyph-name="angle-left" d="M670.106 161.848c16.66 16.66 16.66 43.674 0 60.339l-225.835 225.829 225.835 225.828c16.66 16.666 16.66 43.679 0 60.339-16.666 16.666-43.679 16.666-60.344 0l-255.997-256c-16.666-16.66-16.666-43.675 0-60.336l255.997-256c16.666-16.666 43.679-16.666 60.344 0z" />
<glyph unicode="&#xe914;" glyph-name="angle-right" d="M353.797 734.178c-16.663-16.663-16.663-43.678 0-60.34l225.833-225.83-225.833-225.826c-16.663-16.666-16.663-43.679 0-60.339 16.662-16.666 43.677-16.666 60.34 0l255.999 256c16.666 16.66 16.666 43.673 0 60.335l-255.999 256c-16.663 16.662-43.678 16.662-60.34 0z" />
<glyph unicode="&#xe915;" glyph-name="angle-up" d="M225.797 289.848c16.663-16.666 43.678-16.666 60.34 0l225.83 225.831 225.83-225.831c16.666-16.666 43.679-16.666 60.339 0 16.666 16.66 16.666 43.674 0 60.339l-256 255.998c-16.66 16.666-43.677 16.666-60.34 0l-256-255.998c-16.662-16.666-16.662-43.679 0-60.339z" />
<glyph unicode="&#xe916;" glyph-name="arrow-down" d="M243.503 460.565c-16.663 16.661-43.677 16.661-60.34 0s-16.662-43.678 0-60.339l298.667-298.667c16.661-16.661 43.678-16.661 60.339 0l298.667 298.667c16.661 16.661 16.661 43.678 0 60.339s-43.678 16.661-60.339 0l-225.83-225.83v511.93c0 23.564-19.102 42.667-42.667 42.667s-42.667-19.103-42.667-42.667v-511.93l-225.83 225.83z" />
<glyph unicode="&#xe917;" glyph-name="arrow-left" d="M533.338 707.684c16.661 16.662 16.661 43.677 0 60.34s-43.678 16.663-60.339 0l-298.668-298.665c-16.662-16.666-16.662-43.678 0-60.339l298.668-298.667c16.661-16.666 43.678-16.666 60.339 0 16.661 16.661 16.661 43.674 0 60.339l-225.831 225.83h511.928c23.565 0 42.667 19.102 42.667 42.667 0 23.561-19.102 42.667-42.667 42.667h-511.928l225.831 225.828z" />
<glyph unicode="&#xe918;" glyph-name="arrow-right" d="M490.581 170.692c-16.666-16.666-16.666-43.678 0-60.339 16.661-16.666 43.678-16.666 60.339 0l298.667 298.667c16.661 16.661 16.661 43.674 0 60.339l-298.667 298.665c-16.661 16.663-43.678 16.663-60.339 0-16.666-16.662-16.666-43.677 0-60.34l225.83-225.828h-511.93c-23.564 0-42.667-19.106-42.667-42.667 0-23.565 19.103-42.667 42.667-42.667h511.93l-225.83-225.83z" />
<glyph unicode="&#xe919;" glyph-name="arrow-up" d="M780.412 417.809c16.666-16.661 43.678-16.661 60.343 0 16.661 16.661 16.661 43.678 0 60.339l-298.667 298.668c-16.666 16.662-43.678 16.662-60.343 0l-298.665-298.668c-16.662-16.661-16.662-43.678 0-60.339s43.677-16.661 60.34 0l225.828 225.83v-511.927c0-23.565 19.106-42.667 42.667-42.667 23.565 0 42.667 19.102 42.667 42.667v511.927l225.83-225.83z" />
<glyph unicode="&#xe91a;" glyph-name="building" d="M298.667 906.667h426.667c70.549 0 123.217-21.296 157.551-61.059 33.583-38.886 45.116-90.286 45.116-141.608v-650.667h10.667c17.673 0 32-14.327 32-32s-14.327-32-32-32h-853.333c-17.673 0-32 14.327-32 32s14.327 32 32 32h10.667v650.667c0 51.322 11.534 102.723 45.114 141.608 34.338 39.763 87.002 61.059 157.553 61.059zM864 53.333v650.667c0 42.971-9.801 76.904-29.551 99.779-18.999 21.997-51.665 38.888-109.116 38.888h-426.667c-57.449 0-90.118-16.891-109.114-38.888-19.753-22.874-29.553-56.808-29.553-99.779v-650.667h704zM266.667 256c0 17.673 14.327 32 32 32h128c17.673 0 32-14.327 32-32s-14.327-32-32-32h-128c-17.673 0-32 14.327-32 32zM597.333 288c-17.673 0-32-14.327-32-32s14.327-32 32-32h128c17.673 0 32 14.327 32 32s-14.327 32-32 32h-128zM266.667 448c0 17.673 14.327 32 32 32h128c17.673 0 32-14.327 32-32s-14.327-32-32-32h-128c-17.673 0-32 14.327-32 32zM597.333 480c-17.673 0-32-14.327-32-32s14.327-32 32-32h128c17.673 0 32 14.327 32 32s-14.327 32-32 32h-128zM266.667 640c0 17.673 14.327 32 32 32h128c17.673 0 32-14.327 32-32s-14.327-32-32-32h-128c-17.673 0-32 14.327-32 32zM597.333 672c-17.673 0-32-14.327-32-32s14.327-32 32-32h128c17.673 0 32 14.327 32 32s-14.327 32-32 32h-128z" />
<glyph unicode="&#xe91b;" glyph-name="calendar" d="M753.521 925.538v-38.96c63.15-4.277 118.036-24.844 158.618-63.527 46.208-44.045 69.386-107.309 69.161-183.477v-419.246c0-76.17-23.296-139.5-69.509-183.629-45.978-43.899-110.254-64.609-184.172-64.609h-388.637c-73.883 0-138.211 21.14-184.196 65.71-46.156 44.733-69.486 108.856-69.486 185.999v415.822c0 76.221 23.435 139.458 69.727 183.462 40.613 38.607 95.421 59.179 158.373 63.482v38.972c0 19.033 15.429 34.462 34.462 34.462s34.461-15.429 34.461-34.462v-38.113h302.278v38.113c0 19.033 15.427 34.462 34.463 34.462 19.031 0 34.458-15.429 34.458-34.462zM684.6 818.502h-302.278v-44.171c0-19.033-15.429-34.462-34.461-34.462s-34.462 15.429-34.462 34.462v43.121c-48.474-4.104-85.353-20.049-110.886-44.322-29.584-28.123-48.29-71.557-48.29-133.508v-19.847h758.156v19.954c0.189 61.978-18.35 105.364-47.795 133.435-25.457 24.263-62.351 40.224-111.063 44.305v-43.137c0-19.033-15.427-34.462-34.458-34.462-19.036 0-34.463 15.429-34.463 34.462v44.171zM154.223 550.852v-327.052c0-63.196 18.811-107.704 48.531-136.504 29.891-28.974 75.173-46.285 136.227-46.285h388.637c61.445 0 106.778 17.091 136.571 45.537 29.553 28.216 48.189 71.772 48.189 133.78v330.523h-758.156zM737.357 440.325c-19.031 0-34.458-15.427-34.458-34.458 0-19.036 15.427-34.463 34.458-34.463h0.43c19.031 0 34.458 15.427 34.458 34.463 0 19.031-15.427 34.458-34.458 34.458h-0.43zM499 405.868c0 19.031 15.432 34.458 34.463 34.458h0.425c19.031 0 34.463-15.427 34.463-34.458 0-19.036-15.432-34.463-34.463-34.463h-0.425c-19.031 0-34.463 15.427-34.463 34.463zM329.261 440.325c-19.033 0-34.461-15.427-34.461-34.458 0-19.036 15.429-34.463 34.461-34.463h0.426c19.033 0 34.461 15.427 34.461 34.463 0 19.031-15.429 34.458-34.461 34.458h-0.426zM702.899 227.287c0 19.036 15.427 34.463 34.458 34.463h0.43c19.031 0 34.458-15.427 34.458-34.463 0-19.031-15.427-34.458-34.458-34.458h-0.43c-19.031 0-34.458 15.427-34.458 34.458zM533.463 261.75c-19.031 0-34.463-15.427-34.463-34.463 0-19.031 15.432-34.458 34.463-34.458h0.425c19.031 0 34.463 15.427 34.463 34.458 0 19.036-15.432 34.463-34.463 34.463h-0.425zM294.8 227.287c0 19.036 15.429 34.463 34.461 34.463h0.426c19.033 0 34.461-15.427 34.461-34.463 0-19.031-15.429-34.458-34.461-34.458h-0.426c-19.033 0-34.461 15.427-34.461 34.458z" />
<glyph unicode="&#xe91c;" glyph-name="check-circle" d="M512 896c-247.423 0-448-200.577-448-448s200.577-448 448-448c247.424 0 448 200.576 448 448s-200.576 448-448 448zM140.8 448c0 205.008 166.192 371.2 371.2 371.2 205.010 0 371.2-166.192 371.2-371.2 0-205.010-166.19-371.2-371.2-371.2-205.008 0-371.2 166.19-371.2 371.2zM675.717 511.872c14.996 14.996 14.996 39.31 0 54.306s-39.311 14.996-54.308 0l-154.887-154.888-63.869 63.866c-14.996 14.996-39.31 14.995-54.306-0.001s-14.996-39.31 0.001-54.307l91.022-91.018c14.996-14.996 39.31-14.996 54.306 0l182.042 182.042z" />
<glyph unicode="&#xe91d;" glyph-name="check-fill" d="M512-64c-282.77 0-512 229.231-512 512s229.23 512 512 512c282.769 0 512-229.23 512-512s-229.231-512-512-512zM724.54 610.222c-14.426 12.502-36.254 10.943-48.755-3.482l-215.36-248.403-102.755 102.737-3.876 3.349c-13.531 10.035-32.733 8.922-45.003-3.349-13.498-13.495-13.498-35.383 0-48.879l122.036-122.039 4.126-3.644c17.173-13.35 42.005-12.134 57.788 3.644l235.285 271.312 3.059 4.105c9.050 14.212 6.571 33.285-6.545 44.65z" />
<glyph unicode="&#xe91e;" glyph-name="check" d="M797.572 648.184c17.481-17.511 17.455-45.877-0.055-63.357l-338.688-338.090c-17.502-17.468-45.844-17.459-63.328 0.026l-169.045 169.045c-17.495 17.498-17.495 45.862 0 63.36 17.495 17.493 45.861 17.493 63.357 0l137.397-137.395 307.008 306.467c17.51 17.48 45.875 17.455 63.356-0.056z" />
<glyph unicode="&#xe91f;" glyph-name="close-circle" d="M53.333 448c0 252.34 206.327 458.667 458.667 458.667s458.667-206.327 458.667-458.667c0-252.339-206.327-458.667-458.667-458.667s-458.667 206.327-458.667 458.667zM512 842.667c-216.994 0-394.667-177.673-394.667-394.667s177.673-394.667 394.667-394.667c216.994 0 394.667 177.673 394.667 394.667s-177.673 394.667-394.667 394.667zM655.369 591.377c12.497-12.497 12.497-32.758 0-45.255l-98.116-98.118 98.116-98.121c12.497-12.497 12.497-32.755 0-45.252s-32.759-12.497-45.252 0l-98.121 98.116-98.118-98.116c-12.497-12.497-32.758-12.497-45.255 0s-12.497 32.755 0 45.252l98.117 98.121-98.117 98.118c-12.497 12.497-12.497 32.758 0 45.255s32.758 12.497 45.255 0l98.118-98.117 98.121 98.117c12.493 12.497 32.755 12.497 45.252 0z" />
<glyph unicode="&#xe920;" glyph-name="close" d="M752.29 612.446c20.945 20.944 20.945 54.902 0 75.846-20.941 20.944-54.899 20.944-75.844 0l-164.446-164.448-164.446 164.448c-20.944 20.944-54.902 20.944-75.846 0s-20.944-54.902 0-75.846l164.448-164.446-164.448-164.446c-20.944-20.945-20.944-54.903 0-75.844 20.944-20.945 54.902-20.945 75.846 0l164.446 164.446 164.446-164.446c20.945-20.945 54.903-20.945 75.844 0 20.945 20.941 20.945 54.899 0 75.844l-164.446 164.446 164.446 164.446z" />
<glyph unicode="&#xe921;" glyph-name="cross-fill" d="M512-64c282.769 0 512 229.231 512 512s-229.231 512-512 512c-282.77 0-512-229.23-512-512s229.23-512 512-512zM672.192 608.195c13.965-13.963 13.965-36.601 0-50.564l-109.632-109.631 109.632-109.628c13.965-13.961 13.965-36.604 0-50.564-13.961-13.965-36.604-13.965-50.564 0l-109.628 109.632-109.631-109.632c-13.963-13.965-36.601-13.965-50.564 0-13.963 13.961-13.963 36.604 0 50.564l109.63 109.628-109.63 109.631c-13.963 13.963-13.963 36.601 0 50.564s36.601 13.963 50.564 0l109.631-109.63 109.628 109.63c13.961 13.963 36.604 13.963 50.564 0z" />
<glyph unicode="&#xe922;" glyph-name="dashboard-2" d="M85.54 877.174c24.245 22.809 58.233 29.493 94.94 29.493h172.373c36.707 0 70.695-6.684 94.942-29.493 24.734-23.27 32.205-56.486 32.205-92.107v-674.133c0-35.622-7.471-68.838-32.205-92.109-24.247-22.805-58.235-29.491-94.942-29.491h-172.373c-36.707 0-70.695 6.686-94.94 29.491-24.736 23.27-32.207 56.486-32.207 92.109v674.133c0 35.621 7.471 68.837 32.207 92.107zM129.393 830.56c-5.877-5.53-12.060-17.114-12.060-45.493v-674.133c0-28.378 6.182-39.962 12.060-45.491 6.368-5.995 19.954-12.109 51.087-12.109h172.373c31.133 0 44.719 6.114 51.087 12.109 5.877 5.53 12.060 17.114 12.060 45.491v674.133c0 28.379-6.182 39.963-12.060 45.493-6.368 5.991-19.953 12.107-51.087 12.107h-172.373c-31.133 0-44.719-6.116-51.087-12.107zM576.879 878.908c24.201 21.501 57.852 27.759 94.268 27.759h172.373c36.42 0 70.067-6.257 94.268-27.759 25.165-22.358 32.879-54.523 32.879-88.721v-193.707c0-34.175-7.706-66.389-32.926-88.708-24.243-21.457-57.92-27.563-94.315-27.345h-172.279c-36.305 0-69.986 6.11-94.221 27.558-25.242 22.336-32.926 54.576-32.926 88.922v193.28c0 34.199 7.714 66.363 32.879 88.721zM619.388 831.065c-5.449-4.842-11.388-14.917-11.388-40.879v-193.28c0-26.241 5.969-36.243 11.341-40.997 6.379-5.644 20.271-11.483 51.806-11.483h172.574c31.407-0.198 45.261 5.655 51.605 11.27 5.393 4.772 11.341 14.798 11.341 40.783v193.707c0 25.961-5.939 36.037-11.388 40.879-6.413 5.699-20.335 11.601-51.759 11.601h-172.373c-31.424 0-45.346-5.903-51.759-11.601zM671.147 416c-37.124 0-71.415-7.283-95.642-31.505-24.222-24.226-31.505-58.517-31.505-95.642v-172.373c0-37.124 7.283-71.415 31.505-95.642 24.226-24.222 58.517-31.505 95.642-31.505h172.373c37.124 0 71.415 7.283 95.642 31.505 24.222 24.226 31.505 58.517 31.505 95.642v172.373c0 37.124-7.283 71.415-31.505 95.642-24.226 24.222-58.517 31.505-95.642 31.505h-172.373zM608 288.853c0 30.716 6.37 43.998 12.762 50.385 6.387 6.391 19.669 12.762 50.385 12.762h172.373c30.716 0 43.998-6.37 50.385-12.762 6.391-6.387 12.762-19.669 12.762-50.385v-172.373c0-30.716-6.37-43.998-12.762-50.385-6.387-6.391-19.669-12.762-50.385-12.762h-172.373c-30.716 0-43.998 6.37-50.385 12.762-6.391 6.387-12.762 19.669-12.762 50.385v172.373z" />
<glyph unicode="&#xe923;" glyph-name="delete" d="M403.614 798.525c3.843 22.818 6.062 30.306 9.992 34.763 2.067 2.344 9.819 9.379 42.505 9.379h111.787c32.209 0 40.205-7.236 42.5-9.879 4.143-4.777 6.4-12.634 9.971-34.523l7.283-43.044c-53.069 1.971-106.146 2.968-159.168 2.968-23.94 0-47.878-0.338-71.815-1.015l6.944 41.353zM340.5 809.14l-9.179-54.654c-39.818-2.15-79.634-5.235-119.448-9.256l-86.993-8.529c-17.589-1.724-30.449-17.381-28.725-34.97s17.381-30.449 34.97-28.725l87.134 8.543c83.417 8.426 166.823 12.638 250.226 12.638 141.423 0 283.302-7.198 424.363-21.177 17.587-1.743 33.254 11.101 34.999 28.688 1.741 17.587-11.102 33.257-28.689 34.999-68.548 6.793-137.301 12.009-206.114 15.601l-0.085 0.558-0.068 0.429-9.37 55.371-0.401 2.483c-2.807 17.444-7.010 43.569-24.384 63.593-20.109 23.17-50.935 31.934-90.837 31.934h-111.787c-39.419 0-70.28-8.112-90.507-31.048-17.352-19.677-21.662-45.709-24.6-63.453l-0.503-3.026zM836.198 567.969c1.139 17.636-12.237 32.856-29.875 33.995-17.634 1.138-32.853-12.236-33.993-29.872l-27.721-429.478-0.009-0.085c-1.203-17.186-2.223-30.814-4.617-42.692-2.33-11.571-5.564-19.17-9.741-24.606-7.202-9.378-24.99-21.892-81.289-21.892h-273.919c-56.296 0-74.085 12.514-81.289 21.892-4.177 5.436-7.412 13.035-9.741 24.606-2.392 11.878-3.412 25.506-4.616 42.692l-0.006 0.085-27.722 429.478c-1.138 17.636-16.358 31.011-33.995 29.872s-31.011-16.358-29.872-33.995l27.733-429.652 0.069-0.986c1.124-16.055 2.36-33.707 5.668-50.133 3.43-17.028 9.476-35.004 21.725-50.953 25.65-33.395 69.301-46.908 132.045-46.908h273.919c62.746 0 106.398 13.513 132.045 46.908 12.25 15.949 18.295 33.924 21.726 50.953 3.307 16.427 4.544 34.078 5.67 50.129v0.004l0.055 0.811 27.746 429.827zM408.75 256c0 17.673 14.327 32 32.001 32h142.080c17.673 0 32-14.327 32-32s-14.327-32-32-32h-142.080c-17.674 0-32.001 14.327-32.001 32zM405.333 458.667c-17.673 0-32-14.327-32-32s14.327-32 32-32h213.333c17.673 0 32 14.327 32 32s-14.327 32-32 32h-213.333z" />
<glyph unicode="&#xe924;" glyph-name="edit" d="M813.363 836.534l0.060-0.055c51.345-48.559 74.722-97.817 71.215-147.988-3.388-48.48-31.492-89.513-63.543-123.371l-54.199-57.369c-2.231-3.537-5.129-6.588-8.499-8.994l-287.42-304.226c-9.869-10.748-23.159-19.853-35.759-26.59-12.763-6.822-27.524-12.659-41.382-15.125l-137.551-23.492c-33.304-5.743-65.24 2.577-87.99 24.154-22.718 21.542-32.757 52.962-29.038 86.434l15.866 138.935c1.841 13.811 6.97 28.757 13.017 41.719 6.025 12.919 14.244 26.62 23.972 36.975l291.545 308.589c0.247 0.27 0.499 0.535 0.755 0.796l58.057 61.453c32.064 33.872 71.471 64.148 119.573 70.299 49.783 6.366 100.147-13.991 151.322-62.143zM727.083 558.804l47.492 50.267c6.093 6.434 11.605 12.747 16.525 18.952 18.133 22.858 28.25 44.259 29.692 64.931 1.719 24.596-8.393 56.393-51.307 96.992-30.746 28.923-56.051 41.279-76.937 44.759-8.107 1.35-15.548 1.364-22.387 0.489-26.129-3.341-52.681-20.674-81.195-50.791l-47.215-49.977c20.352-90.65 93.611-159.936 185.331-175.622zM491.153 680.869l-252.396-267.152c-3.497-3.729-8.302-10.953-12.615-20.198-4.235-9.084-6.779-17.485-7.541-22.886l-15.741-137.835c-1.814-16.422 3.29-27.021 9.474-32.883 6.157-5.837 16.887-10.317 33.076-7.526l0.049 0.009 137.263 23.445c5.345 0.969 13.58 3.87 22.316 8.542 8.857 4.732 15.52 9.839 18.855 13.5l0.382 0.418 252.323 267.072c-85.265 27.123-153.771 91.799-185.446 175.495z" />
<glyph unicode="&#xe925;" glyph-name="hide-password" d="M72.837 947.503l215.595-215.595c0.176-0.173 0.351-0.348 0.525-0.525l506.35-506.351c0.179-0.175 0.358-0.354 0.533-0.533l215.663-215.663c16.661-16.661 16.661-43.678 0-60.339s-43.678-16.661-60.339 0l-190.579 190.579c-73.809-47.501-159.633-73.634-247.889-75.076l-0.695-0.004c-166.379 0-294.209 94.993-377.794 184.149-42.182 44.996-74.385 89.826-96.048 123.371-10.858 16.811-19.138 30.895-24.762 40.896-2.814 5.001-4.968 8.99-6.452 11.793-0.742 1.404-1.318 2.513-1.724 3.302l-0.484 0.947-0.147 0.294-0.050 0.098-0.019 0.038c-0.008 0.013-0.015 0.030 38.147 19.11l-38.162-19.081c-6.2 12.399-5.989 27.038 0.566 39.253 48.278 89.972 112.678 170.136 189.854 236.567l-182.428 182.427c-16.662 16.663-16.662 43.678 0 60.34s43.677 16.662 60.34 0zM255.452 644.208c-65.571-55.47-121.079-121.891-164.036-196.349 4.654-8.038 10.81-18.257 18.425-30.050 19.67-30.455 48.8-70.959 86.619-111.3 76.348-81.438 183.065-157.047 315.194-157.18 65.937 1.135 130.214 19.098 186.863 51.814l-99.379 99.379c-72.755-43.264-168.055-26.718-221.544 41.745-29.998 38.396-38.414 86.212-33.299 126.878 2.69 21.389 9.735 44.42 22.156 64.064l-110.999 110.999zM430.848 468.813c-0.768-3.123-1.412-6.554-1.886-10.317-2.827-22.473 2.351-46.383 15.876-63.693 21.837-27.951 57.609-38.596 89.805-29.786l-103.795 103.795zM511.927 746.666c-26.854 0.063-53.632-2.996-79.778-9.117-22.942-5.371-45.896 8.875-51.267 31.819s8.875 45.898 31.819 51.268c32.572 7.625 65.925 11.438 99.375 11.363 166.353-0.019 294.165-95.004 377.745-184.151 42.18-44.994 74.381-89.824 96.047-123.367 10.859-16.811 19.136-30.899 24.759-40.896 2.816-5.005 4.971-8.99 6.455-11.797 0.742-1.399 1.314-2.509 1.724-3.298l0.55-1.246 0.073-0.162h0.090c0.785-1.562 1.463-3.162 2.039-4.787 4.002-11.243 3.127-23.744-2.573-34.406-27.298-51.072-59.853-99.153-97.139-143.467-15.172-18.031-42.091-20.348-60.117-5.175-18.031 15.172-20.348 42.086-5.175 60.117 28.548 33.929 54.003 70.315 76.079 108.732-4.659 8.043-10.82 18.278-18.449 30.089-19.669 30.46-48.802 70.962-86.618 111.302-76.416 81.51-183.253 157.181-315.541 157.181h-0.098z" />
<glyph unicode="&#xe926;" glyph-name="lock" d="M391.32 782.013c-32.006-32.006-49.987-75.416-49.987-120.68v-128h341.333v128c0 45.264-17.98 88.673-49.988 120.68-32.004 32.006-75.413 49.987-120.678 49.987s-88.673-17.981-120.68-49.987zM256 533.333v128c0 67.895 26.971 133.010 74.981 181.019s113.124 74.981 181.019 74.981c67.895 0 133.009-26.971 181.018-74.981 48.013-48.009 74.982-113.124 74.982-181.019v-128h42.667c70.694 0 128-57.306 128-128v-298.667c0-70.694-57.306-128-128-128h-597.333c-70.692 0-128 57.306-128 128v298.667c0 70.694 57.308 128 128 128h42.667zM725.333 448h-512c-23.564 0-42.667-19.102-42.667-42.667v-298.667c0-23.565 19.103-42.667 42.667-42.667h597.333c23.565 0 42.667 19.102 42.667 42.667v298.667c0 23.565-19.102 42.667-42.667 42.667h-85.333z" />
<glyph unicode="&#xe927;" glyph-name="logout-rev" d="M472.555 778.362c-33.728-27.364-54.721-71.633-60.922-143.657-1.516-17.608-17.020-30.653-34.627-29.137s-30.653 17.019-29.137 34.627c7.025 81.577 32.11 145.468 84.358 187.863 51.366 41.679 123.153 57.711 212.484 57.711h5.547c98.526 0 175.825-19.532 227.695-71.399 51.866-51.867 71.398-129.169 71.398-227.694v-278.189c0-98.522-19.533-175.825-71.398-227.691-51.87-51.87-129.169-71.403-227.695-71.403h-5.547c-88.683 0-160.038 15.821-211.298 56.828-52.185 41.749-77.602 104.708-85.097 185.109-1.641 17.6 11.295 33.195 28.892 34.833 17.597 1.643 33.192-11.294 34.832-28.89 6.585-70.639 27.676-114.133 61.357-141.077 34.603-27.686 88.478-42.803 171.315-42.803h5.547c92.194 0 148.437 18.658 182.438 52.655 34.001 34.001 52.655 90.244 52.655 182.438v278.189c0 92.195-18.654 148.44-52.655 182.439s-90.244 52.654-182.438 52.654h-5.547c-83.469 0-137.549-15.328-172.156-43.409zM183.917 480l88.31 88.31c12.497 12.497 12.497 32.758 0 45.255s-32.758 12.497-45.255 0l-142.933-142.935c-6.001-5.999-9.373-14.14-9.373-22.626s3.372-16.627 9.373-22.626l142.933-142.933c12.497-12.497 32.758-12.497 45.255 0s12.497 32.755 0 45.252l-88.302 88.303h456.121c17.673 0 32 14.327 32 32s-14.327 32-32 32h-456.13z" />
<glyph unicode="&#xe928;" glyph-name="logout" d="M213.333 789.333c-11.316 0-22.168-4.495-30.17-12.497s-12.497-18.854-12.497-30.17v-597.333c0-11.315 4.495-22.17 12.497-30.17s18.854-12.497 30.17-12.497h170.667c23.564 0 42.667-19.102 42.667-42.667s-19.103-42.667-42.667-42.667h-170.667c-33.948 0-66.505 13.487-90.51 37.491s-37.49 56.559-37.49 90.509v597.333c0 33.948 13.486 66.505 37.49 90.51s56.562 37.49 90.51 37.49h170.667c23.564 0 42.667-19.103 42.667-42.667s-19.103-42.667-42.667-42.667h-170.667zM652.497 691.503c16.661 16.662 43.678 16.662 60.339 0l213.077-213.082c0.969-0.947 1.89-1.946 2.761-2.982 2.317-2.752 4.233-5.73 5.743-8.853 2.722-5.619 4.25-11.925 4.25-18.586s-1.527-12.966-4.25-18.586c-1.51-3.123-3.426-6.101-5.743-8.853-0.87-1.037-1.792-2.035-2.761-2.982l-213.077-213.082c-16.661-16.661-43.678-16.661-60.339 0s-16.661 43.678 0 60.339l140.497 140.497h-408.994c-23.564 0-42.667 19.102-42.667 42.667s19.103 42.667 42.667 42.667h408.994l-140.497 140.497c-16.661 16.663-16.661 43.677 0 60.34z" />
<glyph unicode="&#xe929;" glyph-name="long-arrow-down" d="M481.694 52.045c5.999-6.003 14.14-9.374 22.626-9.374s16.627 3.371 22.626 9.374l258.987 258.987c12.497 12.497 12.497 32.755 0 45.252s-32.755 12.497-45.252 0l-204.365-204.361v648.077c0 17.673-14.327 32-32 32s-32-14.327-32-32v-648.073l-204.355 204.356c-12.497 12.497-32.758 12.497-45.255 0s-12.497-32.755 0-45.252l258.988-258.987z" />
<glyph unicode="&#xe92a;" glyph-name="long-arrow-left" d="M119.044 459.951c-6.003-5.999-9.374-14.14-9.374-22.626s3.371-16.627 9.374-22.626l258.987-258.987c12.497-12.497 32.755-12.497 45.252 0s12.497 32.755 0 45.252l-204.361 204.365h648.077c17.673 0 32 14.327 32 32s-14.327 32-32 32h-648.073l204.356 204.356c12.497 12.497 12.497 32.758 0 45.255s-32.755 12.497-45.252 0l-258.987-258.989z" />
<glyph unicode="&#xe92b;" glyph-name="long-arrow-right" d="M889.621 414.716c6.003 5.999 9.374 14.14 9.374 22.626s-3.371 16.627-9.374 22.626l-258.987 258.986c-12.497 12.497-32.755 12.497-45.252 0s-12.497-32.755 0-45.252l204.361-204.364h-648.076c-17.673 0-32-14.327-32-32s14.327-32 32-32h648.072l-204.356-204.356c-12.497-12.497-12.497-32.759 0-45.257 12.497-12.493 32.755-12.493 45.252 0l258.987 258.991z" />
<glyph unicode="&#xe92c;" glyph-name="long-arrow-up" d="M526.972 822.623c-5.999 6.003-14.14 9.374-22.626 9.374s-16.627-3.371-22.626-9.374l-258.986-258.987c-12.497-12.497-12.497-32.756 0-45.253s32.755-12.497 45.252 0l204.364 204.361v-648.078c0-17.673 14.327-32 32-32s32 14.327 32 32v648.073l204.356-204.357c12.497-12.497 32.759-12.497 45.257 0 12.493 12.497 12.493 32.756 0 45.253l-258.991 258.987z" />
<glyph unicode="&#xe92d;" glyph-name="notification" d="M288.883 579.854c0 99.943 65.725 184.766 156.241 213.536 31.633 8.858 65.715 11.362 101.73 6.86l0.119-0.015c10.718-1.299 21.312-3.481 31.812-6.348 91.264-28.335 158.097-113.812 158.097-214.033v-123.308c0-16.858 3.473-36.292 8.286-53.85 4.826-17.591 11.691-35.827 19.887-50.035l49.353-81.971c17.668-29.457 3.349-67.567-28.689-78.161l-0.098-0.030c-177.289-59.234-368.548-59.243-545.843-0.021-19.489 6.613-30.703 18.782-35.393 31.45-4.68 12.638-4.087 29.086 6.53 46.737l49.134 81.604c8.546 14.336 15.573 32.7 20.468 50.334 4.892 17.621 8.366 37.077 8.366 53.943v123.308zM800.883 579.854c0 122.544-77.453 227.78-185.847 269.199-19.93 35.964-58.266 60.177-102.187 60.177-43.874 0-82.172-24.16-102.117-60.060-108.57-41.274-185.849-146.376-185.849-269.315v-123.308c0-9.156-2.072-22.554-6.034-36.826-3.95-14.229-9.068-26.769-13.74-34.624l-0.032-0.055-48.999-81.382c-19.671-32.691-23.776-69.372-11.71-101.956 12.052-32.546 39.007-57.698 74.95-69.867l0.119-0.038c46.428-15.514 93.749-27.243 141.529-35.191 7.976-24.004 21.452-45.581 38.788-62.916 28.779-28.779 69.239-46.921 113.079-46.921 70.592 0 130.812 46.208 151.936 109.901 47.629 7.945 94.801 19.648 141.086 35.11 71.181 23.565 102.067 107.452 63.428 171.844l-48.922 81.254c-4.57 7.991-9.587 20.582-13.47 34.748-3.934 14.336-6.007 27.755-6.007 36.919v123.308zM587.878 87.134c-17.643-22.11-44.787-36.365-75.046-36.365-26.133 0-50.522 10.876-67.823 28.177-2.573 2.569-5.001 5.299-7.275 8.166 49.967-4.066 100.177-4.058 150.144 0.021z" />
<glyph unicode="&#xe92e;" glyph-name="search" d="M490.667 906.667c-241.533 0-437.333-195.801-437.333-437.333s195.801-437.333 437.333-437.333c241.532 0 437.333 195.802 437.333 437.333s-195.802 437.333-437.333 437.333zM117.333 469.333c0 206.187 167.147 373.333 373.333 373.333s373.333-167.147 373.333-373.333c0-206.187-167.147-373.333-373.333-373.333s-373.333 167.147-373.333 373.333zM875.959 129.293c-12.497 12.497-32.755 12.497-45.252 0s-12.497-32.755 0-45.252l85.333-85.333c12.497-12.497 32.755-12.497 45.252 0s12.497 32.755 0 45.252l-85.333 85.333z" />
<glyph unicode="&#xe92f;" glyph-name="settings" d="M85.333 650.667c-17.673 0-32 14.327-32 32s14.327 32 32 32h162.815c15.114 84.886 89.29 149.333 178.519 149.333 100.147 0 181.333-81.186 181.333-181.333s-81.186-181.333-181.333-181.333c-89.229 0-163.405 64.448-178.519 149.333h-162.815zM426.667 800c-64.802 0-117.333-52.532-117.333-117.333s52.532-117.333 117.333-117.333c64.802 0 117.333 52.532 117.333 117.333s-52.531 117.333-117.333 117.333zM682.667 714.667h256c17.673 0 32-14.327 32-32s-14.327-32-32-32h-256c-17.673 0-32 14.327-32 32s14.327 32 32 32zM775.851 181.333h162.816c17.673 0 32 14.327 32 32s-14.327 32-32 32h-162.816c-15.113 84.885-89.289 149.333-178.517 149.333-100.147 0-181.333-81.186-181.333-181.333s81.186-181.333 181.333-181.333c89.229 0 163.405 64.448 178.517 149.333zM53.333 213.333c0 17.673 14.327 32 32 32h256c17.673 0 32-14.327 32-32s-14.327-32-32-32h-256c-17.673 0-32 14.327-32 32zM480 213.333c0 64.802 52.531 117.333 117.333 117.333s117.333-52.531 117.333-117.333c0-64.802-52.531-117.333-117.333-117.333s-117.333 52.531-117.333 117.333z" />
<glyph unicode="&#xe930;" glyph-name="show-password" d="M109.841 417.813c19.67-30.455 48.8-70.959 86.619-111.3 76.415-81.506 183.252-157.18 315.54-157.18s239.125 75.674 315.541 157.18c37.815 40.341 66.948 80.845 86.618 111.3 7.659 11.857 13.841 22.127 18.505 30.187-4.663 8.060-10.846 18.33-18.505 30.187-19.669 30.455-48.802 70.959-86.618 111.299-76.416 81.51-183.253 157.181-315.541 157.181s-239.124-75.672-315.54-157.181c-37.818-40.34-66.949-80.843-86.619-111.299-7.658-11.857-13.84-22.127-18.503-30.187 4.663-8.060 10.845-18.33 18.503-30.187zM1019.482 467.11c0.009-0.017 0.013-0.030-38.148-19.11 38.161-19.081 38.157-19.093 38.148-19.11l-0.021-0.038-0.047-0.098-0.149-0.294-0.482-0.947c-0.41-0.789-0.986-1.899-1.728-3.302-1.481-2.803-3.635-6.793-6.451-11.793-5.623-10.001-13.905-24.085-24.759-40.896-21.666-33.545-53.867-78.374-96.051-123.366-83.584-89.161-211.413-184.154-377.792-184.154s-294.209 94.993-377.794 184.154c-42.182 44.992-74.385 89.822-96.048 123.366-10.858 16.811-19.138 30.895-24.762 40.896-2.814 5.001-4.968 8.99-6.452 11.793-0.742 1.404-1.317 2.513-1.724 3.302l-0.484 0.947-0.147 0.294-0.050 0.098-0.019 0.038c-0.008 0.017-0.015 0.030 38.147 19.11-38.162 19.081-38.155 19.093-38.147 19.11l0.019 0.038 0.050 0.098 0.147 0.294 0.484 0.947c0.407 0.789 0.982 1.899 1.724 3.302 1.484 2.803 3.638 6.793 6.452 11.793 5.624 10.001 13.904 24.085 24.762 40.896 21.663 33.544 53.866 78.374 96.048 123.368 83.585 89.157 211.415 184.152 377.794 184.152s294.208-94.995 377.792-184.152c42.185-44.994 74.385-89.824 96.051-123.368 10.854-16.811 19.136-30.895 24.759-40.896 2.816-5.001 4.971-8.99 6.451-11.793 0.742-1.404 1.318-2.513 1.728-3.302l0.482-0.947 0.149-0.294 0.047-0.098 0.021-0.038zM981.333 448l38.161 19.081c6.007-12.011 6.007-26.15 0-38.161l-38.161 19.081zM4.504 467.081l38.162-19.081-38.162-19.081c-6.006 12.011-6.006 26.15 0 38.161zM512 618.667c-94.258 0-170.667-76.408-170.667-170.667s76.408-170.667 170.667-170.667c94.259 0 170.667 76.407 170.667 170.667s-76.407 170.667-170.667 170.667zM426.667 448c0 47.13 38.204 85.333 85.333 85.333s85.333-38.204 85.333-85.333c0-47.13-38.204-85.333-85.333-85.333s-85.333 38.204-85.333 85.333z" />
<glyph unicode="&#xe931;" glyph-name="user-hexa" d="M563.055 828.996c-32.013 18.268-71.049 18.175-102.464 0.038l-253.321-146.279c-31.656-18.647-51.103-52.554-51.103-88.836v-291.839c0-36.847 19.558-70.626 50.986-88.768l253.374-146.313c32.017-18.266 71.049-18.172 102.464-0.034l253.329 146.278c31.65 18.65 51.098 52.557 51.098 88.836v291.839c0 36.652-19.396 70.161-51.102 88.836l-253.261 146.241zM428.591 884.46c51.341 29.638 114.675 29.556 166.276 0.070l0.128-0.072 253.649-146.468c51.012-29.976 82.773-84.335 82.773-144.072v-291.839c0-59.255-31.714-114.065-82.773-144.073l-0.209-0.124-253.44-146.342c-51.341-29.641-114.679-29.559-166.281-0.073l-0.124 0.073-253.437 146.342c-51.345 29.645-82.988 84.617-82.988 144.196v291.839c0 59.255 31.714 114.066 82.775 144.071l0.21 0.123 253.44 146.347zM511.996 657.479c-37.231 0-67.413-30.181-67.413-67.411 0-37.232 30.182-67.414 67.413-67.414s67.413 30.182 67.413 67.414c0 37.231-30.178 67.411-67.413 67.411zM380.583 590.068c0 72.578 58.836 131.411 131.412 131.411s131.413-58.833 131.413-131.411c0-72.577-58.833-131.414-131.413-131.414-72.576 0-131.412 58.837-131.412 131.414zM512 420.271c-105.544 0-202.667-70.818-202.667-171.093 0-17.673 14.327-32 32-32s32 14.327 32 32c0 53.325 55.625 107.093 138.667 107.093s138.667-53.769 138.667-107.093c0-17.673 14.327-32 32-32s32 14.327 32 32c0 100.275-97.122 171.093-202.667 171.093z" />
<glyph unicode="&#xe932;" glyph-name="user" d="M354.583 685.227c0 86.907 70.2 157.44 157.442 157.44 86.835 0 157.402-70.545 157.44-157.375-0.388-84.677-66.526-153.281-149.888-157.027-5.043 0.367-10.394 0.35-15.454-0.004-83.447 3.708-149.54 72.358-149.54 156.966zM512.026 906.667c-122.682 0-221.442-99.281-221.442-221.44 0-119.61 94.276-217.003 213.114-220.996 1.323-0.043 2.65-0.004 3.972 0.115 2.867 0.26 5.939 0.23 7.996 0.026 1.417-0.141 2.837-0.188 4.262-0.141 118.857 3.998 213.039 101.379 213.538 220.863v0.134c0 122.206-99.234 221.44-221.44 221.44zM750.387 365.385c-64.832 43.302-148.727 63.949-230.997 63.949-82.283 0-166.337-20.651-231.55-63.889l-0.117-0.081c-58.255-38.993-91.639-93.466-91.639-151.974 0-58.522 33.396-112.9 91.683-151.689 65.028-43.499 149.012-64.26 231.304-64.26 82.308 0 166.306 20.77 231.339 64.286l0.009 0.004c58.253 38.993 91.639 93.466 91.639 151.974 0 58.517-33.391 112.892-91.669 151.68zM260.083 213.389c0 32.247 18.227 68.638 63.182 98.752 52.541 34.816 123.549 53.193 196.125 53.193 72.61 0 143.381-18.394 195.452-53.171l0.047-0.030c44.949-29.905 63.168-66.18 63.168-98.428 0-32.26-18.244-68.668-63.241-98.795-52.301-34.991-123.179-53.47-195.746-53.47-72.572 0-143.451 18.483-195.752 53.474l-0.070 0.047c-44.946 29.905-63.165 66.185-63.165 98.428z" />
<glyph unicode="&#xe933;" glyph-name="document" d="M1024 448c0 421.632-90.368 512-512 512s-512-90.368-512-512c0-421.632 90.368-512 512-512 33.323 0 64.576 0.563 93.879 1.813 11.682 0.495 23.053 1.101 34.121 1.826 11.678 0.759 23.014 1.651 34.027 2.679 236.083 22.063 321.591 107.571 343.654 343.654 1.028 11.012 1.92 22.349 2.679 34.027 0.725 11.068 1.331 22.438 1.826 34.121 1.25 29.303 1.813 60.557 1.813 93.879zM955.733 448c0-33.293-0.576-64.149-1.826-92.762-13.875-0.661-29.244-1.907-45.538-4.066-63.629-8.427-146.146-31.343-207.172-92.369s-83.942-143.543-92.369-207.172c-2.159-16.294-3.405-31.663-4.066-45.538-28.612-1.25-59.469-1.826-92.762-1.826-103.85 0-182.643 5.653-243.066 19.081-59.648 13.257-97.128 33.165-122.775 58.812s-45.555 63.13-58.811 122.778c-13.428 60.42-19.082 139.213-19.082 243.063s5.654 182.643 19.082 243.066c13.256 59.648 33.164 97.128 58.811 122.775s63.127 45.555 122.775 58.811c60.423 13.428 139.216 19.082 243.066 19.082s182.643-5.654 243.063-19.082c59.648-13.256 97.131-33.164 122.778-58.811s45.555-63.127 58.812-122.775c13.427-60.423 19.081-139.216 19.081-243.066zM676.506 42.671c7.573 57.225 27.324 122.219 72.964 167.859s110.635 65.391 167.859 72.964c11.166 1.481 21.862 2.47 31.825 3.106-10.807-108.681-35.055-168.183-71.313-204.442s-95.761-60.506-204.442-71.313c0.636 9.963 1.626 20.659 3.106 31.825zM563.166 661.325c0 18.851 15.283 34.133 34.133 34.133h128c18.85 0 34.133-15.282 34.133-34.133s-15.283-34.133-34.133-34.133h-128c-18.85 0-34.133 15.282-34.133 34.133zM264.5 447.991c0 18.85 15.282 34.133 34.133 34.133h426.666c18.85 0 34.133-15.283 34.133-34.133s-15.283-34.133-34.133-34.133h-426.666c-18.851 0-34.133 15.283-34.133 34.133z" />
<glyph unicode="&#xe934;" glyph-name="info" d="M497.778-35.556c274.916 0 497.778 222.863 497.778 497.778s-222.861 497.778-497.778 497.778c-274.915 0-497.778-222.862-497.778-497.778 0-274.915 222.863-497.778 497.778-497.778zM497.778 49.778c-227.786 0-412.444 184.658-412.444 412.444s184.658 412.444 412.444 412.444c227.788 0 412.444-184.656 412.444-412.444s-184.657-412.444-412.444-412.444zM498.25 601.6c23.564 0 42.667 19.103 42.667 42.667s-19.103 42.667-42.667 42.667c-24.036 0-43.139-19.103-43.139-42.667 0-21.6 16.051-39.452 36.877-42.277l6.262-0.389zM497.778 237.514c23.564 0 42.667 19.103 42.667 42.667v182.047c0 23.564-19.103 42.667-42.667 42.667s-42.667-19.103-42.667-42.667v-182.047c0-23.564 19.103-42.667 42.667-42.667z" />
<glyph unicode="&#xe935;" glyph-name="textarea" d="M926.34 960l97.66-97.661-926.339-926.339-97.661 97.66 926.34 926.34zM926.302 407.543l97.664-97.664-373.888-373.884-97.66 97.66 373.884 373.888z" />
<glyph unicode="&#xe936;" glyph-name="clock" d="M493.276 960c272.429 0 493.273-220.847 493.273-493.276s-220.844-493.273-493.273-493.273c-272.429 0-493.276 220.844-493.276 493.273s220.847 493.276 493.276 493.276zM493.276 886.272c-231.71 0-419.548-187.838-419.548-419.548s187.838-419.545 419.548-419.545c231.711 0 419.545 187.834 419.545 419.545s-187.834 419.548-419.545 419.548zM493.264 679.14c20.361 0 36.864-16.505 36.864-36.864v-161.896l169.464-197.485c13.259-15.45 11.481-38.724-3.969-51.982s-38.724-11.481-51.982 3.969l-178.352 207.843c-5.734 6.685-8.888 15.2-8.888 24.007v175.544c0 20.359 16.507 36.864 36.864 36.864z" />
<glyph unicode="&#xe937;" glyph-name="question" d="M493.276 960c272.429 0 493.273-220.847 493.273-493.276s-220.844-493.273-493.273-493.273c-272.429 0-493.276 220.844-493.276 493.273s220.847 493.276 493.276 493.276zM493.276 886.272c-231.71 0-419.548-187.838-419.548-419.548s187.838-419.545 419.548-419.545c231.711 0 419.545 187.834 419.545 419.545s-187.834 419.548-419.545 419.548zM493.305 291.182c13.91-0.184 27.197-5.792 37.036-15.626 9.834-9.839 15.442-23.126 15.626-37.040 0-10.412-3.088-20.595-8.876-29.258-5.788-8.659-14.012-15.409-23.634-19.395-9.626-3.985-20.214-5.030-30.429-2.998s-19.599 7.049-26.964 14.414c-7.365 7.365-12.378 16.749-14.414 26.964-2.032 10.215-0.987 20.804 2.998 30.429 3.985 9.622 10.736 17.846 19.399 23.634 8.659 5.784 18.842 8.876 29.258 8.876zM521.051 711.508c27.582-5.486 52.916-19.028 72.802-38.914s33.427-45.221 38.916-72.804c5.485-27.582 2.671-56.172-8.094-82.153-10.76-25.981-28.987-48.189-52.371-63.812-12.976-8.671-27.218-15.102-42.131-19.104v-38.216c0-20.357-16.503-36.864-36.864-36.864-20.357 0-36.864 16.507-36.864 36.864v70.218c0 20.361 16.507 36.864 36.864 36.864 13.541 0 26.78 4.014 38.035 11.538 11.26 7.524 20.034 18.215 25.215 30.724s6.537 26.275 3.895 39.556c-2.642 13.28-9.159 25.479-18.735 35.054-9.572 9.574-21.774 16.095-35.054 18.736s-27.046 1.286-39.555-3.896c-12.509-5.182-23.204-13.957-30.724-25.215-7.524-11.258-11.538-24.494-11.538-38.035 0-20.36-16.505-36.866-36.864-36.866s-36.864 16.506-36.864 36.866c0 28.122 8.339 55.613 23.963 78.996s37.829 41.608 63.814 52.37c25.981 10.762 54.571 13.578 82.153 8.091z" />
<glyph unicode="&#xe938;" glyph-name="demographics" d="M911.847 960c59.247 0 107.277-48.029 107.277-107.276v-804.572c0-59.247-48.030-107.277-107.277-107.277h-804.57c-59.247 0-107.276 48.030-107.276 107.277v804.572c0 59.247 48.029 107.276 107.276 107.276h804.57zM911.847 891.733h-804.57c-21.545 0-39.010-17.465-39.010-39.009v-804.572c0-21.542 17.465-39.010 39.010-39.010h804.57c21.547 0 39.010 17.468 39.010 39.010v804.572c0 21.544-17.463 39.009-39.010 39.009zM856.286 589.424c16.166-9.699 21.406-30.666 11.708-46.831l-219.43-365.716c-9.553-15.919-30.080-21.286-46.204-12.075l-228.336 130.479-128.613-192.917c-10.457-15.684-31.649-19.925-47.334-9.468s-19.924 31.65-9.467 47.334l146.286 219.43c9.952 14.925 29.76 19.601 45.335 10.701l226.988-129.707 202.236 337.061c9.698 16.165 30.665 21.406 46.831 11.708zM546.151 594.293c18.85 0 34.133-15.282 34.133-34.133s-15.283-34.132-34.133-34.132h-329.143c-18.851 0-34.133 15.281-34.133 34.132s15.282 34.133 34.133 34.133h329.143zM363.293 777.147c18.851 0 34.133-15.282 34.133-34.133s-15.282-34.133-34.133-34.133h-146.286c-18.851 0-34.133 15.282-34.133 34.133s15.282 34.133 34.133 34.133h146.286z" />
<glyph unicode="&#xe939;" glyph-name="organizational" d="M781.963 960c97.503 0 176.873-78.252 176.873-175.476v-507.811c0-97.061-79.202-175.942-176.873-175.942h-35.375c-27.569 0-53.406-10.65-72.346-29.589l-79.751-78.815c-50.804-50.157-133.246-50.171-184.055-0.014l-79.608 78.676c-19.047 19.046-45.333 29.743-72.502 29.743h-34.909c-97.505 0-176.873 78.252-176.873 175.476v508.276c0 97.224 79.368 175.476 176.873 175.476h558.545zM781.963 885.527h-558.545c-57.026 0-102.4-45.558-102.4-101.004v-508.276c0-55.445 45.374-101.004 102.4-101.004h34.909c46.336 0 91.694-18.129 124.926-51.321l79.506-78.573c20.245-19.985 52.553-21.413 74.521-4.283l4.876 4.283 79.425 78.494c33.266 33.224 78.141 51.4 125.007 51.4h35.375c56.865 0 102.4 45.861 102.4 101.469v507.811c0 55.445-45.373 101.004-102.4 101.004zM491.114 541.091c51.977 0 105.863-12.94 148.382-41.1 38.819-25.972 63.106-63.716 63.106-106.217s-24.287-80.24-62.957-106.119c-42.561-28.467-96.628-41.546-148.708-41.546s-106.145 13.079-148.702 41.542c-38.675 25.884-62.963 63.623-62.963 106.124s24.288 80.244 62.957 106.119c42.945 28.253 96.893 41.197 148.884 41.197zM491.114 466.618c-40.695 0-79.551-10.296-107.587-28.7-23.14-15.528-29.781-32.209-29.781-44.144 0-11.958 6.663-28.672 29.895-44.218l8.647-5.322c26.863-15.207 61.954-23.653 98.65-23.653 40.778 0 79.569 10.426 107.297 28.975 23.235 15.546 29.896 32.261 29.896 44.218 0 11.944-6.647 28.639-29.826 44.176-27.755 18.353-66.462 28.667-107.19 28.667zM502.727 829.682c77.121 0 139.636-62.518 139.636-139.636s-62.515-139.636-139.636-139.636c-77.121 0-139.636 62.518-139.636 139.636s62.515 139.636 139.636 139.636zM502.727 759.864c-38.558 0-69.818-31.259-69.818-69.818s31.26-69.818 69.818-69.818c38.558 0 69.818 31.259 69.818 69.818s-31.26 69.818-69.818 69.818z" />
<glyph unicode="&#xe93a;" glyph-name="emotions" d="M642.326 960c120.036 0 213.751-23.779 276.513-86.542s86.542-156.476 86.542-276.512v-279.273c0-120.036-23.78-213.746-86.542-276.513-62.762-62.762-156.477-86.542-276.513-86.542h-279.272c-120.036 0-213.748 23.78-276.512 86.542-62.763 62.767-86.542 156.477-86.542 276.513v279.273c0 120.037 23.779 213.749 86.542 276.512s156.476 86.542 276.512 86.542h279.272zM642.326 885.527h-279.272c-112.691 0-181.888-22.766-223.852-64.73s-64.73-111.161-64.73-223.852v-279.273c0-112.691 22.766-181.886 64.73-223.851s111.161-64.731 223.852-64.731h279.272c112.691 0 181.89 22.765 223.851 64.731 41.965 41.965 64.731 111.16 64.731 223.851v279.273c0 112.691-22.765 181.888-64.731 223.852-41.961 41.964-111.16 64.73-223.851 64.73zM670.254 434.046c43.837 0 79.127-35.291 79.127-79.127 0-136.462-110.229-246.691-246.691-246.691s-246.69 110.229-246.69 246.691c0 43.837 35.289 79.127 79.127 79.127h335.126zM670.254 359.573h-335.126c-2.708 0-4.655-1.946-4.655-4.655 0-95.334 76.885-172.218 172.217-172.218 95.334 0 172.218 76.884 172.218 172.218 0 2.709-1.946 4.655-4.655 4.655zM665.599 738.909c59.127 0 107.055-47.93 107.055-107.055s-47.928-107.055-107.055-107.055c-59.122 0-107.055 47.93-107.055 107.055s47.933 107.055 107.055 107.055zM339.782 738.909c59.124 0 107.054-47.93 107.054-107.055s-47.929-107.055-107.054-107.055c-59.125 0-107.055 47.93-107.055 107.055s47.93 107.055 107.055 107.055zM665.599 664.436c-17.994 0-32.582-14.587-32.582-32.582s14.587-32.582 32.582-32.582c17.994 0 32.582 14.588 32.582 32.582s-14.587 32.582-32.582 32.582zM339.782 664.436c-17.994 0-32.582-14.587-32.582-32.582s14.587-32.582 32.582-32.582c17.994 0 32.582 14.588 32.582 32.582s-14.587 32.582-32.582 32.582z" />
<glyph unicode="&#xe93b;" glyph-name="user-management" d="M779.269 357.848c16.024-10.721 20.322-32.403 9.601-48.426s-32.403-20.322-48.426-9.601c-116.252 77.783-310.845 77.783-427.173-0.051-91.89-61.134-91.89-153.579 0.028-215.111 56.5-37.667 133.237-58.37 213.831-58.37 19.28 0 34.909-15.629 34.909-34.909s-15.629-34.909-34.909-34.909c-93.72 0-183.917 24.334-252.614 70.133-133.307 89.238-133.307 242.553 0.007 331.245 139.748 93.504 364.999 93.504 504.747 0zM769.556 220.137c0.102-0.545 0.647-0.838 1.122-0.67 59.434 20.987 103.312-55.859 55.771-96.6-0.414-0.354-0.414-1.005 0-1.359 47.542-40.741 3.663-117.588-55.771-96.6-0.475 0.168-1.019-0.126-1.122-0.67-11.515-61.789-99.989-61.789-111.509 0-0.102 0.545-0.647 0.838-1.122 0.67-59.434-20.987-103.312 55.859-55.771 96.6 0.414 0.354 0.414 1.005 0 1.359-47.542 40.741-3.663 117.588 55.771 96.6 0.475-0.168 1.019 0.126 1.122 0.67 11.52 61.789 99.994 61.789 111.509 0zM694.656 213.313c-4.287-22.989-28.072-36.748-50.129-28.956-20.298 7.168-35.57-19.135-19.139-33.215 17.757-15.216 17.757-42.696 0-57.912-16.431-14.080-1.159-40.383 19.139-33.215 22.058 7.792 45.843-5.967 50.129-28.956 3.956-21.239 34.337-21.239 38.293 0 4.287 22.989 28.072 36.748 50.129 28.956 20.298-7.168 35.57 19.135 19.139 33.215-17.752 15.216-17.752 42.696 0 57.912 16.431 14.080 1.159 40.383-19.139 33.215-22.058-7.792-45.843 5.967-50.129 28.956-3.956 21.234-34.337 21.234-38.293 0zM713.8 173.386c28.276 0 51.2-22.924 51.2-51.2s-22.924-51.2-51.2-51.2c-28.276 0-51.2 22.924-51.2 51.2s22.924 51.2 51.2 51.2zM713.8 145.459c-12.851 0-23.273-10.422-23.273-23.273s10.422-23.273 23.273-23.273c12.856 0 23.273 10.422 23.273 23.273s-10.417 23.273-23.273 23.273zM527.199 948.364c133.316 0 241.571-108.255 241.571-241.571 0-130.191-103.018-236.716-237.132-240.932-0.958 0.096-2.071 0.153-3.53 0.163l-9.529-0.316c-129.777 4.362-232.49 110.739-232.49 240.944-0.54 133.32 107.685 241.713 241.11 241.713zM527.199 878.545c-94.793 0-171.675-77.001-171.291-171.753 0-92.722 72.887-168.21 160.684-171.431 7.277 0.662 15.079 0.662 17.343 0.123 91.846 3.1 165.018 78.763 165.018 171.307 0 94.757-76.996 171.753-171.753 171.753z" />
<glyph unicode="&#xe93c;" glyph-name="monitor" d="M302.545-52.364c-19.28 0-34.909 15.629-34.909 34.909s15.629 34.909 34.909 34.909h174.545v153.181l-235.392-0.004c-171.512 1.882-227.626 57.889-229.984 229.454l-0.070 0.608-0.008 0.762 0.047 0.745-0.047 9.495v295.098c0 184.516 57.055 241.571 241.571 241.571h517.12c184.928 0 242.036-57.001 242.036-241.571v-294.633c0-3.256-0.018-6.472-0.053-9.648 0.047-0.303 0.053-0.679 0.053-1.057l-0.085-1.388c-2.498-175.197-60.883-229.481-241.486-229.481l-223.884 0.004v-153.135h174.545c19.28 0 34.909-15.629 34.909-34.909s-15.629-34.909-34.909-34.909h-418.909zM941.394 366.493l-858.804-0.009c6.27-106.261 41.222-126.442 170.617-126.085h517.585c129.41 0 164.302 20.025 170.601 126.094zM780.347 878.502h-537.129c-133.808-1.192-160.496-27.801-161.718-161.482l-0.045-280.657h861.091l-0.043 280.42c-1.104 123.838-23.998 155.917-133.65 160.984l-9.613 0.37-18.893 0.365z" />
<glyph unicode="&#xe93d;" glyph-name="bpm" d="M651.636 948.364c252.007 0 360.727-108.72 360.727-360.727l0.043-227.751c0.278-1.775 0.422-3.593 0.422-5.446 0-1.836-0.142-3.639-0.415-5.399l-0.051-40.677c0-252.007-108.72-360.727-360.727-360.727h-279.273c-252.007 0-360.727 108.72-360.727 360.727v279.273c0 252.007 108.72 360.727 360.727 360.727zM639.023 457.402l-97.403-247.186c-22.924-57.309-79.875-59.432-105.361-6.264l-2.797 6.38-53.015 133.934c-7.734 19.335-34 37.169-54.511 37.169l-244.434-0.833 0.043-84.638c2.939-199.892 78.382-275.417 278.17-278.416l12.649-0.093h279.273c213.448 0 290.909 77.462 290.909 290.909v11.171l-153.6-0.005c-43.775 0-92.866 29.608-113.257 68.415l-36.666 69.457zM651.636 878.545l-291.672-0.090c-204.056-3-278.51-81.557-278.51-290.819v-137.169l244.364 0.787c49.213 0 101.129-35.249 119.499-81.174l42.2-106.679 95.788 242.974c21.162 53.868 78.744 56.921 105.719 5.86l48.439-91.755c8.347-15.886 33.625-31.132 51.482-31.132l153.6 0.005v198.284c0 209.262-74.454 287.819-278.51 290.819l-12.399 0.090z" />
<glyph unicode="&#xe93e;" glyph-name="wellness" d="M512 948.364c276.342 0 500.364-224.021 500.364-500.364 0-276.341-224.023-500.364-500.364-500.364-276.343 0-500.364 224.022-500.364 500.364s224.020 500.364 500.364 500.364zM512 878.545c-237.784 0-430.545-192.762-430.545-430.545s192.762-430.545 430.545-430.545c237.781 0 430.545 192.764 430.545 430.545 0 237.783-192.763 430.545-430.545 430.545zM623.69 674.204c96.582 0 174.545-78.501 174.545-175.475 0-161.988-128.057-293.033-259.855-337.525-15.544-5.181-37.72-5.181-53.454 0.064-131.382 44.636-259.199 175.589-259.199 337.461 0 96.973 77.963 175.475 174.545 175.475 38.313 0 74.502-12.441 104.026-34.542l7.702-6.086 7.489 5.906c26.869 20.1 59.412 32.35 93.826 34.411zM623.69 604.386c-33.229 0-64.286-16.002-83.644-42.171-13.935-18.838-42.105-18.87-56.083-0.064-19.724 26.538-50.276 42.235-83.691 42.235-57.915 0-104.727-47.136-104.727-105.656 0-126.902 105.842-235.341 211.65-271.29 1.213-0.404 7.895-0.404 8.981-0.042 106.225 35.859 212.242 144.351 212.242 271.332 0 58.521-46.813 105.656-104.727 105.656z" />
<glyph unicode="&#xe93f;" glyph-name="age" d="M918.268 779.324c59.413 69.93 7.68 181.471-84.945 180.672-92.612 0.802-144.358-110.76-84.937-180.672-62.618-31.292-105.724-96.034-105.724-170.665v-54.12c-13.538 12.762-28.919 23.588-45.726 31.986 59.413 69.929 7.68 181.471-84.941 180.667-92.615 0.806-144.363-110.756-84.941-180.667-62.616-31.292-105.724-96.033-105.724-170.666v-54.118c-13.538 12.762-28.92 23.586-45.726 31.983 59.414 69.931 7.682 181.473-84.942 180.669-92.614 0.806-144.361-110.755-84.938-180.669-62.618-31.292-105.725-96.030-105.725-170.662v-32.132c0-41.498 26.948-76.817 64.266-89.374v-135.561c0-16.567 13.432-29.999 30-29.999h192.799c16.568 0 30 13.431 30 29.999v135.561c40.448 13.201 67.424 53.926 64.265 97.963 1.408-0.55 2.826-1.079 4.266-1.566v-231.957c0-16.567 13.432-29.999 30-29.999h192.8c16.567 0 29.999 13.431 29.999 29.999v231.962c40.435 13.197 67.413 53.901 64.265 97.924 1.408-0.555 2.829-1.084 4.267-1.566v-328.32c0-16.567 13.431-29.999 29.999-29.999h192.802c16.567 0 29.999 13.431 29.999 29.999v328.32c37.316 12.557 64.265 47.876 64.265 89.374v224.97c0 74.632-43.106 139.374-105.724 170.665v0zM190.663 514.394c27.754 0 50.334-22.579 50.334-50.334-2.53-66.684-98.146-66.662-100.666 0 0 27.755 22.578 50.334 50.332 50.334zM321.331 190.929c0-18.893-15.372-34.266-34.266-34.266-16.568 0-30-13.431-30-29.999v-130.667h-132.8v130.667c0 16.567-13.432 29.999-30 29.999-18.894 0-34.266 15.373-34.266 34.266v32.132c0 72.047 58.618 130.662 130.666 130.662s130.665-58.615 130.665-130.662v-32.132zM511.996 707.192c27.755 0 50.334-22.58 50.334-50.334-2.53-66.682-98.146-66.664-100.663 0-0.004 27.754 22.575 50.334 50.33 50.334v0zM642.662 287.33c0-18.897-15.373-34.27-34.266-34.27-16.567 0-30.003-13.431-30.003-29.999v-227.063h-132.796v227.063c0 16.567-13.431 29.999-30.001 29.999-18.894 0-34.266 15.373-34.266 34.27v128.533c6.538 173.053 254.778 173.107 261.332-0.004 0 0 0-128.529 0-128.529zM833.327 899.991c27.755 0 50.334-22.58 50.334-50.333-2.53-66.682-98.146-66.664-100.668 0 0 27.754 22.579 50.333 50.334 50.333v0zM963.994 383.689c0-18.893-15.373-34.266-34.266-34.266-16.567 0-29.999-13.431-29.999-29.999v-323.43h-132.8v323.43c0 16.567-13.431 29.999-29.999 29.999-18.897 0-34.266 15.373-34.266 34.266v224.97c6.519 173.021 254.763 173.139 261.333-0.002-0.004 0.002-0.004-224.968-0.004-224.968v0z" />
<glyph unicode="&#xe940;" glyph-name="cursor-pointer" d="M401.183 934.4c55.559 0 102.029-43.683 105.484-99.288l7.74-125.173c31.352-0.004 60.962-10.154 84.821-28.146l6.315-5.134 3.644 1.624c8.388 3.339 17.277 5.499 26.428 6.37l9.229 0.438c31.204 0 60.814-10.15 84.673-28.142l6.33-5.122 3.623 1.611c8.389 3.339 17.28 5.5 26.432 6.372l9.23 0.438c75.531 0 137.467-59.035 138.977-134.004v-206.582c0-37.12-14.245-88.459-33.874-121.583-0.647-1.032-1.392-2.235-2.22-3.583l-18.171-30.585c-5.834-10.112-11.396-20.055-16.581-29.664l-10.198-19.456c-13.451-26.516-22.283-49.159-22.283-52.327v-100.864h-134.042l-19.588 39.168-19.527-39.168h-287.643v100.864c0-3.2-0.765-3.204-1.81-2.080l-7.421 9.947c-5.219 6.685-11.635 14.196-18.79 21.895-5.938 6.389-12.577 13.188-19.873 20.359-12.597 12.382-26.595 25.33-41.379 38.328l-5.5 4.81-14.010 11.942c-27.25 23.669-57.63 66.997-70.667 100.727l-62.836 162.576c-9.202 23.809-6.102 50.38 6.962 71.382l1.055 1.509-4.799 9.189 22.722 11.709c2.869 1.479 5.802 2.872 5.186 2.242 2.138 1.382 4.341 2.658 6.603 3.821l22.771 11.707 2.249-4.363 5.801 1.326c41.35 8.048 84.697-0.16 120.213-21.798l2.293-1.492 0.030 315.811c0 54.056 41.667 98.208 94.744 102.11zM401.183 883.2c-28.386 0-51.201-22.83-51.201-51.19v-457.504l-46.703 68.003c-29.304 42.669-87.939 60.23-136.474 41.133l-1.89-0.672-1.666-1.543c-7.522-6.754-10.992-17.384-9.161-27.189l1.363-4.812 62.836-162.575c10.032-25.954 35.548-62.346 56.041-80.154l20.193-17.339c15.461-13.593 30.149-27.18 43.456-40.259l7.605-7.574 13.881-14.443c25.566-27.511 41.719-49.925 41.719-64.618l-0.030-49.664h204.8l51.231 102.402 51.169-102.402h51.2l0.031 49.664c0 13.065 8.377 35.847 22.794 65.392l5.026 10.095 10.803 20.612c8.124 15.056 17.093 30.827 26.559 46.766l11.75 19.388c14.646 24.729 26.399 67.065 26.399 94.945v206.064c-0.935 46.263-39.814 83.321-87.783 83.321-10.204 0-19.831-3.355-27.547-9.387l-19.338-15.12-15.918 18.686c-16.392 19.242-40.938 30.665-67.486 30.665-10.203 0-19.827-3.354-27.551-9.391l-19.337-15.113-15.915 18.682c-16.392 19.242-40.938 30.665-67.486 30.665-5.295 0-10.443-0.901-15.276-2.633l-32.078-11.5-11.636 187.335c-1.778 28.615-25.871 51.263-54.383 51.263zM742.4 499.2l-0.017-49.818 52.295-43.57-52.295 0.050v-133.53l52.295-0.025-52.295-43.546 0.017-57.459-25.6 29.786-25.6-29.786-0.017 55.565-27.955 21.248-23.245-19.354 0.017-57.459-25.6 29.786-25.6-29.786-0.017 55.565-27.955 21.248-23.245-19.354 0.017-57.459-25.6 29.786-25.6-29.786-0.017 55.565-59.75 45.441 59.75 0.025v133.53l-59.75-0.050 59.75 45.464 0.017 47.923 25.6-27.105 25.6 27.105-0.017-49.818 23.245-19.354 27.955 21.248 0.017 47.923 25.6-27.105 25.6 27.105-0.017-49.818 23.245-19.354 27.955 21.248 0.017 47.923 25.6-27.105 25.6 27.105zM691.183 405.862h-51.2v-133.53h51.2v133.53zM588.783 405.862h-51.2v-133.53h51.2v133.53z" />
<glyph unicode="&#xe941;" glyph-name="link-broken" d="M251.538 465.064c13.33-13.329 13.33-34.94 0-48.269l-136.728-136.73c-0.008-0.009 0.007 0.009 0 0-29.794-29.926-46.543-70.46-46.543-112.691 0-42.214 16.716-82.714 46.491-112.636 29.925-29.781 70.425-46.498 112.644-46.498 42.23 0 82.74 16.725 112.667 46.519 0.008 0.009-0.008-0.009 0 0l81.163 81.161c13.331 13.333 34.942 13.333 48.271 0 13.329-13.329 13.329-34.94 0-48.269l-81.237-81.237c-42.724-42.551-100.566-66.441-160.864-66.441s-118.139 23.889-160.864 66.441l24.084 24.179-24.183-24.081c-42.55 42.722-66.439 100.565-66.439 160.862 0 60.301 23.89 118.14 66.439 160.866l136.826 136.823c13.33 13.333 34.942 13.333 48.272 0zM564.833 653.763c0 18.851 15.283 34.133 34.133 34.133h193.097c60.267 0 118.063-23.94 160.678-66.554 42.611-42.614 66.551-100.41 66.551-160.677s-23.94-118.063-66.551-160.674c-42.615-42.615-100.412-66.556-160.678-66.556h-136.043c-18.854 0-34.133 15.283-34.133 34.133s15.279 34.133 34.133 34.133h136.043c42.159 0 82.594 16.747 112.405 46.558s46.558 70.246 46.558 112.405c0 42.159-16.747 82.594-46.558 112.405s-70.246 46.56-112.405 46.56h-193.097c-18.85 0-34.133 15.282-34.133 34.133zM517.993 958.973c18.287-4.572 29.406-23.104 24.832-41.393l-36.57-146.286c-4.574-18.288-23.104-29.408-41.391-24.835-18.291 4.572-29.41 23.104-24.836 41.393l36.57 146.286c4.574 18.288 23.104 29.408 41.395 24.836zM3.778 721.687c8.431 16.861 28.934 23.695 45.795 15.265l146.286-73.143c16.861-8.431 23.695-28.934 15.265-45.795s-28.934-23.695-45.795-15.265l-146.286 73.143c-16.861 8.431-23.695 28.934-15.265 45.795zM201.876 956.389c16.861 8.431 37.364 1.596 45.795-15.265l73.143-146.286c8.431-16.861 1.596-37.364-15.265-45.795s-37.364-1.596-45.795 15.265l-73.143 146.286c-8.431 16.861-1.596 37.364 15.265 45.795z" />
<glyph unicode="&#xe942;" glyph-name="upload" d="M363.3-59.122c-18.851 0-34.133 15.283-34.133 34.133 0 18.854 15.282 34.133 34.133 34.133l112.092 0.029v114.603l-404.687-0.041c-18.752 0-36.736 7.45-49.996 20.71s-20.709 31.245-20.709 49.997v511.999c0 18.752 7.449 36.736 20.709 49.996s31.244 20.709 49.996 20.709h73.143c18.851 0 34.133-15.282 34.133-34.133s-15.282-34.133-34.133-34.133h-73.143c-0.646 0-1.267-0.257-1.724-0.714s-0.714-1.077-0.714-1.724v-511.999c0-0.649 0.257-1.267 0.714-1.724s1.077-0.717 1.724-0.717h877.714c0.649 0 1.267 0.26 1.724 0.717s0.717 1.075 0.717 1.724v511.999c0 0.647-0.26 1.267-0.717 1.724s-1.075 0.714-1.724 0.714h-73.143c-18.85 0-34.133 15.282-34.133 34.133s15.283 34.133 34.133 34.133h73.143c18.752 0 36.736-7.449 49.997-20.709s20.71-31.244 20.71-49.996v-511.999c0-18.752-7.45-36.736-20.71-49.997s-31.245-20.71-49.997-20.71l-404.76 0.041v-114.603l112.212-0.029c18.854 0 34.133-15.279 34.133-34.133 0-18.85-15.279-34.133-34.133-34.133h-292.57zM510.266 959.993l1.456-0.060 1.174-0.061 0.128-0.043 2.143-0.289c0.702-0.112 1.415-0.253 2.124-0.416 0.955-0.227 1.899-0.489 2.826-0.791 0.484-0.146 0.991-0.323 1.494-0.512 1.007-0.394 1.966-0.809 2.902-1.266 1.223-0.575 2.425-1.251 3.59-2.005 0.347-0.252 0.695-0.486 1.038-0.727 0.742-0.492 1.458-1.037 2.156-1.614 0.537-0.476 1.048-0.926 1.546-1.39 0.283-0.23 0.583-0.519 0.879-0.815l146.287-146.286c13.329-13.33 13.329-34.942 0-48.272s-34.94-13.33-48.273 0l-88.075 88.075 0.024-356.509c0-18.854-15.283-34.133-34.133-34.133s-34.133 15.279-34.133 34.133l-0.024 356.423-87.956-87.99c-13.33-13.33-34.942-13.33-48.272 0s-13.33 34.942 0 48.272l146.724 146.726 2.261 2.005 1.417 1.070c2.491 1.827 5.245 3.305 8.189 4.389 0.194 0.057 0.363 0.118 0.533 0.177 1.169 0.424 2.396 0.778 3.65 1.064l1.811 0.352c0.73 0.135 1.5 0.241 2.278 0.32 0.943 0.092 1.867 0.15 2.792 0.171l1.446 0.002z" />
<glyph unicode="&#xe943;" glyph-name="download" d="M170.735 743.151c21.282 7.647 42.598-9.134 42.598-31.748 0-15.52-10.359-28.933-24.855-34.477-20.341-7.78-36.192-16.665-48.788-26.422-47.071-36.457-71.423-103.593-71.423-266.764 0-163.17 24.352-230.306 71.423-266.765 25.399-19.669 64.024-35.802 126.015-46.473 61.972-10.667 142.066-15.049 246.295-15.049 104.23 0 184.324 4.382 246.298 15.049 61.99 10.671 100.612 26.803 126.012 46.473 47.070 36.459 71.424 103.595 71.424 266.765 0 163.171-24.354 230.307-71.424 266.764-12.595 9.757-28.446 18.641-48.789 26.422-14.494 5.544-24.853 18.957-24.853 34.477l0.278 4.439c2.564 20.303 22.457 34.445 42.321 27.308 134.345-48.269 170.735-152.18 170.735-359.411 0-326.558-90.368-396.553-512-396.553s-512 69.995-512 396.553c0 207.232 36.391 311.142 170.735 359.411zM512.034 917.333c18.85 0 34.133-15.282 34.133-34.133v-514.927l155.063 155.063c13.329 13.33 34.94 13.33 48.273 0 13.329-13.33 13.329-34.943 0-48.272l-213.333-213.333c-13.333-13.329-34.944-13.329-48.273 0l-213.333 213.333c-13.33 13.329-13.33 34.942 0 48.272s34.942 13.33 48.272 0l155.065-155.063v514.927c0 18.851 15.283 34.133 34.133 34.133z" />
<glyph unicode="&#xe944;" glyph-name="exit" d="M34.133 740.555c18.851 0 34.133-15.282 34.133-34.133v-658.287c0-10.347 4.11-20.267 11.426-27.584 7.316-7.313 17.238-11.426 27.584-11.426h658.286c18.85 0 34.133-15.279 34.133-34.133 0-18.85-15.283-34.133-34.133-34.133h-658.286c-28.451 0-55.738 11.302-75.856 31.424-20.118 20.117-31.42 47.403-31.42 75.853v658.287c0 18.851 15.282 34.133 34.133 34.133zM911.806 960c59.247 0 107.277-48.029 107.277-107.276v-585.142c0-59.247-48.030-107.277-107.277-107.277h-585.142c-59.247 0-107.276 48.030-107.276 107.277v585.142c0 59.247 48.029 107.276 107.276 107.276h585.142zM911.806 891.733h-585.142c-21.544 0-39.009-17.465-39.009-39.009v-585.142c0-21.547 17.465-39.010 39.009-39.010h585.142c21.547 0 39.010 17.463 39.010 39.010v585.142c0 21.544-17.463 39.009-39.010 39.009zM765.562 740.555l1.423-0.030c0.557-0.023 1.114-0.061 1.669-0.111l-3.092 0.141c2.084 0 4.125-0.187 6.106-0.545 0.496-0.097 0.996-0.199 1.494-0.313 0.993-0.218 1.967-0.486 2.924-0.796 0.516-0.176 1.040-0.36 1.561-0.557 2.867-1.076 5.549-2.536 7.986-4.311 0.229-0.181 0.49-0.377 0.749-0.577 1.071-0.811 2.068-1.677 3.011-2.598l0.605-0.605c0.92-0.943 1.786-1.94 2.593-2.984l-2.918 3.289c1.287-1.287 2.449-2.651 3.487-4.077 3.549-4.844 5.836-10.67 6.399-16.992 0.022-0.54 0.057-1.080 0.080-1.621 0.046-0.472 0.056-0.958 0.056-1.446v-219.43c0-18.85-15.283-34.133-34.133-34.133s-34.133 15.283-34.133 34.133l-0.037 137.094-234.289-234.37c-13.329-13.329-34.944-13.329-48.273 0s-13.329 34.94 0 48.269l234.263 234.315-136.962-0.011c-18.85 0-34.133 15.282-34.133 34.133s15.283 34.133 34.133 34.133h219.43z" />
<glyph unicode="&#xe945;" glyph-name="graph" d="M1024 448c0-421.632-90.368-512-512-512-416.895 0-509.927 88.349-511.965 497.913l-0.035 14.087c0 416.895 88.349 509.927 497.913 511.965l14.087 0.035c421.632 0 512-90.368 512-512zM512 891.733c-103.85 0-182.643-5.654-243.066-19.082-59.648-13.256-97.128-33.164-122.775-58.811s-45.555-63.127-58.811-122.775c-13.428-60.423-19.082-139.216-19.082-243.066s5.654-182.643 19.082-243.068c13.256-59.644 33.164-97.126 58.811-122.773s63.127-45.555 122.775-58.812c60.423-13.427 139.216-19.081 243.066-19.081s182.643 5.653 243.063 19.081c59.648 13.257 97.131 33.165 122.778 58.812s45.555 63.13 58.812 122.773c13.427 60.425 19.081 139.217 19.081 243.068s-5.653 182.643-19.081 243.066c-13.257 59.648-33.165 97.128-58.812 122.775s-63.13 45.555-122.778 58.811c-60.42 13.428-139.213 19.082-243.063 19.082zM511.966 695.458c18.85 0 34.133-15.282 34.133-34.133v-426.667c0-18.85-15.283-34.133-34.133-34.133s-34.133 15.283-34.133 34.133v426.667c0 18.851 15.283 34.133 34.133 34.133zM725.299 524.791c18.85 0 34.133-15.283 34.133-34.133v-256c0-18.85-15.283-34.133-34.133-34.133s-34.133 15.283-34.133 34.133v256c0 18.85 15.283 34.133 34.133 34.133zM298.633 439.458c18.851 0 34.133-15.283 34.133-34.133v-170.667c0-18.85-15.282-34.133-34.133-34.133s-34.133 15.283-34.133 34.133v170.667c0 18.85 15.282 34.133 34.133 34.133z" />
<glyph unicode="&#xe946;" glyph-name="trophies" d="M728.992 960c18.85 0 34.133-15.282 34.133-34.133l-0.032-38.997 221.873-0.015c18.85 0 34.133-15.282 34.133-34.133v-73.143c0-67.249-26.714-131.743-74.266-179.295s-112.047-74.266-179.298-74.266l-4.716 0.013c-7.421-54.649-32.528-105.738-71.964-145.174s-90.525-64.54-145.173-71.96l-0.024-299.723 148.773-0.029c18.85 0 34.133-15.279 34.133-34.133 0-18.85-15.283-34.133-34.133-34.133h-365.715c-18.851 0-34.133 15.283-34.133 34.133 0 18.854 15.282 34.133 34.133 34.133l148.675 0.029 0.011 299.728c-54.634 7.427-105.709 32.528-145.136 71.955-39.436 39.436-64.541 90.525-71.961 145.174l-4.743-0.013c-67.249 0-131.744 26.713-179.296 74.266s-74.266 112.047-74.266 179.295v73.143c0 18.851 15.282 34.133 34.133 34.133l221.824 0.015 0.043 38.997c0 18.851 15.282 34.133 34.133 34.133h438.859zM694.859 891.733h-370.592v-331.581c0-49.145 19.522-96.275 54.272-131.023 34.75-34.752 81.88-54.272 131.024-54.272s96.273 19.52 131.025 54.272c34.748 34.748 54.272 81.877 54.272 131.023v331.581zM256 818.588h-187.733v-39.010c0-49.143 19.522-96.274 54.272-131.023s81.88-54.272 131.024-54.272h2.438v224.305zM950.833 818.588h-187.733v-224.305h2.436c49.143 0 96.277 19.522 131.025 54.272s54.272 81.88 54.272 131.023v39.010z" />
<glyph unicode="&#xe947;" glyph-name="hamburger" d="M0 760.785c0 32.904 26.198 59.578 58.515 59.578h877.712c32.317 0 58.517-26.674 58.517-59.578s-26.2-59.578-58.517-59.578h-877.712c-32.317 0-58.515 26.674-58.515 59.578zM0 462.895c0 32.903 26.198 59.578 58.515 59.578h877.712c32.317 0 58.517-26.675 58.517-59.578s-26.2-59.578-58.517-59.578h-877.712c-32.317 0-58.515 26.675-58.515 59.578zM0 165.005c0 32.903 26.198 59.578 58.515 59.578h877.712c32.317 0 58.517-26.675 58.517-59.578s-26.2-59.578-58.517-59.578h-877.712c-32.317 0-58.515 26.675-58.515 59.578z" />
<glyph unicode="&#xe948;" glyph-name="coin" d="M655.857 739.937c94.524 0 181.739-16.96 246.605-45.788 32.388-14.395 60.71-32.42 81.399-54.159 18.96-19.923 32.598-44.257 34.921-72.036l0.351-8.442v-438.856c0-31.177-14.31-58.372-35.072-80.282-20.595-21.734-48.819-39.778-81.152-54.204-64.751-28.89-151.987-45.935-247.053-45.935-95.061 0-182.298 17.045-247.048 45.935-32.335 14.426-60.556 32.469-81.153 54.204-20.762 21.909-35.073 49.105-35.073 80.282v438.856c0 31.31 14.417 58.563 35.273 80.478 20.689 21.74 49.013 39.764 81.401 54.159 64.861 28.828 152.081 45.788 246.6 45.788zM360.745 232.045l0.104-111.388c0-9.054 3.976-20.258 16.356-33.323 12.546-13.235 32.324-26.735 59.418-38.822 54.106-24.137 131.439-40.009 219.234-40.009 87.799 0 165.133 15.872 219.238 40.009 27.093 12.087 46.869 25.587 59.418 38.822 12.382 13.065 16.354 24.269 16.354 33.323l0.033 111.338c-14.448-9.846-30.627-18.637-47.99-26.384-64.751-28.89-151.987-45.935-247.053-45.935-95.061 0-182.298 17.045-247.048 45.935-17.394 7.76-33.597 16.568-48.064 26.434zM666.46 881.129c16.043-9.9 21.022-30.931 11.119-46.973-9.899-16.043-30.929-21.022-46.972-11.121-79.578 49.109-172.207 72.86-265.594 68.101-0.579-0.029-1.158-0.044-1.737-0.044-87.413 0-164.762-15.865-218.979-40.017-27.152-12.096-47.007-25.603-59.612-38.857-12.445-13.087-16.419-24.279-16.419-33.278 0-9.558 4.556-21.77 19.33-36.189 14.88-14.523 38.090-29.094 69.282-41.977 17.423-7.197 25.714-27.155 18.517-44.579s-27.155-25.714-44.579-18.517c-23.038 9.516-44.262 20.578-62.622 33.211l0.072-111.375c0-9.558 4.556-21.77 19.33-36.189 14.88-14.524 38.090-29.094 69.282-41.975 17.423-7.198 25.714-27.157 18.517-44.582-7.197-17.421-27.155-25.711-44.579-18.517-23.038 9.516-44.262 20.579-62.622 33.211l0.072-111.389c0-9.557 4.556-21.769 19.33-36.186 14.88-14.524 38.090-29.094 69.282-41.98 17.423-7.194 25.714-27.153 18.517-44.578s-27.155-25.715-44.579-18.517c-36.1 14.912-67.747 33.621-90.901 56.218-23.26 22.703-39.916 51.447-39.916 85.043v438.859c0 31.24 14.404 58.447 35.216 80.332 20.653 21.717 48.935 39.753 81.302 54.172 64.625 28.788 151.515 45.821 245.894 45.925 106.92 5.272 212.938-22.001 304.048-78.229zM950.904 451.458c-14.58-9.929-30.915-18.781-48.442-26.571-64.866-28.83-152.081-45.786-246.605-45.786-94.519 0-181.739 16.956-246.6 45.786-17.538 7.795-33.884 16.654-48.472 26.59l0.051-110.437c0.009-0.314 0.013-0.629 0.013-0.944 0-9.050 3.976-20.258 16.356-33.318 12.546-13.239 32.324-26.735 59.418-38.822 54.106-24.141 131.439-40.013 219.234-40.013 87.799 0 165.133 15.872 219.238 40.013 27.093 12.087 46.869 25.583 59.418 38.822 12.382 13.060 16.354 24.269 16.354 33.318l0.002 0.427 0.035 110.935zM655.857 671.671c-87.258 0-164.612-15.787-218.876-39.904-27.173-12.078-47.051-25.575-59.673-38.838-12.455-13.088-16.459-24.319-16.459-33.41s4.003-20.323 16.459-33.409c12.622-13.265 32.5-26.761 59.673-38.839 54.263-24.115 131.618-39.902 218.876-39.902s164.617 15.787 218.88 39.902c27.174 12.079 47.053 25.574 59.674 38.839 12.454 13.086 16.457 24.317 16.457 33.409s-4.002 20.323-16.457 33.41c-12.621 13.263-32.499 26.761-59.674 38.838-54.263 24.117-131.622 39.904-218.88 39.904z" />
<glyph unicode="&#xe949;" glyph-name="add" d="M496.83 960c23.040 0 41.719-18.678 41.719-41.718v-413.393h413.393c23.040 0 41.719-18.678 41.719-41.718s-18.679-41.719-41.719-41.719h-413.393v-413.393c0-23.040-18.679-41.719-41.719-41.719s-41.719 18.679-41.719 41.719v413.393h-413.393c-23.040 0-41.718 18.679-41.718 41.719s18.678 41.718 41.718 41.718h413.393v413.393c0 23.040 18.679 41.718 41.719 41.718z" />
<glyph unicode="&#xe94a;" glyph-name="dashboard-graph" d="M512 960c121.086 0 214.855-7.453 287.006-28.066l12.471-3.763 6.44 5.263c21.608 16.658 48.688 26.566 78.083 26.566 70.694 0 128-57.308 128-128 0-29.376-9.895-56.44-26.535-78.042l-5.764-6.95 0.457 0.506c23.488-73.723 31.842-171.303 31.842-299.514 0-421.632-90.368-512-512-512-416.895 0-509.927 88.349-511.965 497.913l-0.035 14.087c0 421.632 90.368 512 512 512zM512 874.667c-103.46 0-180.776-5.655-239.363-18.676-57.619-12.805-91.763-31.572-114.409-54.219s-41.414-56.791-54.219-114.409c-13.021-58.587-18.676-135.903-18.676-239.363 0-103.462 5.655-180.774 18.676-239.364 12.805-57.617 31.572-91.763 54.219-114.406 22.647-22.647 56.791-41.417 114.409-54.221 58.587-13.022 135.903-18.675 239.363-18.675 103.462 0 180.774 5.653 239.364 18.675 57.617 12.804 91.763 31.573 114.406 54.221 22.647 22.643 41.417 56.789 54.221 114.406 13.022 58.59 18.675 135.902 18.675 239.364 0 103.46-5.653 180.776-18.675 239.363-1.404 6.318-2.88 12.354-4.425 18.123l1.12 0.177c-6.734-1.094-13.644-1.663-20.687-1.663-70.694 0-128 57.308-128 128 0 7.043 0.569 13.952 1.663 20.686l-0.178-1.119c-5.769 1.545-11.802 3.020-18.121 4.425-58.59 13.021-135.902 18.676-239.364 18.676zM896 891.733c-32.99 0-59.733-26.743-59.733-59.733s26.743-59.733 59.733-59.733c32.99 0 59.733 26.743 59.733 59.733s-26.743 59.733-59.733 59.733zM790.306 524.482c9.4-3.733 9.392-3.753 9.387-3.761l-0.452-1.131c-0.277-0.67-0.666-1.617-1.165-2.807-1.003-2.381-2.458-5.756-4.339-9.92-3.755-8.311-9.246-19.857-16.299-32.998-13.871-25.869-34.718-59.716-61.321-87.023-25.963-26.645-62.882-52.548-108.224-49.57-46.182 3.029-87.616 34.987-124.587 92.203l-3.179 4.745-2.082 3.144c-27.709 40.209-49.799 51.081-63.908 52.984l-2.551 0.257c-15.582 1.024-34.048-7.74-54.855-29.094-20.165-20.693-37.474-48.179-50.061-71.646-6.181-11.524-10.995-21.645-14.241-28.83-1.62-3.588-2.839-6.421-3.635-8.311-0.398-0.943-0.689-1.651-0.87-2.095l-0.139-0.333-2.065-4.38c-8.23-14.659-26.234-21.347-42.303-14.991l-4.192 1.994c-14.661 8.233-21.348 26.235-14.991 42.302l3.236-1.251c-3.221 1.288-3.216 1.3-3.214 1.306l0.455 1.126c0.274 0.674 0.664 1.617 1.165 2.807 1.003 2.385 2.456 5.756 4.337 9.92 3.754 8.311 9.248 19.861 16.298 33.003 13.875 25.865 34.72 59.716 61.325 87.019 25.963 26.647 62.882 52.55 108.222 49.574 46.182-3.032 87.616-34.99 124.587-92.202l3.055-4.57 2.206-3.319c27.71-40.213 49.8-51.085 63.907-52.988l2.551-0.257c15.582-1.024 34.048 7.74 54.857 29.094 20.164 20.698 37.474 48.179 50.061 71.646 6.178 11.524 10.995 21.645 14.238 28.833 1.621 3.586 2.842 6.421 3.635 8.311 0.397 0.944 0.691 1.65 0.87 2.095l0.188 0.466 2.025 4.259c8.235 14.651 26.23 21.332 42.293 14.977 17.532-6.935 26.121-26.767 19.183-44.297z" />
<glyph unicode="&#xe94b;" glyph-name="settings-gear" d="M332.786 809.436c35.298 189.374 306.45 189.374 341.748 0 4.204-22.555 27.483-36.004 49.040-28.392 181.651 64.143 317.040-170.876 170.911-296.094-17.413-14.921-17.413-41.913-0.001-56.834 146.13-125.216 10.74-360.239-170.91-296.095-21.558 7.612-44.836-5.837-49.040-28.392-35.298-189.372-306.449-189.372-341.748 0-4.204 22.555-27.482 36.004-49.038 28.392-181.653-64.144-317.043 170.879-170.913 296.095 17.413 14.921 17.413 41.912 0 56.834-146.13 125.218-10.74 360.237 170.913 296.094 21.557-7.612 44.834 5.837 49.038 28.392zM605.784 804.426c-27.049 107.475-184.923 104.976-205.888-7.498l-1.477-6.73c-15.106-59.657-78.498-94.324-137.402-73.525l-6.212 2.012c-107.125 31.57-184.649-107.262-97.551-181.896l5.669-5.219c43.462-42.988 41.572-114.812-5.669-155.292l-4.843-4.375c-80.816-77.015 0.393-213.721 108.607-175.51l6.561 2.084c59.164 16.732 120.862-20.873 132.318-82.339l1.638-7.498c27.049-107.474 184.924-104.974 205.888 7.498l1.477 6.73c15.106 59.657 78.499 94.323 137.404 73.524l6.212-2.012c107.122-31.57 184.646 107.265 97.548 181.898l-5.669 5.219c-43.46 42.987-41.57 114.811 5.669 155.291l4.843 4.375c80.816 77.016-0.393 213.72-108.604 175.509l-6.561-2.084c-59.164-16.733-120.863 20.872-132.32 82.339zM503.659 627.2c94.257 0 170.667-76.41 170.667-170.667s-76.41-170.667-170.667-170.667c-94.257 0-170.667 76.41-170.667 170.667s76.41 170.667 170.667 170.667zM503.659 558.933c-56.554 0-102.4-45.846-102.4-102.4s45.846-102.4 102.4-102.4c56.554 0 102.4 45.846 102.4 102.4s-45.846 102.4-102.4 102.4z" />
</font>
</defs>
</svg>
